<svg width="72" height="72" viewBox="0 0 72 72" fill="none" xmlns="http://www.w3.org/2000/svg">
<path d="M32.3999 8.64C29.6268 8.64 27.3599 10.9069 27.3599 13.68V15.12H12.9599C10.5805 15.12 8.63989 17.0606 8.63989 19.44V54.72C8.63989 57.0994 10.5805 59.04 12.9599 59.04H59.0399C61.4193 59.04 63.3599 57.0994 63.3599 54.72V19.44C63.3599 17.0606 61.4193 15.12 59.0399 15.12H44.6399V13.68C44.6399 10.9069 42.373 8.64 39.5999 8.64H32.3999ZM32.3999 10.08H39.5999C41.5968 10.08 43.1999 11.6831 43.1999 13.68V15.12H28.7999V13.68C28.7999 11.6831 30.403 10.08 32.3999 10.08ZM12.9599 16.56H27.9561C28.0349 16.5712 28.1136 16.5712 28.1924 16.56H43.7961C43.8749 16.5712 43.9536 16.5712 44.0324 16.56H59.0399C60.6374 16.56 61.9199 17.8425 61.9199 19.44V30.24C61.9199 33.03 59.6699 35.28 56.8799 35.28H53.2799V32.76C53.2799 32.1694 52.7905 31.68 52.1999 31.68H48.5999C48.0093 31.68 47.5199 32.1694 47.5199 32.76V35.28H24.4799V32.76C24.4799 32.1694 23.9905 31.68 23.3999 31.68H19.7999C19.2093 31.68 18.7199 32.1694 18.7199 32.76V35.28H15.1199C12.3299 35.28 10.0799 33.03 10.0799 30.24V19.44C10.0799 17.8425 11.3624 16.56 12.9599 16.56ZM13.3199 19.44C13.1905 19.44 13.0668 19.5075 13.0049 19.62C12.9374 19.7325 12.9374 19.8675 13.0049 19.98C13.0668 20.0925 13.1905 20.16 13.3199 20.16H48.5999C48.7293 20.16 48.853 20.0925 48.9149 19.98C48.9824 19.8675 48.9824 19.7325 48.9149 19.62C48.853 19.5075 48.7293 19.44 48.5999 19.44H13.3199ZM51.4799 19.44C51.3505 19.44 51.2268 19.5075 51.1649 19.62C51.0974 19.7325 51.0974 19.8675 51.1649 19.98C51.2268 20.0925 51.3505 20.16 51.4799 20.16H55.0799C55.2093 20.16 55.333 20.0925 55.3949 19.98C55.4624 19.8675 55.4624 19.7325 55.3949 19.62C55.333 19.5075 55.2093 19.44 55.0799 19.44H51.4799ZM56.5199 19.44C56.3905 19.44 56.2668 19.5075 56.2049 19.62C56.1374 19.7325 56.1374 19.8675 56.2049 19.98C56.2668 20.0925 56.3905 20.16 56.5199 20.16H58.6799C58.8093 20.16 58.933 20.0925 58.9949 19.98C59.0624 19.8675 59.0624 19.7325 58.9949 19.62C58.933 19.5075 58.8093 19.44 58.6799 19.44H56.5199ZM19.7999 32.4H23.3999C23.6024 32.4 23.7599 32.5575 23.7599 32.76V39.24C23.7599 39.4425 23.6024 39.6 23.3999 39.6H19.7999C19.5974 39.6 19.4399 39.4425 19.4399 39.24V32.76C19.4399 32.5575 19.5974 32.4 19.7999 32.4ZM48.5999 32.4H52.1999C52.4024 32.4 52.5599 32.5575 52.5599 32.76V39.24C52.5599 39.4425 52.4024 39.6 52.1999 39.6H48.5999C48.3974 39.6 48.2399 39.4425 48.2399 39.24V32.76C48.2399 32.5575 48.3974 32.4 48.5999 32.4ZM10.0799 34.3013C11.2668 35.775 13.0893 36.72 15.1199 36.72H18.7199V39.24C18.7199 39.8306 19.2093 40.32 19.7999 40.32H23.3999C23.9905 40.32 24.4799 39.8306 24.4799 39.24V36.72H47.5199V39.24C47.5199 39.8306 48.0093 40.32 48.5999 40.32H52.1999C52.7905 40.32 53.2799 39.8306 53.2799 39.24V36.72H56.8799C58.9105 36.72 60.733 35.775 61.9199 34.3013V54.72C61.9199 56.3175 60.6374 57.6 59.0399 57.6H12.9599C11.3624 57.6 10.0799 56.3175 10.0799 54.72V34.3013ZM58.6743 38.8744C58.4774 38.88 58.3143 39.0431 58.3199 39.24V42.12C58.3199 42.2494 58.3874 42.3731 58.4999 42.435C58.6124 42.5025 58.7474 42.5025 58.8599 42.435C58.9724 42.3731 59.0399 42.2494 59.0399 42.12V39.24C59.0399 39.1444 59.0061 39.0488 58.933 38.9813C58.8655 38.9081 58.7699 38.8744 58.6743 38.8744ZM13.3143 39.5944C13.1174 39.6 12.9543 39.7631 12.9599 39.96V51.48C12.9599 53.2631 14.4168 54.72 16.1999 54.72H55.7999C57.583 54.72 59.0399 53.2631 59.0399 51.48V45.72C59.0399 45.5906 58.9724 45.4669 58.8599 45.405C58.7474 45.3375 58.6124 45.3375 58.4999 45.405C58.3874 45.4669 58.3199 45.5906 58.3199 45.72V51.48C58.3199 52.875 57.1949 54 55.7999 54H16.1999C14.8049 54 13.6799 52.875 13.6799 51.48V39.96C13.6799 39.8644 13.6461 39.7688 13.573 39.7013C13.5055 39.6281 13.4099 39.5944 13.3143 39.5944Z" fill="#068466"/>
</svg>
