<svg width="362" height="222" viewBox="0 0 362 222" fill="none" xmlns="http://www.w3.org/2000/svg">
<g clip-path="url(#clip0)">
<path d="M20.1111 6.72705L0 19.7157L20.1111 32.5134L40.2222 19.7157L20.1111 6.72705ZM60.3333 6.72705L40.2222 19.7157L60.3333 32.5134L80.4444 19.7157L60.3333 6.72705ZM0 45.502L20.1111 58.4907L40.2222 45.502L20.1111 32.5134L0 45.502ZM60.3333 32.5134L40.2222 45.502L60.3333 58.4907L80.4444 45.502L60.3333 32.5134ZM20.1111 62.6929L40.2222 75.6815L60.3333 62.6929L40.2222 49.8952L20.1111 62.6929Z" fill="#0069FB"/>
</g>
<g clip-path="url(#clip1)">
<path d="M154.188 75.6816L167.594 52.1362H221.224L207.816 75.6816H154.188Z" fill="#3777E3"/>
<path d="M194.41 52.1363H221.224L194.41 5.04541H167.594L194.41 52.1363Z" fill="#FFCF63"/>
<path d="M140.777 52.1363L154.186 75.6817L181 28.5909L167.592 5.04541L140.777 52.1363Z" fill="#11A861"/>
</g>
<g clip-path="url(#clip2)">
<path d="M354.143 0H289.411C285.072 0 281.555 3.52957 281.555 7.88352V72.8437C281.555 77.1976 285.072 80.7272 289.411 80.7272H354.143C358.482 80.7272 361.999 77.1976 361.999 72.8437V7.88352C361.999 3.52957 358.482 0 354.143 0Z" fill="#0091E6"/>
<path d="M347.769 10.4946H330.775C328.692 10.4946 327.004 12.1888 327.004 14.2787V42.0287C327.004 44.1186 328.692 45.8128 330.775 45.8128H347.769C349.851 45.8128 351.539 44.1186 351.539 42.0287V14.2787C351.539 12.1888 349.851 10.4946 347.769 10.4946Z" fill="white"/>
<path d="M312.776 10.4946H295.783C293.7 10.4946 292.012 12.1888 292.012 14.2787V62.2105C292.012 64.3004 293.7 65.9946 295.783 65.9946H312.776C314.859 65.9946 316.547 64.3004 316.547 62.2105V14.2787C316.547 12.1888 314.859 10.4946 312.776 10.4946Z" fill="white"/>
</g>
<g clip-path="url(#clip3)">
<path d="M73.152 141.273H7.29248C3.26491 141.273 0 144.549 0 148.591V214.682C0 218.724 3.26491 222 7.29248 222H73.152C77.1795 222 80.4444 218.724 80.4444 214.682V148.591C80.4444 144.549 77.1795 141.273 73.152 141.273Z" fill="#DC395F"/>
<path d="M26.8847 166.672C29.5588 166.672 31.799 164.569 31.799 161.812C31.799 159.057 29.5588 156.954 26.8847 156.954C24.2105 156.954 21.971 159.057 21.971 161.812C21.971 164.568 24.2105 166.672 26.8847 166.672ZM16.6952 192.694C16.4065 193.927 16.2616 195.258 16.2616 196.344C16.2616 200.624 18.5741 203.465 23.4884 203.465C27.564 203.465 30.8682 201.036 33.2473 197.114L31.7946 202.965H39.8877L44.5133 184.347C45.6697 179.633 47.9099 177.187 51.3068 177.187C53.9806 177.187 55.6426 178.855 55.6426 181.61C55.6426 182.408 55.5703 183.278 55.2812 184.221L52.8962 192.778C52.5348 194.011 52.3909 195.245 52.3909 196.404C52.3909 200.467 54.775 203.438 59.7616 203.438C64.0255 203.438 67.4217 200.684 69.3009 194.084L66.1214 192.852C64.5314 197.274 63.1582 198.073 62.0741 198.073C60.99 198.073 60.4118 197.349 60.4118 195.899C60.4118 195.246 60.5569 194.522 60.7731 193.65L63.0862 185.313C63.6641 183.355 63.8812 181.619 63.8812 180.024C63.8812 173.787 60.123 170.532 55.5703 170.532C51.3068 170.532 46.9703 174.392 44.8027 178.454L46.3921 171.163H34.0351L32.3005 177.585H38.0822L34.5219 191.888C31.7261 198.125 26.5905 198.227 25.946 198.082C24.8877 197.842 24.2108 197.439 24.2108 196.059C24.2108 195.263 24.3554 194.119 24.7167 192.74L30.1373 171.163H16.4065L14.6719 177.585H20.3806L16.6956 192.694" fill="white"/>
</g>
<g clip-path="url(#clip4)">
<path fill-rule="evenodd" clip-rule="evenodd" d="M170.213 141.273C165.775 141.276 162.183 144.89 162.187 149.344C162.183 153.798 165.778 157.412 170.216 157.415H178.246V149.347C178.249 144.894 174.654 141.28 170.213 141.273C170.216 141.273 170.216 141.273 170.213 141.273V141.273ZM170.213 162.8H148.807C144.369 162.803 140.774 166.418 140.777 170.871C140.771 175.325 144.366 178.939 148.804 178.946H170.213C174.651 178.942 178.246 175.328 178.243 170.875C178.246 166.418 174.651 162.803 170.213 162.8Z" fill="#36C5F0"/>
<path fill-rule="evenodd" clip-rule="evenodd" d="M221.063 170.871C221.066 166.418 217.471 162.803 213.033 162.8C208.595 162.803 205 166.418 205.004 170.871V178.946H213.033C217.471 178.942 221.066 175.328 221.063 170.871ZM199.654 170.871V149.344C199.657 144.894 196.065 141.28 191.627 141.273C187.189 141.276 183.594 144.89 183.598 149.344V170.871C183.591 175.325 187.186 178.939 191.624 178.946C196.062 178.942 199.657 175.328 199.654 170.871Z" fill="#2EB67D"/>
<path fill-rule="evenodd" clip-rule="evenodd" d="M191.623 222C196.061 221.997 199.656 218.383 199.653 213.929C199.656 209.476 196.061 205.861 191.623 205.858H183.594V213.929C183.59 218.379 187.185 221.994 191.623 222ZM191.623 200.47H213.033C217.471 200.466 221.066 196.852 221.062 192.399C221.069 187.945 217.474 184.331 213.036 184.324H191.627C187.189 184.328 183.594 187.942 183.597 192.395C183.594 196.852 187.185 200.466 191.623 200.47Z" fill="#ECB22E"/>
<path fill-rule="evenodd" clip-rule="evenodd" d="M140.777 192.398C140.774 196.852 144.369 200.466 148.807 200.469C153.245 200.466 156.84 196.852 156.837 192.398V184.327H148.807C144.369 184.33 140.774 187.945 140.777 192.398ZM162.187 192.398V213.926C162.18 218.379 165.775 221.993 170.213 222C174.651 221.997 178.246 218.383 178.243 213.929V192.405C178.249 187.951 174.654 184.337 170.216 184.33C165.775 184.33 162.183 187.945 162.187 192.398C162.187 192.398 162.187 192.402 162.187 192.398Z" fill="#E01E5A"/>
</g>
<path d="M354.526 149.92H319.938C319.938 154.076 321.582 158.061 324.511 161C327.439 163.938 331.41 165.589 335.551 165.589H341.923V171.762C341.928 180.408 348.911 187.415 357.526 187.421V152.931C357.526 151.269 356.183 149.92 354.526 149.92Z" fill="#2684FF"/>
<path d="M337.412 167.215H302.824C302.83 175.861 309.812 182.868 318.428 182.874H324.799V189.067C324.81 197.713 331.798 204.715 340.413 204.715V170.227C340.413 168.564 339.069 167.216 337.412 167.216V167.215Z" fill="url(#paint0_linear)"/>
<path d="M320.287 184.5H285.699C285.699 193.154 292.69 200.169 301.313 200.169H307.704V206.342C307.71 214.979 314.68 221.984 323.288 222V187.511C323.288 185.848 321.945 184.5 320.287 184.5Z" fill="url(#paint1_linear)"/>
<defs>
<linearGradient id="paint0_linear" x1="339.673" y1="167.276" x2="324.996" y2="182.537" gradientUnits="userSpaceOnUse">
<stop offset="0.18" stop-color="#0052CC"/>
<stop offset="1" stop-color="#2684FF"/>
</linearGradient>
<linearGradient id="paint1_linear" x1="323.538" y1="184.671" x2="306.564" y2="201.313" gradientUnits="userSpaceOnUse">
<stop offset="0.18" stop-color="#0052CC"/>
<stop offset="1" stop-color="#2684FF"/>
</linearGradient>
<clipPath id="clip0">
<rect width="80.4444" height="80.7272" fill="white"/>
</clipPath>
<clipPath id="clip1">
<rect width="80.4444" height="80.7272" fill="white" transform="translate(140.777)"/>
</clipPath>
<clipPath id="clip2">
<rect width="80.4444" height="80.7272" fill="white" transform="translate(281.555)"/>
</clipPath>
<clipPath id="clip3">
<rect width="80.4444" height="80.7272" fill="white" transform="translate(0 141.273)"/>
</clipPath>
<clipPath id="clip4">
<rect width="80.2837" height="80.7272" fill="white" transform="translate(140.777 141.273)"/>
</clipPath>
</defs>
</svg>
