<svg width="72" height="72" viewBox="0 0 72 72" fill="none" xmlns="http://www.w3.org/2000/svg">
<path d="M12.2401 14.4C11.0532 14.4 10.0801 15.3731 10.0801 16.56V55.44C10.0801 56.6269 11.0532 57.6 12.2401 57.6H16.5601C16.9595 57.6 17.2801 57.2794 17.2801 56.88V54C17.2801 53.595 17.5951 53.28 18.0001 53.28H20.8801C21.2851 53.28 21.6001 53.595 21.6001 54V56.88C21.6001 57.2794 21.9207 57.6 22.3201 57.6H49.6801C50.0795 57.6 50.4001 57.2794 50.4001 56.88V54C50.4001 53.595 50.7151 53.28 51.1201 53.28H54.0001C54.4051 53.28 54.7201 53.595 54.7201 54V56.88C54.7201 57.2794 55.0407 57.6 55.4401 57.6H59.7601C60.947 57.6 61.9201 56.6269 61.9201 55.44V19.44C61.9201 18.2531 60.947 17.28 59.7601 17.28H36.7201V16.56C36.7201 15.3731 35.747 14.4 34.5601 14.4H12.2401ZM12.2401 15.84H34.5601C34.9651 15.84 35.2801 16.155 35.2801 16.56V18C35.2801 18.3994 35.6007 18.72 36.0001 18.72H59.7601C60.1651 18.72 60.4801 19.035 60.4801 19.44V55.44C60.4801 55.845 60.1651 56.16 59.7601 56.16H56.1601V54C56.1601 52.8131 55.187 51.84 54.0001 51.84H51.1201C49.9332 51.84 48.9601 52.8131 48.9601 54V56.16H23.0401V54C23.0401 52.8131 22.067 51.84 20.8801 51.84H18.0001C16.8132 51.84 15.8401 52.8131 15.8401 54V56.16H12.2401C11.8351 56.16 11.5201 55.845 11.5201 55.44V16.56C11.5201 16.155 11.8351 15.84 12.2401 15.84ZM14.0401 20.88C13.9107 20.88 13.787 20.9475 13.7251 21.06C13.6576 21.1725 13.6576 21.3075 13.7251 21.42C13.787 21.5325 13.9107 21.6 14.0401 21.6H49.3201C49.4495 21.6 49.5732 21.5325 49.6351 21.42C49.7026 21.3075 49.7026 21.1725 49.6351 21.06C49.5732 20.9475 49.4495 20.88 49.3201 20.88H14.0401ZM51.4801 20.88C51.3507 20.88 51.227 20.9475 51.1651 21.06C51.0976 21.1725 51.0976 21.3075 51.1651 21.42C51.227 21.5325 51.3507 21.6 51.4801 21.6H54.3601C54.4895 21.6 54.6132 21.5325 54.6751 21.42C54.7426 21.3075 54.7426 21.1725 54.6751 21.06C54.6132 20.9475 54.4895 20.88 54.3601 20.88H51.4801ZM56.5201 20.88C56.3907 20.88 56.267 20.9475 56.2051 21.06C56.1376 21.1725 56.1376 21.3075 56.2051 21.42C56.267 21.5325 56.3907 21.6 56.5201 21.6H57.9601C58.0895 21.6 58.2132 21.5325 58.2751 21.42C58.3426 21.3075 58.3426 21.1725 58.2751 21.06C58.2132 20.9475 58.0895 20.88 57.9601 20.88H56.5201ZM23.4001 28.08C20.8182 28.08 18.7201 30.1781 18.7201 32.76C18.7201 34.3575 19.5301 35.7694 20.7563 36.6131C17.8482 38.0025 15.8401 41.5744 15.8401 45.72C15.8401 45.8494 15.9076 45.9731 16.0201 46.035C16.1326 46.1025 16.2676 46.1025 16.3801 46.035C16.4926 45.9731 16.5601 45.8494 16.5601 45.72C16.5601 41.5631 18.7201 38.1094 21.5551 37.0575C22.1176 37.305 22.742 37.44 23.4001 37.44C24.0582 37.44 24.6826 37.305 25.2451 37.0575C28.0801 38.1094 30.2401 41.5631 30.2401 45.72C30.2401 45.8494 30.3076 45.9731 30.4201 46.035C30.5326 46.1025 30.6676 46.1025 30.7801 46.035C30.8926 45.9731 30.9601 45.8494 30.9601 45.72C30.9601 41.5744 28.952 38.0025 26.0438 36.6131C27.2701 35.7694 28.0801 34.3575 28.0801 32.76C28.0801 30.1781 25.982 28.08 23.4001 28.08ZM23.4001 28.8C25.5938 28.8 27.3601 30.5662 27.3601 32.76C27.3601 34.335 26.4432 35.6906 25.1101 36.3262C25.0876 36.3375 25.0651 36.3487 25.0426 36.36C24.542 36.5906 23.9907 36.72 23.4001 36.72C22.8095 36.72 22.247 36.585 21.7407 36.3544C21.7407 36.3544 21.7407 36.3544 21.7351 36.3544C21.7238 36.3431 21.707 36.3375 21.6901 36.3319C20.3626 35.6962 19.4401 34.3406 19.4401 32.76C19.4401 30.5662 21.2063 28.8 23.4001 28.8ZM36.3601 29.52C36.2307 29.52 36.107 29.5875 36.0451 29.7C35.9776 29.8125 35.9776 29.9475 36.0451 30.06C36.107 30.1725 36.2307 30.24 36.3601 30.24H55.8001C55.9295 30.24 56.0532 30.1725 56.1151 30.06C56.1826 29.9475 56.1826 29.8125 56.1151 29.7C56.0532 29.5875 55.9295 29.52 55.8001 29.52H36.3601ZM36.3601 34.56C36.2307 34.56 36.107 34.6275 36.0451 34.74C35.9776 34.8525 35.9776 34.9875 36.0451 35.1C36.107 35.2125 36.2307 35.28 36.3601 35.28H50.0401C50.1695 35.28 50.2932 35.2125 50.3551 35.1C50.4226 34.9875 50.4226 34.8525 50.3551 34.74C50.2932 34.6275 50.1695 34.56 50.0401 34.56H36.3601ZM52.2001 34.56C52.0707 34.56 51.947 34.6275 51.8851 34.74C51.8176 34.8525 51.8176 34.9875 51.8851 35.1C51.947 35.2125 52.0707 35.28 52.2001 35.28H55.8001C55.9295 35.28 56.0532 35.2125 56.1151 35.1C56.1826 34.9875 56.1826 34.8525 56.1151 34.74C56.0532 34.6275 55.9295 34.56 55.8001 34.56H52.2001ZM36.3601 39.6C36.2307 39.6 36.107 39.6675 36.0451 39.78C35.9776 39.8925 35.9776 40.0275 36.0451 40.14C36.107 40.2525 36.2307 40.32 36.3601 40.32H47.1601C47.2895 40.32 47.4132 40.2525 47.4751 40.14C47.5426 40.0275 47.5426 39.8925 47.4751 39.78C47.4132 39.6675 47.2895 39.6 47.1601 39.6H36.3601ZM49.3201 39.6C49.1907 39.6 49.067 39.6675 49.0051 39.78C48.9376 39.8925 48.9376 40.0275 49.0051 40.14C49.067 40.2525 49.1907 40.32 49.3201 40.32H52.2001C52.3295 40.32 52.4532 40.2525 52.5151 40.14C52.5826 40.0275 52.5826 39.8925 52.5151 39.78C52.4532 39.6675 52.3295 39.6 52.2001 39.6H49.3201ZM54.3601 39.6C54.2307 39.6 54.107 39.6675 54.0451 39.78C53.9776 39.8925 53.9776 40.0275 54.0451 40.14C54.107 40.2525 54.2307 40.32 54.3601 40.32H55.8001C55.9295 40.32 56.0532 40.2525 56.1151 40.14C56.1826 40.0275 56.1826 39.8925 56.1151 39.78C56.0532 39.6675 55.9295 39.6 55.8001 39.6H54.3601ZM36.3601 44.64C36.2307 44.64 36.107 44.7075 36.0451 44.82C35.9776 44.9325 35.9776 45.0675 36.0451 45.18C36.107 45.2925 36.2307 45.36 36.3601 45.36H50.0401C50.1695 45.36 50.2932 45.2925 50.3551 45.18C50.4226 45.0675 50.4226 44.9325 50.3551 44.82C50.2932 44.7075 50.1695 44.64 50.0401 44.64H36.3601ZM52.2001 44.64C52.0707 44.64 51.947 44.7075 51.8851 44.82C51.8176 44.9325 51.8176 45.0675 51.8851 45.18C51.947 45.2925 52.0707 45.36 52.2001 45.36H55.8001C55.9295 45.36 56.0532 45.2925 56.1151 45.18C56.1826 45.0675 56.1826 44.9325 56.1151 44.82C56.0532 44.7075 55.9295 44.64 55.8001 44.64H52.2001Z" fill="#068466"/>
</svg>
