<svg width="72" height="72" viewBox="0 0 72 72" fill="none" xmlns="http://www.w3.org/2000/svg">
<path d="M16.56 12.96C14.5749 12.96 12.96 14.575 12.96 16.56V28.8C12.96 29.1982 13.2825 29.52 13.68 29.52C14.0774 29.52 14.4 29.1982 14.4 28.8V16.56C14.4 15.3691 15.3691 14.4 16.56 14.4H28.8C29.1974 14.4 29.52 14.0782 29.52 13.68C29.52 13.2818 29.1974 12.96 28.8 12.96H16.56ZM43.2 12.96C42.8018 12.96 42.48 13.2818 42.48 13.68C42.48 14.0782 42.8018 14.4 43.2 14.4H55.44C56.6308 14.4 57.6 15.3691 57.6 16.56V28.8C57.6 29.1982 57.9218 29.52 58.32 29.52C58.7181 29.52 59.04 29.1982 59.04 28.8V16.56C59.04 14.575 57.425 12.96 55.44 12.96H43.2ZM16.56 15.84C16.1697 15.84 15.84 16.1698 15.84 16.56V20.52C15.84 20.7187 16.0012 20.88 16.2 20.88C16.3987 20.88 16.56 20.7187 16.56 20.52V16.56H27.72C27.9187 16.56 28.08 16.3987 28.08 16.2C28.08 16.0013 27.9187 15.84 27.72 15.84H16.56ZM44.28 15.84C44.0812 15.84 43.92 16.0013 43.92 16.2C43.92 16.3987 44.0812 16.56 44.28 16.56H49.32C49.5187 16.56 49.68 16.3987 49.68 16.2C49.68 16.0013 49.5187 15.84 49.32 15.84H44.28ZM51.48 15.84C51.2812 15.84 51.12 16.0013 51.12 16.2C51.12 16.3987 51.2812 16.56 51.48 16.56H52.92C53.1187 16.56 53.28 16.3987 53.28 16.2C53.28 16.0013 53.1187 15.84 52.92 15.84H51.48ZM54.36 15.84C54.1612 15.84 54 16.0013 54 16.2C54 16.3987 54.1612 16.56 54.36 16.56H55.44V29.16C55.44 29.3587 55.6012 29.52 55.8 29.52C55.9987 29.52 56.16 29.3587 56.16 29.16V16.56C56.16 16.1698 55.8302 15.84 55.44 15.84H54.36ZM16.2 22.32C16.0012 22.32 15.84 22.4813 15.84 22.68V25.56C15.84 25.7587 16.0012 25.92 16.2 25.92C16.3987 25.92 16.56 25.7587 16.56 25.56V22.68C16.56 22.4813 16.3987 22.32 16.2 22.32ZM25.2 26.64C24.8025 26.64 24.48 26.9618 24.48 27.36V30.96C24.48 31.3582 24.8025 31.68 25.2 31.68C25.5974 31.68 25.92 31.3582 25.92 30.96V27.36C25.92 26.9618 25.5974 26.64 25.2 26.64ZM36 26.64C35.6025 26.64 35.28 26.9618 35.28 27.36V38.88H33.12C32.7225 38.88 32.4 39.2018 32.4 39.6C32.4 39.9982 32.7225 40.32 33.12 40.32H36C36.3974 40.32 36.72 39.9982 36.72 39.6V27.36C36.72 26.9618 36.3974 26.64 36 26.64ZM46.8 26.64C46.4018 26.64 46.08 26.9618 46.08 27.36V30.96C46.08 31.3582 46.4018 31.68 46.8 31.68C47.1981 31.68 47.52 31.3582 47.52 30.96V27.36C47.52 26.9618 47.1981 26.64 46.8 26.64ZM16.2 27.36C16.0012 27.36 15.84 27.5213 15.84 27.72V29.16C15.84 29.3587 16.0012 29.52 16.2 29.52C16.3987 29.52 16.56 29.3587 16.56 29.16V27.72C16.56 27.5213 16.3987 27.36 16.2 27.36ZM13.68 42.48C13.2825 42.48 12.96 42.8018 12.96 43.2V55.44C12.96 57.425 14.5749 59.04 16.56 59.04H28.8C29.1974 59.04 29.52 58.7182 29.52 58.32C29.52 57.9218 29.1974 57.6 28.8 57.6H16.56C15.3691 57.6 14.4 56.6309 14.4 55.44V43.2C14.4 42.8018 14.0774 42.48 13.68 42.48ZM55.8 42.48C55.6012 42.48 55.44 42.6413 55.44 42.84V43.56C55.44 43.7587 55.6012 43.92 55.8 43.92C55.9987 43.92 56.16 43.7587 56.16 43.56V42.84C56.16 42.6413 55.9987 42.48 55.8 42.48ZM58.32 42.48C57.9218 42.48 57.6 42.8018 57.6 43.2V55.44C57.6 56.6309 56.6308 57.6 55.44 57.6H43.2C42.8018 57.6 42.48 57.9218 42.48 58.32C42.48 58.7182 42.8018 59.04 43.2 59.04H55.44C57.425 59.04 59.04 57.425 59.04 55.44V43.2C59.04 42.8018 58.7181 42.48 58.32 42.48ZM43.0945 44.6498C42.8177 44.6019 42.5284 44.7199 42.3675 44.9705C41.7979 45.8575 39.3717 46.8 36 46.8C32.6282 46.8 30.2034 45.8568 29.6325 44.9705C29.4172 44.6364 28.9716 44.5393 28.6368 44.7539C28.3028 44.9692 28.2064 45.4155 28.4217 45.7495C29.38 47.2392 32.4252 48.24 36 48.24C39.5755 48.24 42.6206 47.2385 43.5782 45.7495C43.7935 45.4147 43.6958 44.9685 43.3617 44.7539C43.2778 44.6999 43.1867 44.6658 43.0945 44.6498ZM55.8 45.36C55.6012 45.36 55.44 45.5213 55.44 45.72V47.88C55.44 48.0787 55.6012 48.24 55.8 48.24C55.9987 48.24 56.16 48.0787 56.16 47.88V45.72C56.16 45.5213 55.9987 45.36 55.8 45.36ZM16.2 46.08C16.0012 46.08 15.84 46.2413 15.84 46.44V55.44C15.84 55.8302 16.1697 56.16 16.56 56.16H18.36C18.5587 56.16 18.72 55.9987 18.72 55.8C18.72 55.6013 18.5587 55.44 18.36 55.44H16.56V46.44C16.56 46.2413 16.3987 46.08 16.2 46.08ZM55.8 50.4C55.6012 50.4 55.44 50.5613 55.44 50.76V55.44H42.84C42.6412 55.44 42.48 55.6013 42.48 55.8C42.48 55.9987 42.6412 56.16 42.84 56.16H55.44C55.8302 56.16 56.16 55.8302 56.16 55.44V50.76C56.16 50.5613 55.9987 50.4 55.8 50.4ZM21.24 55.44C21.0412 55.44 20.88 55.6013 20.88 55.8C20.88 55.9987 21.0412 56.16 21.24 56.16H29.16C29.3587 56.16 29.52 55.9987 29.52 55.8C29.52 55.6013 29.3587 55.44 29.16 55.44H21.24Z" fill="#FC9F5B"/>
</svg>
