<svg width="72" height="72" viewBox="0 0 72 72" fill="none" xmlns="http://www.w3.org/2000/svg">
<path d="M20.16 9.36C18.9756 9.36 18 10.3356 18 11.52V15.12C18 16.0486 18.6032 16.8412 19.433 17.1436C19.3328 32.2268 15.4453 42.1778 13.8473 45.9703C13.2566 47.37 14.3266 48.96 15.8414 48.96H19.44V51.12C19.44 52.7021 20.7379 54 22.32 54H24.9005L21.7392 61.5881C21.3585 62.5019 21.7944 63.5601 22.7081 63.9408C22.9336 64.0349 23.1688 64.08 23.3986 64.08C24.1043 64.08 24.7739 63.6603 25.0608 62.9719H25.0622L28.7859 54H36.72V60.12C36.72 61.1097 37.5303 61.92 38.52 61.92C39.5097 61.92 40.32 61.1097 40.32 60.12V54H47.5355L51.2592 62.9719C51.5461 63.6603 52.2157 64.08 52.9214 64.08C53.1517 64.08 53.3874 64.0353 53.6133 63.9408C54.527 63.5601 54.9629 62.5019 54.5822 61.5881L51.4195 54H54C55.5821 54 56.88 52.7021 56.88 51.12V16.9805C57.6768 16.6612 58.32 16.0248 58.32 15.12V11.52C58.32 10.3356 57.3444 9.36 56.16 9.36H20.16ZM20.16 10.8H56.16C56.5668 10.8 56.88 11.1132 56.88 11.52V15.12C56.88 15.5268 56.5668 15.84 56.16 15.84H20.16C19.7532 15.84 19.44 15.5268 19.44 15.12V11.52C19.44 11.1132 19.7532 10.8 20.16 10.8ZM21.24 12.96C21.1923 12.9593 21.1449 12.9681 21.1007 12.9859C21.0564 13.0037 21.0161 13.0301 20.9821 13.0636C20.9482 13.0971 20.9212 13.137 20.9028 13.181C20.8844 13.2251 20.8749 13.2723 20.8749 13.32C20.8749 13.3677 20.8844 13.4149 20.9028 13.459C20.9212 13.503 20.9482 13.5429 20.9821 13.5764C21.0161 13.6099 21.0564 13.6363 21.1007 13.6541C21.1449 13.6719 21.1923 13.6807 21.24 13.68H46.44C46.4877 13.6807 46.5351 13.6719 46.5793 13.6541C46.6236 13.6363 46.6639 13.6099 46.6979 13.5764C46.7318 13.5429 46.7588 13.503 46.7772 13.459C46.7956 13.4149 46.8051 13.3677 46.8051 13.32C46.8051 13.2723 46.7956 13.2251 46.7772 13.181C46.7588 13.137 46.7318 13.0971 46.6979 13.0636C46.6639 13.0301 46.6236 13.0037 46.5793 12.9859C46.5351 12.9681 46.4877 12.9593 46.44 12.96H21.24ZM48.6 12.96C48.5523 12.9593 48.5049 12.9681 48.4607 12.9859C48.4164 13.0037 48.3761 13.0301 48.3421 13.0636C48.3082 13.0971 48.2812 13.137 48.2628 13.181C48.2444 13.2251 48.2349 13.2723 48.2349 13.32C48.2349 13.3677 48.2444 13.4149 48.2628 13.459C48.2812 13.503 48.3082 13.5429 48.3421 13.5764C48.3761 13.6099 48.4164 13.6363 48.4607 13.6541C48.5049 13.6719 48.5523 13.6807 48.6 13.68H51.48C51.5277 13.6807 51.5751 13.6719 51.6193 13.6541C51.6636 13.6363 51.7039 13.6099 51.7379 13.5764C51.7718 13.5429 51.7988 13.503 51.8172 13.459C51.8356 13.4149 51.8451 13.3677 51.8451 13.32C51.8451 13.2723 51.8356 13.2251 51.8172 13.181C51.7988 13.137 51.7718 13.0971 51.7379 13.0636C51.7039 13.0301 51.6636 13.0037 51.6193 12.9859C51.5751 12.9681 51.5277 12.9593 51.48 12.96H48.6ZM53.64 12.96C53.5923 12.9593 53.5449 12.9681 53.5007 12.9859C53.4564 13.0037 53.4161 13.0301 53.3821 13.0636C53.3482 13.0971 53.3212 13.137 53.3028 13.181C53.2844 13.2251 53.2749 13.2723 53.2749 13.32C53.2749 13.3677 53.2844 13.4149 53.3028 13.459C53.3212 13.503 53.3482 13.5429 53.3821 13.5764C53.4161 13.6099 53.4564 13.6363 53.5007 13.6541C53.5449 13.6719 53.5923 13.6807 53.64 13.68H55.08C55.1277 13.6807 55.1751 13.6719 55.2193 13.6541C55.2636 13.6363 55.3039 13.6099 55.3379 13.5764C55.3718 13.5429 55.3988 13.503 55.4172 13.459C55.4356 13.4149 55.4451 13.3677 55.4451 13.32C55.4451 13.2723 55.4356 13.2251 55.4172 13.181C55.3988 13.137 55.3718 13.0971 55.3379 13.0636C55.3039 13.0301 55.2636 13.0037 55.2193 12.9859C55.1751 12.9681 55.1277 12.9593 55.08 12.96H53.64ZM20.8716 17.28H55.4302C55.2974 34.1705 50.6243 44.4058 49.3355 47.1178C49.2179 47.3655 48.9697 47.52 48.6886 47.52H15.8414C15.3014 47.52 14.9664 47.0239 15.1748 46.53C16.7933 42.6888 20.7479 32.5372 20.8716 17.28ZM55.44 32.4323V51.12C55.44 51.924 54.804 52.56 54 52.56H22.32C21.516 52.56 20.88 51.924 20.88 51.12V48.96H48.6886C49.5134 48.96 50.2786 48.4883 50.6362 47.7352C51.5022 45.913 53.8803 40.6915 55.44 32.4323ZM25.6795 54H28.0055L24.397 62.6963C24.2228 63.1131 23.8201 63.36 23.3986 63.36C23.2602 63.36 23.1207 63.3337 22.9852 63.277C22.4301 63.0458 22.1717 62.4201 22.403 61.8652L25.6795 54ZM37.44 54H39.6V60.12C39.6 60.7201 39.1201 61.2 38.52 61.2C37.9199 61.2 37.44 60.7201 37.44 60.12V54ZM48.3159 54H50.6405L53.917 61.8652C54.1483 62.4201 53.8913 63.0458 53.3362 63.277H53.3348C53.1993 63.3337 53.0598 63.36 52.9214 63.36C52.4999 63.36 52.0986 63.1131 51.9244 62.6963V62.6948L48.3159 54Z" fill="#068466"/>
</svg>
