<svg width="72" height="72" viewBox="0 0 72 72" fill="none" xmlns="http://www.w3.org/2000/svg">
<path d="M55.8955 10.6706C55.828 10.6875 55.7661 10.7212 55.7211 10.7662L51.5811 14.9062C51.508 14.9737 51.4686 15.075 51.4799 15.1762L51.6711 18.45L44.7018 25.4137C42.3336 23.4394 39.2961 22.2356 35.9718 22.2356C31.4043 22.2356 27.1574 24.4969 24.6093 28.2937C24.4968 28.4625 24.5418 28.6875 24.7049 28.7944C24.868 28.9069 25.093 28.8675 25.2055 28.6987C27.6186 25.1044 31.6461 22.9556 35.9718 22.9556C39.0936 22.9556 41.9511 24.0806 44.1899 25.9312L39.3749 30.7462C38.3343 29.9306 37.0349 29.4356 35.6118 29.4356C32.2368 29.4356 29.4918 32.1806 29.4918 35.5556C29.4918 38.9306 32.2368 41.6756 35.6118 41.6756C38.9868 41.6756 41.7318 38.9306 41.7318 35.5556C41.7318 34.3575 41.3661 33.2494 40.7699 32.3044L45.6918 27.3825C47.6999 29.6662 48.9318 32.6419 48.9318 35.9156C48.9318 43.0594 43.1155 48.8756 35.9718 48.8756C28.828 48.8756 23.0118 43.0594 23.0118 35.9156C23.0118 34.9819 23.113 34.0481 23.3099 33.1425C23.3493 32.9456 23.2311 32.7544 23.0343 32.715C22.843 32.67 22.6461 32.7937 22.6068 32.9906C22.3986 33.9412 22.2918 34.9256 22.2918 35.9156C22.2918 43.4587 28.4286 49.5956 35.9718 49.5956C43.5149 49.5956 49.6518 43.4587 49.6518 35.9156C49.6518 32.445 48.3355 29.2894 46.198 26.8762L53.1505 19.9237L56.4186 20.115C56.4243 20.1206 56.4299 20.115 56.4355 20.115C56.5311 20.115 56.6211 20.0812 56.6886 20.0137L60.8286 15.8794C60.9243 15.7781 60.958 15.6262 60.9074 15.4969C60.8568 15.3619 60.733 15.2719 60.5924 15.2662L57.2624 15.0694L56.5255 14.3325L56.3286 11.0025C56.323 10.8619 56.233 10.7381 56.1036 10.6875C56.0361 10.665 55.963 10.6594 55.8955 10.6706ZM35.2518 10.7156C34.4586 10.7156 33.8118 11.3625 33.8118 12.1556V14.4112C22.798 15.3731 14.1299 24.6375 14.1299 35.8931C14.1299 43.605 18.2024 50.3775 24.3055 54.1912L19.6593 58.8375C19.378 59.1244 19.2149 59.5012 19.2149 59.9062C19.2149 60.3169 19.3724 60.6937 19.6593 60.9806C19.9461 61.2675 20.3286 61.425 20.7336 61.425C21.1386 61.425 21.5211 61.2675 21.8024 60.9806L27.1124 55.6762C29.7449 56.8237 32.653 57.465 35.7018 57.465C38.7055 57.465 41.563 56.8462 44.1674 55.7325L49.4155 60.9806C49.6968 61.2675 50.0793 61.425 50.4843 61.425C50.8893 61.425 51.2718 61.2675 51.5586 60.9806C51.8399 60.6937 51.9974 60.3112 51.9974 59.9062C51.9974 59.5012 51.8455 59.1187 51.5586 58.8375L46.9911 54.27C53.1561 50.4675 57.2736 43.65 57.2736 35.8931C57.2736 30.8869 55.5186 26.01 52.3349 22.1625C52.0818 21.8531 51.6318 21.8081 51.3224 22.0612C51.0186 22.3144 50.9736 22.77 51.2268 23.0737C54.1968 26.6681 55.8336 31.2244 55.8336 35.8931C55.8336 46.9912 46.8055 56.025 35.7018 56.025C24.6036 56.025 15.5699 46.9912 15.5699 35.8931C15.5699 24.795 24.6036 15.7612 35.7018 15.7612C40.3311 15.7612 44.8536 17.37 48.4311 20.295C48.7349 20.5425 49.1905 20.4975 49.4436 20.1937C49.6911 19.8844 49.6461 19.4287 49.3424 19.1812C45.7593 16.2562 41.3043 14.5575 36.6918 14.3437V12.1556C36.6918 11.3625 36.0449 10.7156 35.2518 10.7156ZM35.2518 11.4356C35.6511 11.4356 35.9718 11.7562 35.9718 12.1556V14.3269C35.8818 14.3269 35.7918 14.3212 35.7018 14.3212C35.308 14.3212 34.9199 14.3325 34.5318 14.355V12.1556C34.5318 11.7562 34.8524 11.4356 35.2518 11.4356ZM55.6593 11.8462L55.8055 14.31L52.3518 17.7637L52.2055 15.3L55.6593 11.8462ZM56.1543 14.9794H56.1599L56.6155 15.435L52.7511 19.305L36.0899 35.9662C36.0561 35.9831 36.028 36.0056 35.9999 36.0337C35.8143 36.225 35.4655 36.0731 35.4655 35.82C35.4655 35.7356 35.4993 35.6569 35.5611 35.595C35.5893 35.5725 35.6061 35.5444 35.623 35.5106L56.1543 14.9794ZM57.2849 15.795L59.7486 15.9356L56.2949 19.3894L53.8311 19.2431L57.2849 15.795ZM23.9399 29.8631C23.8049 29.8575 23.6643 29.9306 23.6024 30.0656C23.5068 30.2625 23.4168 30.465 23.3324 30.6675C23.2593 30.8531 23.3436 31.0669 23.5293 31.14C23.5743 31.1625 23.6193 31.1681 23.6643 31.1681C23.8049 31.1681 23.9399 31.0837 23.9961 30.9487C24.0749 30.7519 24.1649 30.5606 24.2549 30.375C24.3393 30.195 24.2605 29.9812 24.0805 29.8969C24.0355 29.8744 23.9905 29.8631 23.9399 29.8631ZM35.6118 30.1556C36.8324 30.1556 37.9574 30.5662 38.863 31.2525L35.0436 35.0719C35.0155 35.1 34.993 35.1337 34.9761 35.1675C34.8243 35.3531 34.7455 35.5781 34.7455 35.82C34.7455 36.3881 35.2068 36.8494 35.7749 36.8494C36.0111 36.8494 36.2418 36.7706 36.4218 36.6187C36.4611 36.6019 36.4949 36.5794 36.523 36.5512L40.2524 32.8219C40.7305 33.6262 41.0118 34.5544 41.0118 35.5556C41.0118 38.5312 38.593 40.9556 35.6118 40.9556C32.6361 40.9556 30.2118 38.5312 30.2118 35.5556C30.2118 32.58 32.6361 30.1556 35.6118 30.1556ZM24.9411 54.5737C25.4193 54.855 25.9086 55.1137 26.4093 55.3556L21.2961 60.4687C20.998 60.7725 20.4693 60.7725 20.1711 60.4687C20.0193 60.3225 19.9349 60.12 19.9349 59.9062C19.9349 59.6925 20.0193 59.4956 20.1711 59.3437L24.9411 54.5737ZM46.3443 54.6412L51.0468 59.3437C51.1986 59.4956 51.2774 59.6925 51.2774 59.9062C51.2774 60.12 51.1986 60.3225 51.0468 60.4687C50.7486 60.7725 50.2199 60.7725 49.9218 60.4687L44.8649 55.4175C45.3711 55.1756 45.8605 54.9169 46.3443 54.6412Z" fill="#068466"/>
</svg>
