<svg width="485" height="531" viewBox="0 0 485 531" fill="none" xmlns="http://www.w3.org/2000/svg">
<path d="M129.058 30.0183C127.748 26.207 125.159 23.443 121.348 21.8137C115.936 19.4862 111.106 19.3698 106.626 21.4646C92.4859 28.069 84.1358 56.3778 73.5164 92.1639C67.0865 113.868 59.8129 138.453 49.95 162.776C38.7777 190.328 13.4365 253.405 7.50129 268.214C2.23521 267.341 0.576833 268.534 0.140418 269.698C-0.237809 270.658 -0.0341466 272.316 3.07895 274.673C5.23193 276.302 8.25774 277.931 11.6618 279.241C15.444 280.695 19.43 281.655 22.3685 281.655C24.5215 281.655 26.1217 281.132 26.5872 279.881C27.4891 277.553 23.8814 274.906 21.4666 273.451C27.3145 260.358 46.9241 216.804 69.0068 170.108C76.6877 153.873 85.8815 136.94 94.7553 120.56C105.229 101.241 115.121 82.9992 121.813 67.3464C129.407 49.5116 131.705 37.6702 129.058 30.0183Z" fill="#1A1A1A"/>
<path d="M113.547 31.8222C114.449 31.5604 115.177 30.9203 115.555 30.0474L115.671 29.7565C117.068 26.9343 116.369 24.8105 114.362 24.0831C112.733 23.5012 109.998 24.5486 108.776 27.9527C107.845 30.3966 110.114 32.8405 112.616 32.1131L113.547 31.8222Z" fill="white"/>
<path d="M92.2523 65.5427L99.3513 58.4437C101.184 56.6108 100.69 53.5559 98.3912 52.3921C96.6164 51.4902 95.8309 49.3663 96.6164 47.5333L101.562 36.0702C103.25 32.6079 102.494 30.0185 100.137 29.0002C93.707 36.7393 88.3827 50.2391 82.9712 67.0848C86.0552 68.5977 89.8084 67.9867 92.2523 65.5427Z" fill="white"/>
<path d="M18.8779 277.932C9.5386 277.873 5.34902 272.055 5.17445 271.793C4.88351 271.385 4.99988 270.862 5.37811 270.571C5.78543 270.309 6.30913 270.396 6.60007 270.774C6.74554 271.007 10.4987 276.128 18.8779 276.157C19.3725 276.157 19.7507 276.564 19.7507 277.03C19.7507 277.524 19.3725 277.932 18.8779 277.932Z" fill="white"/>
<path d="M53.3535 198.067C53.1498 198.067 52.9461 198.009 52.7716 197.864C46.3999 192.278 40.4065 192.83 40.3483 192.83C39.8537 192.889 39.4464 192.54 39.3882 192.045C39.33 191.579 39.6791 191.143 40.1737 191.085C40.4356 191.056 47.0109 190.445 53.9353 196.525C54.2845 196.845 54.3427 197.398 54.0226 197.747C53.8481 197.951 53.6153 198.067 53.3535 198.067Z" fill="white"/>
<path d="M106.484 428.466C98.1338 428.466 88.7364 427.738 78.466 425.76C78.0005 425.673 77.6805 425.207 77.7678 424.742C77.8551 424.276 78.3206 423.956 78.7861 424.043C102.062 428.524 120.915 426.574 132.64 424.131C145.354 421.512 152.628 417.759 152.715 417.73C153.151 417.497 153.675 417.672 153.879 418.108C154.111 418.544 153.937 419.068 153.5 419.272C153.209 419.417 145.965 423.141 133.047 425.818C126.355 427.215 117.336 428.466 106.484 428.466Z" fill="#1A1A1A"/>
<path d="M93.1901 137.755C93.0446 137.755 92.8992 137.726 92.7537 137.638C92.3464 137.406 92.1718 136.882 92.4045 136.446C114.836 96.2372 123.448 76.7731 123.535 76.5985C123.739 76.1621 124.234 75.9584 124.699 76.1621C125.136 76.3658 125.339 76.8604 125.136 77.3259C125.048 77.5295 116.436 97.0228 93.9756 137.348C93.8011 137.58 93.5101 137.755 93.1901 137.755Z" fill="#1A1A1A"/>
<path d="M149.485 34.4408C146.75 34.4408 144.539 36.652 144.539 39.3868C144.539 42.1217 146.75 44.3329 149.485 44.3329C152.22 44.3329 154.431 42.1217 154.431 39.3868C154.431 36.652 152.22 34.4408 149.485 34.4408Z" fill="#1A1A1A"/>
<path d="M140.609 27.6329C138.049 27.6329 135.837 25.7127 135.546 23.0942C134.994 18.09 132.753 14.5405 128.709 12.242C125.654 10.4964 122.716 10.1763 122.687 10.1472C119.894 9.88537 117.828 7.41235 118.09 4.61929C118.352 1.82624 120.825 -0.239462 123.618 0.0223869C124.141 0.0805756 128.797 0.575179 133.743 3.39733C138.543 6.1322 144.537 11.6019 145.671 21.9886C145.962 24.7817 143.955 27.2838 141.162 27.6038C140.987 27.6038 140.783 27.6329 140.609 27.6329Z" fill="#1A1A1A"/>
<path d="M27.0004 411.271C29.9891 411.271 32.412 408.848 32.412 405.859C32.412 402.871 29.9891 400.448 27.0004 400.448C24.0117 400.448 21.5889 402.871 21.5889 405.859C21.5889 408.848 24.0117 411.271 27.0004 411.271Z" fill="#1A1A1A"/>
<path d="M26.3846 441.587C27.9433 441.587 29.2068 440.324 29.2068 438.765C29.2068 437.206 27.9433 435.943 26.3846 435.943C24.826 435.943 23.5625 437.206 23.5625 438.765C23.5625 440.324 24.826 441.587 26.3846 441.587Z" fill="#1A1A1A"/>
<path d="M46.0527 425.702C48.1897 425.702 49.9222 423.97 49.9222 421.832C49.9222 419.695 48.1897 417.963 46.0527 417.963C43.9156 417.963 42.1831 419.695 42.1831 421.832C42.1831 423.97 43.9156 425.702 46.0527 425.702Z" fill="#1A1A1A"/>
<path d="M28.9194 433.237C28.0175 433.237 27.1155 432.917 26.3591 432.306L18.1836 425.411C16.5252 424.014 16.3215 421.512 17.7181 419.854C19.1146 418.195 21.6167 417.992 23.2751 419.388L31.4506 426.284C33.109 427.68 33.3126 430.182 31.9161 431.841C31.1596 432.772 30.025 433.237 28.9194 433.237Z" fill="#1A1A1A"/>
<path d="M215.381 147.502C215.381 147.502 209.708 171.359 186.578 177.614C186.578 177.614 167.172 185.528 144.304 167.518C144.304 167.518 127.08 178.487 114.86 194.634C102.641 210.782 99.0039 218.492 99.0039 218.492C99.0039 218.492 112.533 211.713 141.336 229.489L162.051 214.651L170.431 208.018C170.431 208.018 180.614 217.182 190.797 231.148C200.98 245.113 209.912 258.875 209.359 274.411C209.359 274.411 204.616 278.135 196.179 268.825C196.179 268.825 162.284 279.444 147.301 278.281C147.301 278.281 156.465 309.412 163.302 317.994L172.322 330.36L202.434 325.413C202.434 325.413 230.074 318.722 263.242 303.884C296.409 289.046 317.793 273.044 317.793 273.044C317.793 273.044 318.084 248.313 310.083 220.383C302.082 192.452 291.463 175.869 284.626 168.159C277.789 160.449 260.769 145.319 215.381 147.502Z" fill="white"/>
<path d="M177.641 309.819C177.321 309.819 177.001 309.645 176.856 309.325C169.757 294.196 165.684 277.496 165.655 277.321C165.538 276.855 165.829 276.39 166.295 276.274C166.76 276.157 167.226 276.448 167.342 276.914C167.371 277.088 171.415 293.614 178.427 308.597C178.631 309.034 178.456 309.558 178.02 309.761C177.903 309.79 177.758 309.819 177.641 309.819Z" fill="#FC9F5B"/>
<path d="M200.86 310.634C200.54 310.634 200.22 310.459 200.075 310.139C192.627 294.079 184.946 272.375 184.888 272.171C184.713 271.706 184.975 271.211 185.411 271.066C185.877 270.92 186.371 271.153 186.517 271.589C186.604 271.793 194.256 293.41 201.646 309.412C201.85 309.848 201.646 310.372 201.21 310.576C201.122 310.634 201.006 310.634 200.86 310.634Z" fill="#FC9F5B"/>
<path d="M215.143 294.836C214.793 294.836 214.473 294.632 214.328 294.312C208.858 281.336 205.25 268.186 205.221 268.04C205.105 267.575 205.367 267.109 205.832 266.964C206.298 266.847 206.763 267.109 206.909 267.575C206.938 267.691 210.517 280.754 215.957 293.614C216.132 294.05 215.928 294.574 215.492 294.749C215.375 294.807 215.259 294.836 215.143 294.836Z" fill="#FC9F5B"/>
<path d="M240.722 303.127C240.402 303.127 240.111 302.953 239.966 302.662C231.819 287.678 225.971 266.701 225.913 266.497C225.797 266.032 226.059 265.566 226.524 265.421C226.99 265.304 227.455 265.566 227.601 266.032C227.659 266.235 233.478 287.009 241.508 301.818C241.741 302.254 241.595 302.778 241.159 303.011C240.984 303.098 240.868 303.127 240.722 303.127Z" fill="#FC9F5B"/>
<path d="M258.552 294.923C258.232 294.923 257.912 294.748 257.767 294.428C250.173 278.688 243.103 256.053 243.045 255.82C242.9 255.355 243.161 254.86 243.627 254.715C244.092 254.569 244.587 254.831 244.733 255.297C244.791 255.529 251.832 278.048 259.367 293.672C259.571 294.108 259.396 294.632 258.96 294.836C258.814 294.894 258.698 294.923 258.552 294.923Z" fill="#FC9F5B"/>
<path d="M274.44 277.263C274.091 277.263 273.771 277.059 273.625 276.71C267.108 260.446 261.173 243.251 261.086 243.077C260.94 242.611 261.173 242.117 261.638 241.971C262.104 241.826 262.598 242.059 262.744 242.524C262.802 242.699 268.737 259.864 275.225 276.099C275.4 276.535 275.196 277.059 274.731 277.234C274.644 277.234 274.556 277.263 274.44 277.263Z" fill="#FC9F5B"/>
<path d="M296.404 273.335C296.055 273.335 295.735 273.131 295.59 272.782C291.429 262.425 281.072 237.403 274.758 228.704C274.467 228.326 274.555 227.773 274.962 227.482C275.34 227.191 275.893 227.279 276.184 227.686C282.381 236.24 292.011 259.224 297.219 272.142C297.394 272.578 297.19 273.102 296.724 273.277C296.637 273.306 296.521 273.335 296.404 273.335Z" fill="#FC9F5B"/>
<path d="M307.083 262.541C306.734 262.541 306.414 262.337 306.297 262.017C300.798 249.507 292.623 231.992 284.855 219.772C284.593 219.365 284.709 218.812 285.116 218.579C285.524 218.318 286.077 218.434 286.309 218.841C294.136 231.148 302.369 248.721 307.868 261.319C308.072 261.755 307.868 262.279 307.432 262.483C307.345 262.512 307.199 262.541 307.083 262.541Z" fill="#FC9F5B"/>
<path d="M314.326 241.302C314.297 241.186 310.893 230.857 297.946 210.462L299.43 209.531C312.522 230.13 315.868 240.342 316.013 240.778L314.326 241.302Z" fill="#FC9F5B"/>
<path d="M116.078 218.143L114.536 217.328C114.594 217.241 119.103 208.6 125.679 198.737C134.523 185.47 142.67 176.422 149.914 171.883L150.845 173.367C134.058 183.899 116.252 217.823 116.078 218.143Z" fill="#FC9F5B"/>
<path d="M127.686 222.565L126.173 221.693C126.231 221.605 131.148 213.226 137.811 203.567C146.801 190.562 154.511 181.542 160.737 176.771L161.784 178.167C147.266 189.252 127.889 222.216 127.686 222.565Z" fill="#FC9F5B"/>
<path d="M139.062 227.453L137.52 226.639C137.578 226.551 142.612 216.834 149.74 206.214C159.37 191.871 168.011 182.764 175.459 179.127L176.216 180.699C159.05 189.078 139.237 227.075 139.062 227.453Z" fill="#FC9F5B"/>
<path d="M169.964 207.378L168.858 206.011C169.178 205.749 200.455 180.495 254.105 156.9L254.803 158.5C201.386 182.008 170.284 207.116 169.964 207.378Z" fill="#FC9F5B"/>
<path d="M179.593 216.892C179.36 216.892 179.098 216.775 178.924 216.601C178.604 216.223 178.662 215.699 179.011 215.379C179.185 215.233 197.078 199.93 229.519 182.881C229.955 182.648 230.479 182.822 230.712 183.259C230.944 183.695 230.77 184.219 230.333 184.452C198.097 201.414 180.349 216.572 180.175 216.746C180 216.805 179.796 216.892 179.593 216.892Z" fill="#FC9F5B"/>
<path d="M188.319 226.493C188.057 226.493 187.824 226.377 187.65 226.173C187.359 225.795 187.417 225.242 187.795 224.951C188.144 224.66 224.28 195.711 261.084 179.273C261.52 179.069 262.044 179.273 262.248 179.709C262.451 180.146 262.248 180.669 261.811 180.873C225.211 197.195 189.279 226.027 188.93 226.318C188.697 226.406 188.523 226.493 188.319 226.493Z" fill="#FC9F5B"/>
<path d="M278.367 287.155C278.017 287.155 277.697 286.951 277.552 286.602L275.37 280.928C275.195 280.492 275.428 279.968 275.864 279.794C276.33 279.619 276.825 279.852 276.999 280.288L279.181 285.962C279.356 286.398 279.123 286.922 278.687 287.096C278.57 287.126 278.483 287.155 278.367 287.155Z" fill="#FC9F5B"/>
<path d="M220.47 307.375C220.121 307.375 219.801 307.172 219.655 306.852L216.6 299.724C216.397 299.287 216.63 298.763 217.066 298.589C217.502 298.385 218.026 298.618 218.201 299.054L221.256 306.182C221.459 306.619 221.226 307.143 220.79 307.317C220.703 307.346 220.586 307.375 220.47 307.375Z" fill="#FC9F5B"/>
<path d="M234.577 181.978C234.256 181.978 233.966 181.804 233.82 181.513C233.587 181.077 233.762 180.553 234.169 180.32L243.858 175.083C244.294 174.85 244.818 175.025 245.05 175.432C245.283 175.869 245.109 176.392 244.701 176.625L235.013 181.862C234.867 181.92 234.722 181.978 234.577 181.978Z" fill="#FC9F5B"/>
<path d="M243.513 195.74C243.222 195.74 242.931 195.595 242.757 195.304C242.495 194.897 242.64 194.344 243.047 194.111C244.037 193.529 253.551 188.496 253.958 188.263C254.394 188.03 254.918 188.205 255.151 188.612C255.383 189.049 255.209 189.572 254.802 189.805C251.398 191.609 244.735 195.158 243.979 195.595C243.804 195.711 243.658 195.74 243.513 195.74Z" fill="#FC9F5B"/>
<path d="M195.887 237.549C195.567 237.549 195.276 237.374 195.131 237.083C194.898 236.647 195.043 236.123 195.48 235.891C196.033 235.571 251.836 204.76 286.021 184.83C286.429 184.597 286.981 184.714 287.214 185.15C287.447 185.557 287.331 186.11 286.894 186.343C252.679 206.273 196.876 237.113 196.323 237.403C196.178 237.491 196.033 237.549 195.887 237.549Z" fill="#FC9F5B"/>
<path d="M202.343 247.936L201.674 246.336C202.227 246.103 257.011 222.856 291.081 195.159L292.186 196.526C257.884 224.369 202.896 247.703 202.343 247.936Z" fill="#FC9F5B"/>
<path d="M207.902 259.573L207.146 258.002C207.641 257.769 257.014 234.203 283.257 214.39L284.304 215.786C257.916 235.687 208.397 259.34 207.902 259.573Z" fill="#FC9F5B"/>
<path d="M210.082 268.651L209.646 266.963C209.879 266.905 233.3 260.562 274.963 227.511L276.039 228.879C254.131 246.277 237.373 256.169 227.219 261.377C216.105 267.05 210.315 268.563 210.082 268.651Z" fill="#FC9F5B"/>
<path d="M215.381 147.501C215.381 147.501 243.311 142.701 267.547 155.124C267.547 155.124 235.921 146.396 214.392 152.593L215.381 147.501Z" fill="#FC9F5B"/>
<path d="M105.987 216.601C105.987 216.601 126.934 180.466 145.846 170.05L143.373 167.868C143.373 167.868 128.098 178.051 117.188 192.016C106.277 205.981 99.0039 218.492 99.0039 218.492L105.987 216.601Z" fill="#FC9F5B"/>
<path d="M151.315 162.834C151.315 162.834 166.676 178.022 185.413 170.341C204.15 162.66 205.488 151.575 205.925 149.247C206.652 149.393 215.38 147.502 215.38 147.502C215.38 147.502 209.707 173.541 183.522 178.778C157.337 184.015 144.012 166.064 144.157 166.791C144.303 167.519 151.315 162.834 151.315 162.834Z" fill="white"/>
<path d="M141.481 294.282C141.336 294.282 141.19 294.253 141.074 294.166L115.18 279.91C114.744 279.677 114.598 279.153 114.831 278.717C115.064 278.281 115.587 278.135 116.024 278.368L141.918 292.624C142.354 292.857 142.5 293.38 142.267 293.817C142.092 294.108 141.801 294.282 141.481 294.282Z" fill="#FECE2F"/>
<path d="M51.724 244.095C51.724 244.095 45.9052 250.641 45.4688 263.006C45.4688 263.006 69.1806 273.916 104.676 277.99C140.171 282.063 176.83 274.207 176.83 274.207C176.83 274.207 199.378 268.418 208.106 262.948C208.106 262.948 200.687 243.513 191.086 230.566C181.485 217.619 170.429 209.181 170.429 208.018C170.429 206.854 144.622 234.232 116.895 242.495C88.092 251.368 51.724 244.095 51.724 244.095Z" fill="white"/>
<path d="M102.524 246.539C112.096 245.87 127.138 261.144 130.687 253.58C133.306 248.052 127.138 246.394 118.759 241.302L102.524 246.539Z" fill="#FC9F5B"/>
<path d="M172.317 330.36C172.317 330.36 192.974 373.419 181.336 398.15C169.698 422.88 145.841 451.974 62.3402 441.209C62.3402 441.209 59.7217 452.178 63.2421 461.924C63.2421 461.924 141.186 483.978 177.554 478.45C213.922 472.922 238.07 454.884 252.617 435.099C267.164 415.315 276.184 387.967 274.147 352.18C274.147 352.18 300.623 366.728 322.153 411.533C343.683 456.338 349.792 512.199 349.792 512.199C349.792 512.199 364.921 517.145 375.395 509.581C375.395 509.581 386.451 461.866 377.141 413.279C367.831 364.691 339.9 290.5 317.789 273.044C317.789 273.044 306.995 280.288 293.146 288.173C276.067 297.89 253.897 309.063 236.615 315.231C198.211 328.905 172.317 330.36 172.317 330.36Z" fill="#FC9F5B"/>
<path d="M356.344 513.421C356.868 479.614 350.671 461.575 350.671 461.575L340.517 459.48C340.517 459.48 350.118 496.139 349.682 513.16L356.344 513.421Z" fill="white"/>
<path d="M363.036 513.509C365.509 488.488 360.185 461.372 360.185 461.372L370.862 459.713C370.862 459.713 372.113 503.064 369.989 511.589L363.036 513.509Z" fill="white"/>
<path d="M61.765 446.039C61.765 446.039 103.283 457.095 145.353 444.875L145.935 434.779C145.935 434.779 124.987 444.293 100.548 443.508C76.1085 442.722 61.1831 441.558 61.1831 441.558L61.765 446.039Z" fill="white"/>
<path d="M61.5577 453.225C61.5577 453.225 86.2006 464.863 148.259 459.044L153.699 469.896C153.699 469.896 121.696 474.348 92.9796 469.314L59.812 461.168L61.5577 453.225Z" fill="white"/>
<path d="M193.123 98.3324L200.687 105.897C200.687 105.897 209.561 100.369 213.343 96.8777C217.125 93.3864 219.889 87.713 217.416 87.8585C214.943 88.0039 202.578 91.9317 193.123 98.3324Z" fill="white"/>
<path d="M165.713 113.781L193.119 98.303C193.119 98.303 182.064 91.1748 172.113 97.2847C163.501 102.609 165.713 113.781 165.713 113.781Z" fill="white"/>
<path d="M168.773 105.024C174.359 105.024 178.898 101.736 178.898 97.6921C178.898 96.7611 178.665 95.8883 178.229 95.0736C176.221 95.3936 174.156 96.0919 172.148 97.3139C168.948 99.2923 167.231 102.085 166.358 104.82C167.115 104.937 167.929 105.024 168.773 105.024Z" fill="#FC9F5B"/>
<path d="M52.9181 220.935C52.9181 220.935 57.3113 206.097 56.4676 206.447C55.6239 206.796 52.5981 203.624 45.6736 216.891L36.9453 236.559L42.2696 241.738L55.8857 244.298L63.072 238.101L52.9181 220.935Z" fill="#FC9F5B"/>
<path d="M176.973 428.699C176.711 428.699 176.478 428.582 176.304 428.379C175.984 428.001 176.042 427.448 176.42 427.157C182.065 422.385 186.865 416.741 190.618 410.398C190.851 409.991 191.404 409.846 191.811 410.108C192.219 410.34 192.364 410.893 192.102 411.3C188.233 417.788 183.316 423.578 177.526 428.495C177.38 428.612 177.177 428.699 176.973 428.699Z" fill="#1A1A1A"/>
<path d="M194.491 114.142C197.519 113.754 199.835 112.354 199.663 111.015C199.491 109.676 196.897 108.906 193.869 109.294C190.841 109.682 188.525 111.083 188.697 112.421C188.868 113.76 191.462 114.531 194.491 114.142Z" fill="white"/>
<path d="M200.545 110.872C200.312 109.242 197.926 107.875 193.766 108.399C189.576 108.922 187.627 110.872 187.83 112.501C187.918 113.083 188.325 114.159 190.274 114.741C191.06 114.974 191.962 115.09 192.951 115.09C193.504 115.09 194.057 115.061 194.609 115.003C196.21 114.799 197.664 114.305 198.741 113.665C200.486 112.588 200.632 111.453 200.545 110.872ZM190.798 113.083C189.983 112.85 189.605 112.501 189.576 112.297C189.518 111.744 191.089 110.581 193.824 110.173C193.591 110.988 193.446 112.094 193.824 113.316C192.689 113.403 191.613 113.316 190.798 113.083Z" fill="#1A1A1A"/>
<path d="M191.09 123.324L198.683 127.834C198.683 127.834 195.687 130.598 192.632 128.765C189.519 126.961 191.09 123.324 191.09 123.324Z" fill="white"/>
<path d="M194.843 130.278C193.999 130.278 193.097 130.074 192.166 129.521C189.228 127.776 189.635 124.488 190.275 122.975C190.362 122.742 190.566 122.568 190.799 122.481C191.031 122.393 191.293 122.422 191.526 122.568L199.12 127.078C199.352 127.223 199.527 127.456 199.556 127.747C199.585 128.038 199.469 128.299 199.265 128.474C199.149 128.561 197.258 130.278 194.843 130.278ZM191.613 124.663C191.468 125.652 191.526 127.136 193.039 128.038C194.552 128.94 196.094 128.445 197.054 127.921L191.613 124.663Z" fill="#1A1A1A"/>
<path d="M358.377 382.584C355.962 382.584 353.809 380.867 353.373 378.394C353.344 378.249 351.773 370.044 346.216 362.712C344.528 360.472 344.964 357.272 347.205 355.584C349.445 353.897 352.645 354.333 354.333 356.574C361.461 365.971 363.323 376.183 363.41 376.62C363.905 379.383 362.043 382.031 359.279 382.526C358.959 382.555 358.668 382.584 358.377 382.584Z" fill="white"/>
<path d="M362.568 398.818C360.036 398.818 357.825 396.927 357.505 394.338L357.243 392.214C356.923 389.421 358.902 386.89 361.695 386.57C364.488 386.25 367.019 388.228 367.339 391.021L367.601 393.145C367.921 395.938 365.943 398.469 363.15 398.789C362.975 398.818 362.771 398.818 362.568 398.818Z" fill="white"/>
<path d="M175.988 526.659H83.9041C83.4095 526.659 83.0312 527.037 83.0312 527.532C83.0312 528.027 83.4095 528.405 83.9041 528.405H175.988C176.482 528.405 176.861 528.027 176.861 527.532C176.861 527.037 176.482 526.659 175.988 526.659Z" fill="#1A1A1A"/>
<path d="M204.819 530.587C206.619 530.587 208.078 529.128 208.078 527.328C208.078 525.529 206.619 524.07 204.819 524.07C203.019 524.07 201.561 525.529 201.561 527.328C201.561 529.128 203.019 530.587 204.819 530.587Z" fill="#1A1A1A"/>
<path d="M224.43 526.863H216.138C215.643 526.863 215.265 527.241 215.265 527.736C215.265 528.23 215.643 528.608 216.138 528.608H224.43C224.924 528.608 225.303 528.23 225.303 527.736C225.303 527.241 224.924 526.863 224.43 526.863Z" fill="#1A1A1A"/>
<path d="M260.768 402.077C260.506 402.077 260.274 402.048 260.012 402.019C257.219 401.612 255.328 399.022 255.735 396.229L257.48 384.592C257.888 381.798 260.477 379.907 263.27 380.315C266.063 380.722 267.954 383.311 267.547 386.104L265.802 397.742C265.423 400.244 263.241 402.077 260.768 402.077Z" fill="white"/>
<path d="M172.261 118.844C171.563 118.64 171.388 117.709 171.999 117.302C172.465 116.982 173.192 116.72 174.21 116.603C174.705 116.574 175.112 116.923 175.17 117.389C175.199 117.854 174.85 118.291 174.385 118.349C173.599 118.407 173.163 118.582 172.93 118.727C172.726 118.873 172.494 118.902 172.261 118.844Z" fill="#1A1A1A"/>
<path d="M28.7112 257.362C30.6315 258.002 32.4935 258.555 34.2101 258.962C34.821 259.311 44.8586 264.635 61.2096 269.814C63.2171 270.454 65.3992 271.094 67.6977 271.764C67.7268 271.822 67.7559 271.88 67.7849 271.909C68.0177 272.229 81.6339 294.428 106.48 311.477C117.536 318.664 134.615 317.296 141.976 306.822C146.951 299.752 149.627 290.035 149.627 290.035C151.286 295.475 158.414 312.117 161.76 317.965C165.251 324.221 170.633 329.778 171.623 330.854C172.234 332.047 177.849 343.19 181.311 357.476C183.464 366.291 184.337 374.583 183.988 382.089C183.522 391.429 181.137 399.575 176.831 406.354C170.401 416.508 162.487 424.422 152.711 430.27L147.853 432.917C134.469 439.551 117.915 442.751 97.3448 442.751C86.8127 442.751 75.2331 441.907 62.4898 440.278L47.5353 435.245C47.128 435.099 46.6915 435.274 46.4879 435.623C46.3715 435.827 43.753 440.511 44.044 454.272C44.1894 460.324 45.2368 469.722 46.837 478.799C47.5644 483.018 48.3499 486.713 49.0773 489.448C50.212 493.695 50.9102 494.568 51.4921 494.888C51.6667 494.975 51.8412 495.034 52.0449 495.034C52.2486 495.034 52.4813 494.975 52.685 494.859C53.1796 494.539 54.1979 493.899 59.7549 477.926C59.8713 477.635 59.9586 477.344 60.0458 477.053C59.4931 480.923 59.6967 483.687 60.6568 485.287C61.1805 486.189 61.9661 486.771 62.9553 486.975C63.2462 487.033 63.5372 487.062 63.799 487.062C64.9337 487.062 65.6902 486.538 66.1266 486.102C66.7375 485.403 67.0867 484.385 67.2612 483.134C68.5123 486.305 70.0543 488.837 71.9163 489.651C72.2946 489.826 72.7601 489.942 73.3129 489.942C74.0402 489.942 74.9131 489.709 75.815 488.982C77.1533 487.964 77.9389 486.538 78.0843 484.763C78.6371 478.304 70.6944 468.267 66.7957 463.786C107.179 475.017 136.04 480.137 159.956 480.137C163.913 480.137 167.753 479.992 171.448 479.701C201.59 477.461 225.738 465.765 247.443 442.926C257.626 432.219 265.161 419.243 269.845 404.405C273.569 392.563 275.519 379.471 275.606 365.535C275.635 361.491 275.49 357.621 275.257 353.955C279.068 356.719 282.734 359.745 286.313 363.003C288.349 365.011 290.677 367.426 293.353 370.306C295.565 372.663 297.689 374.99 299.58 377.114C304.7 383.34 309.501 390.207 313.952 397.655C323.001 412.842 330.652 430.531 336.675 450.228C346.451 482.174 348.72 509.174 348.924 511.967C348.604 512.694 347.44 515.545 346.305 518.542C343.861 524.972 343.861 526.281 344.007 526.834H231.382C230.888 526.834 230.51 527.212 230.51 527.707C230.51 528.201 230.888 528.579 231.382 528.579H361.9C363.616 528.609 365.449 528.609 367.37 528.609C369.144 528.609 370.977 528.609 372.839 528.579H375.4C375.487 528.579 375.574 528.55 375.632 528.55C379.793 528.492 384.07 528.347 388.201 528.114C406.24 527.241 409.294 525.525 409.935 524.157C410.109 523.808 410.255 523.168 409.876 522.382C409.469 521.509 408.218 518.862 391.605 513.567C388.812 512.694 386.048 511.85 383.604 511.181C385.466 511.152 387.619 511.094 389.801 510.977C402.428 510.308 403.796 508.068 404.261 507.341C404.61 506.788 404.872 505.915 404.261 504.78C402.661 501.813 397.715 501.784 389.19 504.635C388.87 504.751 388.55 504.868 388.23 504.955C391.751 502.336 395.009 499.165 395.62 496.139C395.94 494.539 395.533 493.084 394.427 491.833C393.409 490.669 392.1 490.146 390.674 490.32C387.765 490.699 384.157 494.074 379.996 500.358C379.007 501.871 378.076 503.355 377.291 504.693C378.513 498.147 380.404 485.927 381.189 470.216C381.393 466.259 381.509 461.953 381.509 457.327C381.538 457.24 381.568 457.153 381.568 457.036L381.509 455.436C381.422 434.43 379.036 407.343 370.395 379.209C362.976 355.177 350.786 320.933 334.697 294.224C326.085 279.939 320.062 273.917 318.636 272.607C318.724 268.738 318.811 240.022 307.115 208.658L306.941 208.163C301.587 193.82 294.226 174.181 277.41 160.798C268.216 153.495 257.015 148.753 244.068 146.774C229.084 144.476 211.249 145.727 191.058 150.527C191 150.527 190.97 150.556 190.912 150.586L191.087 136.737C197.633 135.864 204.179 133.478 206.71 127.747C207.758 125.332 208.136 122.713 207.874 119.978C208.136 119.6 209.533 118.989 210.376 118.611C212.297 117.767 214.275 116.894 213.722 115.352C213.344 114.392 211.773 113.548 208.223 111.919C206.71 111.221 204.383 110.144 204.063 109.708C203.365 108.457 202.608 107.293 201.852 106.217C203.306 105.344 206.71 103.22 210.085 100.66C216.224 95.9755 219.337 91.9605 219.337 88.7892C219.337 88.0909 219.046 87.5381 218.465 87.2181C217.534 86.6944 215.148 85.3851 193.764 96.7901C192.949 96.441 190.039 95.3354 186.315 94.6662C180.496 93.6479 175.434 94.3171 171.681 96.5574C167.87 98.8267 165.484 102.58 164.786 107.38C164.378 110.174 164.64 112.53 164.786 113.49C163.825 114.45 160.8 117.505 157.832 120.822C151.169 128.328 150.558 130.685 150.704 131.82C150.762 132.373 151.053 132.838 151.518 133.1C152.013 133.42 152.566 133.536 153.148 133.536C154.079 133.536 155.097 133.216 156.115 132.722C156.552 133.187 157.686 134.176 159.461 134.38C159.665 134.409 159.898 134.409 160.101 134.409C160.538 134.409 161.003 134.351 161.44 134.264C161.44 134.264 161.44 134.264 161.469 134.264C161.585 134.351 163.593 135.515 166.182 135.515C166.793 135.515 167.462 135.457 168.102 135.282L164.524 155.852C163.302 156.23 158.239 157.859 150.908 162.02C150.849 162.049 150.82 162.078 150.791 162.107C148.231 163.562 145.409 165.336 142.354 167.46C130.512 175.723 113.201 191.318 98.0431 218.434C97.9849 218.521 97.9267 218.637 97.8976 218.725C97.5194 219.539 97.1412 220.936 97.3739 222.187C97.8976 224.805 100.691 227.162 105.666 229.199C105.753 229.228 105.869 229.257 105.986 229.257C106.219 229.257 106.422 229.169 106.597 229.024L102.378 244.939C101.68 245.026 100.982 245.113 100.283 245.171C89.9839 246.073 80.7319 246.044 72.731 245.55C66.5921 242.058 55.1871 223.729 53.5578 221.081L57.3692 207.058C57.4855 206.65 57.2819 206.214 56.9037 206.039C55.1289 205.225 53.3251 205.865 51.6376 207.203C48.9027 209.182 46.4879 213.895 43.9276 219.248C40.1744 227.133 35.8102 236.618 35.8102 236.618C35.8102 236.618 28.5076 231.381 22.5723 230.77C21.9031 230.799 21.3213 230.944 20.8558 231.293C19.6338 232.137 19.2556 233.504 18.9646 234.494C18.8482 234.814 18.7319 235.221 18.6446 235.367C16.0843 237.083 14.8914 238.741 15.0369 240.458C15.0951 240.924 15.1242 241.302 15.1533 241.593C15.2405 242.349 15.2405 242.436 15.1824 242.495C15.0369 242.727 14.8914 242.931 14.7459 243.135C13.6404 244.793 12.8839 245.899 13.3203 247.964C13.4076 248.663 13.9022 249.448 14.7459 250.234C20.5066 255.005 28.7112 257.362 28.7112 257.362ZM15.4442 248.488C15.1823 248.168 15.0951 247.935 15.066 247.819C15.0369 247.79 15.0369 247.732 15.0369 247.703C14.7459 246.306 15.1533 245.724 16.2007 244.153C16.3461 243.949 16.4916 243.717 16.6371 243.484C17.0153 242.873 16.9571 242.407 16.8698 241.447C16.8407 241.156 16.7825 240.778 16.7534 240.342C16.6953 239.643 17.1608 238.48 19.6338 236.821C20.2157 236.443 20.3902 235.774 20.623 234.988C20.8558 234.232 21.1176 233.33 21.7286 232.806C19.4883 238.421 17.3644 243.717 15.4442 248.488ZM208.485 91.4659C215.992 88.1491 217.388 88.6437 217.592 88.7601C217.592 88.7601 217.592 88.7601 217.592 88.7892C217.592 93.8807 205.983 101.765 200.804 104.82C198.331 101.678 195.887 99.4668 194.578 98.3903C200.135 95.4227 204.79 93.0951 208.485 91.4659ZM166.415 112.356C166.298 111.25 166.24 109.504 166.531 107.584C167.171 103.278 169.208 100.049 172.583 98.0412C175.172 96.4701 178.198 95.9464 181.107 95.9464C185.384 95.9464 189.428 97.1102 191.611 97.8666L189.458 99.1177C179.42 104.616 169.673 110.406 166.415 112.356ZM164.204 157.83L163.913 159.488C163.825 159.983 164.145 160.419 164.611 160.507C164.669 160.507 164.698 160.507 164.756 160.507C165.164 160.507 165.542 160.216 165.629 159.809L169.993 134.671C170.284 134.496 170.546 134.322 170.808 134.118C170.895 134.06 170.954 134.031 171.041 133.973C171.128 133.915 171.186 133.856 171.244 133.769C174.998 130.394 176.249 123.208 176.307 122.859C176.365 122.568 176.278 122.306 176.074 122.102C175.87 121.899 175.58 121.811 175.318 121.84C174.358 121.986 171.565 122.073 170.255 120.909C169.761 120.473 169.499 119.862 169.528 119.047C169.557 117.971 169.906 117.185 170.575 116.662C172.059 115.498 174.939 115.818 176.016 116.051C176.103 116.08 176.191 116.08 176.278 116.08C176.598 116.08 176.889 115.905 177.034 115.643L179.711 110.406C180.846 110.348 183.697 110.057 186.723 109.097C191.436 107.584 194.549 105.082 195.771 101.794C197.808 103.773 200.455 106.769 202.579 110.552C203.045 111.337 204.441 112.036 207.554 113.49C209.009 114.159 211.336 115.265 212.006 115.847C211.598 116.196 210.435 116.691 209.707 117.011C207.816 117.854 206.012 118.64 206.158 120.066C206.42 122.51 206.07 124.866 205.139 127.019C203.568 130.627 199.902 133.1 194.229 134.409C189.283 135.544 183.842 135.544 180.147 135.311C180.002 135.311 179.856 135.34 179.711 135.398C179.682 135.427 179.624 135.427 179.595 135.457C179.565 135.457 179.565 135.486 179.536 135.486C179.507 135.486 179.507 135.515 179.478 135.544C179.449 135.573 179.42 135.602 179.391 135.631C179.333 135.689 179.304 135.747 179.275 135.835C179.1 136.242 179.245 136.708 179.624 136.94C179.682 136.969 187.857 142.003 189.079 149.247C189.108 149.364 189.137 149.48 189.225 149.567L189.137 155.881C189.137 156.346 189.516 156.754 190.01 156.754C190.476 156.754 190.854 156.375 190.883 155.881L190.941 152.157C191.116 152.244 191.32 152.273 191.494 152.215C196.207 151.08 200.717 150.178 205.052 149.48C204.587 150.906 203.481 153.873 201.241 157.161C198.36 161.438 192.92 167.169 183.406 170.399C175.812 172.959 168.219 172.377 160.858 168.682C156.872 166.675 154.05 164.26 152.77 163.038C158.239 160.012 162.342 158.441 164.204 157.83ZM151.14 163.94C152.275 165.075 155.359 167.868 159.985 170.195C163.505 171.97 168.393 173.657 174.154 173.657C177.209 173.657 180.467 173.192 183.959 172.028C193.938 168.653 199.67 162.572 202.725 158.063C205.634 153.757 206.71 150.12 206.943 149.16C209.474 148.782 211.947 148.433 214.362 148.171C214.246 148.724 214.042 149.509 213.751 150.498C212.006 156.143 205.983 169.962 187.741 176.509C175.463 180.902 164.495 178.08 157.454 174.938C151.315 172.203 147.009 168.74 145.496 167.46C147.474 166.122 149.366 164.958 151.14 163.94ZM51.1721 210.054C52.5977 208.483 54.1106 207.349 55.4489 207.465L51.7831 221.023C51.7249 221.256 51.754 221.489 51.8703 221.692C52.1904 222.245 57.1655 230.362 62.5189 237.403C62.1988 237.636 58.5911 240.313 55.3617 243.571C49.921 242.64 45.8478 241.622 43.4039 240.924L47.4771 228.18C47.6226 227.802 47.448 227.395 47.128 227.191C45.8769 226.376 44.1894 226.173 42.7347 226.522C44.4804 222.74 46.2842 218.783 48.1753 214.71C48.9318 213.022 49.9501 211.451 51.1721 210.054ZM34.9956 257.42C34.8792 257.362 34.7338 257.333 34.5883 257.304C32.9299 256.925 31.1552 256.402 29.3804 255.791C32.7553 248.314 36.9158 239.207 41.5709 228.995C41.6 228.966 41.6291 228.937 41.6582 228.937C42.6474 228.006 44.364 227.918 45.5569 228.384L41.6873 240.458C41.3091 240.342 41.0472 240.254 40.8727 240.196C40.4072 240.051 39.9126 240.283 39.7671 240.749C39.6216 241.214 39.8544 241.709 40.3199 241.855C41.2218 242.146 44.684 243.251 50.2992 244.415C48.5245 246.626 44.975 252.212 44.4513 261.813C38.4287 259.282 35.0538 257.449 34.9956 257.42ZM129.669 278.368C101.331 278.775 77.0951 273.044 61.7624 268.185C55.5944 266.236 50.3283 264.257 46.1678 262.541C46.4297 256.169 48.0881 251.659 49.4555 248.954C50.6193 246.684 51.754 245.317 52.2486 244.793C59.784 246.248 70.5489 247.673 83.7868 247.673C88.9947 247.673 94.5518 247.47 100.4 246.917C116.518 245.491 134.702 235.25 147.096 226.929C159.403 218.666 168.655 210.578 170.139 209.269C175.056 212.964 182.068 219.976 191.581 233.01C193.443 235.541 195.131 238.043 196.673 240.516C195.713 240.836 194.025 241.535 190.825 242.989C187.275 244.589 182.969 246.597 179.973 247.993C176.889 249.448 175.027 252.561 175.23 255.965C175.405 258.671 173.863 261.202 171.39 262.308L161.352 266.788C157.89 268.33 155.912 272.025 156.581 275.779L156.726 276.593C148.784 277.553 139.764 278.223 129.669 278.368ZM162.72 314.561C162.574 314.445 162.4 314.416 162.225 314.416C153.846 299.2 149.191 282.238 148.376 279.154C166.851 277.612 180.584 274.353 189.545 271.589C190.738 271.211 191.872 270.862 192.949 270.483C193.909 270.192 194.84 269.902 195.742 269.581C196.818 270.774 202.172 276.244 206.71 276.244C207.816 276.244 208.893 275.924 209.794 275.109C211.162 274.557 219.076 271.385 229.462 265.683C230.626 267.894 234.699 274.207 243.311 274.207C250.294 274.207 252.039 270.163 253.378 266.876C254.134 265.188 254.745 263.734 255.967 262.948C256.898 262.337 258.237 261.726 259.779 261.028C264.608 258.875 271.242 255.878 272.638 249.303C272.987 247.673 273.278 246.161 273.511 244.851C274.471 239.672 274.966 236.85 278.37 234.726C281.105 233.039 283.636 229.78 285.323 225.794C286.749 222.449 288.233 217.008 287.215 210.025C287.156 209.647 286.836 209.327 286.429 209.298C286.342 209.298 286.254 209.298 286.196 209.327C285.905 209.356 285.643 209.56 285.498 209.822C281.017 219.394 274.238 228.704 265.307 237.49C258.149 244.531 249.625 251.252 239.936 257.449C226.349 266.148 214.246 271.385 210.318 273.015C210.522 269.96 209.94 266.497 208.98 263.093C209.038 262.89 208.98 262.657 208.863 262.453C208.863 262.424 208.834 262.424 208.834 262.424C208.776 262.25 208.689 261.988 208.543 261.639C207.671 258.817 206.594 256.082 205.547 253.725C205.052 252.59 204.499 251.456 203.947 250.292C202.666 247.499 201.299 244.793 199.961 242.815C197.779 239.032 195.393 235.337 192.92 231.962C182.853 218.172 174.241 209.24 167.375 205.399C165.309 204.236 163.709 203.741 162.458 203.537C184.162 185.993 201.881 175.898 213.053 170.457C225.564 164.405 232.808 162.718 232.866 162.689C233.361 162.572 233.652 162.107 233.535 161.641C233.419 161.147 232.954 160.856 232.488 160.972C232.197 161.03 225.04 162.689 212.384 168.828C200.746 174.472 182.097 185.15 159.258 203.916C159.199 203.974 159.141 204.032 159.112 204.09C158.705 204.439 158.007 205.225 157.774 206.563C157.425 208.803 158.472 211.509 160.945 214.651C157.017 217.764 151.926 221.605 146.136 225.504C144.74 226.435 143.256 227.395 141.743 228.384C141.743 228.384 141.714 228.384 141.714 228.355C126.352 220.499 114.423 216.397 106.248 216.164C103.949 216.077 102.262 216.339 101.04 216.717C115.645 191.55 131.967 176.887 143.256 168.973C143.518 168.799 143.75 168.624 144.012 168.45C145.234 169.526 149.802 173.396 156.697 176.48C161.323 178.545 167.579 180.495 174.794 180.495C179.042 180.495 183.58 179.825 188.323 178.138C207.321 171.33 213.577 156.899 215.41 151.022C215.846 149.596 216.079 148.52 216.195 147.996C242.613 145.494 260.739 150.993 273.627 160.129C265.888 165.802 246.337 163.998 248.286 171.795C250.497 180.582 262.223 170.573 282.036 173.774C284.451 174.094 287.651 175.898 289.542 176.247C297.194 187.041 301.674 199.028 305.34 208.774L305.515 209.269C317.094 240.196 317.036 268.476 316.949 272.52C313.05 274.877 281.658 293.468 255.851 298.036C250.701 298.938 246.133 301.789 241.682 304.553C236.678 307.666 231.499 310.866 225.505 311.39C221.199 311.768 217.621 311.536 214.13 311.332C207.554 310.925 201.357 310.546 191.814 314.212C173.252 321.34 162.836 314.649 162.72 314.561ZM184.046 361.752C183.755 360.21 183.406 358.639 183.028 357.068C180.06 344.761 175.492 334.782 173.805 331.291C173.95 331.291 174.096 331.291 174.241 331.291C178.547 331.291 190.214 330.447 214.071 323.406C214.595 326.635 216.108 339.961 208.689 349.969C203.568 356.835 195.276 360.792 184.046 361.752ZM64.7882 484.938C64.5846 485.2 64.1772 485.491 63.2462 485.316C62.7516 485.2 62.4025 484.938 62.1115 484.443C60.5114 481.679 62.1406 474.028 63.5081 469.227C63.7408 470.013 63.9445 470.827 64.1482 471.671C64.41 473.038 64.7009 474.464 65.0501 475.919C65.7483 479.963 65.9229 483.629 64.7882 484.938ZM70.1998 470.914C74.4766 476.821 76.6005 481.563 76.3387 484.647C76.2223 485.927 75.7277 486.916 74.7676 487.615C73.6911 488.4 72.9928 488.255 72.5564 488.051C71.3926 487.527 69.0651 485.229 66.7666 475.54C66.5339 474.173 66.2429 472.835 65.9229 471.613C65.2828 468.325 64.8755 465.474 64.7009 464.135C66.0393 465.619 68.1341 468.092 70.1998 470.914ZM64.73 461.43C61.3842 454.447 62.6352 444.933 63.1008 442.169C75.6113 443.769 86.9872 444.555 97.3739 444.555C116.198 444.555 131.705 441.907 144.565 436.438C144.565 438.823 144.769 444.468 146.049 451.305C147.533 459.189 150.849 470.129 158.094 478.421C134.178 478.159 105.229 472.835 64.73 461.43ZM172.583 477.897C158.792 463.67 156.552 433.79 156.348 430.124C161.614 426.662 166.328 422.531 170.546 417.759C170.983 421.25 172.117 429.164 174.241 438.387C178.78 458.287 184.57 469.489 188.788 475.511C183.58 476.646 178.198 477.432 172.583 477.897ZM315.436 396.811C313.283 393.174 311.014 389.712 308.686 386.366C308.861 386.25 309.006 386.075 309.064 385.872L310.519 380.751C311.334 377.958 310.752 374.903 309.035 372.575L304.671 366.698C302.693 364.051 301.471 360.88 301.122 357.592L300.452 350.958C299.812 344.761 296.263 339.117 290.968 335.829L269.962 322.853C269.671 322.679 269.322 322.679 269.031 322.882C268.943 322.941 268.885 322.999 268.827 323.086C268.623 323.29 268.565 323.61 268.652 323.901C268.652 323.901 268.681 323.988 268.711 324.075L273.278 352.006C273.249 352.209 273.307 352.442 273.424 352.617C273.715 356.69 273.918 361.025 273.889 365.593C273.802 379.354 271.882 392.243 268.187 403.939C263.59 418.516 256.171 431.259 246.192 441.762C238.074 450.316 229.724 457.182 220.909 462.593C220.647 462.448 220.385 462.302 220.123 462.186L199.175 454.04C196.557 453.021 193.618 454.331 192.571 456.949C191.552 459.568 192.862 462.506 195.48 463.554L209.067 468.82C203.19 471.467 197.08 473.533 190.65 475.046C176.889 456.105 172.496 419.33 172.117 415.926C174.328 413.249 176.423 410.398 178.373 407.314C178.547 407.023 178.722 406.732 178.896 406.47C187.479 402.194 207.118 409.816 207.292 401.524C207.496 392.505 193.764 401.757 184.744 391.021C185.297 388.199 185.646 385.261 185.792 382.177C186.053 376.358 185.588 370.073 184.395 363.44C190.825 362.858 196.324 361.345 200.892 358.872C201.299 362.102 202.608 375.107 198.768 390.469C198.651 390.934 198.942 391.4 199.408 391.516C199.466 391.545 199.553 391.545 199.611 391.545C199.99 391.545 200.339 391.283 200.484 390.876C204.819 373.594 202.754 359.163 202.579 357.912C205.576 356.05 208.107 353.722 210.144 350.958C218.232 340.077 216.37 325.995 215.817 322.882C216.661 322.62 217.534 322.359 218.406 322.097C226.553 319.769 235.398 316.831 244.591 313.194C285.556 297.687 313.429 277.379 317.764 274.091C319.48 275.779 325.27 281.888 333.213 295.068C349.244 321.602 361.376 355.701 368.737 379.645C373.217 394.164 376.011 408.391 377.669 421.658C373.043 423.374 351.717 430.561 329.838 425.76C325.532 415.373 320.731 405.656 315.436 396.811ZM330.623 427.797C335.657 428.815 340.661 429.222 345.432 429.222C360.794 429.222 373.741 425.004 377.873 423.491C378.687 430.502 379.211 437.194 379.502 443.508C366.293 451.043 340.806 447.639 337.519 447.144C335.395 440.482 333.096 433.994 330.623 427.797ZM374.643 509.173C374.527 509.232 374.41 509.261 374.265 509.319C371.414 510.395 361.347 513.945 353.812 512.578C352.706 512.345 351.6 512.025 350.582 511.559C350.291 508.068 348.4 487.178 341.505 460.993C343.308 461.284 347.905 461.953 354.219 461.953C361.143 461.953 370.133 461.168 379.764 458.229C379.735 462.448 379.618 466.434 379.444 470.071C378.425 491.659 375.254 506.526 374.643 509.173ZM377.523 509.464C377.494 509.464 377.494 509.494 377.523 509.464C377.203 509.406 376.942 509.348 376.738 509.29C379.56 503.878 386.31 492.677 390.907 492.066C391.751 491.95 392.478 492.241 393.118 492.997C393.845 493.841 394.107 494.772 393.904 495.819C392.943 500.678 382.673 506.846 378.134 509.173C377.727 509.348 377.523 509.464 377.523 509.464ZM389.743 506.293C396.929 503.878 401.672 503.646 402.748 505.624C402.981 506.06 402.923 506.264 402.806 506.439C402.399 507.108 400.304 508.708 389.743 509.261C386.834 509.406 383.953 509.435 381.771 509.435C383.895 508.504 386.805 507.311 389.743 506.293Z" fill="#1A1A1A"/>
<path d="M37.0326 238.77C36.7416 239.178 36.2179 239.265 35.8106 238.974C30.3118 235.075 23.4164 231.584 21.8453 232.719C21.1471 233.213 20.8561 234.173 20.6234 234.988C20.3906 235.774 20.2161 236.443 19.6342 236.821C17.1611 238.479 16.6956 239.643 16.7538 240.341C16.7829 240.778 16.8411 241.156 16.8702 241.447C16.9575 242.407 17.0157 242.873 16.6374 243.484C16.492 243.716 16.3465 243.949 16.201 244.153C15.1536 245.724 14.7463 246.306 15.0373 247.702C15.0373 247.731 15.0373 247.79 15.0663 247.819C15.0954 248.342 16.4629 250.03 21.3798 252.503C25.3948 254.51 30.3118 256.314 34.5887 257.303C34.7341 257.303 34.8505 257.333 34.996 257.42C35.0542 257.449 38.4291 259.282 44.4516 261.813C44.9753 252.212 48.5249 246.626 50.2996 244.415C44.6844 243.251 41.2222 242.145 40.3202 241.854C39.8547 241.709 39.622 241.214 39.7675 240.749C39.9129 240.283 40.4075 240.05 40.873 240.196C40.9021 240.196 41.6586 240.458 41.6877 240.458L44.3062 232.311L45.5572 228.384C44.3644 227.918 42.6478 228.005 41.6586 228.936C41.6004 228.995 41.5131 229.053 41.4258 229.082C40.1748 231.322 37.8181 236.792 37.149 238.305C37.2072 238.45 37.149 238.625 37.0326 238.77Z" fill="#FC9F5B"/>
<path d="M101.215 245.113C104.008 231.701 108.838 218.696 108.867 218.55C109.042 218.085 109.536 217.881 110.002 218.027C110.467 218.201 110.671 218.696 110.526 219.161C110.467 219.307 105.87 231.643 103.136 244.91L101.215 245.113Z" fill="#FC9F5B"/>
<path d="M40.9884 215.321C41.3957 215.175 41.7739 214.971 42.0358 214.622C42.2976 214.244 42.5595 213.633 42.2104 212.673C41.6285 210.927 35.4314 205.923 31.9982 206.505C29.9325 206.854 28.9724 209.269 28.6815 210.084C27.9832 210.404 27.4304 210.898 27.1395 211.567C26.7613 212.382 26.4412 213.255 26.7613 214.099C26.7904 214.157 26.7903 214.186 26.8194 214.244C26.5867 214.244 26.3539 214.273 26.1503 214.331C25.2193 214.564 24.4919 215.117 24.0264 215.931C23.4445 216.979 23.5318 217.91 23.9973 218.754C22.6299 220.499 21.9316 221.925 22.7171 223.263C23.5318 224.66 29.0597 227.22 32.1437 227.22C32.5219 227.22 32.8711 227.191 33.162 227.104C34.1221 226.813 34.6458 226.027 34.5585 225.038C34.5294 224.834 34.4713 224.631 34.4131 224.456C34.7331 224.485 35.0241 224.514 35.315 224.514C36.2169 224.514 37.0025 224.311 37.5262 223.845C37.8462 223.554 37.9917 223.118 37.9626 222.623C37.9044 221.634 37.0025 220.237 35.635 218.841C36.5951 219.19 37.4971 219.452 38.2826 219.656C39.2136 219.888 39.9701 220.005 40.5811 220.005C41.5121 220.005 42.0649 219.743 42.3558 219.19C42.8795 218.23 42.3267 216.833 40.9884 215.321ZM32.3183 208.221C34.7331 207.814 40.1738 212.12 40.5811 213.197C40.5811 213.226 40.5811 213.255 40.6102 213.255C40.6974 213.458 40.6684 213.546 40.6684 213.546C40.552 213.662 40.0283 213.779 39.5046 213.749C39.4755 213.749 39.4173 213.749 39.3882 213.749C38.719 213.168 37.9335 212.615 37.0607 212.062C34.7913 210.607 32.5219 209.793 30.7472 209.734C31.0963 209.065 31.6491 208.338 32.3183 208.221ZM32.8711 225.183C32.9002 225.358 32.8711 225.387 32.7547 225.416C31.009 226.056 24.8992 223.292 24.2882 222.39C24.2882 222.39 24.2882 222.361 24.2591 222.361C24.1428 222.187 23.91 221.779 25.1902 220.092C26.2085 220.994 27.5759 221.75 28.6815 222.361C28.856 222.449 29.0306 222.565 29.2052 222.652C29.6707 222.914 30.2235 223.176 30.8054 223.409C31.8528 224.049 32.8129 224.863 32.8711 225.183ZM36.246 222.652C35.6059 222.943 33.6275 222.71 31.5909 221.896C31.4745 221.838 31.3582 221.779 31.2709 221.721C31.1836 221.663 31.0963 221.663 31.009 221.634C30.689 221.489 30.369 221.314 30.0489 221.139C29.8744 221.052 29.6998 220.936 29.4961 220.848C26.9067 219.423 24.841 218.143 25.5684 216.775C25.8011 216.368 26.0921 216.135 26.5576 216.019C26.7322 215.99 26.9358 215.961 27.1395 215.961C28.4778 215.961 30.2817 216.804 31.6491 217.735C34.704 219.859 36.1005 221.983 36.246 222.652ZM32.7256 215.786L31.9982 215.466C30.0198 214.593 28.5942 213.953 28.4196 213.488C28.3614 213.313 28.4487 212.906 28.7397 212.295C28.9142 211.946 29.2052 211.713 29.6416 211.567C29.9034 211.48 30.1944 211.451 30.5144 211.451C31.9691 211.451 34.0639 212.207 36.1296 213.517C39.3591 215.582 40.6684 217.503 40.8138 218.23C39.941 218.346 37.0316 217.706 32.7256 215.786Z" fill="#1A1A1A"/>
<path d="M32.7257 225.445C32.8421 225.387 32.8712 225.387 32.8421 225.213C32.813 224.864 31.8238 224.049 30.7473 223.467C30.1654 223.234 29.6126 222.972 29.1471 222.711C28.9725 222.623 28.798 222.507 28.6234 222.42C27.5178 221.809 26.1795 221.052 25.1321 220.15C23.8519 221.838 24.0847 222.245 24.2011 222.42C24.2011 222.42 24.2011 222.449 24.2302 222.449C24.8993 223.322 30.9801 226.086 32.7257 225.445Z" fill="#FC9F5B"/>
<path d="M31.0097 221.634C31.097 221.634 31.1843 221.663 31.2716 221.722C31.3589 221.751 31.4753 221.809 31.5916 221.896C33.6282 222.711 35.6067 222.944 36.2467 222.653C36.1013 221.983 34.7047 219.86 31.6789 217.736C30.3406 216.805 28.5076 215.961 27.1693 215.961C26.9656 215.961 26.762 215.99 26.5874 216.019C26.1219 216.135 25.831 216.368 25.5982 216.776C24.8708 218.143 26.9365 219.423 29.5259 220.849C29.7005 220.965 29.9042 221.052 30.0787 221.14C30.3406 221.343 30.6897 221.489 31.0097 221.634Z" fill="#FC9F5B"/>
<path d="M40.815 218.23C40.6695 217.532 39.3603 215.583 36.1308 213.517C34.0651 212.208 31.9703 211.451 30.5156 211.451C30.1956 211.451 29.9046 211.48 29.6428 211.568C29.2064 211.684 28.9154 211.917 28.7409 212.295C28.4499 212.906 28.3626 213.284 28.4208 213.488C28.5954 213.953 30.021 214.593 31.9994 215.466L32.7268 215.786C37.0328 217.706 39.9422 218.347 40.815 218.23Z" fill="#FC9F5B"/>
<path d="M40.6389 213.546C40.6389 213.546 40.639 213.459 40.5808 213.255C40.5808 213.226 40.5517 213.197 40.5517 213.197C40.1443 212.091 34.7037 207.814 32.2889 208.222C31.6197 208.338 31.0669 209.065 30.7178 209.764C32.5216 209.822 34.7619 210.637 37.0313 212.091C37.9041 212.644 38.6605 213.197 39.3588 213.779C39.3879 213.779 39.4461 213.779 39.4752 213.779C39.9989 213.779 40.5517 213.662 40.6389 213.546Z" fill="#FC9F5B"/>
<path d="M362.599 100.223L435.335 69.3834L441.153 120.008L378.31 137.464L362.599 100.223Z" fill="#FC9F5B"/>
<path d="M394.311 98.4775C403.796 98.4775 411.477 91.4367 411.477 82.7665C411.477 81.6901 411.36 80.6427 411.128 79.6534L380.84 92.4841C383.983 96.1208 388.841 98.4775 394.311 98.4775Z" fill="white"/>
<path d="M408.16 65.8338C407.811 65.8338 407.461 65.601 407.345 65.2519C407.171 64.7864 407.403 64.2918 407.869 64.1463L457.62 46.2533C458.086 46.0787 458.58 46.3115 458.726 46.777C458.9 47.2425 458.667 47.7371 458.202 47.8826L408.451 65.7756C408.363 65.8047 408.247 65.8338 408.16 65.8338Z" fill="#1A1A1A"/>
<path d="M450.062 63.2153C449.683 63.2153 449.363 62.9825 449.218 62.6043C449.072 62.1388 449.305 61.6442 449.771 61.4987L468.507 55.3889C468.973 55.2434 469.468 55.4762 469.613 55.9417C469.759 56.4072 469.526 56.9018 469.06 57.0473L450.323 63.1571C450.236 63.2153 450.149 63.2153 450.062 63.2153Z" fill="#1A1A1A"/>
<path d="M453.985 114.275C453.607 114.275 453.229 114.013 453.141 113.606C453.025 113.141 453.316 112.675 453.781 112.559L483.865 105.14C484.331 105.023 484.796 105.314 484.912 105.78C485.029 106.245 484.738 106.711 484.272 106.827L454.189 114.246C454.131 114.275 454.043 114.275 453.985 114.275Z" fill="#1A1A1A"/>
<path d="M427.364 135.66C426.986 135.66 426.608 135.398 426.52 134.991C426.404 134.525 426.695 134.06 427.16 133.943L478.628 121.287C479.094 121.171 479.559 121.462 479.676 121.927C479.792 122.393 479.501 122.858 479.036 122.975L427.568 135.631C427.51 135.66 427.422 135.66 427.364 135.66Z" fill="#1A1A1A"/>
<path d="M442.026 119.92L436.207 69.3835C436.236 69.1217 436.12 68.8598 435.916 68.6852C435.596 68.3943 435.101 68.3943 434.781 68.6852L362.482 99.3507C362.133 99.4089 361.842 99.6416 361.755 100.02C361.755 100.049 361.755 100.078 361.725 100.107C361.696 100.224 361.696 100.311 361.725 100.427C361.725 100.456 361.725 100.485 361.755 100.485C361.755 100.514 361.755 100.544 361.784 100.544C361.784 100.573 361.784 100.573 361.784 100.602L377.495 137.843C377.553 137.959 377.64 138.075 377.727 138.163C377.815 138.25 377.931 138.308 378.047 138.337C378.135 138.366 378.222 138.366 378.309 138.366C378.396 138.366 378.455 138.366 378.542 138.337L441.386 120.881C441.793 120.735 442.084 120.357 442.026 119.92ZM369.377 114.072C368.563 111.105 366.904 101.562 380.753 105.897L379.648 105.548L387.183 107.497L378.193 134.991L369.377 114.072ZM400.421 109.097L365.362 99.9908L432.279 71.6238L400.421 109.097ZM388.9 107.963L400.479 110.959C400.566 110.988 400.625 110.988 400.712 110.988C400.974 110.988 401.206 110.872 401.381 110.639L411.069 99.2634L439.175 119.659L379.677 136.184L388.9 107.963ZM412.204 97.9251L415.201 94.4047C414.881 94.812 414.706 95.0447 414.706 95.0447C414.706 95.0447 425.675 81.7777 430.504 85.8509C435.363 89.9241 438.855 107.759 438.855 107.759C438.855 107.759 438.796 107.235 438.738 106.362L440.077 118.117L412.204 97.9251Z" fill="#1A1A1A"/>
<path d="M416.452 121.695C419.585 121.695 422.125 119.155 422.125 116.021C422.125 112.888 419.585 110.348 416.452 110.348C413.318 110.348 410.778 112.888 410.778 116.021C410.778 119.155 413.318 121.695 416.452 121.695Z" fill="white"/>
</svg>
