<svg width="505" height="466" viewBox="0 0 505 466" fill="none" xmlns="http://www.w3.org/2000/svg">
<path d="M284.428 427.322L267.261 377.166L265.65 369.613C265.65 369.613 269.189 367.13 269.295 361.451C269.374 355.773 265.94 347.453 263.774 346.476C261.582 345.499 260.473 345.235 259.601 347.004C259.601 347.004 257.145 343.465 254.847 344.469C252.55 345.472 252.734 348.378 252.734 348.378C252.734 348.378 249.512 344.416 247.98 345.261C246.448 346.106 246.052 350.992 246.052 350.992C246.052 350.992 243.358 348.906 242.038 349.698C240.717 350.491 240.928 355.826 240.928 355.826C240.928 355.826 233.85 362.112 235.778 366.919C237.706 371.726 244.969 372.597 245.815 374.631C246.66 376.665 255.904 450.247 255.904 450.247L284.428 427.322Z" fill="white"/>
<path d="M285.14 427.058C277.559 405.559 266.387 372.782 266.387 369.877C266.625 369.454 266.995 369.031 267.417 368.556C268.659 367.156 270.323 365.228 270.059 361.398C269.715 356.671 267.629 348.483 264.222 345.842C263.376 345.182 261.369 344.178 259.89 345.129C259.652 345.287 259.441 345.499 259.256 345.71C258.86 345.023 258.279 344.31 257.487 343.887C256.589 343.412 255.611 343.359 254.581 343.729C253.789 344.02 253.129 344.653 252.706 345.578C252.548 345.921 252.416 346.317 252.31 346.714C252.204 346.555 252.072 346.423 251.94 346.265C250.514 344.733 248.903 344.204 247.292 344.759C245.866 345.261 245.179 346.793 245.205 349.275C244.651 348.932 243.964 348.615 243.224 348.562C242.353 348.509 241.534 348.8 240.847 349.407C240.293 349.883 239.764 350.992 239.976 355.112C238.629 356.512 232.263 363.643 235.486 368.503C237.282 371.25 239.87 372.359 241.957 373.231C243.7 373.97 245.073 374.551 245.549 375.819C246.526 378.46 252.785 430.544 255.11 450.379C255.162 450.802 255.506 451.092 255.902 451.092C255.928 451.092 255.955 451.092 256.008 451.04C256.43 450.987 256.747 450.591 256.694 450.168C256.351 447.263 248.322 378.619 247.054 375.238C246.341 373.336 244.519 372.571 242.59 371.752C240.61 370.907 238.365 369.956 236.806 367.605C234.72 364.462 238.206 359.602 240.134 357.305C240.161 357.463 240.161 357.648 240.187 357.806C240.504 361.187 241.032 364.462 241.032 364.489C241.111 364.885 241.455 365.149 241.825 365.149C241.877 365.149 241.93 365.149 241.957 365.149C242.406 365.096 242.696 364.673 242.617 364.251C241.534 357.622 241.217 351.362 241.904 350.596C242.3 350.253 242.67 350.121 243.119 350.147C244.043 350.226 244.994 351.045 245.39 351.441C245.681 353.554 246.235 355.403 246.262 355.482C246.367 355.826 246.684 356.037 247.028 356.037C247.107 356.037 247.186 356.037 247.239 355.984C247.661 355.878 247.899 355.429 247.767 355.007C246.79 351.811 246.13 346.819 247.794 346.238C250.25 345.393 252.046 349.223 252.072 349.249C252.099 349.302 252.125 349.355 252.178 349.407C252.257 350.332 252.495 351.309 252.838 352.26C252.944 352.577 253.261 352.788 253.578 352.788C253.657 352.788 253.763 352.762 253.868 352.735C254.291 352.577 254.502 352.128 254.344 351.705C253.604 349.698 253.551 347.559 254.159 346.238C254.317 345.868 254.634 345.393 255.136 345.208C255.743 344.997 256.272 344.997 256.747 345.261C257.777 345.816 258.358 347.374 258.49 347.928C258.517 347.981 258.517 348.034 258.543 348.087C258.517 349.064 258.649 350.226 258.966 351.626C259.071 352.075 259.494 352.339 259.917 352.234C260.366 352.128 260.63 351.705 260.524 351.283C259.679 347.506 260.498 346.661 260.762 346.476C261.396 346.053 262.637 346.581 263.271 347.083C265.886 349.117 268.131 356.301 268.5 361.504C268.738 364.673 267.417 366.179 266.255 367.499C265.753 368.081 265.278 368.635 264.961 369.269C264.671 369.85 264.248 370.748 273.968 399.431C278.722 413.456 283.634 427.454 283.687 427.586C283.793 427.903 284.11 428.114 284.427 428.114C284.506 428.114 284.611 428.114 284.664 428.061C285.06 427.929 285.298 427.48 285.14 427.058Z" fill="#1A1A1A"/>
<path d="M454.938 455.371L462.941 411.528C462.941 411.528 465.45 394.307 463.759 389.897C462.069 385.486 452.508 380.6 450.422 375.291C448.335 369.982 443.66 357.067 443.66 357.067C443.66 357.067 446.381 354.479 449.391 358.176C452.376 361.874 458.926 369.322 461.726 367.262C464.525 365.202 466.559 334.326 469.227 334.089C471.921 333.851 471.155 356.776 472.554 357.04C473.954 357.305 477.097 342.831 477.097 342.831C477.097 342.831 478.471 327.591 480.848 327.671C483.225 327.75 484.281 339.265 483.093 344.469C481.904 349.672 482.644 361.372 483.832 361.266C485.021 361.161 489.96 345.657 489.96 345.657C489.96 345.657 493.71 337.02 494.978 337.866C496.246 338.711 495.902 345.921 495.057 350.411C494.212 354.901 493.156 360.58 493.156 360.58L497.117 355.693C497.117 355.693 501.264 346.185 502.69 346.978C504.116 347.77 502.717 354.426 502.717 354.426L498.491 365.994L495.321 376.981C495.321 376.981 488.718 405.057 488.111 415.886C487.503 426.714 487.134 447.765 488.718 451.092C488.745 451.145 470.706 455.899 454.938 455.371Z" fill="white"/>
<path d="M503.935 347.137C503.618 346.555 503.196 346.344 502.879 346.291C501.003 345.922 499.604 348.88 498.125 352.049C497.834 352.657 497.57 353.238 497.306 353.766C496.619 355.113 495.272 357.094 494.084 358.784C494.585 356.566 495.219 353.634 495.748 350.676C497.755 339.477 496.619 337.576 495.272 337.179C492.921 336.519 490.941 341.3 487.322 351.627C486.186 354.849 484.681 359.127 483.889 360.342C483.677 359.788 483.308 358.256 483.413 354.03C483.466 350.993 483.783 347.084 484.206 343.545C484.813 338.579 484.681 330.418 482.542 327.83C481.987 327.143 481.38 326.984 480.957 326.958C478.105 326.773 477.471 332.425 476.969 336.968C476.863 337.892 476.758 338.685 476.678 339.213L476.625 339.451C474.618 350.887 473.35 355.139 472.69 356.724C472.532 355.245 472.505 352.577 472.452 350.332C472.294 341.379 472.003 334.934 469.706 333.667C469.257 333.402 468.543 333.244 467.619 333.799C466.378 334.538 465.691 338.474 464.08 350.755C463.235 357.094 462.099 365.783 461.201 366.708C460.858 367.025 460.409 367.13 459.828 367.051C457.583 366.734 454.255 363.644 451.746 359.497C450.319 357.173 448.682 355.826 446.886 355.535C444.747 355.192 443.215 356.433 443.162 356.486C442.898 356.724 442.819 357.067 442.924 357.384C443.003 357.516 448.286 371.699 449.686 375.582C450.451 377.748 452.934 379.966 455.813 382.555C458.428 384.879 461.36 387.546 463.103 390.32C463.895 391.587 464.503 397.715 459.933 424.681C457.319 440.132 454.202 455.055 454.176 455.213C454.07 455.636 454.36 456.058 454.783 456.138C454.836 456.164 454.889 456.164 454.941 456.164C455.311 456.164 455.628 455.9 455.813 455.477C455.866 455.345 458.956 440.37 461.597 424.892C466.959 393.304 465.163 390.372 464.555 389.422C462.707 386.464 459.669 383.717 456.975 381.313C454.36 378.963 451.904 376.77 451.27 374.974C450.055 371.567 445.777 360.105 444.747 357.358C445.196 357.147 445.909 356.882 446.754 357.041C448.074 357.279 449.316 358.362 450.478 360.263C453.304 364.938 456.922 368.187 459.696 368.583C460.752 368.715 461.676 368.451 462.363 367.817C463.525 366.734 464.318 361.584 465.717 350.913C466.536 344.654 467.672 336.096 468.543 335.093C468.834 334.934 468.94 334.987 468.992 335.014C469.204 335.146 470.023 335.912 470.472 340.375C470.762 343.386 470.841 347.084 470.894 350.332C470.947 352.525 470.973 354.558 471.079 356.037C471.158 357.411 471.29 359.127 472.452 359.127C473.377 359.127 474.301 358.467 476.124 350.359C477.101 346.054 477.946 341.273 478.21 339.715L478.263 339.477C478.369 338.923 478.448 338.077 478.554 337.127C478.765 335.278 479.029 332.98 479.478 331.157C479.953 329.203 480.561 328.516 480.878 328.543C481.036 328.543 481.195 328.648 481.353 328.86C482.779 330.576 483.387 337.338 482.647 343.36C482.198 346.899 481.908 350.861 481.829 353.924C481.697 359.709 482.33 361.135 482.885 361.716C483.176 362.006 483.572 362.165 483.968 362.138C485.236 362.033 486.054 360.025 488.828 352.155C489.963 348.906 491.152 345.578 492.288 342.937C493.899 339.239 494.691 338.764 494.849 338.711C495.008 338.896 496.012 340.349 494.11 350.808C493.159 355.932 491.971 360.923 491.68 362.033C491.442 362.376 491.548 362.825 491.865 363.063C492.129 363.274 492.472 363.3 492.763 363.116C492.921 363.036 493.054 362.904 493.133 362.746C493.872 361.769 497.438 357.067 498.732 354.479C498.996 353.924 499.287 353.343 499.577 352.709C500.158 351.415 500.792 350.095 501.4 349.117C502.033 348.087 502.403 347.876 502.535 347.823C503.011 348.589 502.958 353.739 499.339 361.769C495.431 370.432 491.786 388.761 491.759 388.946C491.654 389.422 491.548 389.976 491.416 390.637C489.514 400.066 484.443 425.025 487.982 451.251C488.035 451.648 488.379 451.938 488.775 451.938C488.801 451.938 488.854 451.938 488.907 451.991C489.356 451.938 489.646 451.515 489.594 451.093C486.107 425.13 491.099 400.33 493.001 391.006C493.133 390.346 493.238 389.765 493.344 389.29C493.37 389.105 496.989 370.96 500.819 362.455C503.724 355.932 505.071 349.355 503.935 347.137Z" fill="#1A1A1A"/>
<path d="M470.103 361.927C469.654 361.9 469.284 362.217 469.258 362.666L469.099 365.492C469.073 365.941 469.39 366.311 469.839 366.338C469.865 366.338 469.865 366.338 469.892 366.338C470.314 366.338 470.657 366.021 470.684 365.598L470.842 362.772C470.869 362.323 470.552 361.953 470.103 361.927Z" fill="#1A1A1A"/>
<path d="M479.108 362.746C478.686 362.852 478.422 363.274 478.527 363.697C478.791 364.78 478.871 366.047 478.686 366.312C478.422 366.655 478.474 367.157 478.818 367.421C478.976 367.553 479.135 367.606 479.32 367.606C479.557 367.606 479.769 367.5 479.901 367.315C480.719 366.312 480.218 364.014 480.059 363.327C479.953 362.904 479.531 362.64 479.108 362.746Z" fill="#1A1A1A"/>
<path d="M488.143 368.9C488.301 369.032 488.46 369.085 488.645 369.085C488.882 369.085 489.12 368.979 489.252 368.768C489.992 367.817 489.939 365.467 489.886 364.78C489.86 364.357 489.49 364.014 489.041 364.04C488.618 364.067 488.275 364.437 488.301 364.886C488.381 366.127 488.248 367.5 488.011 367.791C487.747 368.134 487.799 368.636 488.143 368.9Z" fill="#1A1A1A"/>
<path d="M494.96 368.873C495.118 368.952 495.25 369.005 495.409 369.005C495.673 369.005 495.91 368.9 496.042 368.662C496.703 367.658 496.624 366.523 496.465 366.021C496.333 365.598 495.91 365.36 495.488 365.493C495.092 365.625 494.854 366.047 494.96 366.47C494.96 366.496 495.144 367.156 494.748 367.764C494.484 368.134 494.59 368.636 494.96 368.873Z" fill="#1A1A1A"/>
<path d="M103.401 228.943C102.159 228.943 101.103 228.574 100.31 227.834C99.7293 227.306 99.3067 226.593 98.937 225.589C97.5371 221.654 98.5408 217.005 101.446 214.021C102.529 212.911 103.612 212.41 104.721 212.515C105.566 212.621 106.359 213.228 106.702 214.074C106.993 214.787 106.887 215.526 106.411 216.054C106.095 216.424 105.54 216.477 105.17 216.16C104.8 215.843 104.748 215.289 105.064 214.919C105.117 214.866 105.064 214.76 105.038 214.734C104.959 214.496 104.695 214.285 104.51 214.285C103.85 214.206 103.163 214.787 102.687 215.262C100.231 217.798 99.3859 221.707 100.574 225.034C100.839 225.748 101.129 226.249 101.472 226.593C102.767 227.781 105.064 227.015 105.989 226.646C111.377 224.401 115.127 219.567 118.825 214.417C119.512 213.44 120.198 212.462 120.832 211.485C120.225 211.168 119.67 210.772 119.248 210.244C118.429 209.24 117.98 207.893 117.874 206.124C117.742 203.747 118.64 201.237 120.119 199.758C121.123 198.755 122.338 198.279 123.658 198.359C124.53 198.411 125.296 198.755 125.745 199.309C126.352 200.023 126.405 200.973 126.379 201.687C126.247 204.777 125.164 207.603 123.605 210.35C123.949 210.35 124.292 210.323 124.662 210.244C126.299 209.901 127.778 208.897 129.02 207.946C133.378 204.618 137.075 200.34 139.743 195.533C139.241 195.189 138.792 194.74 138.475 194.238C137.947 193.367 137.841 192.39 138.185 191.518C138.634 190.409 139.981 189.537 141.248 190.013C141.829 190.224 142.278 190.673 142.516 191.254C142.912 192.258 142.648 193.525 142.252 194.476C143.493 194.423 144.735 193.737 146.003 192.971C151.655 189.59 155.986 186.394 158.812 181.931C159.076 181.508 159.605 181.402 160.027 181.666C160.45 181.931 160.555 182.459 160.291 182.881C157.095 187.926 151.972 191.439 146.901 194.476C145.263 195.453 143.52 196.404 141.592 196.193C141.513 196.193 141.433 196.166 141.38 196.166C138.581 201.264 134.698 205.807 130.076 209.319C128.676 210.376 126.986 211.538 125.005 211.934C124.187 212.093 123.368 212.119 122.575 212.013C121.836 213.149 121.07 214.285 120.251 215.421C116.395 220.809 112.46 225.853 106.649 228.257C105.513 228.679 104.404 228.943 103.401 228.943ZM123.421 200.049C122.681 200.049 121.994 200.34 121.387 200.947C120.251 202.056 119.564 204.09 119.67 205.965C119.749 207.339 120.066 208.369 120.647 209.055C120.964 209.425 121.36 209.716 121.809 209.927C123.394 207.259 124.53 204.513 124.662 201.581C124.688 201.185 124.662 200.656 124.451 200.392C124.292 200.207 124.002 200.102 123.605 200.075C123.526 200.049 123.473 200.049 123.421 200.049ZM140.509 191.544C140.245 191.544 139.928 191.782 139.796 192.073C139.611 192.522 139.769 192.944 139.954 193.235C140.113 193.472 140.298 193.71 140.535 193.869C140.905 193.103 141.037 192.231 140.879 191.809C140.826 191.676 140.747 191.597 140.641 191.571C140.615 191.544 140.562 191.544 140.509 191.544Z" fill="#1A1A1A"/>
<path d="M465.19 310.952C465.058 310.952 464.926 310.926 464.794 310.847C461.598 309.209 459.882 305.538 459.723 299.912C456.871 300.467 453.78 300.731 451.43 298.882C450.453 298.116 449.66 297.007 449.026 295.475C447.283 291.302 447.389 286.812 447.706 281.82C447.785 280.526 447.891 279.1 448.128 277.647C444.272 278.043 439.835 277.938 437.564 274.636C436.085 272.497 436.164 269.909 436.349 267.188C436.454 265.603 436.771 261.404 439.862 260.11C440.311 259.925 440.839 260.136 441.024 260.585C441.209 261.034 440.997 261.563 440.548 261.747C438.699 262.54 438.277 265.154 438.118 267.347C437.933 269.724 437.881 271.995 439.016 273.659C440.892 276.353 445.038 276.274 448.525 275.851C448.841 274.742 449.264 273.659 449.872 272.655C450.558 271.546 451.588 270.542 452.75 269.829C454.494 268.773 456.29 269.539 457.135 270.859C458.006 272.154 458.006 274.108 456.369 275.297C456.078 275.508 455.761 275.693 455.444 275.878C453.701 276.828 451.747 277.172 449.924 277.409C449.66 278.809 449.528 280.315 449.423 281.926C449.132 286.706 449 290.985 450.611 294.788C451.139 296.03 451.747 296.928 452.486 297.509C454.335 298.961 457.135 298.618 459.67 298.116C459.697 296.822 459.855 295.501 460.595 294.366C461.149 293.521 462.074 292.94 463.051 292.755C463.843 292.623 464.609 292.781 465.217 293.23C465.296 293.283 465.349 293.362 465.402 293.441C466.458 294.973 465.745 297.06 464.477 298.143C463.579 298.909 462.443 299.278 461.413 299.516C461.519 304.64 462.892 307.915 465.534 309.262C465.956 309.473 466.141 310.001 465.93 310.45C465.798 310.767 465.507 310.952 465.19 310.952ZM463.632 294.498C463.553 294.498 463.474 294.498 463.394 294.524C462.892 294.603 462.391 294.947 462.127 295.369C461.704 296.03 461.546 296.848 461.493 297.746C462.206 297.562 462.866 297.271 463.394 296.848C464.028 296.32 464.424 295.317 464.081 294.63C463.923 294.524 463.764 294.498 463.632 294.498ZM454.414 271.124C454.177 271.124 453.913 271.203 453.622 271.361C452.698 271.916 451.905 272.708 451.351 273.606C450.954 274.24 450.664 274.9 450.426 275.614C451.905 275.376 453.331 275.059 454.599 274.372C454.837 274.24 455.075 274.082 455.312 273.923C456.158 273.316 456.025 272.444 455.656 271.863C455.392 271.467 454.969 271.124 454.414 271.124Z" fill="#1A1A1A"/>
<path d="M269.5 246.455C269.42 246.455 269.341 246.455 269.288 246.455C268.073 246.402 266.885 245.742 266.066 244.686C265.221 243.576 264.851 242.176 265.089 240.909C265.564 238.426 268.179 236.551 270.794 236.868C271.269 236.921 271.612 237.37 271.56 237.845C271.507 238.32 271.058 238.69 270.582 238.611C268.892 238.426 267.122 239.641 266.805 241.252C266.647 242.018 266.885 242.916 267.439 243.629C267.941 244.289 268.654 244.686 269.367 244.712C270.53 244.765 271.771 244.025 272.537 242.784C273.329 241.543 273.593 240.011 273.778 238.558C274.703 231.374 273.593 223.979 270.662 217.376C268.813 217.746 266.858 217.297 265.432 216.874C261.47 215.712 260.335 213.414 260.599 211.671C260.757 210.667 261.365 209.796 262.342 209.241C263.53 208.554 265.062 208.422 266.33 208.924C268.417 209.743 269.684 211.645 270.662 213.388C270.979 213.969 271.295 214.576 271.612 215.184C271.639 215.157 271.665 215.157 271.692 215.131C273.118 214.259 273.805 212.49 274.359 210.694C276.34 204.302 277.106 197.673 276.683 190.991C276.657 190.515 277.027 190.093 277.502 190.066C277.978 190.04 278.4 190.41 278.427 190.885C278.876 197.778 278.057 204.619 276.023 211.196C275.416 213.203 274.518 215.421 272.59 216.61C272.51 216.663 272.405 216.716 272.299 216.768C275.31 223.635 276.446 231.321 275.495 238.769C275.284 240.433 274.94 242.176 273.989 243.708C272.986 245.399 271.216 246.455 269.5 246.455ZM264.719 210.324C264.191 210.324 263.663 210.456 263.24 210.694C262.897 210.905 262.448 211.275 262.368 211.882C262.131 213.546 264.508 214.708 265.96 215.157C267.545 215.633 268.866 215.791 269.922 215.686C269.684 215.184 269.42 214.682 269.13 214.207C268.311 212.727 267.255 211.143 265.696 210.535C265.406 210.403 265.062 210.324 264.719 210.324Z" fill="#1A1A1A"/>
<path d="M42.7578 216.662L46.9837 227.227L62.5666 219.304L58.3407 212.172L42.7578 216.662Z" fill="#1A1A1A"/>
<path d="M159.496 246.507L165.835 252.846L175.343 243.866L169.797 237.527L159.496 246.507Z" fill="white"/>
<path d="M165.838 253.638C165.627 253.638 165.442 253.559 165.284 253.4L158.945 247.062C158.786 246.903 158.707 246.692 158.707 246.48C158.707 246.269 158.813 246.058 158.971 245.899L169.272 236.919C169.589 236.629 170.09 236.655 170.381 236.999L175.927 243.337C176.218 243.654 176.192 244.13 175.875 244.447L166.366 253.427C166.234 253.585 166.049 253.638 165.838 253.638ZM160.661 246.56L165.865 251.763L174.263 243.839L169.747 238.663L160.661 246.56Z" fill="#1A1A1A"/>
<path d="M19.7773 267.636L24.7691 268.693L26.9085 261.403L20.332 259.079L19.7773 267.636Z" fill="white"/>
<path d="M24.7625 269.486C24.7097 269.486 24.6569 269.486 24.6041 269.459L19.6123 268.403C19.2161 268.324 18.952 267.98 18.9784 267.584L19.5066 259.027C19.533 258.789 19.6651 258.551 19.85 258.419C20.0613 258.287 20.3254 258.261 20.5631 258.34L27.166 260.664C27.5622 260.796 27.7735 261.219 27.6678 261.641L25.5285 268.957C25.4228 269.274 25.1059 269.486 24.7625 269.486ZM20.6159 267.003L24.2079 267.769L25.9246 261.879L21.0385 260.162L20.6159 267.003Z" fill="#1A1A1A"/>
<path d="M161.876 293.995L167.158 298.485L162.932 308.257L157.914 305.352L161.876 293.995Z" fill="#1A1A1A"/>
<path d="M201.752 230.66L191.715 209.002L186.908 211.511L180.094 196.061L174.02 199.758L184.848 221.416L189.655 218.378L197.526 233.037L201.752 230.66Z" fill="#1A1A1A"/>
<path d="M382.406 211.643L385.312 208.474L394.291 221.944L387.953 226.698L382.406 211.643Z" fill="#1A1A1A"/>
<path d="M319.551 244.659L326.154 240.697L332.228 245.979L324.833 253.903L319.551 244.659Z" fill="#1A1A1A"/>
<path d="M211.523 328.648L218.126 324.687L227.899 338.421L221.032 340.005L211.523 328.648Z" fill="#1A1A1A"/>
<path d="M436.816 237.791L441.835 231.453L450.55 242.281L445.796 247.3L436.816 237.791Z" fill="#1A1A1A"/>
<path d="M445.004 241.779L449.811 237.791L454.776 246.877L450.524 250.204L445.004 241.779Z" fill="#1A1A1A"/>
<path d="M207.107 131.951C275.146 100.871 322.564 58.7351 313.019 37.8379C303.473 16.9406 240.578 25.1951 172.539 56.2749C104.5 87.3547 57.0821 129.49 66.6279 150.388C76.1736 171.285 139.068 163.03 207.107 131.951Z" fill="#068466"/>
<path d="M176.108 62.2326C239.258 33.3911 297.945 24.1999 313.713 39.7299C313.528 39.096 313.29 38.4622 313.026 37.8547C303.491 16.9631 240.579 25.2299 172.542 56.3164C104.506 87.403 57.0705 129.53 66.6315 150.421C67.3182 151.927 68.2955 153.274 69.5104 154.489C63.4093 132.989 110.052 92.3948 176.108 62.2326Z" fill="white"/>
<path d="M246.184 75.0431C245.814 75.0431 245.444 74.8054 245.339 74.4092C245.207 73.9338 245.471 73.4584 245.946 73.3264C256.907 70.0777 266.362 67.9912 274.074 67.1196C274.55 67.0668 274.999 67.4101 275.052 67.8856C275.105 68.361 274.761 68.81 274.286 68.8628C266.679 69.7344 257.303 71.8209 246.448 75.0167C246.342 75.0431 246.263 75.0431 246.184 75.0431Z" fill="#1A1A1A"/>
<path d="M232.613 79.4007C232.243 79.4007 231.9 79.163 231.768 78.7932C231.609 78.3442 231.847 77.8424 232.322 77.684C234.488 76.9444 236.654 76.2313 238.74 75.5446C239.216 75.3861 239.691 75.6503 239.85 76.1257C240.008 76.6011 239.744 77.0765 239.269 77.235C237.182 77.9217 235.016 78.6348 232.877 79.3743C232.798 79.3743 232.692 79.4007 232.613 79.4007Z" fill="#1A1A1A"/>
<path d="M202.66 73.8332C209.578 71.5249 214.251 66.8493 213.097 63.3901C211.943 59.9308 205.399 58.9978 198.48 61.3062C191.562 63.6145 186.889 68.2901 188.043 71.7494C189.197 75.2086 195.741 76.1416 202.66 73.8332Z" fill="white"/>
<path d="M195.389 75.9935C191.242 75.9935 188.073 74.5937 187.201 72.0317C185.881 68.0436 190.714 62.9726 198.189 60.4634C201.675 59.3013 205.161 58.9051 208.067 59.3013C211.183 59.7503 213.243 61.0973 213.93 63.1046C214.59 65.1119 213.745 67.4361 211.527 69.6547C209.467 71.7148 206.403 73.5108 202.943 74.6465C200.275 75.5709 197.687 75.9935 195.389 75.9935ZM205.769 60.9389C203.603 60.9389 201.173 61.3614 198.77 62.1538C192.431 64.2667 187.915 68.5454 188.892 71.4771C189.869 74.4088 196.049 75.1219 202.388 73.009C205.61 71.9261 208.41 70.315 210.285 68.4398C211.976 66.7494 212.715 65.0062 212.266 63.6857C211.817 62.3651 210.206 61.4143 207.829 61.0709C207.169 60.9653 206.482 60.9389 205.769 60.9389Z" fill="#1A1A1A"/>
<path d="M263.386 53.9993C270.305 51.6909 274.978 47.0153 273.824 43.5561C272.669 40.0968 266.125 39.1638 259.207 41.4722C252.288 43.7806 247.615 48.4561 248.77 51.9154C249.924 55.3746 256.468 56.3076 263.386 53.9993Z" fill="white"/>
<path d="M256.092 56.1595C251.946 56.1595 248.776 54.7597 247.905 52.1978C246.584 48.2096 251.417 43.1386 258.892 40.6295C262.378 39.4673 265.865 39.0712 268.77 39.4673C271.886 39.9163 273.947 41.2633 274.633 43.2706C275.294 45.2779 274.448 47.6021 272.23 49.8207C270.17 51.8808 267.106 53.6768 263.646 54.8125C261.005 55.7369 258.39 56.1595 256.092 56.1595ZM266.472 41.0784C264.306 41.0784 261.876 41.501 259.473 42.2934C253.134 44.4063 248.618 48.685 249.595 51.6167C250.572 54.5484 256.752 55.2615 263.091 53.1486C266.314 52.0657 269.113 50.4546 270.988 48.5794C272.679 46.889 273.418 45.1458 272.969 43.8253C272.52 42.5047 270.909 41.5539 268.532 41.2105C267.898 41.1313 267.212 41.0784 266.472 41.0784Z" fill="#1A1A1A"/>
<path d="M306.747 47.4162C299.827 49.7141 295.152 54.3889 296.314 57.8488C297.291 60.7541 302.072 61.8898 307.697 60.7805C311.263 55.4982 313.455 50.5592 314.063 46.1221C311.844 46.1485 309.309 46.5447 306.747 47.4162Z" fill="white"/>
<path d="M151.284 97.5728C157.782 94.2594 161.706 88.9397 160.049 85.6908C158.393 82.442 151.782 82.4943 145.285 85.8077C138.787 89.1211 134.863 94.4408 136.519 97.6897C138.176 100.939 144.786 100.886 151.284 97.5728Z" fill="white"/>
<path d="M141.961 100.979C138.871 100.979 136.653 99.9491 135.702 98.1003C133.8 94.3499 137.815 88.6185 144.84 85.0266C151.866 81.4346 158.891 81.5666 160.793 85.2907C161.744 87.1659 161.268 89.5958 159.393 92.1313C157.65 94.4819 154.903 96.7005 151.654 98.3644C148.406 100.028 144.999 100.953 142.067 100.979C142.041 100.979 142.014 100.979 141.961 100.979ZM154.612 84.155C152.051 84.155 148.828 84.9737 145.659 86.5848C139.716 89.6222 135.86 94.5083 137.286 97.2816C137.92 98.5229 139.637 99.2096 142.067 99.2096C144.735 99.1832 147.851 98.338 150.862 96.7797C153.873 95.2479 156.408 93.2142 157.993 91.0748C159.419 89.1468 159.868 87.3244 159.235 86.083C158.601 84.7888 156.884 84.155 154.612 84.155Z" fill="#1A1A1A"/>
<path d="M104.534 130.508C111.032 127.195 114.956 121.875 113.299 118.626C111.643 115.378 105.032 115.43 98.5346 118.743C92.0369 122.057 88.1125 127.376 89.7692 130.625C91.4259 133.874 98.0363 133.822 104.534 130.508Z" fill="white"/>
<path d="M95.2399 133.914C92.1497 133.914 89.9311 132.884 88.9803 131.035C88.0295 129.16 88.5049 126.73 90.3801 124.195C92.1233 121.844 94.8701 119.626 98.1187 117.962C105.144 114.37 112.17 114.502 114.071 118.226C115.973 121.976 111.958 127.708 104.933 131.299C101.684 132.963 98.2772 133.888 95.3455 133.914C95.3191 133.914 95.2663 133.914 95.2399 133.914ZM107.891 117.09C105.329 117.09 102.107 117.909 98.9375 119.52C95.9266 121.052 93.391 123.085 91.8063 125.225C90.3801 127.153 89.9311 128.975 90.565 130.217C91.1989 131.458 92.942 132.145 95.3455 132.145C98.0131 132.118 101.13 131.273 104.141 129.715C110.083 126.677 113.939 121.791 112.513 119.018C111.853 117.724 110.136 117.09 107.891 117.09Z" fill="#1A1A1A"/>
<path d="M78.7299 157.184C77.8319 157.659 76.9603 158.161 76.168 158.689C80.5787 160.511 86.2308 161.568 92.913 161.858C93.9166 160.089 94.1807 158.399 93.494 157.078C91.8301 153.803 85.2272 153.856 78.7299 157.184Z" fill="white"/>
<path d="M92.9128 162.73C92.8864 162.73 92.8864 162.73 92.86 162.73C85.993 162.413 80.2617 161.33 75.8245 159.508C75.534 159.376 75.3227 159.112 75.2963 158.768C75.2699 158.425 75.4019 158.134 75.6924 157.95C76.5376 157.395 77.4356 156.867 78.36 156.391C85.3855 152.799 92.411 152.931 94.3127 156.655C95.105 158.24 94.8937 160.168 93.7052 162.281C93.5203 162.545 93.2298 162.73 92.9128 162.73ZM78.1487 158.478C82.0312 159.825 86.8118 160.644 92.3846 160.934C92.8864 159.904 93.2826 158.557 92.7016 157.448C91.3017 154.675 85.0686 154.912 79.126 157.95C78.809 158.134 78.4657 158.293 78.1487 158.478Z" fill="#1A1A1A"/>
<path d="M313.743 37.4855C308.963 27.0265 291.531 23.2232 264.617 26.7624C252.574 28.3471 239.236 31.3316 225.211 35.5046C225.158 35.4254 225.079 35.3462 224.973 35.2669C220.642 32.5729 212.613 32.2032 201.731 34.184C190.982 36.1385 178.198 40.338 165.732 46.0429C138.739 58.3771 119.036 74.6203 118.667 84.8416C107.811 91.9728 98.1183 99.2888 89.9571 106.552C69.6729 124.591 61.1155 140.253 65.896 150.712C69.488 158.636 80.3696 162.73 97.0882 162.73C102.476 162.73 108.472 162.307 115.022 161.435C116.844 161.198 118.693 160.907 120.595 160.617C120.674 160.617 120.753 160.59 120.832 160.564C129.892 159.085 139.558 156.919 149.647 154.067C151.813 156.972 156.62 157.843 161.638 157.843C165.362 157.843 169.245 157.368 172.203 156.84C184.669 154.753 200.199 149.656 215.888 142.498C231.576 135.314 245.601 126.942 255.347 118.86C261.157 114.053 270.454 105.047 267.628 98.8398C267.628 98.8398 267.628 98.8398 267.628 98.8134C275.816 93.1349 283.238 87.3507 289.682 81.6194C297.738 74.4618 303.944 67.674 308.197 61.4409C308.276 61.3881 308.355 61.3088 308.408 61.2296C312.132 55.736 314.324 50.6913 314.932 46.2014C314.932 46.0957 314.932 45.9636 314.905 45.858C315.275 42.8207 314.879 39.9946 313.743 37.4855ZM254.264 117.539C244.624 125.516 230.758 133.835 215.201 140.94C199.645 148.045 184.273 153.089 171.939 155.149C161.533 156.893 154.269 156.312 151.523 153.565C169.324 148.441 188.367 141.363 207.436 132.647C229.147 122.716 249.246 111.465 266.176 99.8434C267.602 103.673 263.297 110.065 254.264 117.539ZM191.457 137.85L240.953 113.736C230.229 119.863 218.74 125.727 206.776 131.194C201.652 133.545 196.555 135.763 191.457 137.85ZM307.193 60.0147C302.122 60.9127 297.923 59.909 297.157 57.5848C296.179 54.6531 300.696 50.3744 307.035 48.2615C309.068 47.5748 311.102 47.1786 313.03 47.0729C312.29 50.929 310.31 55.287 307.193 60.0147ZM313.373 45.2769C311.155 45.3562 308.804 45.8052 306.454 46.5711C298.979 49.0802 294.146 54.1513 295.466 58.1394C296.311 60.6749 299.375 62.1012 303.575 62.1012C304.314 62.1012 305.08 62.0484 305.899 61.9691C302.861 66.195 298.926 70.6586 294.172 75.307C294.515 73.8015 294.41 72.4545 293.882 71.266C292.376 67.9646 287.596 66.4327 279.672 66.6968C279.197 66.6968 278.8 67.1194 278.827 67.5948C278.827 68.0702 279.249 68.4664 279.725 68.44C286.75 68.1759 291.108 69.4172 292.27 71.9791C292.851 73.2205 292.667 74.858 291.769 76.8389C291.637 77.0766 291.663 77.3671 291.769 77.5784C290.739 78.5292 289.709 79.4801 288.626 80.4573C283.924 84.6303 278.721 88.8298 273.069 92.9764C273.043 92.8972 272.99 92.8179 272.964 92.7387C268.183 82.2797 233.372 87.9054 195.181 105.363C156.99 122.822 129.944 145.43 134.725 155.889C134.778 155.995 134.83 156.1 134.883 156.206C130.076 157.289 125.428 158.213 120.912 158.953C120.832 158.926 120.727 158.9 120.647 158.9C114.731 158.874 111.034 157.659 109.977 155.334C108.973 153.169 109 146.434 130.499 130.692C146.188 119.203 168.32 106.71 192.831 95.5119C202.999 90.8635 213.167 86.6376 223.019 82.94C223.494 82.7551 223.706 82.2533 223.547 81.8043C223.362 81.3289 222.861 81.1176 222.412 81.276C212.507 84.9737 202.312 89.2259 192.091 93.9008C167.475 105.126 145.237 117.698 129.443 129.24C108.789 144.347 106.57 152.139 108.34 156.021C109.185 157.896 111.139 159.217 114.097 159.93C101.631 161.515 91.2248 161.515 83.1957 159.904C74.9024 158.24 69.5673 154.912 67.3487 150.052C65.1301 145.192 66.1073 138.986 70.2804 131.617C74.3742 124.353 81.3469 116.324 91.0135 107.741C99.9143 99.817 110.637 91.8671 122.708 84.1285C128.386 80.695 141.698 72.7187 154.851 65.7196C160.688 62.7351 166.709 59.8034 172.837 57.0037C175.372 55.8416 177.908 54.7059 180.443 53.623C190.665 49.3707 202.048 45.0128 210.738 41.817C230.15 35.1085 248.638 30.4864 264.829 28.3735C271.3 27.5283 277.189 27.1057 282.525 27.1057C287.754 27.1057 292.402 27.5283 296.443 28.3207C304.737 29.9846 310.072 33.3125 312.29 38.1722C313.268 40.2851 313.611 42.6622 313.373 45.2769Z" fill="#1A1A1A"/>
<path d="M255.189 95.8291C252.231 95.8291 248.744 96.146 244.783 96.8063C232.449 98.8664 217.077 103.911 201.52 111.016C185.964 118.121 172.098 126.44 162.458 134.417C153.24 142.05 148.935 148.573 150.652 152.35C152.368 156.101 160.133 157.131 171.939 155.15C184.274 153.09 199.645 148.045 215.202 140.94C230.758 133.835 244.624 125.516 254.265 117.539C263.482 109.907 267.787 103.383 266.071 99.606C264.908 97.1233 261.079 95.8291 255.189 95.8291Z" fill="#068466"/>
<path d="M179.07 148.019C178.146 148.019 177.195 147.728 176.403 147.174C174.316 145.695 173.841 142.789 175.32 140.729C175.558 140.386 181.58 132.066 196.793 123.033C198.985 121.739 201.811 122.452 203.131 124.645C204.426 126.837 203.713 129.663 201.52 130.983C188.156 138.907 182.9 146.038 182.847 146.091C181.923 147.359 180.497 148.019 179.07 148.019Z" fill="white"/>
<path d="M211.689 125.516C209.998 125.516 208.361 124.591 207.569 122.98C206.433 120.709 207.331 117.909 209.629 116.773L212.904 115.136C215.175 114 217.975 114.898 219.11 117.196C220.246 119.467 219.348 122.267 217.05 123.403L213.775 125.04C213.089 125.357 212.375 125.516 211.689 125.516Z" fill="white"/>
<path d="M239.183 116.958C215.386 127.84 196.661 141.019 190.031 150.686C198.034 148.177 206.591 144.875 215.202 140.94C230.758 133.835 244.624 125.516 254.264 117.539C258.807 113.789 262.161 110.276 264.169 107.265C256.351 109.721 247.873 112.97 239.183 116.958Z" fill="white"/>
<path d="M375.195 145.536C419.656 125.226 450.644 97.6937 444.407 84.0408C438.17 70.3879 397.072 75.7844 352.61 96.0941C308.149 116.404 277.161 143.936 283.398 157.589C289.634 171.242 330.733 165.845 375.195 145.536Z" fill="#068466"/>
<path d="M354.948 99.9771C396.203 81.1191 434.579 75.1237 444.88 85.2658C444.748 84.8432 444.616 84.447 444.431 84.0508C438.198 70.396 397.101 75.784 352.624 96.121C308.147 116.458 277.166 143.952 283.399 157.607C283.848 158.585 284.482 159.483 285.274 160.275C281.313 146.224 311.765 119.707 354.948 99.9771Z" fill="white"/>
<path d="M400.751 108.35C400.513 108.35 400.275 108.191 400.196 107.927C400.117 107.61 400.275 107.293 400.592 107.214C407.75 105.101 413.93 103.728 418.975 103.147C419.292 103.12 419.582 103.332 419.609 103.649C419.635 103.966 419.424 104.256 419.107 104.282C414.141 104.864 408.014 106.211 400.909 108.297C400.856 108.35 400.803 108.35 400.751 108.35Z" fill="#1A1A1A"/>
<path d="M391.876 111.202C391.639 111.202 391.401 111.043 391.322 110.806C391.216 110.515 391.374 110.172 391.691 110.066C393.091 109.591 394.517 109.115 395.891 108.666C396.181 108.561 396.525 108.745 396.604 109.036C396.71 109.327 396.525 109.67 396.234 109.749C394.861 110.198 393.461 110.647 392.061 111.149C392.008 111.202 391.929 111.202 391.876 111.202Z" fill="#1A1A1A"/>
<path d="M372.312 107.547C376.837 106.038 379.895 102.986 379.142 100.73C378.39 98.4747 374.112 97.8701 369.587 99.3798C365.063 100.889 362.005 103.942 362.757 106.197C363.51 108.453 367.788 109.057 372.312 107.547Z" fill="white"/>
<path d="M367.539 108.983C367.01 108.983 366.509 108.957 366.033 108.877C363.999 108.587 362.652 107.715 362.203 106.395C361.754 105.074 362.336 103.569 363.762 102.116C365.109 100.769 367.116 99.6069 369.387 98.841C371.659 98.0751 373.957 97.8109 375.832 98.075C377.866 98.3656 379.213 99.2372 379.662 100.558C380.533 103.146 377.364 106.474 372.478 108.111C370.787 108.693 369.07 108.983 367.539 108.983ZM374.379 99.1315C372.979 99.1315 371.395 99.3956 369.757 99.9239C367.644 100.637 365.822 101.693 364.58 102.908C363.471 104.018 362.996 105.153 363.286 106.025C363.577 106.897 364.633 107.504 366.192 107.742C367.908 107.979 370.021 107.742 372.108 107.029C376.254 105.655 379.213 102.856 378.552 100.928C378.183 99.7654 376.545 99.1315 374.379 99.1315Z" fill="#1A1A1A"/>
<path d="M411.988 94.5787C416.513 93.069 419.571 90.0168 418.818 87.7614C418.066 85.5059 413.788 84.9014 409.263 86.411C404.738 87.9207 401.68 90.9729 402.433 93.2284C403.185 95.4838 407.463 96.0884 411.988 94.5787Z" fill="white"/>
<path d="M407.214 96.0148C406.685 96.0148 406.184 95.9884 405.708 95.9092C403.674 95.6186 402.327 94.747 401.878 93.4265C401.007 90.8381 404.176 87.5103 409.062 85.8727C411.334 85.1068 413.632 84.8427 415.507 85.1068C417.541 85.3973 418.888 86.2689 419.337 87.5895C420.208 90.1778 417.039 93.5057 412.153 95.1432C410.462 95.7243 408.772 96.0148 407.214 96.0148ZM414.054 86.1633C412.654 86.1633 411.07 86.4274 409.432 86.9556C405.286 88.329 402.327 91.1286 402.988 93.0567C403.622 94.9847 407.663 95.4338 411.809 94.0603C415.956 92.6869 418.914 89.8873 418.254 87.9592C417.857 86.7971 416.22 86.1633 414.054 86.1633Z" fill="#1A1A1A"/>
<path d="M440.314 90.3098C435.798 91.8153 432.734 94.879 433.5 97.124C434.134 99.0257 437.277 99.7652 440.948 99.0521C443.299 95.5922 444.725 92.3699 445.121 89.4911C443.669 89.4646 442.005 89.7288 440.314 90.3098Z" fill="white"/>
<path d="M338.778 123.061C343.027 120.894 345.597 117.42 344.516 115.302C343.436 113.183 339.116 113.223 334.866 115.39C330.617 117.557 328.048 121.031 329.128 123.149C330.208 125.267 334.528 125.228 338.778 123.061Z" fill="white"/>
<path d="M332.629 125.306C330.621 125.306 329.169 124.645 328.535 123.43C327.901 122.189 328.244 120.604 329.459 118.967C330.595 117.435 332.391 115.982 334.53 114.9C339.126 112.549 343.695 112.628 344.963 115.084C346.204 117.514 343.589 121.291 338.994 123.615C336.854 124.698 334.636 125.306 332.734 125.332C332.681 125.306 332.655 125.306 332.629 125.306ZM340.895 114.318C339.231 114.318 337.119 114.847 335.032 115.903C333.051 116.907 331.414 118.227 330.384 119.627C329.459 120.895 329.142 122.083 329.565 122.902C329.987 123.721 331.097 124.17 332.681 124.17C334.425 124.144 336.458 123.589 338.439 122.585C342.322 120.604 344.831 117.409 343.906 115.586C343.51 114.741 342.374 114.318 340.895 114.318Z" fill="#1A1A1A"/>
<path d="M308.239 144.587C312.488 142.42 315.057 138.946 313.977 136.828C312.897 134.71 308.577 134.749 304.327 136.916C300.078 139.083 297.508 142.557 298.589 144.675C299.669 146.793 303.989 146.754 308.239 144.587Z" fill="white"/>
<path d="M302.093 146.83C300.086 146.83 298.633 146.17 297.999 144.955C296.758 142.499 299.373 138.749 303.968 136.424C306.108 135.341 308.326 134.734 310.228 134.708C310.254 134.708 310.281 134.708 310.307 134.708C312.315 134.708 313.767 135.368 314.401 136.583C315.035 137.824 314.692 139.409 313.477 141.046C312.341 142.578 310.545 144.031 308.406 145.114C306.266 146.197 304.048 146.804 302.146 146.83C302.146 146.83 302.12 146.83 302.093 146.83ZM310.334 135.843C310.307 135.843 310.281 135.843 310.281 135.843C308.538 135.87 306.504 136.424 304.523 137.428C300.641 139.409 298.131 142.605 299.056 144.427C299.452 145.219 300.588 145.695 302.12 145.695C302.146 145.695 302.172 145.695 302.172 145.695C303.916 145.668 305.949 145.114 307.93 144.11C309.911 143.106 311.549 141.786 312.579 140.386C313.503 139.118 313.82 137.93 313.397 137.111C312.975 136.292 311.866 135.843 310.334 135.843Z" fill="#1A1A1A"/>
<path d="M291.319 162.017C290.712 162.307 290.157 162.651 289.629 162.994C292.508 164.183 296.205 164.869 300.563 165.054C301.224 163.919 301.382 162.809 300.96 161.938C299.877 159.825 295.545 159.851 291.319 162.017Z" fill="white"/>
<path d="M444.879 83.8128C441.736 76.9986 430.352 74.5159 412.762 76.8137C404.891 77.8438 396.176 79.7718 386.984 82.5186C386.958 82.4658 386.905 82.4394 386.852 82.3866C381.042 78.7946 365.115 81.6735 348.133 89.4385C330.516 97.494 317.654 108.112 317.39 114.767C310.311 119.416 303.972 124.196 298.637 128.95C285.379 140.73 279.806 150.978 282.922 157.818C284.005 160.195 286.118 162.071 289.156 163.365C289.208 163.444 289.288 163.497 289.393 163.55C292.325 164.738 296.049 165.451 300.565 165.663C300.645 165.663 300.724 165.636 300.803 165.61C301.622 165.636 302.441 165.663 303.312 165.663C306.825 165.663 310.76 165.398 315.039 164.817C322.012 163.893 329.645 162.282 337.674 160.037C339.074 161.912 342.19 162.493 345.492 162.493C347.948 162.493 350.457 162.176 352.411 161.833C360.573 160.486 370.715 157.132 380.962 152.457C391.21 147.755 400.375 142.288 406.74 137.006C410.544 133.863 416.618 128 414.769 123.932C414.769 123.932 414.769 123.932 414.769 123.906C420.105 120.182 424.964 116.431 429.164 112.681C434.42 108.006 438.461 103.595 441.234 99.5277C441.313 99.4749 441.366 99.4221 441.392 99.3693C443.822 95.7773 445.248 92.4758 445.645 89.5441C445.645 89.4649 445.645 89.3857 445.618 89.3064C445.882 87.2991 445.618 85.4503 444.879 83.8128ZM300.222 164.5C296.577 164.289 293.461 163.761 290.925 162.889C291.136 162.757 291.348 162.652 291.559 162.546C295.442 160.565 299.509 160.433 300.433 162.229C300.803 162.942 300.565 163.814 300.222 164.5ZM406.054 136.161C399.741 141.39 390.682 146.805 380.513 151.453C370.345 156.102 360.309 159.403 352.253 160.75C345.412 161.859 340.658 161.49 338.889 159.694C350.51 156.366 362.95 151.717 375.416 146.012C389.626 139.515 402.752 132.173 413.819 124.566C414.796 127.049 411.97 131.248 406.054 136.161ZM432.069 108.64C432.333 107.61 432.28 106.659 431.911 105.867C430.907 103.701 427.79 102.697 422.614 102.882C422.297 102.908 422.033 103.173 422.059 103.489C422.085 103.806 422.35 104.044 422.666 104.044C427.262 103.886 430.115 104.704 430.881 106.368C431.25 107.187 431.145 108.244 430.537 109.538C430.458 109.723 430.484 109.908 430.564 110.066C429.903 110.7 429.217 111.307 428.503 111.941C425.44 114.662 422.033 117.408 418.335 120.129C418.309 120.05 418.282 119.997 418.256 119.918C415.139 113.077 392.372 116.775 367.44 128.158C342.507 139.541 324.811 154.332 327.928 161.173C327.981 161.278 328.007 161.357 328.06 161.463C324.943 162.176 321.932 162.757 319.001 163.233C318.895 163.153 318.763 163.101 318.631 163.101C314.748 163.101 312.345 162.282 311.658 160.776C310.998 159.35 311.024 154.939 325.075 144.665C335.35 137.164 349.797 129.003 365.829 121.687C372.484 118.65 379.114 115.877 385.558 113.473C385.875 113.367 386.007 113.024 385.901 112.734C385.796 112.417 385.452 112.285 385.162 112.39C378.691 114.794 372.035 117.567 365.353 120.631C349.268 128 334.716 136.187 324.415 143.741C310.919 153.619 309.466 158.716 310.628 161.252C311.209 162.546 312.556 163.418 314.643 163.867C309.73 164.5 305.319 164.765 301.437 164.632C301.886 163.55 301.886 162.546 301.463 161.727C300.196 159.271 295.626 159.192 291.031 161.542C290.503 161.806 289.974 162.097 289.499 162.414C286.752 161.199 284.85 159.535 283.873 157.422C282.421 154.253 283.054 150.185 285.775 145.378C288.442 140.624 293.012 135.368 299.324 129.769C305.425 124.328 312.847 118.861 321.219 113.579C325.075 111.255 332.074 107.108 339.206 103.252C343.59 100.954 348.133 98.7354 352.808 96.596C355.132 95.5396 357.43 94.5095 359.727 93.5323C365.406 91.2081 371.454 88.8838 376.393 87.0614C389.493 82.4658 401.986 79.2964 412.894 77.8702C417.12 77.3155 420.976 77.025 424.462 77.025C427.87 77.025 430.933 77.2891 433.574 77.8438C438.989 78.953 442.475 81.1188 443.928 84.2882C444.562 85.6616 444.799 87.2199 444.641 88.9102C443.188 88.9631 441.656 89.2272 440.098 89.7554C435.212 91.3929 432.043 94.7208 432.914 97.3092C433.469 98.9731 435.476 99.8975 438.223 99.8975C438.725 99.8975 439.253 99.8711 439.808 99.7918C437.827 102.591 435.238 105.55 432.069 108.64ZM440.6 98.5241C437.299 99.1051 434.552 98.4713 434.05 96.9394C433.39 95.0113 436.348 92.2117 440.494 90.8383C441.841 90.4157 443.162 90.1516 444.43 90.0724C443.954 92.6079 442.66 95.4339 440.6 98.5241Z" fill="#1A1A1A"/>
<path d="M406.633 121.951C404.705 121.951 402.407 122.162 399.845 122.585C391.79 123.932 381.753 127.233 371.585 131.881C361.416 136.53 352.357 141.944 346.045 147.174C340.023 152.166 337.197 156.444 338.332 158.901C339.442 161.357 344.513 162.017 352.251 160.749C360.307 159.402 370.343 156.101 380.512 151.453C390.68 146.804 399.74 141.39 406.052 136.16C412.074 131.168 414.9 126.89 413.764 124.433C412.972 122.769 410.489 121.951 406.633 121.951Z" fill="#068466"/>
<path d="M364.008 157.845C369.264 156.207 374.863 154.042 380.515 151.453C390.684 146.805 399.743 141.39 406.055 136.161C409.066 133.678 411.258 131.354 412.579 129.373C407.429 130.984 401.882 133.124 396.151 135.738C380.568 142.869 368.313 151.532 364.008 157.845Z" fill="white"/>
<path d="M356.875 156.048C356.268 156.048 355.66 155.863 355.132 155.494C353.758 154.516 353.468 152.641 354.419 151.268C354.577 151.03 358.513 145.589 368.47 139.699C369.896 138.854 371.771 139.33 372.616 140.756C373.462 142.182 372.986 144.031 371.56 144.903C362.818 150.079 359.384 154.728 359.358 154.781C358.75 155.626 357.826 156.048 356.875 156.048Z" fill="white"/>
<path d="M378.19 141.337C377.08 141.337 376.024 140.73 375.496 139.673C374.756 138.194 375.337 136.372 376.843 135.606L378.982 134.523C380.461 133.783 382.283 134.365 383.049 135.87C383.789 137.349 383.208 139.171 381.702 139.937L379.563 141.02C379.114 141.232 378.665 141.337 378.19 141.337Z" fill="white"/>
<path d="M441.894 430.94L406.635 386.991C406.635 386.991 401.696 380.415 402.092 373.68C402.488 366.945 403.28 363.855 398.447 359.629L394.221 356.644C394.221 356.644 391.131 349.328 387.169 347.136C383.208 344.944 380.91 347.031 380.302 348.932C380.302 348.932 375.997 348.298 374.492 350.57C372.986 352.841 373.805 355.773 373.805 355.773C373.805 355.773 370.794 356.459 369.632 359.18C368.496 361.9 369.5 364.541 369.5 364.541C369.5 364.541 367.176 365.704 366.463 367.552C365.749 369.401 364.006 372.914 371.481 380.943C378.955 388.946 383.102 389.21 389.097 398.824C395.093 408.411 405.737 426.503 411.389 443.301L441.894 430.94Z" fill="white"/>
<path d="M376.103 314.359C358.803 307.836 344.145 304.93 344.145 304.93L364.349 254.986C364.349 254.986 381.676 257.389 399.054 261.932L376.103 314.359Z" fill="white"/>
<path d="M430.67 275.534C432.915 266.502 415.88 259.423 398.131 254.59C397.392 254.379 396.652 254.194 395.913 254.009L372.961 306.436C384.08 310.635 396.309 316.34 406.398 323.762" fill="white"/>
<path d="M442.504 430.412L407.244 386.463C403.731 382.053 402.226 376.268 403.124 370.59C403.52 368.134 403.441 366.047 402.886 364.225C401.856 360.818 397.736 357.622 394.54 355.905C394.487 355.879 394.461 355.852 394.408 355.852C394.408 355.747 394.382 355.641 394.329 355.535C394.17 355.245 393.616 354.188 392.797 352.894L431.384 275.904C431.464 275.772 431.49 275.614 431.464 275.455C433.128 267.558 421.955 260.295 398.291 253.85C397.551 253.639 396.811 253.428 396.072 253.243C395.702 253.137 395.306 253.322 395.148 253.692L392.586 259.529C377.822 256.069 364.616 254.22 364.457 254.194C364.087 254.141 363.744 254.326 363.612 254.669L343.407 304.614C343.301 304.851 343.328 305.089 343.434 305.3C343.566 305.512 343.75 305.644 343.988 305.696C344.12 305.723 358.779 308.655 375.814 315.099C375.92 315.125 375.999 315.152 376.105 315.152C376.422 315.152 376.712 314.967 376.818 314.676L378.984 309.711C389.39 314.069 398.264 318.876 405.448 324.105L391.767 351.389C389.971 348.747 387.462 345.763 385.111 345.261C382.866 344.654 381.413 345.657 380.621 346.608C380.014 347.321 379.67 348.087 379.538 348.483C378.191 348.034 377.003 348.061 375.973 348.536C372.592 350.147 372.381 353.317 372.83 355.298C371.932 355.614 370.505 356.328 369.502 357.833C368.419 359.444 368.102 361.557 368.551 364.066C367.442 364.594 365.54 366.1 365.25 370.273C364.933 374.657 367.785 379.174 374.811 385.196L366.042 402.68C365.831 403.076 365.989 403.552 366.385 403.737C366.491 403.789 366.597 403.816 366.729 403.816C367.019 403.816 367.283 403.657 367.442 403.393L376.052 386.252C377.24 387.229 378.535 388.259 379.934 389.316C393.695 399.775 410.466 443.169 410.625 443.618C410.757 443.935 411.047 444.12 411.364 444.12C411.47 444.12 411.549 444.12 411.628 444.067C412.025 443.909 412.236 443.433 412.077 443.037C412.025 442.931 407.772 431.865 401.856 419.663C393.88 403.208 386.801 392.564 380.859 388.048C379.38 386.912 378.006 385.829 376.765 384.799L380.331 377.695C381.202 377.985 382.1 378.196 382.945 378.196C384.055 378.196 385.032 377.827 385.666 376.876C386.168 378.566 387.118 380.045 388.518 381.26C388.677 381.392 388.862 381.445 389.046 381.445C389.258 381.445 389.469 381.366 389.654 381.181C389.944 380.864 389.892 380.362 389.575 380.072C384.028 375.186 388.413 366.707 389.812 364.357L393.457 367.711C393.774 368.002 394.276 367.975 394.567 367.658C394.857 367.341 394.831 366.839 394.514 366.549L388.624 361.082C388.413 360.87 388.122 360.818 387.858 360.897C383.606 362.191 381.123 361.874 379.802 361.346C379.142 361.108 378.72 360.791 378.429 360.527C380.172 359.418 384.609 356.645 387.515 355.747C388.809 355.35 391.186 355.958 393.774 357.331C397.577 359.365 400.641 362.323 401.354 364.726C401.83 366.338 401.883 368.186 401.539 370.405C400.562 376.532 402.199 382.766 406.003 387.52L441.262 431.469C441.421 431.654 441.632 431.759 441.87 431.759C442.055 431.759 442.213 431.706 442.345 431.548C442.715 431.257 442.768 430.756 442.504 430.412ZM353.206 284.726L354.658 289.242C355.345 291.328 357.617 292.464 359.703 291.777C361.79 291.091 362.925 288.819 362.239 286.733L357.828 273.369C357.828 273.342 357.828 273.342 357.801 273.316L364.88 255.858C367.23 256.201 375.946 257.522 386.405 259.767L366.042 310.002C355.926 306.753 347.897 304.904 345.229 304.349L353.206 284.726ZM373.992 306.013L396.336 254.96C396.864 255.092 397.366 255.25 397.894 255.382C420.529 261.563 431.596 268.482 429.879 275.376V275.402L420.239 294.63L416.224 282.243C415.168 278.915 411.576 277.093 408.248 278.149C404.92 279.206 403.097 282.798 404.154 286.125L412.104 310.82L406.161 322.653C397.657 316.525 386.854 310.926 373.992 306.013ZM384.424 375.819C383.5 377.642 379.723 375.793 378.112 375.001C377.874 374.869 377.689 374.789 377.531 374.71C376.105 374.05 371.958 373.601 371.483 373.548C371.034 373.522 370.664 373.839 370.611 374.261C370.585 374.71 370.902 375.08 371.324 375.133C372.513 375.265 375.841 375.687 376.871 376.163C377.029 376.242 377.214 376.321 377.425 376.427C377.822 376.612 378.323 376.849 378.904 377.114L375.577 383.743C369.238 378.249 366.57 374.103 366.834 370.379C367.125 366.602 368.842 365.624 369.423 365.387L372.618 366.258C377.108 367.473 381.387 369.745 385.032 372.861C385.085 372.967 385.428 373.865 384.424 375.819ZM376.844 359.655C376.527 359.867 376.422 360.316 376.58 360.659C376.659 360.818 377.954 363.379 382.655 363.379C384.081 363.379 385.798 363.142 387.911 362.534L388.65 363.221C388.148 364.04 386.986 366.047 386.168 368.503C386.141 368.53 386.115 368.53 386.115 368.556C385.587 369.005 382.84 368.53 380.225 367.5C380.119 367.447 380.014 367.447 379.908 367.447C377.716 366.285 375.392 365.36 373.041 364.726L370.189 363.961C369.766 361.795 369.977 360.025 370.849 358.731C371.985 356.988 373.939 356.618 373.965 356.618C374.045 356.592 374.124 356.565 374.203 356.539C374.758 356.433 376.765 356.248 379.433 358.018C377.98 358.89 376.95 359.576 376.844 359.655ZM380.912 357.12C378.033 354.981 375.629 354.822 374.414 354.928C374.15 353.792 373.913 351.204 376.686 349.883C378.403 349.091 380.859 350.57 382.602 351.97C383.843 352.973 384.9 354.03 385.56 354.743C384.028 355.377 382.364 356.275 380.912 357.12ZM387.171 354.162C386.59 353.528 385.27 352.102 383.606 350.781C382.708 350.068 381.862 349.513 381.044 349.091C381.123 348.906 381.361 348.193 381.862 347.612C382.602 346.74 383.553 346.476 384.741 346.793C384.768 346.793 384.768 346.793 384.794 346.793C387.224 347.295 390.367 351.89 392.11 354.796C390.129 354.056 388.386 353.818 387.171 354.162Z" fill="#1A1A1A"/>
<path d="M63.4891 453.971L108.812 395.179C108.812 395.179 116.761 392.908 116.709 392.247C116.709 392.247 116.18 396.737 117.369 396.79C118.557 396.843 123.312 388.655 123.312 388.655C123.312 388.655 127.485 386.807 125.16 382.528C125.16 382.528 127.537 380.547 126.745 378.619C125.953 376.691 126.164 375.925 126.164 375.925C126.164 375.925 130.099 374.868 129.703 369.85C129.703 369.85 131.367 368.794 131.182 368.926C130.997 369.058 124.659 358.757 124.659 358.757C124.659 358.757 113.83 360.21 112.245 360.87C110.66 361.531 49.1212 426.767 49.1212 426.767C49.1212 426.767 44.8953 436.011 51.3662 445.123C57.837 454.235 63.4891 453.971 63.4891 453.971Z" fill="white"/>
<path d="M143.388 271.704C143.388 252.926 69.0919 260.796 69.0919 260.796L61.5117 314.148C61.5117 314.148 101.842 312.22 131.423 324.369" fill="white"/>
<path d="M144.181 271.704C144.181 269.486 143.23 267.479 141.355 265.788C135.782 260.744 121.863 258.261 100.047 258.367C83.9098 258.446 69.1721 259.978 69.0136 260.004C68.6438 260.057 68.3533 260.321 68.3005 260.691L60.7203 314.042C60.6939 314.254 60.7732 314.491 60.9316 314.676C61.0901 314.861 61.3278 314.94 61.5655 314.94C61.9617 314.914 101.5 313.171 130.526 324.845L122.973 358.176C120.015 358.52 113.781 359.338 111.88 360.183C111.431 360.395 110.269 360.923 78.5218 394.307C62.8861 410.762 47.356 427.296 47.1976 427.454C46.8806 427.771 46.907 428.273 47.224 428.563C47.3825 428.695 47.5937 428.775 47.7786 428.775C47.9899 428.775 48.2012 428.695 48.3333 428.51C72.8961 402.389 110.216 363.062 112.54 361.61C114.336 360.844 121.15 359.972 124.214 359.629L130.236 368.767C130.104 368.794 129.972 368.82 129.84 368.847C129.76 368.82 129.681 368.794 129.602 368.794C129.47 368.794 129.364 368.846 129.259 368.899C127.595 368.979 125.218 368.424 123.765 365.07C123.686 364.885 123.501 364.726 123.29 364.647C123.052 364.568 122.814 364.621 122.629 364.726L113.649 370.141C113.28 370.352 113.147 370.854 113.385 371.224C113.596 371.593 114.098 371.725 114.468 371.488L120.965 367.552L119.882 372.359C119.143 372.729 118.324 373.125 117.532 373.521C111.88 376.479 111.352 377.906 111.589 378.883C111.668 379.226 111.906 379.702 112.619 379.992C113.042 380.151 113.57 380.23 114.23 380.23C114.547 380.23 114.891 380.203 115.26 380.177C114.97 380.362 114.679 380.573 114.389 380.785C110.216 383.769 109.767 384.984 109.872 385.803C109.899 386.093 110.084 386.595 110.797 386.886C111.167 387.044 111.748 387.123 112.434 387.123C113.412 387.123 114.653 386.991 115.974 386.727C110.929 390.398 111.272 391.138 111.51 391.64C111.642 391.877 111.88 392.221 112.461 392.432C112.804 392.564 113.227 392.617 113.702 392.617C113.781 392.617 113.887 392.617 113.966 392.617C111.933 393.647 108.737 394.73 105.356 394.043C104.933 393.938 104.511 394.228 104.432 394.651C104.326 395.073 104.617 395.496 105.039 395.575C105.805 395.734 106.597 395.813 107.337 395.839L62.8861 453.496C62.5956 453.839 62.6748 454.341 63.0182 454.605C63.1502 454.711 63.3351 454.764 63.4936 454.764C63.7313 454.764 63.969 454.658 64.1274 454.473L109.423 395.707C111.668 395.39 113.596 394.598 114.996 393.858L111.272 410.603C111.193 411.026 111.457 411.449 111.88 411.554C111.959 411.581 112.012 411.581 112.065 411.581C112.408 411.581 112.751 411.343 112.831 410.947L116.026 396.632C116.264 397.054 116.634 397.371 117.109 397.53C117.188 397.582 117.294 397.609 117.426 397.609C118.113 397.609 119.381 396.526 124.425 388.47C125.825 387.414 126.617 386.278 126.75 385.116C126.882 384.086 126.485 383.241 126.089 382.739C128.361 380.626 127.674 377.959 126.829 376.532C127.146 376.347 127.436 376.189 127.7 376.004C129.76 374.657 130.341 372.28 130.421 370.273C131.239 370.114 131.794 369.903 131.794 369.903C132.005 369.797 132.19 369.612 132.243 369.401C132.296 369.19 132.27 368.926 132.137 368.741L125.27 358.308C125.138 358.097 124.901 357.991 124.637 357.965L144.102 271.995C144.155 271.916 144.181 271.81 144.181 271.704ZM117.373 395.839C117.347 395.813 117.347 395.76 117.321 395.734C117.03 394.862 117.902 392.723 118.641 391.508C118.641 391.481 118.668 391.481 118.668 391.455C119.539 391.138 120.437 390.715 121.388 390.266C119.724 392.802 118.086 395.1 117.373 395.839ZM125.165 384.931C125.059 385.644 124.346 387.097 120.728 388.84C116.449 390.927 114.151 391.138 113.28 391.032C114.23 390.002 117.162 387.81 119.75 386.04C119.882 385.961 119.962 385.829 120.015 385.724C121.863 385.142 123.607 384.429 124.821 383.69C124.98 383.901 125.27 384.35 125.165 384.931ZM124.689 381.867C121.863 384.086 113.121 385.988 111.484 385.433C111.959 384.429 115.419 381.788 119.407 379.358C121.52 378.777 123.686 378.011 125.403 377.245C125.772 377.826 126.961 380.071 124.689 381.867ZM126.829 374.71C125.323 375.687 122.18 376.955 119.143 377.774C119.064 377.774 118.984 377.8 118.932 377.826C115.023 378.857 113.464 378.645 113.121 378.487C113.227 378.223 113.913 377.14 118.535 374.763C121.309 373.336 124.108 372.148 124.135 372.148C124.531 371.989 124.716 371.514 124.557 371.118C124.399 370.722 123.923 370.537 123.527 370.695C123.527 370.695 122.788 371.012 121.705 371.488L122.788 366.654C124.478 369.665 126.882 370.405 128.783 370.431C128.73 371.989 128.281 373.759 126.829 374.71ZM121.335 320.011C96.3233 312.695 67.9571 313.144 62.4371 313.303L64.6293 297.852L83.7249 287.604C88.1357 285.227 89.826 279.681 87.4489 275.27C85.0719 270.859 79.5254 269.169 75.1147 271.546L67.7987 275.481L69.7795 261.51C76.0391 260.902 128.017 256.201 140.193 266.845L121.335 320.011Z" fill="#1A1A1A"/>
<path d="M115.578 296.98L96.1655 307.149C93.1281 308.734 89.3777 307.545 87.793 304.534C86.2083 301.497 87.3968 297.746 90.4077 296.162L109.82 285.993C112.858 284.408 116.608 285.597 118.193 288.608C119.778 291.645 118.589 295.396 115.578 296.98Z" fill="#1A1A1A"/>
<path d="M244.202 427.692L218.134 380.151L198.827 346.476L187.364 341.3L178.094 349.646L179.811 350.491C179.811 350.491 178.49 355.245 182.24 358.15C182.24 358.15 178.49 360.475 181.316 364.225C181.316 364.225 178.622 365.15 180.312 368.504L181.501 371.805C181.501 371.805 184.01 379.676 184.776 379.914C185.542 380.125 187.047 378.672 187.047 378.672L187.523 376.163L193.862 380.574L222.518 448.135C222.518 448.135 232.158 448.795 238.365 441.928C245.127 434.454 244.202 427.692 244.202 427.692Z" fill="white"/>
<path d="M191.247 252.319C214.965 275.033 255.507 277.965 255.507 277.965L254.582 323.63C254.582 323.63 219.191 326.8 189.504 306.278" fill="white"/>
<path d="M255.584 277.198C255.478 277.198 245.363 276.433 232.474 272.92C220.642 269.671 204.029 263.412 191.906 251.843C191.774 251.658 191.536 251.553 191.298 251.526C190.876 251.5 190.506 251.843 190.479 252.292L187.442 340.481C187.204 340.454 186.967 340.507 186.808 340.692L177.538 349.038C177.353 349.197 177.247 349.408 177.274 349.646C177.3 349.883 177.406 350.121 177.59 350.253C177.617 350.253 178.092 350.623 178.858 350.993C178.409 352.947 178.33 355.456 180.02 357.279C180.232 357.49 180.469 357.728 180.733 357.992C179.571 359.154 178.251 361.531 179.862 364.172C179.36 364.568 178.805 365.255 178.673 366.259C178.541 367.368 178.964 368.583 179.915 369.877C179.915 369.903 179.915 369.93 179.941 369.983C183.137 380.019 183.982 380.732 184.642 380.732C184.695 380.732 184.748 380.732 184.827 380.759C185.303 380.706 185.725 380.521 186.069 380.204L185.567 394.81C185.54 395.259 185.884 395.602 186.359 395.628C186.782 395.628 187.125 395.285 187.151 394.862L187.733 377.668C188.895 378.725 190.585 380.019 192.672 380.891L221.645 449.218C221.777 449.508 222.068 449.693 222.385 449.693C222.49 449.693 222.596 449.667 222.675 449.64C223.071 449.482 223.256 449.006 223.098 448.61L194.679 381.551C195.418 381.736 196.184 381.841 196.977 381.894C197.003 381.894 197.003 381.894 197.029 381.894C197.452 381.894 197.795 381.577 197.822 381.181C197.848 380.732 197.531 380.362 197.082 380.336C193.622 380.151 190.796 378.249 189.08 376.744C189.555 376.902 190.004 376.982 190.4 376.982C190.453 376.982 190.532 376.982 190.611 376.955C191.219 376.902 191.536 376.638 191.721 376.427C192.09 376.004 192.592 375.371 188.657 370.564C190.532 371.462 192.275 372.043 193.332 372.043C193.437 372.043 193.517 372.043 193.543 372.016C194.335 371.911 194.626 371.462 194.732 371.198C195.049 370.458 194.943 369.137 191.641 365.202C191.404 364.912 191.166 364.647 190.955 364.383C191.853 364.727 192.672 364.912 193.279 364.912C193.385 364.912 193.49 364.912 193.596 364.885C194.362 364.78 194.732 364.383 194.89 364.066C195.366 363.168 195.207 361.689 190.479 357.384C189.793 356.777 189.106 356.169 188.472 355.641L188.631 350.676L193.939 356.117C194.23 356.433 194.732 356.46 195.049 356.143C195.366 355.852 195.392 355.351 195.075 355.034L187.759 347.533C187.601 347.374 187.389 347.295 187.151 347.295C186.914 347.295 186.703 347.401 186.57 347.586C184.273 350.464 181.816 350.385 180.232 349.857C180.152 349.804 180.1 349.778 179.994 349.751C179.941 349.751 179.888 349.725 179.835 349.725C179.651 349.646 179.492 349.593 179.36 349.514L187.495 342.198C190.374 343.307 196.765 345.869 198.297 347.084C200.172 349.065 226.346 396.553 243.488 428.062C243.62 428.326 243.884 428.484 244.174 428.484C244.306 428.484 244.438 428.458 244.544 428.352C244.94 428.141 245.072 427.666 244.861 427.27C244.755 427.085 233.9 407.144 222.939 387.282C200.701 346.952 199.671 346.159 199.301 345.842C197.663 344.522 191.721 342.145 188.974 341.062L190.136 307.651C205.296 317.793 221.777 321.834 233.055 323.419C239.711 324.37 245.363 324.581 249.219 324.581C252.6 324.581 254.58 324.396 254.66 324.423C255.056 324.396 255.373 324.053 255.373 323.657L256.297 277.991C256.324 277.595 256.007 277.225 255.584 277.198ZM185.065 378.963C185.039 378.989 185.012 379.015 184.986 379.042C184.484 378.117 183.48 375.45 182.477 372.545C182.503 372.545 182.503 372.571 182.529 372.571C183.322 373.258 184.114 373.865 184.854 374.42C184.854 374.473 184.88 374.525 184.88 374.552C185.276 375.925 185.593 378.197 185.065 378.963ZM190.215 375.371C189.344 375.239 187.178 374.473 183.56 371.356C180.496 368.741 180.179 367.183 180.258 366.47C180.311 365.915 180.654 365.545 180.866 365.387C181.869 366.391 183.375 367.526 185.065 368.556C185.091 368.688 185.144 368.794 185.25 368.873C187.284 371.277 189.555 374.156 190.215 375.371ZM193.305 370.458C191.536 370.564 183.586 366.523 181.447 363.67C179.677 361.346 181.473 359.444 181.948 359.022C183.401 360.184 185.276 361.452 187.151 362.535C187.6 363.01 188.974 364.436 190.321 366.047C192.724 368.9 193.2 370.062 193.305 370.458ZM180.39 351.494C182.239 351.943 184.748 351.811 187.125 349.355L186.967 354.347C186.042 353.607 185.435 353.132 185.408 353.132C185.065 352.868 184.563 352.947 184.299 353.29C184.035 353.634 184.114 354.136 184.458 354.4C189.317 358.097 193.49 362.191 193.517 363.3C193.147 363.406 191.562 363.195 187.944 361.135C185.197 359.576 182.424 357.543 181.209 356.196C180.047 354.902 180.047 353.053 180.39 351.494ZM253.841 322.891C251.49 323.023 243.593 323.313 233.266 321.861C222.702 320.355 207.488 316.684 193.2 307.757L197.452 258.525C203.553 263.015 210.262 266.502 216.706 269.196L229.912 291.223C231.708 294.208 235.617 295.185 238.601 293.415C241.586 291.646 242.563 287.71 240.794 284.726L235.089 275.218C244.703 277.621 252.362 278.493 254.713 278.704L253.841 322.891Z" fill="#1A1A1A"/>
<path d="M207.549 300.626L200.154 288.662C198.991 286.787 199.572 284.33 201.448 283.168C203.323 282.006 205.779 282.587 206.941 284.462L214.337 296.427C215.499 298.302 214.918 300.758 213.042 301.92C211.167 303.056 208.685 302.475 207.549 300.626Z" fill="#1A1A1A"/>
<path d="M171.364 453.469L166.636 371.698C166.636 371.698 171.575 368.898 172.341 364.831C173.107 360.764 174.296 350.173 168.353 347.003L166.346 348.905C166.346 348.905 165.791 344.256 162.992 344.573C160.192 344.89 159.849 348.297 159.849 348.297C159.849 348.297 158.687 343.306 155.728 343.57C152.77 343.86 152.955 347.716 152.955 347.716C152.955 347.716 150.552 344.653 148.571 346.211C146.59 347.769 146.801 351.467 146.801 351.467C146.801 351.467 141.704 353.58 139.591 357.541C137.478 361.503 140.251 365.729 145.269 369.427C145.269 369.427 147.911 371.011 145.401 380.916C142.892 390.82 134.309 455.133 134.309 455.133C134.309 455.133 137.187 464.403 153.431 465.856C169.674 467.308 171.364 453.469 171.364 453.469Z" fill="white"/>
<path d="M168.696 371.17C170.255 370.14 172.394 368.741 173.16 364.99C173.688 362.402 173.9 359.1 173.741 356.169C173.609 353.686 173.16 350.358 171.734 348.43C171.1 347.558 169.436 346.079 167.746 346.581C167.455 346.687 167.191 346.819 166.927 347.004C166.742 346.211 166.372 345.34 165.712 344.706C164.999 344.019 164.074 343.702 162.965 343.782C162.094 343.834 161.301 344.283 160.641 345.049C160.403 345.34 160.165 345.657 159.981 346.027C159.901 345.868 159.822 345.683 159.743 345.525C158.792 343.65 157.366 342.699 155.675 342.804C154.17 342.884 153.087 344.151 152.453 346.581C152.004 346.106 151.45 345.657 150.763 345.393C149.944 345.102 149.099 345.155 148.254 345.551C147.594 345.868 146.801 346.793 145.877 350.807C144.398 351.652 136.025 356.882 137.848 362.534C138.851 365.65 141.043 367.42 142.813 368.82C144.292 370.008 145.481 370.933 145.586 372.28C145.824 375.106 136.95 432.974 133.516 455.027C133.437 455.45 133.754 455.846 134.176 455.925C134.229 455.925 134.256 455.925 134.308 455.925C134.705 455.925 135.048 455.661 135.074 455.292C135.576 452.069 147.461 375.766 147.171 372.174C147.012 370.167 145.454 368.925 143.817 367.605C142.153 366.258 140.225 364.726 139.379 362.058C138.244 358.44 142.945 354.69 145.428 352.999C145.401 353.158 145.375 353.29 145.349 353.448C144.741 356.803 144.371 360.104 144.371 360.13C144.318 360.553 144.635 360.949 145.058 361.002C145.084 361.002 145.111 361.002 145.137 361.002C145.533 361.002 145.877 360.711 145.956 360.315C146.616 354.373 147.99 347.585 148.941 346.977C149.39 346.766 149.786 346.713 150.208 346.872C151.053 347.189 151.767 348.245 152.031 348.747C151.74 350.886 151.793 352.788 151.793 352.867C151.793 353.29 152.163 353.633 152.585 353.633C153.034 353.633 153.404 353.263 153.378 352.814C153.298 349.486 154.012 344.495 155.781 344.389C158.369 344.231 159.083 348.377 159.083 348.43C159.083 348.483 159.109 348.509 159.109 348.562C158.951 349.486 158.898 350.49 158.977 351.52C159.003 351.943 159.373 352.26 159.769 352.26C159.796 352.26 159.796 352.26 159.875 352.233C160.298 352.207 160.614 351.837 160.588 351.388C160.43 349.275 160.931 347.189 161.882 346.079C162.146 345.789 162.569 345.393 163.097 345.366C163.731 345.313 164.233 345.472 164.629 345.842C165.448 346.66 165.606 348.298 165.58 348.879C165.58 348.985 165.58 349.09 165.633 349.196C165.369 350.094 165.184 351.23 165.104 352.603C165.078 353.026 165.395 353.395 165.844 353.422C166.267 353.448 166.636 353.131 166.663 352.682C166.874 348.8 167.878 348.219 168.195 348.113C168.908 347.875 169.964 348.747 170.44 349.381C172.394 352.048 172.605 359.576 171.575 364.673C170.941 367.763 169.277 368.873 167.798 369.823C167.138 370.246 166.531 370.642 166.055 371.17C165.606 371.672 164.972 372.412 167.693 413.218C169.04 433.238 170.545 453.311 170.572 453.522C170.598 453.945 170.941 454.262 171.364 454.262C171.39 454.262 171.39 454.262 171.47 454.262C171.919 454.235 172.236 453.865 172.209 453.416C169.859 422.436 166.636 375.528 167.376 372.148C167.693 371.831 168.168 371.514 168.696 371.17Z" fill="#1A1A1A"/>
<path d="M162.782 403.234C162.518 402.891 162.016 402.838 161.673 403.129C161.33 403.393 161.277 403.894 161.567 404.238L163.496 406.536C163.654 406.721 163.865 406.826 164.103 406.826C164.261 406.826 164.446 406.773 164.605 406.641C164.948 406.377 165.001 405.875 164.71 405.532L162.782 403.234Z" fill="#1A1A1A"/>
<path d="M161.223 409.098C160.959 408.728 160.457 408.649 160.114 408.913C159.744 409.177 159.665 409.679 159.929 410.022L162.57 413.72C162.702 413.957 162.966 414.063 163.204 414.063C163.362 414.063 163.521 414.01 163.679 413.905C164.049 413.641 164.128 413.139 163.864 412.795L161.223 409.098Z" fill="#1A1A1A"/>
<path d="M160.483 417.153C160.218 416.809 159.717 416.756 159.373 417.021C159.03 417.285 158.977 417.787 159.241 418.13L161.698 421.299C161.856 421.511 162.094 421.616 162.331 421.616C162.49 421.616 162.675 421.563 162.807 421.431C163.15 421.167 163.203 420.665 162.939 420.322L160.483 417.153Z" fill="#1A1A1A"/>
<path d="M346.765 415.965L330.443 351.785L332.503 328.041C332.503 328.041 334.088 321.517 333.031 317.556C331.975 313.594 331.103 313.515 330.469 313.515C329.862 313.515 330.549 305.274 328.753 305.75C326.957 306.225 323.153 319.853 322.018 322.864C320.882 325.849 319.059 329.52 317.712 328.569C316.365 327.618 313.988 322.785 312.853 315.205C311.717 307.625 309.049 300.177 307.333 301.26C305.616 302.343 306.197 310.53 306.197 310.53C306.197 310.53 304.243 305.353 302.763 306.093C301.311 306.832 305.405 333.852 303.714 335.7C303.714 335.7 300.967 334.486 298.855 331.659C296.742 328.833 290.799 324.053 288.977 327.222C288.977 327.222 289.954 331.131 294.972 337.47C299.99 343.809 308.099 352.974 308.099 352.974L312.166 418.026L346.765 415.965Z" fill="white"/>
<path d="M347.503 415.754L331.207 351.68C331.26 350.095 332.105 332.954 332.712 328.754C332.739 328.569 332.792 328.253 332.871 327.856C334.086 321.174 334.957 313.409 330.996 312.643C330.89 312.617 330.758 312.643 330.652 312.67C330.943 306.357 329.992 305.169 328.883 304.957C326.902 304.614 325.766 308.074 323.547 315.311C322.57 318.533 321.567 321.861 320.484 324.344C319.005 327.724 318.133 327.83 317.895 327.777C316.179 327.407 314.435 319.537 313.3 314.307C311.345 305.354 309.998 299.913 307.199 300.467C306.855 300.547 306.327 300.758 305.931 301.392C305.297 302.395 305.112 304.403 305.218 306.885C304.557 306.014 303.739 305.301 302.788 305.301C302.497 305.301 302.233 305.433 302.048 305.644C301.256 306.489 301.441 309.289 302.445 319.193C303.026 324.951 303.924 333.614 303.237 335.04C302.629 334.855 300.992 333.059 299.909 331.844C296.66 328.226 292.223 323.287 288.473 326.641C287.047 327.909 288.605 330.814 300.754 345.446C303.739 349.038 307.093 353.079 307.41 353.925C307.568 356.724 311.24 415.517 311.398 418.052C311.425 418.475 311.768 418.792 312.19 418.792C312.19 418.792 312.217 418.792 312.296 418.818C312.719 418.792 313.062 418.422 313.036 417.973C312.983 417.339 309.127 355.562 309.047 353.793C308.995 352.947 307.595 351.151 302.022 344.443C299.222 341.062 296.027 337.206 293.597 333.984C290.19 329.494 289.714 328.12 289.688 327.724C292.038 325.796 295.208 328.939 298.773 332.901C301.15 335.542 302.867 337.444 304.267 336.308C305.508 335.304 305.297 331.105 304.056 319.008C303.607 314.624 302.999 308.761 303.21 307.018C304.003 307.546 304.98 309.395 305.482 310.794C305.508 310.874 305.535 310.926 305.588 310.979C306.538 318.797 308.968 328.464 309.364 330.075C309.444 330.445 309.787 330.682 310.13 330.682C310.21 330.682 310.262 330.682 310.342 330.63C310.764 330.524 311.028 330.101 310.923 329.679C308.493 320.171 305.508 305.01 307.278 302.211C307.357 302.079 307.436 302.026 307.516 301.999C307.542 301.973 308.308 301.867 309.444 305.327C310.262 307.783 311.028 311.27 311.768 314.624C313.696 323.419 315.043 328.781 317.578 329.309C320.563 329.943 322.412 324.608 325.106 315.76C326.162 312.326 327.721 307.202 328.645 306.542C328.883 306.885 329.649 308.708 328.671 317.846C328.09 323.181 327.192 328.385 327.192 328.437C327.113 328.886 327.404 329.283 327.826 329.362C328.275 329.441 328.671 329.151 328.751 328.728C328.751 328.675 329.701 323.049 330.282 317.45C330.414 316.235 330.494 315.152 330.573 314.149C330.626 314.175 330.679 314.175 330.705 314.202C331.814 314.413 333.346 316.446 331.339 327.592C331.26 328.041 331.207 328.332 331.18 328.543C330.547 332.98 329.675 350.967 329.649 351.732C329.649 351.812 329.649 351.891 329.675 351.97L345.997 416.151C346.077 416.52 346.42 416.758 346.763 416.758C346.843 416.758 346.895 416.758 346.922 416.705C347.344 416.6 347.608 416.177 347.503 415.754Z" fill="#1A1A1A"/>
<path d="M331.551 374.076C331.445 374.076 331.339 374.05 331.207 373.997L328.91 372.941C328.513 372.756 328.329 372.28 328.513 371.884C328.698 371.488 329.174 371.303 329.57 371.488L331.868 372.545C332.264 372.729 332.449 373.205 332.264 373.601C332.132 373.918 331.841 374.076 331.551 374.076Z" fill="#1A1A1A"/>
<path d="M332.602 377.774C332.47 377.774 332.365 377.747 332.259 377.695L329.09 376.11C328.693 375.925 328.535 375.45 328.746 375.053C328.931 374.657 329.407 374.499 329.803 374.71L332.972 376.295C333.368 376.48 333.527 376.955 333.315 377.351C333.157 377.615 332.893 377.774 332.602 377.774Z" fill="#1A1A1A"/>
<path d="M334.532 383.585C334.4 383.585 334.294 383.558 334.188 383.505L330.676 381.736C330.279 381.551 330.121 381.076 330.332 380.679C330.517 380.283 330.992 380.125 331.389 380.336L334.901 382.106C335.298 382.291 335.456 382.766 335.245 383.162C335.113 383.426 334.822 383.585 334.532 383.585Z" fill="#1A1A1A"/>
<path d="M48.2313 372.07C48.2313 372.07 70.4171 351.997 71.2094 348.642C71.2094 348.642 70.3379 346.45 66.2705 348.193C62.2295 349.963 55.785 356.724 55.3624 354.796C54.9135 352.868 60.724 325.664 60.724 325.664L57.8187 327.698C57.8187 327.698 58.6903 320.303 56.9472 320.223C55.1776 320.144 52.0082 325.955 50.9517 329.388C49.8952 332.822 44.428 347.348 42.5792 345.684C40.7304 344.02 38.0892 337.497 38.1685 331.95C38.2477 326.404 35.9763 321.042 35.0783 321.465C34.2067 321.914 32.9654 328.675 32.9654 328.675C32.9654 328.675 30.3242 328.411 29.7167 330.075C29.1092 331.739 28.4754 339.134 28.6603 342.409C28.8451 345.658 26.5209 366.734 26.5209 366.734L0.769531 427.745C0.769531 427.745 3.48993 438.468 15.9827 443.038C28.4754 447.607 34.9991 435.986 34.9991 434.929C34.9991 433.873 48.2313 372.07 48.2313 372.07Z" fill="white"/>
<path d="M71.8435 348.088C68.6477 344.205 63.4974 348.431 59.747 351.521C58.5056 352.578 56.6304 354.11 55.9701 354.189C55.5211 352.684 57.6868 344.258 59.1395 338.632C61.6222 328.992 62.2032 326.245 61.5694 325.295C61.4109 325.03 61.1732 324.898 60.8827 324.846C59.9318 324.714 58.981 325.295 58.1887 326.087C58.6641 323.657 58.7697 321.676 58.3207 320.593C58.0302 319.907 57.5548 319.616 57.2114 319.484C54.5174 318.533 52.3781 323.71 49.1031 332.267C47.2014 337.259 44.2961 344.786 42.553 344.892C42.3153 344.892 41.4437 344.681 40.4929 341.089C39.8062 338.5 39.3043 335.04 38.8025 331.713C37.6932 324.212 37.0858 320.62 35.0785 320.673C33.9428 320.725 32.8071 321.729 32.1732 328.041C32.0675 327.989 31.9355 327.962 31.8034 327.962C27.7624 328.121 27.4719 335.939 27.6568 342.726C27.6832 343.122 27.6832 343.439 27.6832 343.624C27.6568 347.85 25.9136 364.939 25.7551 366.523L0.0565967 427.429C-0.101873 427.825 0.083008 428.3 0.479183 428.459C0.58483 428.485 0.690476 428.511 0.796123 428.511C1.08665 428.511 1.37718 428.327 1.50924 428.036L27.2606 367.025C27.287 366.946 27.3134 366.867 27.3134 366.787C27.3927 366.021 29.2151 348.114 29.2679 343.624C29.2679 343.439 29.2415 343.122 29.2415 342.673C28.9245 331.369 30.747 329.6 31.8562 329.547C31.9091 329.547 31.9883 329.547 32.0411 329.52C31.9619 330.498 31.8827 331.607 31.8298 332.822C31.5657 338.448 31.6714 344.153 31.6714 344.205C31.6714 344.628 32.0411 344.971 32.4637 344.971C32.4901 344.971 32.4901 344.971 32.4901 344.971C32.9127 344.945 33.2561 344.602 33.2561 344.153C33.2561 344.1 33.1504 338.844 33.3881 333.456C33.7843 324.265 34.8143 322.574 35.1049 322.284C35.9236 323.102 36.6896 328.385 37.2178 331.924C38.5648 341.062 39.5949 346.609 42.6322 346.45C45.2205 346.318 47.3599 341.221 50.5821 332.822C51.797 329.6 53.0648 326.272 54.2533 323.974C55.8909 320.725 56.6304 320.963 56.6568 320.963C56.736 320.99 56.8153 321.095 56.8681 321.227C58.1887 324.265 52.9856 338.791 49.1559 347.824C48.9974 348.22 49.1823 348.695 49.5785 348.854C49.6841 348.88 49.7898 348.907 49.8954 348.907C50.2123 348.907 50.5029 348.722 50.6085 348.458C51.2424 346.926 55.0985 337.734 57.2114 330.128C57.2907 330.075 57.3699 329.969 57.4227 329.89C58.2151 328.438 59.43 326.906 60.2488 326.51C60.1695 328.279 58.7169 333.958 57.6076 338.236C54.5703 350.016 53.7251 354.136 54.808 355.325C56.0229 356.645 58.0038 355.008 60.7506 352.763C64.8708 349.382 68.4628 346.741 70.5229 349.012C70.4173 349.408 69.7306 350.676 65.716 354.612C62.8371 357.438 59.1131 360.765 55.8116 363.697C49.2879 369.508 47.624 371.066 47.4655 371.885C47.1222 373.628 34.0484 434.137 33.9163 434.745C33.8371 435.194 34.1012 435.59 34.5238 435.695C34.5766 435.722 34.6295 435.722 34.6823 435.722C35.0521 435.722 35.369 435.458 35.4746 435.035C36.0029 432.579 48.4692 374.975 49.0238 372.228C49.4728 371.436 53.3817 367.923 56.8681 364.833C71.0776 352.182 73.0584 349.567 71.8435 348.088Z" fill="#1A1A1A"/>
<path d="M36.2678 390.241C36.3999 390.373 36.6112 390.452 36.7961 390.452C37.0074 390.452 37.2187 390.373 37.3771 390.188C37.6677 389.871 37.6412 389.369 37.3243 389.079L35.0265 386.966C34.7096 386.676 34.2077 386.702 33.9172 387.019C33.6267 387.336 33.6531 387.838 33.97 388.128L36.2678 390.241Z" fill="#1A1A1A"/>
<path d="M36.2689 394.52C36.4802 394.52 36.6915 394.414 36.85 394.256C37.1405 393.939 37.0877 393.437 36.7707 393.147L33.9447 390.69C33.6277 390.4 33.1259 390.453 32.8354 390.77C32.5449 391.087 32.5977 391.588 32.9146 391.879L35.7407 394.335C35.8991 394.467 36.084 394.52 36.2689 394.52Z" fill="#1A1A1A"/>
</svg>
