<svg width="400" height="364" viewBox="0 0 400 364" fill="none" xmlns="http://www.w3.org/2000/svg">
<path d="M365.11 260.957C364.941 259.222 362.296 258.037 356.794 257.191C351.906 256.45 344.902 256.006 335.951 255.879C318.092 255.646 293.144 256.725 265.721 258.905C255.903 259.688 245.788 260.619 235.631 261.655C211.953 264.089 188.91 267.051 168.977 270.246C150.843 273.145 135.734 276.171 125.302 278.986C110.109 283.07 108.565 285.63 108.734 287.217C108.861 288.465 110.152 290.243 119.78 291.343C125.493 291.999 133.259 292.316 142.929 292.316C144.431 292.316 145.976 292.316 147.563 292.295C171.897 292.063 204.081 289.989 238.17 286.497C272.259 283.006 304.19 278.499 328.08 273.801C339.718 271.516 348.795 269.315 355.101 267.242C364.327 264.216 365.237 262.206 365.11 260.957Z" fill="#1A1A1A"/>
<path d="M38.4161 260.196C38.4161 260.196 33.0838 260.662 29.9521 266.396C26.5665 272.596 27.2648 284.594 25.7201 285.588C24.1754 286.583 19.6471 276.701 21.9113 263.158C24.1754 249.616 30.6927 242.908 30.6927 242.908L38.4161 260.196Z" fill="#FC9F5B"/>
<path d="M52.254 309.414C52.254 309.414 41.949 315.762 33.485 330.299C25.3384 344.307 21.6353 361.193 25.4442 362.886C28.597 364.282 43.79 329.453 58.1788 330.87C72.5677 332.288 86.1102 354.845 89.7709 353.723C93.4316 352.602 89.2842 324.797 64.8654 311.403L52.254 309.414Z" fill="#FC9F5B"/>
<path d="M83.4873 184.929C105.176 189.373 102.743 205.983 106.234 203.761C112.519 199.762 106.129 182.072 94.5963 165.779C89.9199 159.156 78.832 146.841 78.832 146.841L83.847 168.213L83.4873 184.929Z" fill="#FC9F5B"/>
<path d="M83.5713 166.944C81.6034 142.546 66.1565 122.973 61.3955 107.103C56.6345 91.2329 55.3649 16.3262 53.7779 16.3262C53.7779 16.3262 52.6141 62.6245 52.5506 83.9962C52.4871 105.368 47.9588 129.279 45.6312 129.702C43.3036 130.125 41.8224 94.3646 41.8224 94.3646C39.2409 94.3646 35.8976 125.047 30.1844 144.302C24.4711 163.558 13.6795 192.548 23.6247 223.23C33.57 253.933 44.7213 270.544 48.8052 284.171C51.4079 292.868 52.1062 305.5 52.5929 313.604C52.7833 316.736 55.3649 319.191 58.5177 319.191C61.6071 319.191 64.1886 316.821 64.4426 313.731C65.9449 295.174 70.4732 269.02 72.9489 252.642C75.6574 234.445 85.5392 191.341 83.5713 166.944Z" fill="white"/>
<path d="M53.6524 92.2486C53.6524 92.2486 55.1336 128.009 57.4612 127.586C58.752 127.353 60.7199 119.884 62.2223 109.642C61.9049 108.775 61.6298 107.928 61.3759 107.103C56.6148 91.2329 55.3452 16.3262 53.7582 16.3262C53.7582 16.3262 52.5944 62.6245 52.5309 83.9962C52.5098 87.6992 52.3828 91.4657 52.1289 95.1687C52.6791 93.3066 53.1869 92.2486 53.6524 92.2486Z" fill="white"/>
<path d="M60.6354 282.054C56.5515 268.427 45.4001 251.817 35.4548 221.113C25.5096 190.431 36.3013 161.442 42.0145 142.186C43.1783 138.293 44.2363 133.912 45.2097 129.427C43.1148 126.062 41.8029 94.3643 41.8029 94.3643C39.2213 94.3643 35.878 125.046 30.1648 144.302C24.4516 163.558 13.6599 192.547 23.6052 223.229C33.5504 253.933 44.7018 270.543 48.7857 284.17C51.3884 292.867 52.0867 305.5 52.5734 313.604C52.7638 316.736 55.3453 319.19 58.4982 319.19C61.5876 319.19 64.1691 316.82 64.423 313.731C64.4653 313.265 64.5077 312.8 64.55 312.313C64.4865 312.038 64.4653 311.763 64.4442 311.488C63.9575 303.363 63.2381 290.73 60.6354 282.054Z" fill="#FC9F5B"/>
<path d="M45.613 129.702C47.5385 129.343 50.9665 112.922 52.1303 95.1689C50.3528 101.263 48.1734 115.885 45.2109 129.406C45.3591 129.618 45.486 129.723 45.613 129.702Z" fill="white"/>
<path d="M28.893 152.661C31.1148 153.402 33.3366 158.692 31.4322 162.818C29.5278 166.944 24.5552 165.78 15.4563 173.186C6.1882 180.74 2.12546 189.48 0.961659 188.21C-0.202147 186.94 1.06746 171.07 10.5895 162.289C18.9054 154.629 26.777 151.942 28.893 152.661Z" fill="#FC9F5B"/>
<path d="M57.9902 117.958C54.9009 117.958 52.3828 120.476 52.3828 123.565C52.3828 126.655 54.9009 129.173 57.9902 129.173C61.0796 129.173 63.5977 126.655 63.5977 123.565C63.5977 120.476 61.0796 117.958 57.9902 117.958Z" fill="#1A1A1A"/>
<path d="M57.991 124.729C59.1596 124.729 60.107 123.782 60.107 122.613C60.107 121.444 59.1596 120.497 57.991 120.497C56.8224 120.497 55.875 121.444 55.875 122.613C55.875 123.782 56.8224 124.729 57.991 124.729Z" fill="white"/>
<path d="M95.0834 165.441C90.9149 159.559 81.6256 149.084 79.6577 146.863C76.9069 139.139 73.352 131.987 70.0087 125.322C66.7289 118.762 63.6395 112.541 61.9467 106.933C59.0478 97.2844 57.4396 65.4808 56.2758 42.2682C55.8949 34.841 55.5775 28.4083 55.2601 23.7531C55.0908 21.2773 54.9427 19.4787 54.7946 18.2514C54.583 16.474 54.4349 15.7334 53.7578 15.7334C53.4404 15.7334 53.1653 15.9873 53.1653 16.3047C53.1441 16.7702 52.0015 62.8569 51.938 83.9959C51.9168 93.3698 50.9858 104.352 49.4199 114.107C49.2083 115.397 48.9967 116.604 48.7851 117.725C47.7271 116.413 45.7381 113.218 45.1456 107.018C43.876 93.9623 42.7757 93.7507 42.162 93.6449C41.8869 93.6026 41.6542 93.6872 41.4849 93.8353C40.0249 94.3643 39.0303 98.7868 36.3218 113.43C34.5444 123.036 32.3226 134.992 29.6141 144.133C29.1062 145.868 28.5561 147.645 27.9636 149.55C27.7097 150.375 27.4558 151.2 27.2018 152.047C23.6258 152.533 16.9392 155.665 10.1891 161.865C0.667073 170.646 -1.06805 186.897 0.518953 188.633C0.709394 188.844 0.963314 188.95 1.21723 188.95C1.23839 188.95 1.2384 188.95 1.25956 188.95C2.0848 188.908 2.91004 187.892 4.85677 185.395C6.67654 183.046 9.23691 179.745 12.7283 176.423C11.8184 181.015 11.628 185.649 12.3051 188.421C12.813 190.495 13.7017 190.918 14.3577 190.918C15.4368 190.918 17.1508 189.966 19.9651 182.39C18.23 195.15 18.3781 209.073 23.0333 223.441C25.3397 230.593 27.7308 236.962 30.0796 242.718C28.9581 243.945 23.393 250.61 21.3193 263.074C19.3091 275.114 22.5466 284.551 24.7473 286.033C25.0223 286.223 25.2551 286.265 25.4667 286.265C25.7206 286.265 25.9322 286.159 26.0169 286.096C26.8844 285.546 27.1172 283.663 27.5192 279.811C27.9424 275.749 28.5561 270.184 30.4393 266.713C32.9362 262.143 36.8297 261.085 38.057 260.873C38.7129 262.27 39.3477 263.624 39.9825 264.957C43.6221 272.638 46.4998 278.711 48.1927 284.382C50.3298 291.513 51.1762 301.31 51.6841 309.118C50.0971 310.176 40.702 316.757 32.9574 330.046C26.292 341.472 21.9753 356.221 23.7104 361.595C24.0278 362.547 24.5145 363.182 25.1916 363.478C25.3397 363.542 25.4879 363.584 25.636 363.584C27.0537 363.584 28.9158 360.855 32.8304 354.951C39.2631 345.26 48.9544 330.617 58.0956 331.506C66.8559 332.373 75.2987 341.282 81.4775 347.778C85.6672 352.2 88.2064 354.866 89.9204 354.337C90.7668 354.083 91.2746 353.11 91.4439 351.438C91.8248 347.651 90.4071 340.393 86.3443 332.669C82.9587 326.216 76.5472 317.223 65.2265 310.98C66.5385 296.888 69.3316 279.156 71.6169 264.703C72.294 260.408 72.9288 256.345 73.479 252.769C74.1138 248.537 75.1295 243.014 76.3144 236.603C79.1076 221.41 82.6201 202.26 83.9109 185.691C85.6672 186.178 91.2323 187.892 96.0356 191.108C100.331 194.6 102.045 198.684 103.167 201.371C103.886 203.106 104.373 204.249 105.261 204.524C105.388 204.566 105.515 204.587 105.642 204.587C105.939 204.587 106.235 204.482 106.552 204.291C107.864 203.466 108.711 202.09 109.091 200.207C110.467 193.182 104.838 179.216 95.0834 165.441ZM15.0983 172.72C9.87172 176.973 6.29566 181.586 3.94689 184.633C2.91004 185.966 1.85204 187.321 1.36536 187.659C1.09028 186.749 1.09028 182.962 2.42336 177.989C3.60833 173.545 6.0629 167.282 11.0144 162.711C18.3146 155.983 25.3821 153.126 28.0482 153.126C28.3233 153.126 28.5561 153.147 28.7254 153.211C29.466 153.464 30.2701 154.417 30.8202 155.707C31.582 157.464 32.0052 160.172 30.9049 162.542C30.0584 164.383 28.5138 165.06 25.9746 166.182C23.3507 167.346 19.7535 168.933 15.0983 172.72ZM26.3978 279.367C26.3978 279.473 26.3766 279.558 26.3766 279.663C26.1438 281.843 25.8476 284.53 25.4667 285.038C25.0435 284.805 23.7527 283.091 22.7794 278.859C22.1657 276.13 21.2982 270.501 22.5043 263.264C23.6469 256.387 25.9322 251.33 27.6462 248.304C28.8523 246.167 29.9738 244.707 30.5875 243.945C31.6243 246.484 32.6823 248.897 33.698 251.224C32.7035 252.684 25.9111 263.582 26.3978 279.367ZM49.3565 284.001C47.6425 278.246 44.7436 272.13 41.0829 264.407C36.1102 253.911 29.9315 240.856 24.1759 223.06C18.6532 206.005 19.563 189.5 22.4408 174.879C23.52 171.218 24.2394 168.34 24.2606 168.298C25.0647 167.917 25.7841 167.599 26.4612 167.303C29.0639 166.161 30.9472 165.335 31.984 163.092C33.042 160.786 33.0209 157.866 31.8994 155.284C31.1799 153.634 30.1642 152.491 29.0851 152.131C28.8946 152.068 28.683 152.026 28.4503 152.004C28.6619 151.306 28.8735 150.608 29.0851 149.91C29.1909 149.55 29.2967 149.19 29.4025 148.83C30.2701 149.952 32.1745 152.174 35.2427 154.396C38.1628 156.49 42.6064 158.881 48.5524 159.876C44.3415 162.246 26.1015 173.059 30.7779 179.513C36.7027 187.638 52.8056 166.541 55.9584 171.895C59.4921 177.883 36.4911 184.168 40.5115 190.791C44.532 197.414 54.9639 183.745 57.3761 188.886C59.7672 194.028 44.1088 198.472 47.2828 203.487C50.4568 208.502 55.4717 200.63 57.9263 204.397C60.4655 208.269 53.8001 209.581 53.9059 212.649C53.9694 214.829 56.0219 215.04 56.6567 218.299C57.228 221.24 55.7468 234.867 55.3236 245.659C54.9004 256.451 57.4396 271.051 59.7672 282.478C62.0948 293.904 61.0368 301.945 58.7092 307.023C56.9741 310.832 54.181 310.282 52.9114 309.753C52.4458 301.797 51.5994 291.492 49.3565 284.001ZM85.3286 333.177C88.1641 338.594 90.8091 346.275 90.2801 351.269C90.132 352.623 89.7722 353.089 89.5818 353.152C88.8624 353.364 87.0003 351.713 84.9477 349.64C84.9266 349.555 84.9054 349.492 84.8419 349.428C84.7996 349.386 81.2659 344.625 76.8646 339.419C70.8974 332.394 66.2422 327.951 63.0259 326.194C59.7461 324.417 56.0219 324.121 52.5305 325.369C48.4254 326.85 44.7859 330.278 41.76 335.59C40.7655 337.325 39.1573 340.562 37.5914 343.694C35.9833 346.931 34.3116 350.253 33.4017 351.819C33.3594 351.883 33.3383 351.967 33.3171 352.031C32.8093 352.793 32.3226 353.533 31.8359 354.253C29.466 357.829 26.5247 362.251 25.636 362.336C25.2974 362.167 25.0223 361.786 24.8319 361.172C23.3719 356.644 26.9691 342.615 33.9731 330.596C40.9347 318.64 49.2295 312.229 51.7687 310.451C51.8322 311.467 51.8957 312.44 51.938 313.371L51.9591 313.646C52.1496 317.096 55.0274 319.804 58.4765 319.804C61.8621 319.804 64.7187 317.159 64.9726 313.795C65.0149 313.287 65.0573 312.758 65.0996 312.25C75.9335 318.323 82.07 326.956 85.3286 333.177ZM55.3448 159.157C46.2459 159.368 39.8133 156.173 36.0256 153.464C31.8994 150.502 29.9103 147.455 29.8892 147.434L29.868 147.413C30.1642 146.418 30.4605 145.445 30.7567 144.493C33.4864 135.288 35.7082 123.29 37.5068 113.662C38.459 108.478 39.3054 104.013 40.0672 100.628C40.5962 98.3001 40.9982 96.9247 41.3156 96.1206C41.4426 99.0195 41.76 105.177 42.2043 111.419C43.4739 128.876 44.5743 129.765 45.0398 130.125C45.1033 130.188 45.1879 130.21 45.2514 130.252C45.2726 130.252 45.2937 130.273 45.3149 130.273C45.3995 130.315 45.5053 130.315 45.6111 130.315H45.6323C46.7538 130.315 47.6213 128.623 48.637 124.475C48.9121 123.333 49.1449 122.19 49.3353 121.259C49.7585 119.333 50.1605 117.175 50.5414 114.847C52.1708 104.902 53.123 93.6872 53.1653 84.0382C53.2076 68.4644 53.8636 39.3057 54.2021 24.8746C54.4984 29.6144 54.8158 35.8778 55.1543 42.3528C56.3181 65.6289 57.9263 97.5172 60.8676 107.293C62.5815 113.006 65.6921 119.27 68.993 125.872C72.2094 132.304 75.6373 139.203 78.3458 146.63C78.24 146.714 72.7384 158.755 55.3448 159.157ZM75.1718 236.349C73.9868 242.76 72.9711 248.304 72.3363 252.557C71.8073 256.133 71.1514 260.175 70.4742 264.47C69.1412 272.934 67.6176 282.52 66.3269 291.852C63.4068 274.839 67.9139 212.374 70.7916 193.182C73.5001 175.217 71.9131 158.395 71.6169 155.58C72.6114 154.925 73.479 154.226 74.2196 153.591C76.6741 151.454 78.113 149.338 78.8325 148.132C80.885 154.078 82.4297 160.363 82.9799 167.007C84.4822 185.649 79.1076 214.956 75.1718 236.349ZM107.928 199.953C107.631 201.498 106.954 202.619 105.917 203.275C105.854 203.318 105.706 203.402 105.621 203.381C105.452 203.318 105.261 203.043 105.029 202.619C104.394 189.013 98.3209 183.935 92.9674 179.47C92.3326 178.941 91.7401 178.433 91.1477 177.926C86.0692 173.503 84.2918 167.388 84.1437 166.838C83.657 160.849 82.3662 155.157 80.6311 149.761C84.1225 153.718 90.7879 161.421 94.1101 166.118C103.547 179.449 109.218 193.351 107.928 199.953Z" fill="#1A1A1A"/>
<path d="M348.855 235.205L337.429 281.567C336.667 284.804 338.783 288 342.063 288.592C345.258 289.163 348.305 286.984 348.813 283.789L356.6 235.205H348.855Z" fill="white"/>
<path d="M394.118 130.082C397.04 130.082 399.408 127.714 399.408 124.792C399.408 121.87 397.04 119.502 394.118 119.502C391.197 119.502 388.828 121.87 388.828 124.792C388.828 127.714 391.197 130.082 394.118 130.082Z" fill="#FC9F5B"/>
<path d="M394.115 119.502C393.608 119.502 393.1 119.587 392.634 119.714C394.623 120.475 396.02 122.401 396.02 124.644C396.02 127.056 394.412 129.087 392.211 129.722C392.803 129.955 393.438 130.082 394.115 130.082C397.035 130.082 399.405 127.712 399.405 124.792C399.405 121.872 397.035 119.502 394.115 119.502Z" fill="white"/>
<path d="M356.685 234.655L365.657 178.793C367.159 170.308 379.855 96.2472 379.855 96.2472C379.855 96.2472 385.061 65.6285 389.483 39.1572L387.092 38.8398C385.949 45.2514 385.145 49.9066 385.145 49.9066L361.234 174.54L350.718 227.715L349.004 234.655H356.685Z" fill="#FC9F5B"/>
<path d="M361.951 242.168L357.402 241.194L340.664 237.682L343.965 222.002L365.252 226.488L361.951 242.168Z" fill="white"/>
<path d="M380.912 213.072C379.198 212.522 377.505 212.226 376.172 212.226C374.162 212.226 373.527 212.903 373.358 213.453C373.316 213.601 373.294 213.77 373.294 213.961L369.338 234.994L364.301 234.042L365.867 226.614C365.867 226.593 365.867 226.593 365.867 226.572C365.867 226.551 365.867 226.53 365.867 226.509C365.867 226.487 365.867 226.466 365.867 226.445C365.867 226.424 365.867 226.403 365.867 226.403C365.867 226.382 365.846 226.361 365.846 226.339C365.846 226.318 365.846 226.318 365.825 226.297C365.825 226.276 365.804 226.255 365.783 226.234C365.783 226.234 365.783 226.212 365.761 226.212C365.719 226.149 365.656 226.085 365.592 226.043C365.571 226.022 365.529 226.001 365.486 225.98C365.444 225.958 365.423 225.958 365.381 225.937L344.094 221.451C344.051 221.451 344.009 221.43 343.967 221.43C343.945 221.43 343.924 221.43 343.924 221.43C343.903 221.43 343.882 221.43 343.861 221.43C343.84 221.43 343.818 221.43 343.797 221.451C343.776 221.451 343.755 221.451 343.734 221.473C343.713 221.473 343.691 221.494 343.691 221.494C343.67 221.494 343.649 221.515 343.649 221.515C343.628 221.515 343.628 221.536 343.607 221.557C343.586 221.578 343.565 221.578 343.565 221.599C343.543 221.621 343.543 221.621 343.522 221.642C343.501 221.663 343.501 221.684 343.48 221.684C343.48 221.705 343.459 221.705 343.459 221.726C343.459 221.748 343.438 221.769 343.438 221.79C343.438 221.811 343.416 221.832 343.416 221.853C343.416 221.875 343.395 221.896 343.395 221.896L342.062 228.265L339.883 227.799C339.079 227.63 338.296 228.138 338.126 228.942C337.957 229.746 338.465 230.529 339.269 230.698L341.449 231.164L340.094 237.575C340.031 237.893 340.242 238.21 340.56 238.274L346.569 239.543L336.814 281.44C336.412 283.175 336.73 284.953 337.703 286.434C338.677 287.915 340.2 288.91 341.935 289.227C342.316 289.291 342.697 289.333 343.078 289.333C344.411 289.333 345.702 288.931 346.802 288.127C348.22 287.111 349.151 285.609 349.426 283.874L355.541 244.833C355.562 244.77 355.583 244.685 355.583 244.622L356.07 241.511L361.847 242.738C361.889 242.738 361.931 242.76 361.974 242.76C362.249 242.76 362.503 242.569 362.545 242.294L364.026 235.205L369.676 236.263C369.718 236.263 369.74 236.263 369.782 236.263C370.057 236.263 370.311 236.073 370.374 235.777L374.204 215.463C374.416 215.654 374.649 215.844 374.945 216.056C376.045 216.838 377.59 217.558 379.304 218.108C380.912 218.616 382.647 218.954 384.065 218.954C385.504 218.954 386.604 218.595 386.879 217.727C387.429 215.992 384.171 214.088 380.912 213.072ZM348.177 283.683C347.966 285.059 347.204 286.286 346.083 287.09C344.94 287.894 343.543 288.212 342.168 287.979C340.75 287.725 339.544 286.921 338.761 285.736C338.465 285.27 338.232 284.784 338.084 284.276L348.579 281.017L348.177 283.683ZM348.812 279.599L337.894 282.985C337.894 282.562 337.936 282.139 338.021 281.715L339.396 275.791L349.891 272.532L348.812 279.599ZM350.145 271.114L339.756 274.33L341.427 267.178L351.224 264.195L350.145 271.114ZM351.436 262.798L341.745 265.761L343.649 257.614C343.734 257.656 343.84 257.677 343.924 257.677C343.988 257.677 344.051 257.677 344.115 257.656L352.642 255.032L351.436 262.798ZM352.875 253.636L343.945 256.387L345.871 248.092C345.892 248.092 345.934 248.071 345.956 248.071L354.145 245.553L352.875 253.636ZM354.356 244.156L346.21 246.674L347.818 239.797L354.822 241.278L354.356 244.156ZM362.947 234.613L361.508 241.469L341.385 237.237L343.797 225.747L363.561 231.693L363.032 234.19C362.989 234.253 362.947 234.338 362.947 234.423C362.926 234.465 362.926 234.549 362.947 234.613Z" fill="#1A1A1A"/>
<path d="M395.303 0.392108C394.923 0.286308 394.499 0.37095 394.161 0.582551C394.118 0.603711 394.076 0.64603 394.034 0.66719L390.458 0.0112258C390.14 -0.0522545 389.823 0.159347 389.76 0.497909C389.696 0.83647 389.908 1.13271 390.246 1.19619L392.912 1.68288C392.278 2.42348 391.283 3.79888 390.14 5.99953C388.469 9.25819 386.162 15.0349 384.766 24.1126C383.75 30.7357 384.935 35.4756 385.654 37.5069L384.3 37.253C383.983 37.1895 383.665 37.4011 383.602 37.7397C383.538 38.0571 383.75 38.3745 384.089 38.438L385.041 38.6072C384.258 39.1151 383.2 39.8557 382.1 40.8291C379.222 43.4106 377.508 46.373 377.148 49.4201C376.471 55.0486 378.227 60.254 379.095 62.3912L378.777 62.3489C378.46 62.3066 378.143 62.5182 378.1 62.8356C378.037 63.153 378.27 63.4704 378.587 63.5127L378.926 63.5762C378.206 64.486 376.979 66.0731 375.688 68.0198C373.001 72.1037 371.414 75.6374 370.99 78.494C370.546 81.6046 370.991 85.3711 372.302 89.6877C372.916 91.6556 373.551 93.285 373.974 94.2372L373.572 94.1737C373.255 94.1102 372.937 94.343 372.895 94.6604C372.831 94.9778 373.064 95.2952 373.382 95.3375L373.53 95.3586C371.117 97.4323 365.468 102.997 364.431 110.53C363.373 118.317 366.081 126.401 367.203 129.321L367.034 129.299C366.716 129.236 366.399 129.469 366.356 129.786C366.293 130.104 366.526 130.421 366.843 130.463L367.584 130.59C367.372 131.712 366.208 135.182 359.395 138.335C357.554 139.181 356.729 140.641 357.258 142.038C357.765 143.35 359.437 144.365 362.188 144.365C363.352 144.365 364.685 144.175 366.208 143.752L360.093 175.577C359.352 176.359 352.687 183.702 349.555 198.366C346.974 210.448 350.867 223.631 350.91 223.779C350.91 223.8 350.91 223.8 350.931 223.822C350.931 223.843 350.931 223.843 350.952 223.864C350.973 223.885 350.973 223.906 350.994 223.927C350.994 223.927 350.994 223.949 351.015 223.949C351.037 223.97 351.058 224.012 351.079 224.033C351.1 224.054 351.121 224.076 351.142 224.097L351.163 224.118C351.185 224.139 351.206 224.139 351.227 224.16C351.248 224.16 351.248 224.16 351.269 224.181C351.29 224.181 351.312 224.202 351.354 224.202H351.375C351.417 224.202 351.439 224.202 351.481 224.202H351.502C351.523 224.202 351.566 224.202 351.587 224.202C351.608 224.202 351.608 224.202 351.629 224.202H351.65H351.671C351.693 224.202 351.714 224.181 351.735 224.181C351.756 224.181 351.756 224.16 351.777 224.16C351.798 224.139 351.819 224.139 351.841 224.118C351.862 224.118 351.862 224.097 351.883 224.076C351.904 224.054 351.904 224.054 351.925 224.033C351.946 224.012 351.946 224.012 351.946 223.991C351.968 223.97 351.968 223.949 351.989 223.927C351.989 223.906 352.01 223.906 352.01 223.885C352.01 223.864 352.031 223.843 352.031 223.822C352.031 223.8 352.052 223.779 352.052 223.758C352.052 223.737 352.052 223.737 352.052 223.737L369.848 130.971L371.583 131.267C363.733 175.661 355.734 220.902 354.401 228.477C355.459 228.731 356.496 228.942 357.554 229.196L358.146 225.472C358.379 225.43 358.57 225.239 358.612 224.985L380.449 96.0781C380.47 96.0358 380.491 95.9723 380.513 95.9088C380.513 95.8453 380.513 95.803 380.513 95.7395L396.383 2.06376C396.531 1.30199 396.044 0.561389 395.303 0.392108ZM351.417 220.88C350.444 216.5 348.899 207.274 350.74 198.641C352.391 190.875 355.099 185.226 357.088 181.861C358.062 180.189 358.972 178.92 359.649 178.01L351.417 220.88ZM385.93 24.2819C387.305 15.4369 389.527 9.78719 391.156 6.63434C391.918 5.13197 392.637 4.03165 393.187 3.26988L386.712 36.9568C386.056 34.9466 384.977 30.4395 385.93 24.2819ZM378.312 49.547C378.968 43.9819 384.427 40.3212 386.268 39.2421L381.74 62.8144L380.47 62.6028C379.92 61.3332 377.592 55.5988 378.312 49.547ZM372.175 78.6422C373.022 72.8231 379.052 65.269 380.28 63.7666L381.528 63.9782L375.667 94.5122L375.392 94.4699C374.715 92.9887 371.244 85.0325 372.175 78.6422ZM366.462 142.461C361.405 144.027 358.823 142.778 358.358 141.615C358.062 140.832 358.633 139.985 359.881 139.414C366.187 136.494 368.028 133.193 368.578 131.437L366.462 142.461ZM368.917 129.617L368.578 129.553C367.795 127.585 364.516 118.825 365.616 110.7C366.716 102.574 373.741 96.6917 375.096 95.6126L375.434 95.676L368.917 129.617ZM371.816 130.082L370.102 129.807L376.619 95.8665L377.825 96.0569C375.921 106.87 373.868 118.444 371.816 130.082ZM378.037 94.8931L376.831 94.7027L382.692 64.1686L383.433 64.2956C381.888 73.0347 380.047 83.509 378.037 94.8931ZM383.644 63.1318L382.904 63.0048L387.495 39.0516L387.876 39.1151C387.538 41.2099 385.951 50.1607 383.644 63.1318ZM389.082 38.1417L387.728 37.8878L394.626 1.97912L395.198 2.08492L389.082 38.1417Z" fill="#1A1A1A"/>
<path d="M399.999 124.792C399.999 121.745 397.672 119.227 394.688 118.931L396.402 1.95772C396.402 1.64032 396.148 1.36523 395.81 1.36523C395.492 1.36523 395.217 1.61916 395.217 1.95772L393.503 118.952C390.541 119.269 388.234 121.766 388.234 124.813C388.234 127.86 390.562 130.378 393.546 130.675V134.124C393.546 134.145 393.546 134.166 393.546 134.187C393.546 134.208 393.546 134.229 393.546 134.251C393.546 134.568 393.821 134.843 394.138 134.843C395.344 134.843 396.318 135.817 396.318 137.023C396.318 138.229 395.344 139.202 394.138 139.202C393.821 139.202 393.546 139.477 393.546 139.795C393.546 140.112 393.821 140.387 394.138 140.387C396 140.387 397.503 138.885 397.503 137.023C397.503 135.372 396.296 133.997 394.731 133.722V130.653C397.693 130.336 399.999 127.839 399.999 124.792ZM394.117 120.095C396.508 120.095 398.476 121.893 398.772 124.2H389.462C389.758 121.893 391.726 120.095 394.117 120.095ZM394.117 129.49C391.726 129.49 389.758 127.691 389.462 125.385H398.772C398.497 127.712 396.508 129.49 394.117 129.49Z" fill="#1A1A1A"/>
<path d="M199.063 60.1276C199.063 60.1276 195.106 65.2484 194.153 68.8879C193.201 72.5274 192.566 74.4319 192.08 74.5165C191.593 74.58 185.372 76.4209 185.943 78.0502C186.515 79.6796 190.387 80.7376 190.387 80.7376C190.387 80.7376 188.123 91.5292 190.323 94.7667C192.524 98.0042 196.523 96.523 196.523 96.523L195.592 106.511C195.592 106.511 201.75 106.891 206.109 106.764C210.489 106.616 215.356 105.855 215.356 105.855L216.414 90.6193L223.122 77.225L224.116 68.5493L217.408 61.63L205.982 59.7891L199.063 60.1276Z" fill="#FC9F5B"/>
<path d="M218.467 105.262C218.467 105.262 220.413 108.288 219.884 110.404C219.355 112.52 218.192 114.636 218.192 114.636C218.192 114.636 228.243 112.943 235.86 115.376C243.478 117.81 249.614 121.83 251.836 125.004C251.836 125.004 239.352 127.861 237.024 152.724C234.696 177.587 238.399 189.119 248.027 202.45L255.857 241.173C255.857 241.173 238.188 233.767 219.355 232.921C200.523 232.074 182.114 233.45 175.448 235.037C168.783 236.624 164.445 237.153 160.848 240.327C160.848 240.327 156.192 238.211 154.923 229.535C153.653 220.859 156.616 216.839 156.616 216.839C156.616 216.839 151.114 210.068 151.749 201.815C152.384 193.563 153.653 190.812 153.653 190.812C153.653 190.812 148.469 184.147 150.373 176.212C152.278 168.277 154.288 166.478 154.288 166.478C154.288 166.478 150.479 156.215 153.23 149.338C155.981 142.461 160.213 139.181 160.213 139.181C160.213 139.181 159.917 124.348 171.639 118.127C178.411 114.53 183.426 116.604 189.054 116.688C189.054 116.688 186.769 113.789 188.356 109.769C189.943 105.748 192.842 105.431 192.842 105.431C192.842 105.431 191.741 107.441 203.358 107.018C214.996 106.595 218.467 105.262 218.467 105.262Z" fill="white"/>
<path d="M167.388 137.806C167.388 137.806 153.528 136.748 152.788 154.417C152.386 164.172 154.269 166.478 154.269 166.478C154.269 166.478 148.344 173.461 150.248 181.925C152.153 190.389 153.634 190.812 153.634 190.812C153.634 190.812 149.889 198.578 152.512 206.957C155.115 215.358 156.596 216.839 156.596 216.839C156.596 216.839 153.846 224.88 154.904 229.535C155.962 234.19 158.078 238.634 160.828 240.327L168.34 236.624C168.34 236.624 160.892 235.143 159.876 226.784C158.712 217.262 164.955 213.982 164.955 213.982C164.955 213.982 157.231 209.856 156.808 200.334C156.258 188.019 160.405 186.792 160.405 186.792C160.405 186.792 155.708 183.216 155.962 174.307C156.173 166.584 166.224 163.092 166.224 163.092C166.224 163.092 156.448 160.278 158.289 149.021C159.834 139.647 167.388 137.806 167.388 137.806Z" fill="#FC9F5B"/>
<path d="M235.838 115.376C228.305 112.71 218.17 114.636 218.17 114.636C218.17 114.636 219.334 112.52 219.863 110.404C220.392 108.288 218.445 105.262 218.445 105.262C218.445 105.262 214.996 106.595 203.358 107.018C191.72 107.441 192.841 105.431 192.841 105.431C192.841 105.431 189.921 105.748 188.355 109.769C186.789 113.789 189.053 116.688 189.053 116.688C183.404 116.625 178.41 114.53 171.639 118.127C167.682 120.222 165.1 123.29 163.407 126.443C162.815 126.972 162.286 127.691 161.905 128.728C160.297 133.024 161.249 133.743 162.392 136.007C163.513 138.271 172.485 136.282 172.485 136.282C165.46 135.055 165.354 132.452 166.285 129.934C167.512 126.591 170.263 124.01 173.649 122.888C175.765 122.19 178.092 121.534 180.039 121.343C191.191 120.222 190.894 122.888 198.237 123.036C205.579 123.184 210.891 117.598 229.617 118.55C244.451 119.312 246.291 126.422 246.757 126.485C245.805 126.126 253.19 121.513 235.838 115.376Z" fill="#FC9F5B"/>
<path d="M131.076 113.154C131.076 113.154 122.887 123.586 118.655 137.425C114.423 151.264 113.852 165.631 113.852 165.631C113.852 165.631 129.087 180.168 152.363 193.563L153.633 190.812C153.633 190.812 149.612 184.189 150.247 177.481C150.882 170.773 154.267 166.478 154.267 166.478C154.267 166.478 150.247 159.643 152.934 150.608C155.622 141.572 160.192 139.181 160.192 139.181C160.192 139.181 158.986 132.41 162.668 126.549C166.329 120.687 169.926 119.079 169.926 119.079C169.926 119.079 158.013 119.016 145.169 116.752C132.345 114.509 131.076 113.154 131.076 113.154Z" fill="white"/>
<path d="M132.346 112.73C132.346 112.73 128.473 116.328 125.723 121.618C125.723 121.618 141.91 127.352 161.42 129.51C161.42 129.51 162.964 122.253 169.947 119.078C169.926 119.078 150.755 118.867 132.346 112.73Z" fill="#FC9F5B"/>
<path d="M292.588 179.469C292.588 178.771 283.425 183.003 277.501 195.826C271.576 208.67 273.205 215.209 273.205 215.209C273.205 215.209 283.15 223.059 301.623 221.789C320.096 220.52 330.972 205.56 330.972 205.56C330.972 205.56 352.28 180.316 362.86 163.938L367.727 163.79L368.214 165.546C368.214 165.546 372.594 163.641 372.51 161.377L373.208 160.256C373.208 160.256 375.26 159.134 375.112 157.928C374.964 156.722 374.118 155.96 374.118 155.96C374.118 155.96 377.355 155.96 377.397 154.204C377.44 152.448 376.297 151.517 376.297 151.517C376.297 151.517 379.619 150.607 378.688 148.406C377.778 146.227 372.488 144.597 372.488 144.597C372.488 144.597 369.378 142.333 366.14 143.539C362.903 144.746 356.682 149.951 352.598 153.908C348.514 157.865 335.035 171.407 329.533 174.92C324.032 178.454 311.547 188.526 303.083 185.987C294.619 183.447 292.588 179.469 292.588 179.469Z" fill="#FC9F5B"/>
<path d="M294.77 221.854C296.907 221.96 299.192 221.96 301.625 221.791C320.098 220.521 330.974 205.561 330.974 205.561C330.974 205.561 332.011 204.333 333.725 202.26C311.507 204.376 298.663 217.559 294.77 221.854Z" fill="white"/>
<path d="M251.815 125.004C251.815 125.004 263.094 129.088 270.288 139.393C277.483 149.698 285.248 172.551 292.57 179.449C292.57 179.449 281.99 184.379 277.483 195.806C272.976 207.232 272.129 214.702 273.61 223.8L252.239 206.386C252.239 206.386 243.351 199.043 239.394 186.22C235.438 173.376 236.432 157.167 237.427 149.677C238.421 142.228 240.96 129.109 251.815 125.004Z" fill="white"/>
<path d="M56.1479 54.3711C56.1479 54.3711 53.5029 57.2065 52.6565 57.2277C52.1486 57.2489 52.3391 54.5615 52.3391 54.5615C49.9057 54.6462 47.7897 54.8155 46.7951 55.9581C45.3139 57.6509 45.9487 60.4017 47.3241 61.2481C47.3241 61.2481 45.3774 64.5279 47.9589 66.4958C47.9589 66.4958 46.1603 69.289 49.2285 70.9394C49.2285 70.9394 46.6893 73.7326 49.1862 75.4254C50.1173 76.0602 50.8156 75.8274 52.0217 75.9121L52.0852 73.8384L56.2537 73.4787L57.2271 71.7647L57.5868 72.0821C57.8407 72.3149 58.01 72.6323 58.0312 72.992L58.3062 76.6738C58.3062 76.6738 63.427 78.3243 62.8345 78.1551C62.242 77.9858 63.7232 81.6465 65.8392 86.7249C67.9552 91.8033 76.1019 107.568 76.1019 107.568L85.8355 124.39C85.8355 124.39 93.03 133.785 95.675 137.128C101.452 143.899 108.646 149.824 108.646 149.824L114.148 153.21C114.148 153.21 116.412 140.768 120.432 132.41C124.453 124.051 130.907 113.683 130.907 113.683C130.907 113.683 115.883 112.731 100.013 99.3998C84.1427 86.0689 82.0267 80.7154 77.6889 74.6848C73.3511 68.6542 63.2365 55.0482 56.1479 54.3711Z" fill="#FC9F5B"/>
<path d="M72.7975 68.3799C72.7975 68.3799 70.6815 71.9136 75.0828 79.3408C76.8603 82.3455 91.3126 104.289 125.698 121.64L132.046 112.139C132.046 112.139 117.234 109.155 97.0258 93.7085C83.1448 83.1073 78.2568 75.0876 78.2568 75.0876L72.7975 68.3799Z" fill="white"/>
<path d="M198.872 118.275C192.333 118.275 189.011 117.344 188.863 117.302C188.524 117.196 188.334 116.858 188.418 116.519C188.524 116.181 188.863 115.99 189.201 116.075C189.244 116.096 193.179 117.175 200.797 116.963C208.478 116.752 217.789 114.594 217.873 114.572C218.212 114.488 218.55 114.699 218.635 115.038C218.72 115.376 218.508 115.715 218.17 115.8C218.085 115.821 208.626 118 200.839 118.212C200.162 118.254 199.506 118.275 198.872 118.275Z" fill="#1A1A1A"/>
<path d="M241.425 57.0378C240.832 54.7737 239.097 54.6891 237.827 54.6044C236.748 54.5409 236.05 54.4775 235.627 53.7792C235.267 53.1867 235.902 51.7055 236.515 50.2878C237.658 47.6428 239.203 44.0455 236.621 41.2947C233.976 38.5016 230.781 40.7657 228.221 42.5855C226.803 43.6012 225.322 44.638 224.56 44.3206C224.095 44.1302 224.052 43.8763 224.095 42.9029C224.137 41.8237 224.2 40.3214 222.592 38.9883C222 38.5016 221.196 38.29 220.222 38.3958C217.535 38.6709 213.811 41.1043 211.145 43.1145C207.949 45.5267 205.156 48.1929 204.035 49.5683C203.738 49.9069 199.168 55.1546 198.512 58.0958C198.089 60.0214 198.512 62.0105 199.676 63.4494C200.522 64.5074 202.151 65.7558 205.156 65.7558C206.955 65.7558 208.478 65.248 209.811 64.8036C211.97 64.1053 213.134 63.7879 214.34 64.9306C215.017 65.5865 215.377 66.306 213.705 69.7974C212.985 71.2998 212.308 72.7175 212.689 73.8813C212.901 74.5161 213.324 74.7912 213.62 74.9181C214.721 75.3413 216.223 74.4949 217.704 73.6908C218.508 73.2465 219.355 72.781 219.82 72.7175C220.265 72.654 220.73 72.9079 221.047 73.3734C221.576 74.114 221.83 75.5318 220.963 77.3304C220.074 79.1713 218.995 79.7426 217.725 80.4198C216.9 80.8641 215.969 81.372 215.059 82.2607C213.726 83.5514 212.478 87.3391 214.721 92.0578C215.228 93.137 216.011 93.4332 216.583 93.4755C216.667 93.4755 216.752 93.4967 216.837 93.4967C219.503 93.4967 223.883 89.3282 230.929 80.1024C236.367 73.0349 242.398 60.7409 241.425 57.0378Z" fill="#1A1A1A"/>
<path d="M114.422 152.66C114.295 152.597 101.874 146.164 88.8822 127.374C75.9957 108.732 67.2143 89.6666 64.9713 83.3609C64.146 81.0544 63.1515 77.9862 63.1515 77.9439V77.9227C63.1515 77.9016 63.1304 77.8804 63.1304 77.8593C63.1304 77.8381 63.1092 77.817 63.1092 77.7958C63.1092 77.7746 63.088 77.7535 63.0669 77.7535C63.0457 77.7323 63.0457 77.7111 63.0246 77.7111C63.0034 77.69 63.0034 77.69 62.9822 77.6688C62.9611 77.6477 62.9611 77.6477 62.9399 77.6265C62.9188 77.6054 62.8976 77.6054 62.8976 77.5842C62.8764 77.563 62.8553 77.563 62.8341 77.563C62.813 77.563 62.7918 77.5419 62.7706 77.5419C62.7495 77.5419 62.7283 77.5207 62.7072 77.5207H62.686L58.5175 76.6743C58.1789 76.6108 57.8403 76.8224 57.7769 77.161C57.7134 77.4996 57.925 77.8381 58.2635 77.9016L62.0724 78.6845C62.3686 79.5732 63.1304 81.922 63.7863 83.7841C66.0293 90.1321 74.8954 109.346 87.8454 128.093C101.049 147.201 113.724 153.739 113.851 153.803C113.936 153.845 114.042 153.866 114.126 153.866C114.359 153.866 114.592 153.739 114.698 153.528C114.867 153.189 114.74 152.808 114.422 152.66Z" fill="#1A1A1A"/>
<path d="M152.361 194.197C152.255 194.197 152.149 194.176 152.044 194.112C128.344 180.485 113.553 166.223 113.405 166.096C113.278 165.97 113.215 165.8 113.215 165.631C113.426 148.47 118.293 134.864 122.314 126.464C126.694 117.365 130.947 112.392 131.137 112.181C131.37 111.905 131.772 111.884 132.026 112.117C132.301 112.35 132.322 112.752 132.09 113.006C132.047 113.048 127.731 118.084 123.435 127.056C119.478 135.287 114.738 148.576 114.484 165.377C116.304 167.091 130.587 180.316 152.678 193.033C152.975 193.203 153.08 193.605 152.911 193.901C152.805 194.091 152.594 194.197 152.361 194.197Z" fill="#1A1A1A"/>
<path d="M125.064 175.577C124.768 175.577 124.493 175.365 124.43 175.048C124.345 174.603 122.631 163.854 126.99 146.651C132.047 126.612 142.077 116.011 142.162 115.905C142.395 115.651 142.797 115.651 143.05 115.884C143.304 116.117 143.304 116.519 143.072 116.773C142.966 116.878 133.169 127.268 128.196 146.968C123.922 163.896 125.657 174.751 125.678 174.857C125.742 175.196 125.509 175.534 125.149 175.598C125.149 175.577 125.107 175.577 125.064 175.577Z" fill="#1A1A1A"/>
<path d="M145.718 182.792C145.02 182.792 143.708 181.882 137 168.128C133.509 160.976 130.229 153.718 130.187 153.633C130.038 153.316 130.187 152.935 130.504 152.787C130.821 152.639 131.202 152.787 131.35 153.104C138.566 169.059 143.729 178.898 145.464 181.099C145.549 179.554 145.253 174.687 142.967 159.727C141.423 149.549 139.688 139.604 139.666 139.498C139.603 139.16 139.836 138.821 140.174 138.758C140.513 138.694 140.851 138.927 140.915 139.265C140.936 139.371 142.713 149.57 144.279 159.875C147.496 180.993 146.755 181.966 146.416 182.432C146.268 182.622 146.078 182.728 145.866 182.749C145.824 182.771 145.782 182.792 145.718 182.792Z" fill="#FC9F5B"/>
<path d="M147.919 159.495C147.559 159.495 147.284 159.22 147.284 158.86C147.284 152.004 143.518 131.246 143.475 131.034C143.412 130.696 143.645 130.357 143.983 130.294C144.322 130.23 144.66 130.463 144.724 130.801C144.872 131.669 148.533 151.877 148.533 158.839C148.554 159.22 148.279 159.495 147.919 159.495Z" fill="#FC9F5B"/>
<path d="M255.412 203.508C255.179 203.508 254.947 203.36 254.841 203.127C254.798 203.042 250.99 194.451 247.456 185.839C245.382 180.782 243.795 176.698 242.779 173.714C240.833 168.065 241.15 167.345 241.785 166.986C242.526 166.583 243.457 167.049 246.207 170.71C247.794 172.805 249.847 175.788 252.323 179.597C256.534 186.072 260.575 192.737 260.617 192.822C260.808 193.118 260.702 193.52 260.406 193.69C260.11 193.88 259.708 193.774 259.538 193.478C259.496 193.414 255.751 187.215 251.73 180.994C245.742 171.768 243.457 169.144 242.589 168.424C242.737 169.673 243.795 173.63 248.979 186.199C252.407 194.515 255.983 202.556 256.026 202.64C256.174 202.958 256.026 203.339 255.708 203.487C255.602 203.508 255.497 203.508 255.412 203.508Z" fill="#FC9F5B"/>
<path d="M264.743 178.073C264.616 178.073 264.489 178.031 264.362 177.946L242.758 162.351C242.482 162.14 242.419 161.759 242.609 161.463C242.821 161.188 243.202 161.124 243.498 161.315L265.103 176.91C265.378 177.121 265.441 177.502 265.251 177.798C265.145 177.968 264.933 178.073 264.743 178.073Z" fill="#FC9F5B"/>
<path d="M275.091 173.249C274.816 173.249 274.562 173.08 274.477 172.805C274.456 172.741 272.382 165.949 270.499 159.093C266.584 144.874 267.219 144.239 267.642 143.816C267.917 143.54 268.277 143.414 268.679 143.477C269.208 143.54 270.097 143.921 271.853 146.312C272.763 147.561 273.461 148.767 273.504 148.809C273.673 149.106 273.588 149.508 273.271 149.677C272.953 149.846 272.573 149.762 272.403 149.444C271.007 147.053 269.25 144.895 268.594 144.725C268.425 146.355 270.795 156.342 275.683 172.424C275.789 172.763 275.598 173.122 275.26 173.207C275.218 173.249 275.154 173.249 275.091 173.249Z" fill="#FC9F5B"/>
<path d="M199.739 75.5953C202.181 75.5953 204.161 74.6479 204.161 73.4793C204.161 72.3107 202.181 71.3633 199.739 71.3633C197.296 71.3633 195.316 72.3107 195.316 73.4793C195.316 74.6479 197.296 75.5953 199.739 75.5953Z" fill="white"/>
<path d="M199.737 70.7285C196.859 70.7285 194.68 71.9135 194.68 73.4793C194.68 75.0452 196.859 76.2301 199.737 76.2301C202.615 76.2301 204.794 75.0452 204.794 73.4793C204.773 71.9135 202.615 70.7285 199.737 70.7285ZM200.562 74.9394C200.626 74.7913 200.668 74.6431 200.668 74.495C200.668 73.4793 199.187 72.6329 197.219 72.4213C197.854 72.1674 198.721 71.9981 199.758 71.9981C202.065 71.9981 203.546 72.8657 203.546 73.4793C203.503 74.0083 202.382 74.7489 200.562 74.9394Z" fill="#1A1A1A"/>
<path d="M203.101 69.5647C202.996 69.5647 202.89 69.5435 202.805 69.48C200.541 68.2316 198.023 69.4377 198.002 69.4377C197.684 69.5858 197.303 69.4589 197.155 69.1415C197.007 68.8241 197.134 68.4432 197.452 68.2951C197.579 68.2316 200.583 66.7927 203.44 68.3586C203.757 68.5278 203.863 68.9087 203.694 69.2261C203.546 69.4589 203.313 69.5647 203.101 69.5647Z" fill="#1A1A1A"/>
<path d="M193.625 88.5666L201.243 85.0117C201.243 85.0117 201.475 89.3919 199.19 90.5557C196.164 92.1004 193.625 88.5666 193.625 88.5666Z" fill="white"/>
<path d="M197.646 91.5921C195.615 91.5921 193.88 90.0051 193.118 88.9471C193.012 88.7989 192.97 88.6085 193.012 88.4181C193.055 88.2276 193.182 88.0795 193.351 87.9949L200.969 84.44C201.159 84.3553 201.392 84.3553 201.561 84.4611C201.751 84.5669 201.857 84.7574 201.878 84.969C201.878 85.1594 202.111 89.7723 199.466 91.1266C198.852 91.4651 198.239 91.5921 197.646 91.5921ZM194.663 88.7778C194.917 89.0317 195.255 89.3491 195.657 89.6242C196.779 90.386 197.879 90.5129 198.895 89.9839C200.122 89.3491 200.524 87.3601 200.609 86.0058L194.663 88.7778Z" fill="#1A1A1A"/>
<path d="M219.078 104.479C218.697 103.696 217.28 103.357 216.348 103.209L217.047 92.7983C217.068 92.4386 216.814 92.1423 216.454 92.1212C216.095 92.1 215.798 92.3539 215.777 92.7136L214.931 105.262C214.931 105.304 214.931 105.325 214.931 105.367C212.73 105.621 209.535 105.896 205.705 106.066C201.621 106.256 198.384 106.277 196.246 106.193L196.606 102.405C196.987 100.649 199.42 99.0828 203.018 98.3211C207.102 97.4535 207.821 95.2317 207.842 95.1259V95.1047C207.842 95.0624 207.863 95.0201 207.863 94.9778C207.863 94.9566 207.863 94.9566 207.863 94.9354C207.863 94.8931 207.863 94.8296 207.842 94.7873C207.821 94.745 207.821 94.7027 207.8 94.6604C207.8 94.6392 207.779 94.6392 207.779 94.618C207.757 94.5757 207.736 94.5546 207.715 94.5122C207.715 94.5122 207.715 94.4911 207.694 94.4911C207.652 94.4488 207.609 94.4276 207.567 94.3853C207.567 94.3853 207.567 94.3853 207.546 94.3853C207.504 94.3641 207.461 94.343 207.419 94.3218C207.398 94.3218 207.398 94.3218 207.377 94.3006C207.334 94.3006 207.292 94.2795 207.25 94.2795C207.228 94.2795 207.228 94.2795 207.207 94.2795C207.165 94.2795 207.102 94.2795 207.059 94.3006C203.61 95.1047 194.046 96.7764 191.358 94.8296C188.883 93.0522 190.046 84.9902 190.851 81.3718C192.522 81.7104 193.919 81.795 194.046 81.795C194.067 81.795 194.067 81.795 194.088 81.795C194.427 81.795 194.702 81.5411 194.723 81.2025C194.744 80.8428 194.469 80.5466 194.13 80.5254C192.586 80.4408 188.248 79.8906 186.788 78.3459C186.47 78.0074 186.513 77.8169 186.534 77.7534C186.788 76.9282 189.158 75.9548 191.316 75.4893C192.776 75.1719 192.945 74.5794 193.432 72.9713C193.686 72.146 194.046 70.8976 194.744 69.0566C196.691 63.9782 199.526 60.508 199.547 60.4656C199.759 60.1906 199.738 59.7885 199.463 59.5769C199.188 59.3653 198.786 59.3865 198.574 59.6616C198.447 59.8097 195.59 63.3223 193.58 68.5911C192.861 70.4744 192.48 71.744 192.226 72.5904C191.803 74.0716 191.803 74.0716 191.062 74.2197C189.856 74.4736 185.899 75.4893 185.328 77.3514C185.201 77.7958 185.18 78.4729 185.857 79.1923C186.703 80.081 188.163 80.6735 189.623 81.0756C189.391 82.1124 188.946 84.44 188.735 86.9793C188.333 91.6556 188.988 94.6392 190.639 95.8453C191.655 96.5859 193.39 96.9668 195.823 96.988L195.315 102.299C195.315 102.341 195.315 102.384 195.315 102.405L195.167 103.992C193.728 104.204 192.099 104.627 191.909 105.537C191.824 105.875 191.909 106.383 192.649 106.849C193.326 107.272 195.844 107.441 199.082 107.441C205.641 107.441 215.1 106.743 217.703 106.15C218.464 105.981 218.824 105.812 218.994 105.515C219.226 105.24 219.247 104.838 219.078 104.479Z" fill="#1A1A1A"/>
<path d="M378.712 148.428C377.803 146.248 372.513 144.619 372.513 144.619C372.513 144.619 369.402 142.355 366.165 143.561C364.175 144.301 361.086 146.544 358.039 149.063V171.006C359.795 168.551 361.425 166.16 362.842 163.959L368.683 163.642V165.292C368.683 165.292 372.576 163.684 372.513 161.441L373.211 160.32C373.211 160.32 375.263 159.198 375.115 157.992C374.967 156.786 374.121 156.024 374.121 156.024C374.121 156.024 377.358 156.024 377.401 154.268C377.443 152.512 376.3 151.581 376.3 151.581C376.3 151.581 379.622 150.607 378.712 148.428Z" fill="#FC9F5B"/>
<path d="M375.895 152.195C374.795 152.195 373.864 151.941 373.8 151.92C373.462 151.814 373.271 151.476 373.356 151.137C373.462 150.799 373.8 150.608 374.139 150.693C374.731 150.862 376.488 151.158 377.525 150.566C377.927 150.333 378.202 149.973 378.307 149.487C378.392 149.19 378.329 148.915 378.159 148.619C377.292 147.18 373.885 146.122 372.637 145.826C372.298 145.741 372.086 145.403 372.171 145.064C372.256 144.726 372.594 144.514 372.933 144.599C373.441 144.726 377.927 145.805 379.238 147.963C379.598 148.556 379.704 149.19 379.535 149.825C379.323 150.651 378.858 151.285 378.138 151.687C377.461 152.068 376.636 152.195 375.895 152.195Z" fill="#1A1A1A"/>
<path d="M372.469 161.294C372.215 161.294 371.982 161.146 371.877 160.913C371.728 160.595 371.877 160.215 372.215 160.088C373.887 159.368 374.754 158.522 374.606 157.76C374.458 156.977 373.294 156.279 372.66 156.258C368.301 156.3 366.438 156.85 365.19 157.379C364.767 157.548 364.513 157.823 364.492 158.141C364.449 158.437 364.598 158.733 364.851 158.924C365 159.008 365.931 159.241 367.75 159.347C368.11 159.368 368.364 159.664 368.343 160.024C368.322 160.384 368.025 160.638 367.666 160.617C366.565 160.553 364.661 160.384 364.069 159.918C363.434 159.432 363.116 158.712 363.201 157.95C363.307 157.167 363.836 156.533 364.682 156.173C366.058 155.602 368.068 154.988 372.66 154.967C373.76 154.988 375.537 155.982 375.834 157.485C376.024 158.479 375.643 159.939 372.702 161.23C372.638 161.294 372.554 161.294 372.469 161.294Z" fill="#1A1A1A"/>
<path d="M367.199 166.436C366.945 166.436 366.691 166.266 366.606 166.012C366.48 165.674 366.67 165.314 366.987 165.208C368.595 164.637 371.325 163.431 371.854 162.606C372.087 162.246 372.15 161.886 372.045 161.548C371.918 161.103 371.579 160.807 371.389 160.722C370.585 160.363 368.278 160.511 367.305 160.701C365.464 161.273 363.432 162.352 363.454 162.965C363.686 163.304 365.739 163.389 368.045 162.944C368.384 162.881 368.722 163.113 368.786 163.452C368.849 163.791 368.617 164.129 368.278 164.193C367.559 164.32 363.919 164.954 362.671 163.981C362.353 163.727 362.184 163.389 362.184 163.008C362.163 162.055 362.967 161.188 364.681 160.363C365.802 159.813 366.924 159.474 366.966 159.474C366.987 159.474 367.009 159.474 367.009 159.453C367.834 159.284 370.627 158.966 371.896 159.559C372.362 159.77 372.997 160.32 373.251 161.167C373.399 161.653 373.462 162.436 372.912 163.283C372.002 164.722 368.172 166.118 367.411 166.393C367.326 166.414 367.262 166.436 367.199 166.436Z" fill="#1A1A1A"/>
<path d="M374.48 156.321C373.655 156.321 372.808 156.215 372.089 156.131C371.56 156.067 371.073 156.004 370.735 156.004C369.253 156.004 366.164 155.982 366.164 153.93C366.164 153.57 366.439 153.295 366.799 153.295C367.159 153.295 367.434 153.57 367.434 153.93C367.434 154.29 368.005 154.734 370.756 154.734C371.158 154.734 371.666 154.798 372.258 154.861C374.48 155.136 376.49 155.263 376.808 154.036C376.892 153.697 376.85 153.443 376.681 153.189C376.13 152.385 374.438 152.004 373.887 151.92C373.549 151.877 373.295 151.56 373.337 151.2C373.38 150.862 373.697 150.608 374.057 150.65C374.332 150.692 376.786 151.031 377.739 152.47C378.12 153.02 378.204 153.676 378.035 154.353C377.591 155.94 376.088 156.321 374.48 156.321Z" fill="#1A1A1A"/>
<path d="M374.777 146.44C373.444 144.599 370.651 142.525 368.45 142.356C365.297 142.123 356.537 148.471 348.898 156.512C345.957 159.622 338.128 167.578 329.219 174.413C319.168 182.094 311.022 185.903 304.949 185.734C299.828 185.586 294.982 182.137 290.115 175.175C285.799 168.996 282.011 160.807 278.668 153.592C277.25 150.545 275.938 147.667 274.605 145.022C270.5 136.812 264.596 131.649 260.343 128.75C255.751 125.618 252.154 124.433 252.006 124.391C251.667 124.285 251.308 124.475 251.202 124.793C251.096 125.131 251.287 125.491 251.604 125.597C251.752 125.639 265.845 130.379 273.441 145.593C274.753 148.217 276.086 151.095 277.483 154.121C280.17 159.919 282.984 166.013 286.137 171.366C285.079 171.726 282.371 172.763 279.133 175.048C275.388 177.714 270.204 182.602 266.86 190.918C262.819 200.99 262.396 210.322 262.417 213.771C255.519 207.994 248.515 202.048 248.409 201.964C248.134 201.731 247.732 201.773 247.52 202.027C247.287 202.302 247.33 202.704 247.584 202.916C247.774 203.085 267.051 219.421 273.166 224.266C273.357 224.457 273.991 225.028 275.028 225.092C275.071 225.092 275.113 225.092 275.155 225.092C276.171 225.092 277.187 224.584 278.223 223.568C280.022 221.812 281.038 220.542 281.503 219.929C285.566 221.325 291.364 222.679 298.558 222.679C298.728 222.679 298.897 222.679 299.066 222.679C315.254 222.531 323.781 215.464 337.916 198.62C351.755 182.137 363.266 163.77 363.372 163.579C363.499 163.368 363.499 163.114 363.372 162.902C363.858 162.246 364.599 161.569 365.086 161.125C365.255 160.955 365.403 160.828 365.509 160.723C365.636 160.596 365.699 160.426 365.699 160.257C365.699 160.088 365.615 159.919 365.488 159.813C365.488 159.813 365.043 159.411 364.747 158.882C364.26 158.035 364.557 157.718 364.684 157.591C365.403 156.808 368.556 155.835 369.043 155.813C369.212 155.813 369.381 155.75 369.487 155.623C369.529 155.581 369.55 155.538 369.593 155.475C369.783 155.665 370.016 155.771 370.291 155.813C372.661 156.131 375.264 149.677 375.496 148.64C375.666 148.048 375.412 147.307 374.777 146.44ZM272.383 222.023C270.119 220.182 266.987 217.58 263.729 214.871C263.665 213.136 263.517 202.768 268.067 191.426C271.283 183.427 276.234 178.709 279.832 176.148C283.281 173.694 286.18 172.72 286.836 172.509C288.338 174.963 289.904 177.249 291.575 179.217C289.227 180.359 282.223 184.507 276.911 195.552C273.886 201.879 270.902 214.765 272.383 222.023ZM374.29 148.344C374.142 148.958 373.465 150.629 372.576 152.153C371.391 154.205 370.651 154.586 370.481 154.565C369.974 154.269 369.825 151.349 370.164 148.429C370.206 148.09 369.952 147.773 369.614 147.73C369.254 147.688 368.958 147.942 368.916 148.28C368.916 148.323 368.831 149.085 368.767 150.1C368.662 150.333 367.604 152.428 365.445 154.036C365.064 154.29 364.662 154.544 364.282 154.777C363.456 155.221 362.525 155.56 361.467 155.75C361.298 155.771 361.15 155.877 361.044 156.004C361.044 156.025 361.023 156.025 361.023 156.046C361.002 156.067 361.002 156.089 360.981 156.11C360.981 156.131 360.981 156.131 360.959 156.152C360.959 156.173 360.938 156.194 360.938 156.215C360.938 156.237 360.938 156.258 360.938 156.279C360.938 156.3 360.938 156.321 360.938 156.342C360.938 156.427 360.769 165.018 357.151 170.774C357.151 170.795 357.129 170.795 357.129 170.816C352.474 177.693 345.132 188.061 336.985 197.795C330.298 205.772 324.628 211.888 318.724 215.781C312.947 219.611 306.895 221.346 299.087 221.41C298.918 221.41 298.749 221.41 298.579 221.41C291.533 221.41 285.862 220.119 281.694 218.659C281.651 218.638 281.63 218.617 281.588 218.595L273.505 214.639C273.462 214.617 273.441 214.596 273.399 214.575C273.505 213.2 273.695 211.718 273.949 210.174C274.795 205.053 276.382 199.657 278.096 196.123C283.471 184.951 290.771 181.036 292.485 180.232C294.305 182.242 296.231 183.914 298.304 185.078C298.304 185.099 298.283 185.099 298.262 185.12C297.416 185.818 286.412 191.045 289.798 194.431C292.316 196.949 306.493 189.352 313.624 185.268C327.78 179.809 344.349 163.219 349.85 157.422C357.764 149.085 365.974 143.456 368.387 143.646C370.122 143.773 372.619 145.635 373.782 147.222C374.227 147.857 374.311 148.238 374.29 148.344Z" fill="#1A1A1A"/>
<path d="M169.925 118.445C169.628 118.445 140.491 118.106 116.474 105.389C101.281 97.3484 88.6488 87.128 79.9731 75.8285C71.3186 64.5714 63.1085 54.3933 57.7339 53.7162C56.6759 53.5893 55.7448 53.822 54.9619 54.4145C54.0732 55.1128 53.2902 55.8111 52.6343 56.5094L51.1742 55.8322C50.8568 55.6841 50.476 55.8322 50.3278 56.1496C50.1797 56.467 50.3278 56.8479 50.6452 56.996L51.7879 57.5039C50.8357 58.7312 50.3067 59.9161 50.2644 60.953C48.8466 60.9107 47.8521 60.5933 47.2808 60.0219C46.6037 59.3448 46.6248 58.3926 46.6248 57.6308V57.5885C46.6248 57.1442 46.7941 56.7844 47.1327 56.467C48.4023 55.2609 51.6609 55.0916 52.8036 55.1339C53.1633 55.1551 53.4384 54.88 53.4595 54.5203C53.4807 54.1606 53.2056 53.8855 52.8459 53.8643C52.6554 53.8643 48.1695 53.7162 46.2439 55.5571C45.6515 56.1285 45.3552 56.8056 45.3341 57.5885V57.6308C45.3129 58.4772 45.2917 59.895 46.3497 60.953C46.4767 61.0799 46.6248 61.2069 46.7941 61.3339C46.2439 61.884 45.6303 62.8997 45.7573 64.5079C45.8207 65.2485 46.1593 65.8621 46.7518 66.3065C46.8576 66.37 46.9634 66.4334 47.0692 66.4969C46.5613 67.174 45.9477 68.5071 47.1327 70.3057C47.3866 70.7078 47.7886 70.9829 48.3176 71.1733C47.9367 71.5119 47.7251 71.8927 47.5982 72.2101C47.2173 73.2258 47.4924 74.3685 47.9156 75.0668C48.8043 76.4422 50.8145 76.5691 51.5128 76.5691C51.6609 76.5691 51.7456 76.5691 51.7667 76.5691C52.1264 76.548 52.3804 76.2517 52.3592 75.892C52.338 75.5323 52.0418 75.2784 51.6821 75.2995C51.1108 75.3418 49.5237 75.236 48.9736 74.3685C48.6985 73.9664 48.5504 73.247 48.762 72.6545C48.9313 72.189 49.3545 71.8504 49.9893 71.6811C51.8514 71.1521 55.0677 71.4272 56.0411 72.2101C56.2738 72.4006 56.2527 72.5064 56.2527 72.5487C56.2527 72.6122 56.2315 72.6968 56.1045 72.8026C55.4697 73.3528 53.4807 73.4163 52.3804 73.3316C52.0206 73.3105 51.7244 73.5644 51.7032 73.903C51.6821 74.2627 51.936 74.5589 52.2746 74.5801C52.6131 74.6012 55.6813 74.834 56.9298 73.7548C57.2895 73.4586 57.4799 73.0566 57.5011 72.6122C57.5223 72.2313 57.4165 71.6811 56.8028 71.1945C56.6547 71.0675 56.4643 70.9617 56.2738 70.8559C56.7393 70.6655 57.1202 70.1788 57.3953 69.3747C57.4588 69.1843 57.5223 68.9515 57.5857 68.7187C58.1782 70.0095 59.1728 71.6388 60.8232 73.4163C60.9502 73.5432 61.1195 73.6279 61.2888 73.6279C61.4369 73.6279 61.6062 73.5644 61.712 73.4586C61.9659 73.2258 61.9871 72.8238 61.7543 72.5699C58.0936 68.6129 57.9666 65.6294 57.9455 65.587C57.9455 65.5024 57.9243 65.3966 57.882 65.3331C57.8397 64.5925 57.7339 63.9154 57.5011 63.3652L58.6014 62.6881C58.8977 62.4977 59.0035 62.1168 58.813 61.8205C58.6226 61.5243 58.2417 61.4185 57.9455 61.6089L56.3161 62.6035C56.168 62.6881 56.0622 62.8574 56.0199 63.0267C55.9776 63.1959 56.0411 63.3864 56.1469 63.5345C56.6335 64.1482 56.7605 66.243 56.4219 68.0204C56.2103 69.0573 55.9564 69.5228 55.8295 69.6498C54.8561 69.0785 52.3169 64 51.5128 61.7782C51.1108 60.6567 51.936 58.3291 55.639 55.4513C56.1469 55.0705 56.7393 54.9223 57.4588 55.007C62.7488 55.6841 72.8422 68.8034 78.8516 76.6326C87.6331 88.0591 100.414 98.4064 115.776 106.532C128.472 113.261 142.501 116.477 152.002 118.001C162.307 119.651 169.734 119.715 169.798 119.715C170.136 119.715 170.433 119.439 170.433 119.08C170.56 118.741 170.284 118.445 169.925 118.445ZM48.2118 69.5651C47.1538 67.9781 48.2118 67.0894 48.3388 66.9836C48.3599 66.9625 48.3811 66.9413 48.4023 66.9201C48.9101 67.0259 49.4603 67.0682 49.9893 67.0682C51.0261 67.0682 51.9995 66.9201 52.5285 66.8143C52.592 66.9201 52.6343 67.0259 52.6978 67.1317C53.1844 68.0416 53.6076 68.7611 53.9885 69.2901C51.8937 70.0095 48.8466 70.5385 48.2118 69.5651ZM54.8138 70.3481C54.8349 70.3481 54.8349 70.3481 54.8138 70.3481C54.8349 70.3481 54.8138 70.3481 54.8138 70.3481ZM51.936 65.6294C50.6241 65.8198 48.5081 65.9679 47.5347 65.2485C47.2385 65.0369 47.0692 64.7406 47.048 64.3598C46.9211 62.7939 47.7886 62.0956 48.0637 61.9052C48.7408 62.1168 49.5237 62.2226 50.4548 62.2437C50.6664 62.8997 51.2589 64.2328 51.936 65.6294Z" fill="#1A1A1A"/>
<path d="M277.966 280.678L256.446 240.961L254.161 229.704L248.638 202.344C248.638 202.301 248.617 202.259 248.596 202.217C248.596 202.196 248.575 202.196 248.575 202.174C248.554 202.153 248.533 202.111 248.511 202.09C248.511 202.09 248.511 202.069 248.49 202.069C245.782 198.831 242.036 193.118 239.54 184.273C238.968 182.263 238.503 180.189 238.122 178.052C238.122 177.967 238.101 177.883 238.101 177.819C238.101 177.756 238.079 177.692 238.058 177.65C237.91 176.846 237.804 176.042 237.677 175.216L236.979 166.202C236.873 161.928 237.085 157.463 237.614 152.829C239.116 139.646 242.946 132.96 245.888 129.659C246.395 129.087 246.924 128.58 247.411 128.156C247.75 127.881 248.131 127.585 248.49 127.289C250.437 125.892 251.876 125.659 251.897 125.659C252.109 125.638 252.278 125.49 252.384 125.321C252.468 125.13 252.468 124.919 252.363 124.728C252.236 124.517 249.231 119.311 237.402 115.545C230.144 113.238 222.273 113.979 219.205 114.402C222.082 108.583 219.184 104.584 219.035 104.394C218.824 104.118 218.422 104.055 218.147 104.267C217.872 104.478 217.808 104.88 218.02 105.155C218.041 105.198 220.94 109.197 217.47 114.91C217.47 114.931 217.448 114.931 217.448 114.952C217.448 114.974 217.427 114.995 217.427 115.016C217.427 115.037 217.406 115.058 217.406 115.079C217.406 115.101 217.385 115.122 217.385 115.143C217.385 115.164 217.385 115.185 217.385 115.206C217.385 115.228 217.385 115.249 217.385 115.27C217.385 115.291 217.385 115.312 217.385 115.333C217.385 115.354 217.385 115.354 217.385 115.376C217.385 115.376 217.385 115.376 217.385 115.397C217.385 115.418 217.406 115.439 217.406 115.46C217.406 115.481 217.427 115.503 217.427 115.524C217.427 115.545 217.448 115.566 217.448 115.566C217.47 115.587 217.47 115.608 217.491 115.63C217.491 115.651 217.512 115.651 217.533 115.672C217.554 115.693 217.554 115.714 217.575 115.714C217.597 115.735 217.597 115.735 217.618 115.757C217.639 115.778 217.66 115.778 217.681 115.799C217.681 115.799 217.681 115.799 217.702 115.799C217.723 115.82 217.745 115.82 217.787 115.841C217.829 115.862 217.85 115.862 217.893 115.883H217.914C217.956 115.883 217.977 115.883 218.02 115.905C218.02 115.905 218.02 115.905 218.041 115.905H218.062C218.083 115.905 218.126 115.905 218.168 115.905C218.274 115.883 228.325 114 237.043 116.793C241.74 118.296 243.941 119.904 244.978 120.602C245.718 121.258 246.395 122.083 246.713 123.141C247.157 124.686 246.692 126.421 245.316 128.304C245.232 128.41 245.21 128.537 245.189 128.643C245.147 128.685 245.126 128.706 245.083 128.749C242.036 132.113 239.709 136.917 238.122 143.053C236.09 142.101 227.499 138.292 214.994 135.943C214.909 135.88 214.825 135.837 214.74 135.816C214.253 135.71 213.745 135.626 213.259 135.52C210.296 134.906 203.631 133.235 200.372 130.463C198.087 128.41 198.806 124.728 199.251 123.163L199.314 122.951C200.541 119.671 201.409 118.021 201.43 117.978C201.43 117.957 201.43 117.957 201.451 117.936C201.451 117.915 201.473 117.894 201.473 117.873C201.473 117.851 201.473 117.83 201.494 117.809C201.494 117.788 201.494 117.767 201.515 117.746C201.515 117.724 201.515 117.703 201.515 117.682C201.515 117.661 201.515 117.661 201.515 117.64C201.134 109.282 203.292 107.462 203.356 107.398C203.631 107.208 203.715 106.806 203.525 106.531C203.335 106.234 202.933 106.15 202.636 106.361C202.573 106.404 202.361 106.552 202.107 106.89C202.086 106.869 202.086 106.869 202.065 106.848C201.875 106.679 201.578 106.637 201.346 106.763C201.282 106.785 199.907 107.546 198.468 108.583C196.415 110.086 195.357 111.355 195.23 112.456C195.167 113.111 195.4 113.683 195.95 114.127C196.267 114.381 196.606 114.529 196.987 114.529C197.114 114.529 197.262 114.508 197.389 114.487C198.51 114.212 199.632 112.667 200.541 111.101C200.266 112.688 200.118 114.783 200.245 117.555C200.012 117.999 199.335 119.417 198.383 121.872C198.362 121.914 198.341 121.956 198.32 121.999C198.32 122.02 198.256 122.168 198.172 122.443C197.367 124.58 196.373 127.437 195.357 131.013C195.209 131.5 195.082 131.986 194.955 132.473L194.426 134.081C187.486 134.102 180.63 134.61 174.049 135.626C173.605 135.689 173.181 135.753 172.758 135.837C172.674 135.795 172.568 135.774 172.462 135.795C172.462 135.795 172.208 135.816 171.806 135.88C167.553 136.345 164.548 135.71 163.152 134.039C162.305 133.023 162.136 131.754 162.178 130.759C162.263 130.251 162.348 129.764 162.411 129.32C163.977 125.279 166.622 122.062 170.325 119.756C177.837 115.079 188.861 117.407 188.967 117.428C189.009 117.428 189.052 117.449 189.094 117.449C189.136 117.449 189.179 117.449 189.2 117.449H189.221C189.242 117.449 189.284 117.428 189.305 117.428C189.305 117.428 189.327 117.428 189.327 117.407C189.348 117.386 189.369 117.386 189.39 117.365C189.411 117.365 189.411 117.344 189.432 117.344L189.454 117.322L189.475 117.301C189.496 117.28 189.496 117.28 189.517 117.259C189.538 117.238 189.538 117.217 189.559 117.217C189.581 117.195 189.581 117.195 189.602 117.174C189.623 117.153 189.623 117.132 189.644 117.111C189.644 117.09 189.665 117.068 189.665 117.068C189.665 117.047 189.686 117.026 189.686 117.005V116.984V116.963C189.686 116.941 189.686 116.92 189.686 116.899C189.686 116.878 189.686 116.857 189.686 116.836C189.686 116.815 189.686 116.793 189.686 116.772C189.686 116.751 189.686 116.73 189.686 116.709C189.686 116.688 189.665 116.666 189.665 116.645C189.665 116.624 189.644 116.603 189.644 116.582C189.644 116.561 189.623 116.539 189.623 116.518C189.602 116.497 189.602 116.476 189.581 116.455C189.581 116.455 189.581 116.434 189.559 116.434C189.538 116.412 187.549 113.789 188.946 110.149C189.94 107.546 193.072 106.171 193.093 106.171C193.411 106.023 193.559 105.663 193.432 105.346C193.284 105.028 192.924 104.88 192.606 105.007C192.458 105.071 188.967 106.594 187.761 109.705C186.703 112.434 187.274 114.677 187.845 115.989C184.566 115.481 176.038 114.699 169.605 118.719C165.119 121.512 162.644 125.279 161.268 128.643C161.226 128.706 161.184 128.77 161.141 128.855C161.141 128.876 161.099 129.003 161.057 129.172C160.718 130.082 160.464 130.949 160.253 131.754C159.385 135.245 159.47 138.102 159.533 139.075C155.619 142.312 153.143 146.608 152.233 151.686C152.127 152.237 152.043 152.808 151.979 153.4C151.852 154.522 151.81 155.664 151.831 156.828C151.916 161.632 153.164 165.462 153.545 166.562C152.127 168.678 151.154 170.773 150.519 172.741C149.948 174.137 149.821 175.132 149.821 175.238C149.821 175.322 149.821 175.407 149.842 175.491C149.63 176.634 149.524 177.734 149.503 178.792C149.482 178.856 149.461 178.941 149.461 179.025C149.44 179.914 149.503 180.845 149.651 181.755C149.736 182.474 149.842 183.151 149.99 183.765C150.794 187.553 152.36 190.198 152.91 191.044C150.159 198.408 151.111 205.116 152.423 209.475C153.63 213.495 155.322 216.246 155.873 217.092C152.995 225.768 154.328 231.756 155.978 235.269C157.502 238.549 159.554 240.305 160.231 240.834C160.634 243.14 163.892 260.83 175.361 291.11C175.467 291.364 175.7 291.512 175.953 291.512C176.038 291.512 176.102 291.491 176.186 291.47C176.461 291.364 176.609 291.11 176.588 290.835C181.646 290.475 215.692 288.042 224.177 287.513C232.684 286.984 271.174 281.948 276.739 281.207L276.845 281.419C276.951 281.631 277.183 281.757 277.395 281.757C277.501 281.757 277.607 281.736 277.691 281.673C278.03 281.377 278.136 280.996 277.966 280.678ZM197.029 113.175C196.923 113.196 196.838 113.196 196.712 113.09C196.436 112.858 196.436 112.667 196.436 112.519C196.5 111.905 197.6 110.466 200.203 108.795C199.23 110.826 197.918 112.942 197.029 113.175ZM245.189 224.033C247.051 226.911 249.675 230.465 253.442 232.539L254.965 240.093C252.786 239.183 247.58 237.215 239.561 235.417C234.25 234.232 227.14 233.005 218.485 232.391C218.443 232.391 218.379 232.37 218.337 232.37C215.946 232.201 213.428 232.074 210.825 232.01C210.021 231.968 209.069 231.925 207.884 231.904C202.298 231.862 197.939 229.386 194.976 224.604C193.601 222.382 192.839 220.139 192.479 218.722L192.141 217.24C191.824 215.294 191.506 213.199 191.231 210.935C192.204 210.829 195.717 210.448 200.478 210.3C216.962 210.173 232.007 213.093 241.254 215.378C241.973 218.743 243.687 221.705 245.189 224.033ZM238.355 198.09C238.884 199.233 239.413 200.439 239.878 201.709L239.963 201.963C240.534 203.529 241.063 205.01 241.148 206.576C241.19 207.591 241.105 208.607 241.021 209.686C240.936 210.702 240.851 211.76 240.894 212.818C240.915 213.241 240.936 213.664 241 214.087C238.524 213.474 235.688 212.839 232.536 212.225C227.436 211.231 221.003 210.236 213.83 209.644C213.724 209.559 213.597 209.496 213.449 209.475C212.73 209.411 211.989 209.348 211.27 209.305C207.186 208.882 198.32 207.443 194.511 202.725C191.231 198.662 190.194 193.731 189.856 191.129L189.708 189.267C189.708 189.203 189.686 189.161 189.665 189.097C189.623 187.108 189.623 185.077 189.644 182.961L207.567 183.723C216.517 184.696 223.542 186.389 228.494 187.934C231.562 188.886 234.101 189.859 236.09 190.706C236.196 193.351 237.254 195.657 238.355 198.09ZM190.575 165.017C190.744 163.113 190.935 161.272 191.125 159.473C205.578 159.177 218.168 162.161 226.314 164.763C227.69 165.271 230.547 166.435 231.901 167.789C234.313 170.223 236.175 172.36 236.471 175.915C236.471 175.999 236.514 176.084 236.556 176.169C236.641 176.803 236.746 177.438 236.852 178.052C236.895 178.898 236.979 183.046 236.217 189.034C236.196 189.119 236.196 189.203 236.196 189.309C234.25 188.505 231.858 187.595 228.981 186.706C224.325 185.267 217.872 183.68 209.704 182.665C209.598 182.58 209.471 182.517 209.323 182.495C209.238 182.495 200.838 181.966 196.119 178.539C191.041 174.73 190.533 168.699 190.533 166.287L190.575 165.187C190.596 165.123 190.596 165.081 190.575 165.017ZM195.463 135.245C196.606 135.266 199.187 135.308 202.34 135.52C222.019 136.917 236.006 143.392 237.804 144.259C237.318 146.312 236.937 148.534 236.619 150.882C236.577 150.946 236.556 151.03 236.535 151.115C236.471 151.475 236.429 151.813 236.387 152.173C235.985 154.564 234.673 160.468 231.118 162.711C230.123 163.324 229.002 163.621 227.796 163.578L226.378 163.367L225.151 163.007C225.045 162.986 224.939 162.986 224.833 163.007C220.009 161.547 213.915 160.087 206.974 159.156C206.89 159.071 206.763 159.029 206.636 159.008L202.848 158.563C199.251 157.844 196.606 156.342 194.998 154.035C193.305 151.602 193.051 148.703 193.178 146.502L193.749 143.117C193.77 143.053 193.749 142.968 193.749 142.905C194.278 140.112 194.871 137.551 195.463 135.245ZM153.481 151.708C153.481 151.665 153.481 151.623 153.481 151.581C154.349 146.777 156.698 142.82 160.485 139.752C161.247 139.498 166.22 137.975 174.155 136.768C180.609 135.795 187.316 135.287 194.109 135.245C193.368 138.165 192.733 141.106 192.183 144.026C192.162 144.153 192.141 144.301 192.099 144.428C191.337 148.407 190.744 152.321 190.258 156.067L189.898 158.246C186.576 158.352 183.486 158.585 180.609 158.902C180.524 158.86 180.418 158.86 180.312 158.86C179.529 158.944 178.662 159.092 177.731 159.262C174.007 159.77 170.685 160.425 167.807 161.124C167.722 161.103 167.638 161.103 167.532 161.124C162.051 162.224 158.073 161.632 155.746 159.389C152.762 156.511 153.481 151.75 153.481 151.708ZM150.773 179.152C150.752 177.269 151.027 175.407 151.535 173.587C151.577 173.481 151.598 173.375 151.64 173.27C152.529 171.048 154.751 167.493 160.21 165.398C162.221 164.615 166.135 163.388 170.261 162.288L179.783 160.277C182.873 159.896 186.237 159.643 189.856 159.516C189.305 164.34 188.967 168.784 188.755 172.571C188.586 175.703 188.48 178.729 188.417 181.649C180.355 181.882 173.245 183.236 167.574 184.802C167.511 184.802 167.447 184.802 167.384 184.802C161.12 186.22 156.465 185.818 153.566 183.638C151.408 182.051 150.9 179.914 150.773 179.152ZM153.376 207.401L153.101 206.745C152.148 202.428 151.958 197.032 154.137 191.256C155.936 190.304 169.5 183.49 188.396 182.94C188.29 193.245 188.903 202.217 189.771 209.623C180.672 210.448 173.372 211.739 167.934 212.945C167.849 212.924 167.764 212.924 167.68 212.945C157.819 214.807 154.286 209.305 153.376 207.401ZM157.121 234.528C154.941 229.809 154.941 223.885 157.1 217.367L167.003 214.468C172.483 213.178 180.164 211.76 189.94 210.871C190.237 213.241 190.554 215.442 190.892 217.473V217.494C190.892 217.515 190.914 217.6 190.935 217.748C192.226 225.577 193.622 230.635 194.172 232.476C194.045 232.476 193.918 232.497 193.791 232.497C168.42 234.422 162.178 237.723 160.676 239.374C159.872 238.697 158.306 237.11 157.121 234.528Z" fill="#1A1A1A"/>
<path d="M175.911 289.08C175.869 288.974 171.827 277.696 167.955 265.063C167.532 263.667 167.109 262.291 166.728 260.958C166.749 260.958 166.77 260.958 166.813 260.958C166.961 260.958 167.088 260.916 167.215 260.81C170.304 258.292 171.849 253.573 171.87 246.781C171.87 241.808 171.023 237.619 170.981 237.449C170.918 237.111 170.579 236.878 170.24 236.963C169.902 237.026 169.669 237.365 169.754 237.703C169.796 237.873 173.097 254.356 166.432 259.837C165.352 256.134 164.421 252.706 163.639 249.638C163.533 249.236 163.131 249.003 162.75 249.109C162.348 249.214 162.115 249.617 162.221 249.997C163.342 254.505 164.823 259.71 166.58 265.508C170.452 278.183 174.515 289.461 174.557 289.588C174.663 289.884 174.959 290.075 175.255 290.075C175.34 290.075 175.425 290.053 175.509 290.032C175.848 289.884 176.06 289.461 175.911 289.08Z" fill="white"/>
<path d="M336.454 184.887C336.369 184.887 336.284 184.866 336.221 184.845C335.904 184.718 335.734 184.337 335.882 184.019C336.433 182.665 336.2 179.83 336.052 178.856C336.009 178.518 336.242 178.179 336.581 178.137C336.919 178.094 337.258 178.327 337.3 178.666C337.321 178.814 337.85 182.559 337.046 184.506C336.94 184.739 336.708 184.887 336.454 184.887Z" fill="#1A1A1A"/>
<path d="M339.313 180.338C339.249 180.338 339.207 180.338 339.144 180.317C338.805 180.232 338.615 179.872 338.699 179.534C339.271 177.418 338.72 175.683 338.699 175.662C338.593 175.323 338.763 174.963 339.101 174.857C339.44 174.752 339.8 174.921 339.905 175.26C339.927 175.344 340.604 177.376 339.905 179.851C339.863 180.169 339.609 180.338 339.313 180.338Z" fill="#1A1A1A"/>
<path d="M342.063 176.952C341.999 176.952 341.957 176.952 341.894 176.931C341.555 176.846 341.343 176.486 341.449 176.148C341.83 174.73 341.449 172.762 341.449 172.741C341.386 172.402 341.597 172.064 341.957 172C342.296 171.937 342.634 172.149 342.698 172.508C342.719 172.593 343.142 174.794 342.698 176.508C342.613 176.783 342.359 176.952 342.063 176.952Z" fill="#1A1A1A"/>
<path d="M222.615 286.18C222.403 286.18 222.192 286.074 222.086 285.884L207.464 262.439C205.602 259.455 202.407 257.635 198.895 257.572L184.4 257.275C184.04 257.275 183.765 256.979 183.786 256.62C183.786 256.281 184.083 256.006 184.421 256.006C184.421 256.006 184.421 256.006 184.442 256.006L198.937 256.302C202.873 256.387 206.47 258.439 208.565 261.783L223.186 285.228C223.377 285.524 223.271 285.926 222.975 286.096C222.848 286.159 222.742 286.18 222.615 286.18Z" fill="white"/>
<path d="M277.333 279.346L271.239 268.047L265.695 257.932C265.653 257.847 265.589 257.784 265.526 257.72C265.42 257.509 265.208 257.361 264.954 257.361C255.411 257.318 247.286 253.763 240.811 246.76C235.965 241.533 233.913 236.222 233.891 236.179C233.764 235.862 233.405 235.693 233.066 235.82C232.749 235.947 232.579 236.306 232.706 236.645C232.791 236.878 234.844 242.189 239.837 247.606C244.387 252.536 252.322 258.398 264.383 258.63V258.651L269.927 268.766L276.021 280.066C276.148 280.319 276.402 280.446 276.677 280.446C276.804 280.446 276.91 280.425 277.037 280.362C277.397 280.15 277.524 279.706 277.333 279.346Z" fill="white"/>
</svg>
