<svg width="552" height="532" viewBox="0 0 552 532" fill="none" xmlns="http://www.w3.org/2000/svg">
<path d="M178.461 465.739C36.3591 460.23 18.8754 280.377 94.4351 168.661C158.397 74.0811 196.38 33.9817 266.286 31.0532C384.351 26.1531 477.279 165.704 502.562 285.277C539.414 459.389 486.47 477.685 178.461 465.739Z" fill="#FC9F5B"/>
<path d="M355.792 152.685L351.645 134.708C351.645 134.708 346.629 134.042 346.223 130.069C345.846 126.097 349.906 123.894 349.906 123.894L357.647 113.456L368.665 110.063L372.724 106.381C372.724 106.381 376.987 108.41 379.596 114.499C380.176 114.499 381.829 114.586 382.293 114.586C382.785 114.586 384.902 114.383 384.989 115.456C385.076 116.529 382.293 120.588 382.293 120.588C382.293 120.588 383.249 129.663 379.683 134.795C376.117 139.928 374.957 140.217 374.957 140.217L376.987 144.654C376.987 144.654 373.71 151.235 368.955 152.685C364.2 154.135 355.792 152.685 355.792 152.685Z" fill="#FC9F5B"/>
<path d="M382.699 475.974L379.161 491.254C379.161 491.254 381.481 496.183 386.7 495.603C391.919 495.023 395.688 490.384 400.095 490.761L404.879 477.337L382.699 475.974Z" fill="#FC9F5B"/>
<path d="M447.82 271.446C447.646 271.272 447.414 271.185 447.153 271.185L430.627 272.287C430.598 272.287 430.569 272.287 430.569 272.287L415.984 274.491L412.215 259.066C412.128 258.689 411.78 258.428 411.403 258.399C411.026 258.399 410.649 258.631 410.533 259.008L404.995 276.578C401.922 277.1 386.178 279.797 373.536 283.189C359.474 286.93 346.021 294.294 345.905 294.381C345.615 294.555 345.441 294.845 345.47 295.193L346.05 305.863L344.716 322.361L335.264 359.01L324.449 402.502L307.052 472.871C306.965 473.277 307.139 473.683 307.487 473.857C308.125 474.176 323.318 481.889 337.699 481.889C337.873 481.889 338.047 481.889 338.221 481.889C338.569 481.889 338.888 481.657 339.033 481.338L362.605 421.029L384.061 364.229L390.411 348.282L385.859 374.203L369.622 468.522C369.564 468.841 369.68 469.16 369.941 469.334C370.26 469.595 378.118 475.858 388.034 478.757C397.921 481.657 402.995 481.512 403.198 481.512C403.575 481.512 403.894 481.251 404.01 480.903L406.126 473.77L427.379 409.982C427.379 409.953 427.408 409.924 427.408 409.895C427.466 409.605 434.222 379.538 437.266 363.881C440.34 348.195 445.907 305.689 445.965 305.254C445.965 305.225 445.965 305.225 445.965 305.196L448.081 272.142C448.11 271.852 448.023 271.62 447.82 271.446Z" fill="#1A1A1A"/>
<path d="M341.874 445.356C342.048 443.848 341.091 440.659 338.946 435.614C338.221 433.903 337.293 432.859 336.191 432.424C335.379 432.105 334.51 432.192 333.611 432.627C330.827 433.99 331.726 437.15 332.277 439.064C332.335 439.238 332.364 439.412 332.422 439.557C332.857 441.123 332.48 442.224 332.103 443.384C331.813 444.225 331.552 445.095 331.552 446.139C331.552 447.849 333.176 451.937 333.669 453.155C334.017 453.996 335.814 458.316 336.742 459.07C337.235 459.476 337.844 459.679 338.482 459.679C338.656 459.679 338.801 459.65 338.975 459.621C339.845 459.476 340.656 458.896 341.149 458.084C341.845 456.925 341.294 454.924 340.569 452.604C340.424 452.14 340.309 451.763 340.222 451.474C339.816 449.879 340.396 448.777 341.004 447.617C341.381 446.95 341.787 446.226 341.874 445.356Z" fill="#FC9F5B"/>
<path d="M520.8 80.6047L524.569 77.4443L528.135 97.1026L524.25 100.379L520.8 80.6047Z" fill="#1A1A1A"/>
<path d="M524.25 101.249C524.163 101.249 524.047 101.22 523.96 101.191C523.67 101.075 523.438 100.843 523.409 100.524L519.929 80.7208C519.871 80.4018 519.987 80.1119 520.219 79.9089L523.989 76.7485C524.221 76.5456 524.539 76.4876 524.829 76.6035C525.119 76.7195 525.322 76.9515 525.38 77.2704L528.947 96.9287C529.005 97.2476 528.889 97.5376 528.657 97.7405L524.8 101.017C524.655 101.191 524.452 101.249 524.25 101.249ZM521.727 80.9527L524.858 98.7553L527.178 96.7837L523.989 79.0971L521.727 80.9527Z" fill="#1A1A1A"/>
<path d="M551.882 64.0199C551.621 63.6139 551.099 63.498 550.664 63.7299L549.272 64.5998C548.257 63.527 547.271 62.9471 546.866 63.266C546.489 63.556 546.75 64.5708 547.474 65.7305L544.807 67.3832C543.386 65.9045 542.023 65.1217 541.444 65.5856C540.922 65.9915 541.27 67.3832 542.226 69.0069L538.834 71.1235C538.515 70.9206 538.196 70.7466 537.848 70.6016C535.79 69.7608 533.47 70.0217 531.643 71.2975L524.018 76.7195C523.757 76.9224 523.612 77.2414 523.67 77.5893L525.989 90.4629C526.047 90.7528 526.25 91.0137 526.54 91.1297C526.627 91.1587 526.743 91.1877 526.859 91.1877C527.062 91.1877 527.236 91.1297 527.41 91.0138L539.356 81.6195C541.212 80.1698 542.11 77.8212 541.734 75.4727C541.705 75.2117 541.618 74.9508 541.56 74.7188L544.517 71.9064C545.851 73.2401 547.126 73.907 547.648 73.5011C548.199 73.0661 547.764 71.5584 546.692 69.8188L548.982 67.6442C549.91 68.572 550.809 69.0649 551.186 68.775C551.563 68.456 551.273 67.4122 550.519 66.1945L551.708 65.0637C552.027 64.8317 552.085 64.3968 551.882 64.0199Z" fill="#1A1A1A"/>
<path d="M338.192 481.019L334.046 492.124C334.046 492.124 331.436 496.473 327.87 495.4C324.303 494.327 317.345 489.804 314.184 490.761L318.592 477.626L329.957 480.526L338.192 481.019Z" fill="#FC9F5B"/>
<path d="M453.59 273.418L447.211 239.784L442.949 224.127C442.949 224.127 444.486 226.824 450.488 225.49C456.489 224.156 481.019 202.874 481.019 202.874L488.76 194.959C488.76 194.959 482.758 197.278 477.829 188C472.9 178.722 474.147 173.503 474.147 173.503L452.198 187.797L448.806 181.332L426.045 150.974C426.045 150.974 415.578 144.132 404.56 144.306C393.542 144.479 387.657 146.335 387.657 146.335L376.929 144.682C376.929 144.682 372.666 151.264 368.897 152.714C365.128 154.164 355.763 152.714 355.763 152.714C355.763 152.714 350.631 156.686 348.137 166.718L337.496 174.924L325.521 188.841C325.521 188.841 314.851 204.44 313.257 218.213C311.662 231.985 311.517 243.583 316.011 254.891C320.505 266.198 327.174 274.172 343.991 275.042L340.222 298.527L347.615 294.033C347.615 294.033 362.547 286.205 379.654 282.435C396.761 278.666 405.662 277.361 405.662 277.361L411.374 259.298L415.346 275.477C415.317 275.477 445.906 269.881 453.59 273.418Z" fill="white"/>
<path d="M453.184 187.102L448.922 180.027C443.413 171.068 438.368 163.587 433.932 157.73C428.162 150.163 419.899 145.262 410.649 143.929C398.936 142.247 388.932 145.205 386.99 145.842C386.236 145.523 385.395 145.205 384.525 145.002C380.031 143.871 376.262 144.277 376.117 144.306C376.088 144.306 376.059 144.306 376.001 144.335C375.972 144.335 375.943 144.335 375.943 144.364C375.914 144.364 375.914 144.393 375.885 144.393C375.856 144.422 375.827 144.422 375.769 144.451C375.74 144.451 375.74 144.48 375.74 144.48C375.711 144.48 375.711 144.509 375.682 144.509C375.682 144.509 375.653 144.509 375.653 144.538C375.624 144.567 375.624 144.567 375.595 144.596C375.595 144.596 375.595 144.596 375.566 144.625L375.537 144.654C375.537 144.654 375.537 144.683 375.508 144.683C375.479 144.712 375.479 144.741 375.45 144.741L375.421 144.77V144.799C375.421 144.828 375.392 144.857 375.392 144.857V144.886V144.915C375.363 145.031 374.986 146.103 374 147.466C372.638 149.351 370.782 150.858 368.52 151.902C363.04 154.425 356.024 151.902 355.937 151.873H355.908C355.879 151.873 355.85 151.844 355.821 151.844C355.792 151.844 355.763 151.844 355.734 151.844C355.705 151.844 355.676 151.844 355.647 151.844C355.618 151.844 355.589 151.844 355.56 151.844C355.531 151.844 355.502 151.844 355.473 151.844C355.444 151.844 355.415 151.844 355.386 151.873C355.357 151.873 355.328 151.902 355.299 151.902C355.27 151.902 355.241 151.931 355.212 151.931C355.183 151.931 355.154 151.96 355.125 151.96C355.096 151.989 355.067 151.989 355.067 152.018C355.067 152.018 355.038 152.018 355.038 152.047C354.748 152.308 347.644 158.513 346.484 172.198C346.455 172.488 346.571 172.778 346.832 172.952C347.064 173.126 347.383 173.184 347.644 173.097L354.632 170.633L353.907 179.012C353.878 179.447 354.139 179.824 354.574 179.94C354.719 179.969 368.172 183.245 376.697 188.783C376.842 188.87 377.016 188.928 377.161 188.928C377.451 188.928 377.712 188.783 377.886 188.522C378.146 188.116 378.03 187.594 377.625 187.334C369.912 182.317 358.662 179.215 355.705 178.432L356.488 169.444C356.517 169.154 356.401 168.864 356.169 168.69C355.937 168.516 355.618 168.458 355.357 168.545L348.398 170.981C349.442 162.253 353.095 156.918 355.009 154.628C355.473 155.932 356.43 157.382 357.937 158.948C358.807 159.847 360.344 161.209 362.315 162.92C365.998 166.139 371.101 170.633 375.16 175.156L378.784 179.621C380.002 181.361 380.93 183.013 381.423 184.55C381.539 184.927 381.887 185.159 382.264 185.159C382.351 185.159 382.438 185.159 382.525 185.13C382.815 185.043 383.047 184.782 383.105 184.492C383.134 184.492 383.134 184.492 383.163 184.492C383.394 184.492 383.597 184.405 383.742 184.26L388.642 179.737C388.787 179.882 388.99 179.969 389.222 179.969C389.28 179.969 389.338 179.969 389.396 179.94C389.86 179.853 390.179 179.389 390.092 178.925C388.671 171.329 386.091 163.993 383.626 158.078C383.597 157.991 383.568 157.933 383.539 157.846C381.162 152.25 378.9 147.93 377.799 145.929C379.219 145.9 381.597 145.987 384.235 146.654C387.019 147.35 389.309 148.887 390.411 149.728L385.975 154.773C385.743 155.034 385.685 155.382 385.83 155.672C385.946 155.99 386.236 156.193 386.584 156.222L393.919 156.744L397.399 172.546C397.486 172.952 397.834 173.242 398.24 173.242C398.298 173.242 398.356 173.242 398.414 173.213C398.878 173.097 399.167 172.633 399.08 172.169L395.456 155.73C395.369 155.353 395.05 155.092 394.673 155.063L388.439 154.599L392.325 150.192C392.644 149.844 392.615 149.293 392.238 148.974C392.151 148.916 391.107 147.959 389.425 146.973C393.108 146.016 401.371 144.335 410.562 145.639C419.348 146.886 427.205 151.554 432.685 158.774C437.092 164.573 442.108 172.024 447.588 180.897L451.851 187.971C452.024 188.232 452.314 188.406 452.604 188.406C452.749 188.406 452.923 188.377 453.039 188.29C453.3 188.058 453.445 187.536 453.184 187.102ZM367.969 165.704C366.317 164.196 364.751 162.833 363.388 161.615C361.446 159.905 359.938 158.571 359.126 157.73C357.415 155.932 356.777 154.657 356.546 153.874C357.879 154.251 360.199 154.744 362.779 154.744C364.461 154.744 366.23 154.541 367.969 153.932V165.704ZM369.709 167.327V160.92L372.319 162.659L374.261 171.763C372.782 170.227 371.246 168.748 369.709 167.327ZM385.105 167.327L377.48 159.789L377.19 157.034L381.945 158.977C383.047 161.528 384.119 164.341 385.105 167.327ZM380.988 156.686L370.898 152.569C373.826 150.8 375.45 148.568 376.262 147.06C377.277 148.916 379.045 152.308 380.988 156.686Z" fill="#1A1A1A"/>
<path d="M403.893 219.575C403.893 219.575 406.039 223.983 405.836 227.549C405.633 231.115 405.633 237.552 405.633 237.552L413.665 234.884L420.043 231.782L424.886 229.665L427.205 229.955C427.205 229.955 428.307 226.447 426.567 225.084C426.567 225.084 428.133 223.461 427.466 221.75C426.799 220.039 424.712 218.793 424.712 218.793C424.712 218.793 425.929 217.024 425.378 216.009C424.828 214.994 423.088 214.24 423.088 214.24L415.781 214.066L421.609 209.775C421.609 209.775 425.842 209.601 426.016 207.804C426.19 206.006 423.523 205.368 422.015 205.165C420.507 204.962 418.217 205.107 415.52 206.789C412.824 208.47 410.533 210.732 409.431 212.008C408.33 213.284 403.893 219.575 403.893 219.575Z" fill="#FC9F5B"/>
<path d="M356.546 238.944C356.517 238.886 353.704 234.015 353.704 227.926C353.704 221.75 354.922 216.908 354.951 216.879L355.241 215.806H354.139C354.11 215.806 354.11 215.806 354.081 215.806C352.138 215.806 348.311 216.734 347.354 220.329L347.209 220.88C346.311 224.36 345.296 228.332 343.092 229.666C342.483 230.042 341.584 230.477 340.541 230.97C337.032 232.652 332.248 234.943 331.552 238.19C331.088 240.336 331.813 242.597 333.408 244.163C334.655 245.381 336.336 246.018 338.192 246.018C338.888 246.018 339.584 245.931 340.309 245.757C345.528 244.453 355.705 240.393 356.14 240.22L357.067 239.843L356.546 238.944Z" fill="#FC9F5B"/>
<path d="M334.423 178.055C334.423 178.055 330.711 181.882 330.798 190.668C330.856 199.366 334.423 209.369 331.523 213.573C328.624 217.778 321.404 215.516 318.186 218.358C313.257 222.707 312.097 230.535 312.097 230.535C312.097 230.535 312.822 216.473 316.591 205.31C320.36 194.147 330.074 182.984 330.074 182.984L334.423 178.055Z" fill="#FC9F5B"/>
<path d="M396.007 222.562L404.328 218.879C404.328 218.879 406.503 223.75 406.213 231.289C405.923 238.828 403.314 245.032 403.314 245.032L396.007 248.512C396.007 248.512 397.805 238.393 397.805 232.594C397.805 226.795 396.007 222.562 396.007 222.562Z" fill="white"/>
<path d="M522.307 113.948L525.989 110.44L520.712 81.4455C521.176 81.4745 521.611 81.1265 521.64 80.6626C521.698 80.1987 521.35 79.7638 520.857 79.7058L511.869 78.778C508.825 78.459 505.809 79.2999 503.345 81.0975L451.27 119.37C448.69 121.255 446.979 124.038 446.428 127.17L444.834 136.303L368.665 193.219C361.011 198.931 355.618 207.195 353.472 216.473C352.515 220.561 352.225 224.765 352.573 228.941C352.863 232.594 353.675 236.189 354.951 239.639C355.067 239.987 355.415 240.219 355.763 240.219C355.85 240.219 355.966 240.19 356.052 240.161C356.516 239.987 356.719 239.495 356.574 239.031C356.574 239.002 356.545 238.973 356.545 238.944L404.27 218.821L412.766 208.76L419.434 205.194L419.927 203.454L464.376 168.081L467.507 167.907C467.507 167.907 498.503 144.016 501.112 141.783C502.968 140.217 503.548 137.84 503.722 136.622C504.04 136.825 504.446 136.825 504.736 136.564L523.293 121.864C523.554 121.661 523.67 121.342 523.612 121.023L522.307 113.948Z" fill="#1A1A1A"/>
<path d="M405.285 168.081L405.546 181.506C405.575 183.448 407.199 185.014 409.141 184.956C411.084 184.927 412.65 183.303 412.592 181.361L412.215 162.891L405.285 168.081Z" fill="white"/>
<path d="M428.017 151.119L428.278 164.515C428.307 166.457 429.931 168.023 431.873 167.965C433.816 167.907 435.382 166.313 435.324 164.37L434.947 145.9L428.017 151.119Z" fill="white"/>
<path d="M416.651 159.586L416.912 173.01C416.941 174.953 418.565 176.519 420.507 176.461C422.45 176.432 424.016 174.808 423.958 172.865L423.581 154.396L416.651 159.586Z" fill="white"/>
<path d="M364.229 231.724C363.794 231.724 363.417 231.376 363.359 230.941C362.924 226.36 364.403 221.75 367.447 218.3C369.97 215.429 371.304 211.747 371.188 207.89L370.782 196.032C370.753 195.539 371.13 195.162 371.623 195.133C372.115 195.104 372.492 195.481 372.521 195.974L372.927 207.833C373.072 212.095 371.594 216.241 368.752 219.43C366.027 222.533 364.693 226.65 365.07 230.738C365.128 231.202 364.78 231.637 364.287 231.695C364.287 231.724 364.258 231.724 364.229 231.724Z" fill="white"/>
<path d="M458.809 140.594C458.316 140.594 457.794 140.507 457.33 140.304C456.026 139.782 455.069 138.652 454.808 137.26L454.054 133.172C453.967 132.708 454.286 132.244 454.75 132.157C455.214 132.07 455.678 132.389 455.765 132.853L456.518 136.941C456.663 137.724 457.214 138.391 457.968 138.681C458.722 138.971 459.563 138.855 460.201 138.391L503.663 105.917C505.548 104.496 508.158 104.554 509.984 106.062C511.086 106.961 512.71 106.99 513.928 106.12C514.333 105.83 514.855 105.946 515.145 106.323C515.435 106.729 515.319 107.251 514.942 107.541C513.087 108.845 510.593 108.787 508.911 107.396C507.694 106.41 505.983 106.352 504.736 107.309L461.274 139.782C460.52 140.304 459.679 140.594 458.809 140.594Z" fill="white"/>
<path d="M375.798 504.388L374.348 509.115H430.017C430.017 509.115 429.727 506.737 429.206 504.388H375.798Z" fill="white"/>
<path d="M474.176 173.474L480.758 169.212C480.758 169.212 480.961 175.678 483.368 180.143C485.774 184.579 490.413 186.145 490.413 186.145C490.413 186.145 486.064 190.204 485.571 190.291C485.078 190.378 481.425 192.9 481.425 192.9C481.425 192.9 477.453 189.334 476.119 183.622C474.756 177.91 474.176 173.474 474.176 173.474Z" fill="white"/>
<path d="M285.045 504.388L284.262 509.144H337.612L336.365 504.388H285.045Z" fill="white"/>
<path d="M402.966 481.889C400.182 481.889 386.787 481.251 370.057 469.595C369.767 469.392 369.651 469.073 369.709 468.725L392.209 337.873C392.296 337.409 392.731 337.09 393.223 337.177C393.687 337.264 394.006 337.699 393.919 338.192L371.507 468.493C387.222 479.279 400.095 480.091 402.85 480.149C424.915 423.842 435.497 370.55 440.485 335.669C445.907 297.803 446.08 272.983 446.08 272.722C446.08 272.229 446.457 271.853 446.95 271.853C447.443 271.853 447.82 272.258 447.82 272.722C447.82 272.983 447.646 297.919 442.224 335.901C437.208 370.956 426.567 424.654 404.27 481.309C404.154 481.628 403.835 481.831 403.488 481.86C403.401 481.889 403.227 481.889 402.966 481.889Z" fill="#1A1A1A"/>
<path d="M403.981 481.686C404.01 481.686 404.01 481.657 404.04 481.657C404.01 481.657 403.981 481.657 403.981 481.686Z" fill="#FECE2F"/>
<path d="M393.34 437.527C394.238 440.485 396.065 445.124 397.805 449.618C399.428 453.764 401.081 458.055 402.038 461.042C402.241 461.68 402.444 462.288 402.647 462.897C404.386 468.058 405.575 471.596 403.256 478.844L402.792 480.149H402.821C412.476 455.533 419.898 431.525 425.668 409.344C425.61 409.431 425.552 409.518 425.523 409.634L425.262 410.475C424.741 411.954 423.204 415.056 419.551 415.549C417.84 415.781 416.535 415.143 415.259 414.534C414.071 413.955 412.824 413.375 411.432 413.665C410.156 413.926 409.171 414.592 408.504 415.636C407.257 417.579 407.17 420.768 408.243 425.436C408.388 426.045 408.591 426.741 408.823 427.582C409.576 430.134 410.678 433.99 409.721 435.585C409.518 435.961 409.2 436.164 408.736 436.28C407.866 436.483 406.474 434.86 405.169 433.294C403.807 431.699 402.299 429.873 400.414 428.713C398.791 427.727 396.906 427.814 395.369 429.032C393.485 430.452 392.151 433.671 393.34 437.527Z" fill="#FC9F5B"/>
<path d="M403.692 481.831C403.662 481.831 403.662 481.831 403.633 481.86C403.662 481.831 403.692 481.831 403.692 481.831Z" fill="#FECE2F"/>
<path d="M404.184 481.426C404.184 481.426 404.184 481.396 404.214 481.396C404.184 481.426 404.184 481.426 404.184 481.426Z" fill="#FECE2F"/>
<path d="M404.068 481.571L404.098 481.541C404.098 481.541 404.098 481.571 404.068 481.571Z" fill="#FECE2F"/>
<path d="M403.924 481.715C403.894 481.715 403.894 481.744 403.865 481.744C403.894 481.744 403.924 481.744 403.924 481.715Z" fill="#FECE2F"/>
<path d="M403.808 481.773C403.778 481.773 403.778 481.802 403.749 481.802C403.778 481.802 403.808 481.802 403.808 481.773Z" fill="#FECE2F"/>
<path d="M433.642 373.652C433.091 376.842 432.743 379.074 432.714 379.103C432.714 379.161 432.714 379.219 432.714 379.277C436.164 362.866 438.658 348.079 440.456 335.669C441.673 327.203 442.63 319.375 443.355 312.358C443.268 312.851 442.369 317.78 440.804 322.593C438.832 328.711 436.628 332.161 434.715 331.987C432.453 331.813 430.423 329.813 428.481 327.899C426.074 325.521 423.552 323.086 420.884 325C419.869 325.724 419.261 326.739 419.058 328.015C418.594 331.001 420.478 335.351 424.828 341.294C428.046 345.615 435.034 359.01 433.642 373.652Z" fill="#FC9F5B"/>
<path d="M445.065 312.619V312.561C445.095 312.561 445.095 312.59 445.065 312.619Z" fill="#FECE2F"/>
<path d="M336.307 482.121C324.622 482.121 308.096 474.234 307.371 473.857C306.994 473.683 306.82 473.277 306.907 472.872C307.226 471.625 337.699 347.122 342.57 330.769C347.383 314.59 345.469 295.541 345.44 295.338C345.383 294.874 345.73 294.439 346.223 294.381C346.687 294.323 347.122 294.671 347.18 295.164C347.209 295.367 349.181 314.764 344.252 331.262C339.584 346.948 311.256 462.52 308.762 472.611C312.068 474.118 327.493 480.932 337.583 480.352C340.54 472.64 375.624 381.423 391.049 340.831C393.078 335.496 394.702 331.175 395.891 328.044C397.167 324.652 397.979 322.506 398.268 321.636C398.413 321.172 398.935 320.94 399.37 321.114C399.805 321.288 400.066 321.781 399.892 322.216C399.602 323.086 398.79 325.26 397.515 328.653C396.326 331.784 394.702 336.075 392.673 341.439C376.639 383.626 339.381 480.526 339.004 481.483C338.888 481.802 338.598 482.005 338.279 482.034C337.641 482.092 337.003 482.121 336.307 482.121Z" fill="#1A1A1A"/>
<path d="M345.788 308.705L344.89 319.81C345.441 315.895 345.701 312.097 345.788 308.705Z" fill="#FECE2F"/>
<path d="M345.817 302.036C345.73 298.383 345.499 295.918 345.47 295.454L345.817 302.036Z" fill="#FECE2F"/>
<path d="M346.223 294.381C346.687 294.323 347.122 294.671 347.18 295.164C347.209 295.367 349.181 314.764 344.252 331.262C339.583 346.948 311.256 462.52 308.762 472.611C309.719 473.045 311.72 473.944 314.3 474.959C319.664 455.359 344.02 366.288 352.602 334.336C354.429 327.551 357.676 321.259 362.025 316.098C363.301 314.59 364.577 313.257 365.882 312.126C370.463 308.096 370.666 304.819 369.303 303.138C368.027 301.572 365.157 301.137 362.083 303.37C360.605 304.442 359.416 304.877 358.72 304.587C358.024 304.297 357.705 303.283 357.531 302.471C357.502 301.398 356.661 292.526 356.226 290.525L355.994 289.481L355.009 289.916C349.587 292.352 345.904 294.352 345.875 294.381L345.382 294.642L345.411 295.251C345.44 294.816 345.788 294.439 346.223 294.381Z" fill="#FC9F5B"/>
<path d="M341.903 333.176C342.164 332.219 342.396 331.407 342.599 330.74C343.179 328.798 343.672 326.797 344.078 324.796L341.903 333.176Z" fill="#FECE2F"/>
<path d="M310.821 475.423C311.459 475.684 312.155 476.003 312.938 476.293L313.837 476.67C312.706 476.206 311.691 475.8 310.821 475.423Z" fill="#FECE2F"/>
<path d="M306.907 473.277L306.849 473.538L307.139 473.683C307.023 473.567 306.936 473.422 306.907 473.277Z" fill="#FECE2F"/>
<path d="M350.051 398.617C352.138 403.923 355.676 412.795 356.168 418.652C356.835 426.335 354.951 434.628 354.922 434.715L355.067 434.773C361.59 417.753 369.071 398.269 375.943 380.292C373.333 385.888 368.491 393.861 365.331 393.861C365.302 393.861 365.273 393.861 365.273 393.861C362.953 393.774 361.416 391.89 359.793 389.918C358.285 388.063 356.719 386.149 354.4 385.946C352.428 385.772 350.688 386.468 349.529 387.947C348.166 389.657 347.731 392.238 348.485 394.528C348.775 395.398 349.355 396.819 350.051 398.617Z" fill="#FC9F5B"/>
<path d="M392.122 344.89C392.006 344.89 391.919 344.861 391.803 344.832C391.368 344.658 391.136 344.165 391.31 343.701C392.818 339.729 398.587 321.607 401.342 312.88C402.212 310.125 402.647 308.821 402.705 308.618C402.792 308.357 404.995 301.978 414.013 298.818C414.476 298.673 414.969 298.905 415.114 299.339C415.259 299.803 415.027 300.296 414.592 300.441C406.387 303.312 404.386 309.082 404.357 309.14C404.299 309.343 403.748 311.024 402.995 313.373C400.211 322.1 394.441 340.251 392.904 344.281C392.789 344.687 392.47 344.89 392.122 344.89Z" fill="#FC9F5B"/>
<path d="M347.18 295.222C347.18 294.903 346.977 294.613 346.687 294.468C346.398 294.323 346.079 294.352 345.818 294.526L339.439 298.962C339.207 299.107 339.091 299.368 339.062 299.658C339.062 299.861 338.975 304.384 346.572 305.66C346.63 305.66 346.659 305.66 346.716 305.66C346.919 305.66 347.122 305.573 347.296 305.428C347.499 305.254 347.586 304.993 347.586 304.732L347.18 295.222Z" fill="#1A1A1A"/>
<path d="M454.605 273.331C454.576 273.157 451.995 255.731 446.805 234.362C441.644 212.965 434.86 193.886 434.802 193.683C434.628 193.219 434.135 192.987 433.7 193.161C433.236 193.335 433.004 193.828 433.178 194.263C433.236 194.466 439.992 213.457 445.124 234.739C449.415 252.484 451.908 267.503 452.662 272.113C443.674 269.475 420.739 273.447 415.984 274.317L406.88 233.957C406.764 233.493 406.3 233.203 405.836 233.29C405.372 233.406 405.082 233.87 405.169 234.333L410.504 258.022C410.417 258.109 410.33 258.225 410.301 258.37L405.14 276.665C402.212 277.013 388.729 278.811 368.897 284.755C351.819 289.945 344.368 294.555 341.236 297.107L345.006 275.477C345.093 275.013 344.774 274.549 344.31 274.462C343.846 274.375 343.382 274.694 343.295 275.158L339.062 299.513C339.004 299.919 339.236 300.325 339.613 300.47C339.7 300.499 339.816 300.528 339.903 300.528C340.192 300.528 340.482 300.383 340.656 300.093C340.685 300.035 344.455 293.975 369.39 286.379C391.6 279.71 405.749 278.318 405.894 278.289C406.242 278.26 406.561 277.999 406.648 277.651L411.258 261.356L414.447 275.477C414.534 275.883 414.882 276.144 415.288 276.144C415.346 276.144 415.404 276.144 415.462 276.115C415.752 276.057 445.559 270.403 453.329 274.172C453.619 274.317 453.967 274.288 454.228 274.085C454.518 273.969 454.663 273.65 454.605 273.331Z" fill="#1A1A1A"/>
<path d="M404.792 218.387C404.56 217.981 404.067 217.836 403.662 218.01L395.659 221.779L355.473 238.596C355.038 238.77 354.835 239.292 355.009 239.727C355.183 240.162 355.705 240.364 356.14 240.191L395.427 223.751C398.79 236.421 394.006 252.832 393.311 255.094C391.368 256.514 377.277 266.604 364.026 270.896C343.904 277.39 333.263 273.911 327.899 269.823C317.722 262.11 308.908 243.438 314.706 214.24C317.548 199.888 326.449 187.913 333.379 180.433C340.946 172.285 347.905 167.472 347.963 167.443C348.369 167.182 348.456 166.631 348.195 166.226C347.934 165.82 347.383 165.733 346.977 165.994C346.919 166.052 339.787 170.923 332.103 179.215C324.999 186.87 315.895 199.134 312.967 213.892C307.023 243.873 316.214 263.154 326.826 271.186C330.276 273.795 335.727 276.202 344.107 276.202C349.587 276.202 356.314 275.187 364.548 272.519C379.016 267.851 394.412 256.427 394.557 256.311C394.702 256.195 394.818 256.051 394.876 255.877C394.934 255.732 395.775 253.122 396.616 249.179L403.662 245.815C403.778 245.757 403.865 245.699 403.951 245.612C404.212 245.323 406.503 242.394 406.764 232.304C407.025 222.62 404.879 218.561 404.792 218.387ZM405.024 232.275C404.792 240.654 403.111 243.757 402.705 244.366L397.022 247.062C397.167 246.25 397.312 245.41 397.457 244.54C398.356 238.712 398.993 230.332 397.022 223.055L403.546 219.981C404.125 221.489 405.227 225.374 405.024 232.275Z" fill="#1A1A1A"/>
<path d="M374.377 131.664C369.477 131.664 368.259 127.025 368.23 126.967C368.114 126.503 368.404 126.039 368.868 125.923C369.332 125.807 369.796 126.097 369.912 126.561C369.912 126.59 370.231 127.721 371.13 128.649C372.319 129.866 374.029 130.214 376.175 129.692C376.639 129.576 377.103 129.866 377.219 130.33C377.335 130.794 377.045 131.258 376.581 131.374C375.798 131.577 375.044 131.664 374.377 131.664Z" fill="#1A1A1A"/>
<path d="M385.83 115.195C385.714 114.789 385.366 114.209 384.496 113.89C383.858 113.658 383.046 113.832 382.09 114.035C381.655 114.122 380.959 114.267 380.64 114.267C378.958 110.817 376.639 107.946 374.29 106.323C369.883 103.278 362.953 99.799 353.733 104.873C349.645 107.135 347.818 110.469 347.18 113.89C347.151 114.035 347.122 114.151 347.122 114.151C347.122 114.209 347.122 114.238 347.122 114.296C346.542 118.037 347.296 121.748 348.021 124.125C346.455 125.285 344.455 127.779 345.412 131.055C346.31 134.128 349.007 135.23 350.776 135.462L354.777 152.917C354.864 153.323 355.241 153.584 355.618 153.584C355.676 153.584 355.734 153.584 355.821 153.555C356.285 153.439 356.574 152.975 356.487 152.511L352.341 134.447C352.254 134.041 351.906 133.781 351.5 133.781C351.471 133.781 348.021 133.752 347.122 130.591C346.165 127.257 349.384 125.343 349.529 125.256C349.529 125.256 349.529 125.256 349.558 125.256C349.558 125.256 349.558 125.256 349.587 125.256C349.587 125.256 350.718 124.56 351.79 124.879C352.515 125.111 353.095 125.749 353.53 126.793C354.777 129.75 355.705 130.214 356.343 130.214C356.401 130.214 356.43 130.214 356.487 130.214C356.748 130.185 357.415 130.011 357.618 129.025C357.705 128.562 357.56 128.011 357.183 126.648C356.372 123.777 354.835 118.471 357.415 115.746C358.836 114.238 361.272 113.745 363.852 113.223C367.447 112.499 371.507 111.658 373.391 107.772C373.42 107.772 373.42 107.801 373.449 107.801C375.566 109.251 377.74 112.035 379.306 115.253C379.857 116.384 381.307 116.065 382.583 115.804C383.046 115.717 383.829 115.543 384.061 115.601C384.206 115.659 384.293 115.717 384.293 115.746C384.467 116.297 383.075 118.066 382.554 118.732C381.713 119.805 381.278 120.356 381.452 120.994C382.351 124.473 382.119 127.344 380.64 131.2C379.19 134.969 376.871 137.869 373.681 139.84C371.333 141.319 369.361 141.696 369.303 141.696C369.274 141.696 369.216 141.725 369.187 141.725H369.158C369.1 141.754 369.042 141.783 368.984 141.812L368.955 141.841C368.926 141.87 368.868 141.899 368.839 141.957C368.839 141.986 368.81 141.986 368.81 142.015C368.781 142.073 368.723 142.131 368.694 142.189C368.665 142.247 368.665 142.305 368.636 142.392C368.636 142.421 368.636 142.421 368.636 142.45C368.636 142.508 368.636 142.566 368.636 142.595C368.636 142.624 368.636 142.624 368.636 142.653V142.682C368.636 142.74 368.665 142.798 368.694 142.856C368.694 142.856 368.694 142.885 368.723 142.885C368.752 142.943 368.781 143.001 368.81 143.059C368.81 143.059 368.81 143.059 368.81 143.088C368.81 143.088 368.81 143.117 368.839 143.117C369.042 143.349 370.492 145.001 372.811 144.653C374.435 144.422 375.363 144.653 375.508 145.378C375.508 145.407 375.537 145.436 375.537 145.465C375.537 145.494 375.537 145.494 375.566 145.523C375.566 145.552 375.595 145.581 375.595 145.61C375.595 145.639 375.624 145.639 375.624 145.668C375.624 145.697 375.653 145.697 375.682 145.726C375.682 145.755 375.711 145.755 375.711 145.784C375.74 145.813 375.74 145.813 375.769 145.842C375.798 145.871 375.798 145.871 375.827 145.9C375.856 145.929 375.885 145.929 375.885 145.958C375.914 145.958 375.914 145.987 375.943 145.987C375.972 145.987 376.001 146.016 376.03 146.016C376.059 146.016 376.059 146.045 376.088 146.045C376.117 146.045 376.146 146.074 376.175 146.074C376.204 146.074 376.204 146.074 376.233 146.074C376.291 146.074 376.32 146.074 376.378 146.074C376.436 146.074 376.494 146.074 376.552 146.045C376.581 146.045 376.581 146.045 376.61 146.016C376.639 146.016 376.668 145.987 376.697 145.987C376.726 145.987 376.726 145.958 376.755 145.958C376.784 145.929 376.813 145.929 376.842 145.9C376.871 145.9 376.871 145.871 376.9 145.842C376.929 145.813 376.958 145.813 376.958 145.784C376.987 145.755 376.987 145.755 377.016 145.726C377.045 145.697 377.045 145.668 377.074 145.668C377.074 145.639 377.103 145.639 377.103 145.61C377.132 145.581 377.132 145.552 377.132 145.523C377.132 145.494 377.161 145.465 377.161 145.465C377.161 145.436 377.19 145.407 377.19 145.378C377.19 145.349 377.19 145.32 377.19 145.291C377.19 145.262 377.19 145.233 377.19 145.204C377.19 145.175 377.19 145.146 377.19 145.117C377.19 145.088 377.19 145.059 377.19 145.03C376.552 141.319 376.378 140.42 376.262 140.101C378.465 138.362 380.727 135.723 382.264 131.751C383.829 127.663 384.119 124.444 383.191 120.733C383.336 120.501 383.684 120.066 383.916 119.747C384.931 118.268 386.236 116.587 385.83 115.195Z" fill="#1A1A1A"/>
<path d="M419.231 205.078C418.971 205.078 418.71 204.962 418.536 204.759C418.246 204.382 418.304 203.831 418.681 203.542L465.478 166.574C465.855 166.284 466.406 166.342 466.695 166.718C466.985 167.095 466.927 167.646 466.55 167.936L419.753 204.904C419.608 205.02 419.434 205.078 419.231 205.078Z" fill="#1A1A1A"/>
<path d="M464.463 151.525C464.202 151.525 463.941 151.409 463.767 151.206C463.477 150.829 463.535 150.278 463.912 149.989L498.01 122.879C498.386 122.589 498.937 122.647 499.227 123.024C499.517 123.401 499.459 123.951 499.082 124.241L465.014 151.351C464.84 151.467 464.666 151.525 464.463 151.525Z" fill="white"/>
<path d="M467.45 169.647C467.131 169.647 466.841 169.473 466.667 169.183C466.435 168.748 466.609 168.226 467.044 168.023C468.348 167.356 469.334 164.892 468.232 160.079C467.015 154.715 463.883 151.293 463.854 151.264C463.535 150.916 463.535 150.365 463.883 150.046C464.231 149.728 464.782 149.728 465.101 150.075C465.246 150.22 468.58 153.845 469.914 159.673C471.538 166.776 469.015 168.951 467.855 169.56C467.71 169.618 467.594 169.647 467.45 169.647Z" fill="white"/>
<path d="M468.174 169.125C467.913 169.125 467.652 169.009 467.507 168.806C467.218 168.429 467.276 167.878 467.652 167.588L500.3 141.609C500.88 141.145 501.373 140.652 501.75 140.13C502.562 139.029 503.374 137.463 502.359 132.969C501.141 127.605 498.01 124.183 497.981 124.154C497.662 123.806 497.662 123.256 498.01 122.937C498.358 122.618 498.909 122.618 499.227 122.966C499.372 123.111 502.707 126.735 504.041 132.563C505.171 137.521 504.273 139.608 503.142 141.145C502.678 141.783 502.069 142.392 501.373 142.943L468.725 168.922C468.551 169.067 468.348 169.125 468.174 169.125Z" fill="white"/>
<path d="M436.918 187.42C436.541 187.42 436.193 187.189 436.077 186.812C433.874 179.737 436.309 171.908 442.108 167.298L463.912 149.989C464.289 149.699 464.84 149.757 465.13 150.134C465.42 150.51 465.362 151.061 464.985 151.351L443.181 168.661C437.933 172.807 435.729 179.911 437.73 186.29C437.875 186.754 437.614 187.246 437.15 187.391C437.092 187.391 437.005 187.42 436.918 187.42Z" fill="white"/>
<path d="M468.232 117.051L455.997 125.749C455.04 126.445 453.677 126.213 453.01 125.256C452.314 124.3 452.546 122.937 453.503 122.27L465.739 113.572C466.696 112.876 468.058 113.108 468.725 114.064C469.421 115.021 469.218 116.384 468.232 117.051Z" fill="white"/>
<path d="M488.094 102.409L475.858 111.107C474.901 111.803 473.538 111.571 472.871 110.614C472.176 109.657 472.408 108.294 473.364 107.628L485.6 98.9292C486.557 98.2333 487.92 98.4653 488.586 99.4221C489.282 100.379 489.079 101.742 488.094 102.409Z" fill="white"/>
<path d="M507.955 87.7665L495.719 96.4648C494.762 97.1607 493.4 96.9287 492.733 95.9719C492.037 95.0151 492.269 93.6524 493.226 92.9855L505.461 84.2871C506.418 83.5913 507.781 83.8232 508.448 84.78C509.144 85.7368 508.941 87.0996 507.955 87.7665Z" fill="white"/>
<path d="M474.379 164.08C474.06 164.08 473.77 163.906 473.596 163.616C473.364 163.181 473.538 162.659 473.973 162.456C475.278 161.789 476.264 159.325 475.162 154.512C473.944 149.148 470.813 145.726 470.784 145.697C470.465 145.349 470.465 144.799 470.813 144.48C471.161 144.161 471.711 144.161 472.03 144.509C472.175 144.654 475.51 148.278 476.844 154.106C478.467 161.209 475.945 163.384 474.785 163.993C474.64 164.022 474.495 164.08 474.379 164.08Z" fill="white"/>
<path d="M481.947 158.223C481.628 158.223 481.338 158.049 481.164 157.759C480.932 157.324 481.106 156.802 481.541 156.599C482.846 155.933 483.831 153.468 482.73 148.655C481.512 143.291 478.38 139.87 478.351 139.841C478.032 139.493 478.032 138.942 478.38 138.623C478.728 138.304 479.279 138.304 479.598 138.652C479.743 138.797 483.078 142.421 484.411 148.249C486.035 155.353 483.512 157.527 482.353 158.136C482.237 158.194 482.092 158.223 481.947 158.223Z" fill="white"/>
<path d="M489.543 152.308C489.224 152.308 488.934 152.134 488.76 151.844C488.528 151.409 488.702 150.887 489.137 150.684C491.283 149.554 490.906 145.002 490.326 142.479C489.108 137.115 485.977 133.694 485.948 133.665C485.629 133.317 485.629 132.766 486.006 132.447C486.354 132.128 486.905 132.128 487.224 132.476C487.369 132.621 490.703 136.245 492.037 142.073C492.936 145.987 492.849 150.684 489.978 152.192C489.804 152.279 489.659 152.308 489.543 152.308Z" fill="white"/>
<path d="M497.111 146.103C496.792 146.103 496.502 145.929 496.328 145.639C496.096 145.204 496.27 144.683 496.705 144.48C497.952 143.813 499.024 141.29 497.894 136.361C496.908 132.012 494.704 128.968 493.776 127.895C493.458 127.518 493.516 126.967 493.892 126.677C494.269 126.358 494.82 126.416 495.11 126.793C496.096 127.982 498.503 131.258 499.575 135.984C501.257 143.407 498.416 145.552 497.488 146.045C497.372 146.074 497.227 146.103 497.111 146.103Z" fill="white"/>
<path d="M480.758 169.212L482.034 163.007C482.034 163.007 478.931 154.744 478.033 153.439C477.221 152.163 479.076 150.714 480.12 151.177C481.193 151.67 483.744 158.078 484.817 158.165C485.89 158.252 486.934 158.078 486.934 158.078L481.918 147.843C481.918 147.843 480.178 144.944 481.715 144.741C483.252 144.538 485.687 147.727 485.687 147.727L483.947 144.451C483.947 144.451 482.991 141.638 483.947 141.638C484.904 141.638 491.399 148.104 491.399 148.104L489.659 144.857C489.659 144.857 485.745 142.624 487.166 140.826C487.688 140.16 495.487 144.741 495.748 145.408C496.009 146.074 499.778 156.918 499.778 156.918C499.778 156.918 497.749 166.834 497.517 166.921C497.285 167.008 494.907 174.402 494.907 174.402L486.557 184.55C486.557 184.55 482.933 181.013 481.976 177.881C481.019 174.75 480.758 169.212 480.758 169.212Z" fill="#FC9F5B"/>
<path d="M379.915 257.964C381.42 257.964 382.641 256.575 382.641 254.862C382.641 253.148 381.42 251.759 379.915 251.759C378.41 251.759 377.19 253.148 377.19 254.862C377.19 256.575 378.41 257.964 379.915 257.964Z" fill="#1A1A1A"/>
<path d="M388.324 252.832C389.829 252.832 391.049 251.443 391.049 249.73C391.049 248.016 389.829 246.627 388.324 246.627C386.818 246.627 385.598 248.016 385.598 249.73C385.598 251.443 386.818 252.832 388.324 252.832Z" fill="#1A1A1A"/>
<path d="M393.108 208.615C394.613 208.615 395.833 207.226 395.833 205.513C395.833 203.799 394.613 202.41 393.108 202.41C391.602 202.41 390.382 203.799 390.382 205.513C390.382 207.226 391.602 208.615 393.108 208.615Z" fill="white"/>
<path d="M393.108 208.76C391.513 208.76 390.237 207.311 390.237 205.513C390.237 203.715 391.542 202.266 393.108 202.266C394.673 202.266 395.978 203.715 395.978 205.513C395.978 207.311 394.702 208.76 393.108 208.76ZM393.108 202.556C391.687 202.556 390.527 203.889 390.527 205.513C390.527 207.137 391.687 208.47 393.108 208.47C394.528 208.47 395.688 207.137 395.688 205.513C395.688 203.889 394.528 202.556 393.108 202.556Z" fill="white"/>
<path d="M400.849 202.729C402.354 202.729 403.574 201.34 403.574 199.627C403.574 197.914 402.354 196.525 400.849 196.525C399.344 196.525 398.123 197.914 398.123 199.627C398.123 201.34 399.344 202.729 400.849 202.729Z" fill="white"/>
<path d="M400.849 202.846C399.254 202.846 397.979 201.396 397.979 199.598C397.979 197.801 399.283 196.351 400.849 196.351C402.444 196.351 403.719 197.801 403.719 199.598C403.719 201.396 402.444 202.846 400.849 202.846ZM400.849 196.67C399.428 196.67 398.268 198.004 398.268 199.627C398.268 201.251 399.428 202.585 400.849 202.585C402.27 202.585 403.429 201.251 403.429 199.627C403.429 198.004 402.27 196.67 400.849 196.67Z" fill="white"/>
<path d="M430.887 508.999L430.105 504.273C430.047 503.78 429.148 498.706 423.494 497.343C422.392 497.082 420.971 496.792 419.319 496.444C417.202 496.009 414.708 495.516 412.186 494.878C412.911 494.936 413.607 494.994 414.332 494.994C418.304 494.994 421.957 493.892 422.566 491.486C422.711 490.906 422.914 488.963 419.695 487.775C418.072 487.166 415.549 487.05 412.186 487.427C415.781 485.774 418.942 483.744 419.724 481.541C420.13 480.439 419.956 479.337 419.232 478.322C418.478 477.279 417.405 476.728 416.158 476.699C416.129 476.699 416.1 476.699 416.071 476.699C411.925 476.699 406.01 482.44 402.357 486.499L404.27 481.367C404.444 480.903 404.212 480.41 403.749 480.236C403.285 480.062 402.792 480.294 402.618 480.758L399.254 489.891C398.095 489.862 395.688 490.21 392.151 492.501C389.309 494.356 385.743 494.965 383.104 494.008C382.003 493.632 380.582 492.791 380.031 491.022C380.031 490.993 380.002 490.993 380.002 490.964C382.003 482.73 383.539 476.322 383.568 476.206C383.684 475.742 383.394 475.278 382.93 475.162C382.467 475.046 382.003 475.336 381.887 475.8C381.858 475.945 378.32 490.732 374.928 504.186L373.536 508.912C373.449 509.173 373.507 509.463 373.681 509.666C373.855 509.897 374.116 510.013 374.377 510.013H430.047C430.307 510.013 430.539 509.897 430.713 509.694C430.858 509.492 430.916 509.26 430.887 508.999ZM419.087 489.369C420.333 489.833 421 490.471 420.884 491.051C420.768 491.515 420.101 492.211 418.565 492.704C417.347 493.11 415.23 493.487 411.954 493.11C408.359 492.704 404.995 491.689 402.85 490.906C404.299 490.529 406.271 490.094 408.388 489.688C413.491 488.76 417.202 488.644 419.087 489.369ZM416.042 478.38C416.071 478.38 416.071 478.38 416.1 478.38C416.825 478.38 417.376 478.67 417.811 479.279C418.188 479.801 418.275 480.323 418.101 480.874C417.724 481.918 415.955 484.121 408.388 487.05C406.126 487.92 403.922 488.644 402.299 489.137C405.952 484.933 412.36 478.38 416.042 478.38ZM375.508 508.274L376.407 505.287H428.51L429.003 508.274H375.508Z" fill="#1A1A1A"/>
<path d="M338.511 480.352C338.076 480.178 337.554 480.381 337.38 480.845L333.321 491.109V491.138V491.167C333.234 491.457 333.089 491.747 332.944 492.008C331.349 493.661 328.45 495.545 324.68 493.545C323.579 492.965 322.419 492.414 321.346 491.921C319.055 490.558 317.316 490.036 316.098 489.862C315.924 489.804 315.779 489.746 315.663 489.717L319.374 477.83C319.519 477.366 319.258 476.873 318.794 476.728C318.331 476.583 317.838 476.844 317.693 477.308L314.068 488.905C312.996 487.601 311.14 485.513 309.052 483.426C304.442 478.844 300.731 476.554 298.092 476.583C296.817 476.612 295.773 477.163 295.019 478.207C294.294 479.192 294.12 480.323 294.526 481.425C295.309 483.628 298.498 485.658 302.065 487.311C298.672 486.934 296.15 487.05 294.555 487.659C291.366 488.876 291.54 490.819 291.685 491.37C292.265 493.806 295.947 494.878 299.919 494.878C300.412 494.878 300.876 494.849 301.369 494.82C299.832 495.197 298.208 495.603 296.614 495.98C296.034 496.096 295.454 496.212 294.932 496.328C293.279 496.676 291.888 496.937 290.757 497.227C286.118 498.068 284.697 501.895 284.291 503.519C284.291 503.548 284.291 503.548 284.291 503.577C284.204 503.867 284.175 504.099 284.175 504.157L283.392 508.883C283.363 509.144 283.421 509.405 283.595 509.579C283.769 509.782 284.001 509.897 284.262 509.897H337.612C337.873 509.897 338.134 509.782 338.308 509.55C338.482 509.318 338.511 509.057 338.453 508.796L337.061 504.128C337.061 504.07 337.061 504.041 337.032 503.983C337.09 503.838 337.09 503.664 337.061 503.519L337.032 503.345L336.481 500.416C336.365 499.749 336.278 499.083 336.162 498.416C335.814 496.212 335.437 493.922 335.06 491.457L339.033 481.396C339.178 481.048 338.975 480.526 338.511 480.352ZM296.208 480.903C296.005 480.352 296.092 479.83 296.498 479.308C296.933 478.699 297.484 478.409 298.208 478.409C298.237 478.409 298.237 478.409 298.266 478.409C301.949 478.409 308.385 484.933 312.039 489.166C310.415 488.674 308.211 487.949 305.95 487.079C298.353 484.15 296.585 481.947 296.208 480.903ZM293.424 491.051C293.279 490.471 293.975 489.833 295.222 489.369C296.034 489.05 297.194 488.905 298.643 488.905C300.557 488.905 303.021 489.166 305.921 489.688C308.038 490.065 310.009 490.529 311.459 490.906C309.313 491.66 305.95 492.675 302.355 493.11C296.556 493.777 293.685 492.095 293.424 491.051ZM285.306 508.274L285.799 505.287H335.582L336.481 508.274H285.306Z" fill="#1A1A1A"/>
<path d="M382.409 111.89L381.249 110.15C380.872 109.57 380.321 109.193 379.654 109.048C378.987 108.903 378.32 109.048 377.741 109.396L376.929 109.918C376.929 109.918 371.13 113.426 365.302 116.819L365.273 116.848C365.273 116.848 365.273 116.848 365.244 116.848L353.791 124.647C353.385 124.908 353.298 125.459 353.559 125.865C353.733 126.126 353.994 126.242 354.284 126.242C354.458 126.242 354.632 126.184 354.777 126.097L365.099 119.051C365.331 119.921 365.766 121.023 366.636 121.719C367.216 122.183 367.911 122.415 368.665 122.415C368.839 122.415 369.013 122.415 369.187 122.386C373.304 121.806 376.32 118.674 376.726 116.094C376.958 114.702 376.233 113.571 375.566 112.876L377.132 111.861L379.19 115.253C379.364 115.514 379.625 115.659 379.944 115.659C380.002 115.659 380.089 115.659 380.147 115.63L381.017 115.398C381.742 115.224 382.351 114.673 382.612 113.977C382.902 113.31 382.815 112.499 382.409 111.89Z" fill="#1A1A1A"/>
<path d="M500.648 157.382C500.735 155.237 497.488 146.944 495.864 144.596C495.139 143.552 489.05 139.783 487.05 139.841C486.383 139.87 486.093 140.217 485.948 140.449C485.803 140.681 485.716 140.913 485.658 141.145C485.136 140.855 484.73 140.797 484.44 140.768C483.86 140.739 483.309 140.971 482.932 141.406C482.44 141.986 482.382 142.769 482.498 143.523C482.005 143.262 481.599 143.233 481.28 143.262C480.845 143.32 480.033 143.581 479.656 144.857C478.96 147.205 483.57 154.338 485.803 157.556C485.165 157.672 484.904 157.266 484.788 157.063C484.585 156.715 484.353 156.338 484.121 155.932C482.237 152.772 480.294 149.496 478.177 150.655C477.858 150.829 477.424 151.206 477.221 151.902C476.438 154.657 480.004 161.209 481.106 163.123L479.975 168.603L448.081 189.595C447.675 189.856 447.559 190.407 447.82 190.813C447.994 191.074 448.255 191.219 448.545 191.219C448.719 191.219 448.864 191.161 449.009 191.074L473.364 175.069C473.77 178.374 475.133 186.551 479.395 191.596C480.091 192.437 480.787 193.103 481.425 193.683C481.483 193.712 481.628 193.886 481.889 194.089C483.744 195.568 485.368 196.09 486.644 196.206L484.585 198.148C483.222 199.25 481.164 200.7 478.148 202.585C475.945 203.947 473.77 204.44 472.175 203.918C471.103 203.57 470.32 202.817 469.827 201.628C469.566 201.019 469.537 199.946 469.479 198.815C469.392 196.177 469.218 192.176 465.072 192.176C465.043 192.176 465.014 192.176 464.956 192.176C460.897 192.234 459.447 198.67 457.765 206.122C457.04 209.311 456.287 212.617 455.301 215.574C453.764 220.271 451.763 222.591 450.372 223.722C448.951 224.852 447.849 225.026 447.762 225.055H447.733C446.08 225.084 444.834 224.591 443.877 223.577C443.558 223.229 443.007 223.2 442.659 223.548C442.311 223.867 442.282 224.417 442.63 224.765C443.906 226.099 445.588 226.795 447.675 226.795C447.704 226.795 447.762 226.795 447.791 226.795C447.82 226.795 447.849 226.795 447.849 226.795H447.878H447.907C459.302 226.505 479.946 205.803 487.137 198.206C487.977 197.424 488.383 196.931 488.528 196.728C489.108 196.119 489.485 195.684 489.63 195.539C491.196 194.263 493.341 190.987 491.341 187.102L492.588 186.174C493.805 185.652 494.762 184.869 495.371 184.173C495.4 184.144 495.4 184.144 495.429 184.115C498.097 180.491 496.647 175.069 496.183 173.619C497.604 170.633 500.561 159.238 500.648 157.382ZM475.017 174.025L479.888 170.836C480.062 173.619 480.903 179.418 484.643 183.825C485.223 184.492 485.803 185.043 486.412 185.507C487.34 186.174 488.267 186.551 489.137 186.696L482.092 192.002C481.657 191.596 481.193 191.103 480.729 190.552C476.38 185.333 475.22 176.229 475.017 174.025ZM494.53 173.097L486.702 183.448C486.441 183.216 486.209 182.955 485.948 182.665C481.86 177.852 481.57 170.952 481.541 169.531C481.57 169.502 481.57 169.444 481.57 169.386L482.845 163.181C482.874 162.978 482.845 162.746 482.758 162.572C480.99 159.557 478.38 154.135 478.873 152.424C478.931 152.25 478.96 152.221 478.989 152.221C479.047 152.192 479.453 152.279 480.236 153.236C481.019 154.193 481.86 155.614 482.614 156.86C482.845 157.266 483.077 157.643 483.309 157.991C484.208 159.47 485.803 159.731 487.572 158.716C487.775 158.6 487.949 158.397 487.978 158.136C488.035 157.904 487.978 157.643 487.833 157.44C484.411 152.54 480.961 146.509 481.309 145.32C481.367 145.118 481.425 145.002 481.454 144.973C481.628 145.002 482.874 145.349 486.093 150.076C487.949 152.83 489.543 155.643 489.543 155.672C489.775 156.077 490.297 156.251 490.732 156.019C491.138 155.787 491.312 155.266 491.08 154.831C491.051 154.802 489.456 151.902 487.543 149.061C486.586 147.64 485.774 146.567 485.049 145.726C485.049 145.581 485.02 145.436 484.962 145.291C484.353 144.161 484.005 142.769 484.295 142.45C484.324 142.421 484.324 142.421 484.324 142.421C484.817 142.247 487.253 144.132 490.123 148.336L492.849 153.584C492.878 153.642 492.936 153.7 492.965 153.758C492.965 153.787 492.994 153.787 492.994 153.816C493.023 153.845 493.081 153.903 493.139 153.932L493.168 153.961C493.226 153.99 493.284 154.019 493.341 154.048C493.37 154.048 493.37 154.048 493.399 154.048C493.457 154.048 493.515 154.077 493.544 154.077H493.573H493.602C493.631 154.077 493.689 154.077 493.718 154.048C493.747 154.048 493.747 154.048 493.776 154.048C493.834 154.019 493.892 154.019 493.95 153.99L493.979 153.961C494.008 153.932 494.066 153.932 494.095 153.903C494.124 153.874 494.124 153.874 494.153 153.845C494.182 153.816 494.211 153.787 494.211 153.787C494.24 153.758 494.24 153.729 494.269 153.729C494.298 153.7 494.298 153.671 494.327 153.671C494.327 153.642 494.356 153.613 494.356 153.613C494.356 153.584 494.385 153.555 494.385 153.526C494.385 153.497 494.385 153.468 494.414 153.468C494.414 153.439 494.443 153.41 494.443 153.381C494.443 153.352 494.443 153.323 494.443 153.294C494.443 153.265 494.443 153.236 494.443 153.207C494.443 153.178 494.443 153.12 494.414 153.091C494.414 153.062 494.414 153.062 494.414 153.033L493.399 149.322C492.965 147.727 491.718 146.596 490.5 145.523C490.123 145.175 489.717 144.828 489.369 144.451C489.195 144.277 489.021 144.103 488.847 143.929C487.572 142.682 487.137 142.16 487.311 141.58C488.76 141.841 493.747 144.712 494.385 145.552C496.009 147.872 498.937 155.816 498.879 157.266C498.821 158.977 495.719 170.952 494.53 173.097Z" fill="#1A1A1A"/>
<path d="M454.605 273.389C454.576 272.954 454.228 272.606 453.793 272.577L447.124 272.085C446.892 272.056 446.66 272.143 446.487 272.317C446.313 272.462 446.197 272.693 446.197 272.925L445.907 281.566C445.907 281.827 446.023 282.117 446.226 282.262C446.371 282.378 446.573 282.465 446.776 282.465C446.863 282.465 446.921 282.465 447.008 282.436C455.011 280.319 454.605 273.476 454.605 273.389Z" fill="#1A1A1A"/>
<path d="M227.491 499.314L215.371 513.145C215.371 513.145 205.02 524.076 196.583 525.699C188.116 527.352 179.824 523.583 179.824 523.583C179.824 523.583 180.404 526.569 180.781 526.975C181.158 527.352 188.116 531.034 194.785 530.455C201.454 529.875 208.5 525.236 214.994 519.814C221.489 514.392 228.825 504.012 228.825 504.012L227.491 499.314Z" fill="white"/>
<path d="M130.011 264.662C130.011 264.662 147.205 265.242 158.223 269.098C169.241 272.954 180.636 279.159 180.636 279.159L180.259 245.149L186.435 206.876C186.435 206.876 203.048 200.497 213.313 186.957C223.577 173.416 232.072 157.759 223.954 144.422C215.835 131.084 189.363 118.704 173.503 117.167C173.503 117.167 167.907 126.242 167.501 137.666L192.639 152.163C192.639 152.163 180.085 164.921 172.343 166.284C164.602 167.646 149.931 164.341 149.931 164.341L147.988 160.659L137.55 162.601L130.214 155.643L121.516 160.282C121.516 160.282 113.6 161.442 109.918 162.398C106.236 163.355 95.7978 167.617 90.5788 175.736C85.3598 183.854 83.2432 188.291 83.2432 188.291L71.0655 163.152L68.369 158.136L61.4103 164.892L55.4084 167.009L50.9723 168.748L53.0889 175.504C53.0889 175.504 48.4498 176.084 49.0297 176.461C49.6095 176.838 57.728 207.195 57.728 207.195C57.728 207.195 68.7459 232.71 72.2253 237.146C75.7046 241.582 84.7799 248.541 84.7799 248.541L82.6633 267.88C82.6633 267.88 89.245 264.401 101.8 264.198C114.354 263.995 121.139 264.778 121.139 264.778L125.981 249.498L130.011 264.662Z" fill="white"/>
<path d="M98.3204 217.604C96.8997 214.328 95.421 211.515 95.392 211.486L94.4351 209.659L89.0422 226.012L85.0699 242.626L81.5906 269.185L89.4481 266.837L89.3901 266.112C89.3901 265.996 88.2303 254.224 91.5357 240.51C92.4055 236.914 94.4641 235.407 96.4648 233.957C98.5814 232.42 100.756 230.854 101.017 227.085C101.191 225.258 100.292 222.069 98.3204 217.604Z" fill="#FC9F5B"/>
<path d="M128.243 211.138L126.532 210.877L126.387 211.602C126.242 212.182 125.923 213.11 125.256 214.414C124.213 216.502 122.067 219.952 117.805 224.562C110.672 232.275 108.295 235.812 108.469 238.567C108.527 239.726 109.048 240.683 110.034 241.553C111.687 242.974 113.601 243.061 115.137 243.119C116.993 243.206 117.631 243.322 117.863 244.395C118.617 247.816 113.021 251.005 108.063 253.818L107.831 253.934C98.2915 259.356 100.872 264.372 100.988 264.604L101.278 265.126L101.887 265.039C101.974 265.039 110.411 263.792 120.617 265.126L121.342 265.213L126.619 249.208L125.633 237.03L125.459 224.533L128.069 211.95C128.214 211.486 128.243 211.196 128.243 211.138Z" fill="#FC9F5B"/>
<path d="M161.441 121.429L164.834 130.214C164.834 130.214 168.69 131.461 168.69 132.911C168.69 134.361 165.298 135.52 165.298 135.52C165.298 135.52 166.37 145.755 161.035 151.38C155.729 156.976 150.307 154.657 150.307 154.657L147.495 161.326L137.55 162.572L130.214 155.614L134.476 146.538L138.449 135.897C138.449 135.897 135.172 134.651 135.172 130.678C135.172 126.706 137.579 126.242 139.319 126.706C141.058 127.199 141.841 130.388 141.841 130.388C141.841 130.388 143.784 132.998 145.03 131.925C146.277 130.852 148.133 121.574 149.38 120.414C150.626 119.254 152.482 120.124 153.642 120.414C154.802 120.704 159.789 122.386 161.441 121.429Z" fill="#FC9F5B"/>
<path d="M173.503 117.167C173.503 117.167 167.791 124.328 168.284 134.274L162.572 133.317L155.614 113.311L173.503 117.167Z" fill="#FC9F5B"/>
<path d="M214.704 467.043C214.704 467.043 208.789 469.073 202.7 470.233C196.612 471.393 192.842 470.726 192.842 470.726L204.672 493.399C204.672 493.399 208.238 491.805 210.819 492.675C213.37 493.544 217.575 495.197 219.024 494.501C220.474 493.834 221.779 487.746 221.779 487.746L214.704 467.043Z" fill="#FC9F5B"/>
<path d="M146.799 473.712C146.799 473.712 141.116 475.742 136.013 476.612C130.881 477.482 126.358 475.162 126.358 475.162L130.765 486.847C130.765 486.847 134.303 490.819 138.942 491.776C143.581 492.733 150.394 488.355 150.394 488.355L146.799 473.712Z" fill="#FC9F5B"/>
<path d="M153.729 504.244L98.4072 506.128C98.4072 506.128 98.0593 509.55 99.625 510.332C101.191 511.115 108.178 510.854 108.178 510.854L141.377 509.752C141.377 509.752 153.033 509.753 153.787 508.361C154.541 506.969 153.729 504.244 153.729 504.244Z" fill="white"/>
<path d="M56.7423 135.839L62.9761 142.218L65.8756 150.336L68.6301 158.6C68.6301 158.6 64.8608 162.804 62.3962 164.254C59.9317 165.704 55.4086 167.037 55.4086 167.037L48.5369 156.048L56.2204 148.278L54.8577 137.347C54.8577 137.376 54.3358 135.636 56.7423 135.839Z" fill="#FC9F5B"/>
<path d="M55.5535 168.371C55.2635 168.371 54.9736 168.226 54.7996 167.965L47.783 156.542C47.522 156.136 47.667 155.585 48.0729 155.353C48.4788 155.092 49.0297 155.237 49.2617 155.643L56.2783 167.067C56.5393 167.472 56.3943 168.023 55.9884 168.255C55.8724 168.313 55.7275 168.371 55.5535 168.371Z" fill="#1A1A1A"/>
<path d="M71.3845 162.891C71.3845 162.862 71.4135 162.833 71.4135 162.804C71.4135 162.775 71.4135 162.746 71.4425 162.717C71.4425 162.688 71.4425 162.659 71.4715 162.63C71.4715 162.601 71.4715 162.572 71.4715 162.543C71.4715 162.514 71.4715 162.485 71.4715 162.456C71.4715 162.427 71.4715 162.398 71.4715 162.369C71.4715 162.34 71.4715 162.311 71.4425 162.282C71.4425 162.253 71.4135 162.224 71.4135 162.195C71.4135 162.166 71.3845 162.137 71.3845 162.108V162.079L69.0649 157.788C68.9199 157.498 68.63 157.324 68.3111 157.324C67.9921 157.324 67.7022 157.498 67.5572 157.759C67.5282 157.788 65.1217 161.963 59.0908 165.008C57.931 165.588 56.8872 166.052 55.9304 166.4L54.5967 164.573C54.3647 164.254 53.9878 164.138 53.6108 164.254C53.5818 164.254 52.654 164.573 51.7842 165.211C50.5084 166.168 49.9575 167.385 50.2185 168.661C50.2185 168.69 50.2475 168.719 50.2475 168.748C50.2475 168.777 50.2475 168.777 50.2475 168.806L51.1173 171.097C47.8119 172.952 47.8699 175.591 48.3918 176.809C48.3918 176.809 48.3918 176.838 48.4208 176.838C48.4498 176.867 48.4498 176.896 48.4788 176.925L48.5078 176.954C48.5368 176.982 48.5658 177.011 48.5658 177.04L48.5948 177.069C48.6238 177.098 48.6818 177.127 48.7108 177.156C48.7398 177.185 48.7978 177.214 48.8267 177.214C48.8267 177.214 48.8557 177.214 48.8847 177.243C48.9137 177.243 48.9427 177.272 49.0007 177.272C49.0297 177.272 49.0297 177.272 49.0587 177.272C49.1167 177.272 49.1457 177.301 49.2037 177.301H49.2327C49.4356 177.301 54.0168 177.04 60.3666 173.213C67.7602 168.748 71.2395 163.152 71.3845 162.92V162.891C71.3555 162.92 71.3555 162.949 71.3845 162.891ZM59.4097 171.821C57.4381 173.01 55.6405 173.822 54.1038 174.402L52.1901 169.299C53.6108 169.067 56.2493 168.4 59.7867 166.631C64.3098 164.37 66.9193 161.528 68.1661 159.934L69.5578 162.514C68.63 163.848 65.2956 168.255 59.4097 171.821Z" fill="#1A1A1A"/>
<path d="M132.592 233.754C134.065 233.754 135.259 232.559 135.259 231.086C135.259 229.613 134.065 228.419 132.592 228.419C131.119 228.419 129.924 229.613 129.924 231.086C129.924 232.559 131.119 233.754 132.592 233.754Z" fill="#1A1A1A"/>
<path d="M56.5683 183.854C57.7853 183.854 58.7719 182.868 58.7719 181.651C58.7719 180.434 57.7853 179.447 56.5683 179.447C55.3513 179.447 54.3647 180.434 54.3647 181.651C54.3647 182.868 55.3513 183.854 56.5683 183.854Z" fill="#1A1A1A"/>
<path d="M58.714 190.697C59.931 190.697 60.9175 189.71 60.9175 188.493C60.9175 187.276 59.931 186.29 58.714 186.29C57.497 186.29 56.5104 187.276 56.5104 188.493C56.5104 189.71 57.497 190.697 58.714 190.697Z" fill="#1A1A1A"/>
<path d="M133.578 246.251C135.051 246.251 136.245 245.056 136.245 243.583C136.245 242.11 135.051 240.916 133.578 240.916C132.104 240.916 130.91 242.11 130.91 243.583C130.91 245.056 132.104 246.251 133.578 246.251Z" fill="#1A1A1A"/>
<path d="M229.579 459.911L226.65 453.503C218.445 435.092 195.51 383.336 188.29 365.099L184.057 352.428C183.419 350.08 182.839 347.673 182.289 345.209C181.564 341.352 180.491 335.64 179.65 330.363C178.664 323.231 178.113 316.359 177.968 310.415C177.997 309.023 178.026 307.719 178.055 306.588C178.2 303.225 178.2 299.745 178.084 296.266C178.055 288.147 177.562 281.015 177.33 278.028L177.272 276.869C177.272 276.753 177.243 276.666 177.185 276.55V276.521C177.156 276.086 176.78 275.767 176.374 275.738C174.808 274.52 170.169 271.476 159.847 268.228C148.365 264.633 133.897 263.879 130.678 263.763L126.793 249.353C126.706 248.976 126.358 248.715 125.981 248.715C125.604 248.715 125.256 248.947 125.14 249.324L120.53 263.908C96.8707 261.588 82.9533 266.894 82.3735 267.126C82.0835 267.242 81.9095 267.474 81.8515 267.764C81.7646 267.88 81.7356 268.025 81.7066 268.17C81.7066 268.286 81.5326 270.983 81.4166 275.738L80.8657 286.292C80.2858 306.443 85.6498 341.178 85.7078 341.526C85.7078 341.555 85.7078 341.555 85.7078 341.584L86.1137 343.527C87.1575 350.196 88.4333 357.067 89.941 364.113C91.2748 370.289 92.8115 376.581 94.4352 382.843L95.566 388.178C95.566 388.207 95.566 388.236 95.595 388.265L98.1755 396.529C101.887 409.489 105.888 422.044 109.657 433.178L111.832 440.079C111.832 440.108 111.832 440.108 111.861 440.137L113.948 445.559C120.153 463.1 124.879 474.872 124.995 475.133C124.995 475.162 125.024 475.162 125.024 475.191C125.256 475.684 126.503 477.424 131.838 477.424C134.361 477.424 137.782 477.047 142.421 475.945C142.479 475.916 142.566 475.916 142.624 475.887C142.711 475.887 142.827 475.858 142.914 475.858C151.264 474.698 162.195 466.899 162.804 466.435C162.804 466.435 162.804 466.435 162.833 466.435C162.862 466.406 162.891 466.377 162.92 466.348L162.949 466.319C162.978 466.29 162.978 466.29 163.007 466.261C163.007 466.232 163.036 466.232 163.036 466.203C163.036 466.174 163.065 466.174 163.065 466.145C163.065 466.116 163.094 466.116 163.094 466.087C163.094 466.058 163.123 466.058 163.123 466.029C163.123 466 163.123 466 163.152 465.971C163.152 465.942 163.152 465.913 163.181 465.913C163.181 465.884 163.181 465.884 163.181 465.855C163.181 465.826 163.181 465.797 163.181 465.797C163.181 465.768 163.181 465.768 163.181 465.739C163.181 465.71 163.181 465.681 163.181 465.681C163.181 465.652 163.181 465.623 163.181 465.623C163.181 465.594 163.181 465.594 163.181 465.565L156.425 438.919L149.902 409.982C146.132 390.121 144.103 374.261 143.088 365.099C143.407 365.94 143.755 366.81 144.103 367.737C147.524 378.03 151.351 388.41 155.498 398.732C172.894 441.992 191.538 470.523 191.712 470.784C191.799 470.9 191.915 471.016 192.031 471.074C192.06 471.132 192.089 471.161 192.089 471.161C192.234 471.393 192.495 471.538 192.785 471.567C192.93 471.567 194.379 471.625 196.583 471.538C197.105 471.538 197.714 471.509 198.351 471.451C202.034 471.219 206.963 470.581 211.486 469.015C211.805 468.899 212.153 468.783 212.472 468.667C222.417 465.739 228.97 461.39 229.26 461.187C229.521 461.013 229.666 460.694 229.637 460.375C229.666 460.23 229.666 460.056 229.579 459.911Z" fill="#1A1A1A"/>
<path d="M82.6054 267.358C83.0983 267.387 83.4462 267.822 83.4172 268.286C83.3882 268.721 80.4888 312.271 91.6226 363.736C102.583 414.389 125.546 471.886 126.532 474.379C126.677 474.553 127.924 475.8 132.621 475.626C128.591 464.202 125.169 454.721 122.154 446.37C111.484 416.796 106.12 401.98 99.0742 369.39C99.3352 362.17 106.207 374.522 111.049 371.362C116.065 368.085 106.932 355.56 99.8281 345.933C98.0884 343.585 95.4499 339.41 94.1742 336.858C91.5357 331.61 90.8108 325.579 90.1729 319.722C87.0415 291.018 88.9552 268.083 89.3611 266.488L89.97 265.01L88.3753 265.358C83.5042 266.402 82.3444 267.126 82.1704 267.242L81.8225 267.474V267.764C81.9965 267.503 82.2864 267.358 82.6054 267.358Z" fill="#FC9F5B"/>
<path d="M94.7834 384.293L95.5373 388.149V388.178L98.1468 396.471C96.987 392.47 95.8562 388.381 94.7834 384.293Z" fill="#FECE2F"/>
<path d="M109.629 433.149L111.803 440.05L113.891 445.472C112.528 441.615 111.107 437.498 109.629 433.149Z" fill="#FECE2F"/>
<path d="M127.141 476.728C127.866 477.221 128.33 477.453 129.258 477.453C129.606 477.453 130.041 477.424 130.562 477.366C129.055 477.279 127.953 477.018 127.141 476.728Z" fill="#FECE2F"/>
<path d="M176.808 295.396C168.632 295.251 162.688 290.699 159.122 281.856C156.367 275.013 156.135 268.054 156.135 267.967C156.135 267.474 155.729 267.126 155.236 267.126C154.744 267.126 154.367 267.532 154.396 268.025C154.396 268.315 154.628 275.332 157.498 282.465C161.296 291.917 167.994 296.991 176.837 297.136L176.808 295.396Z" fill="#FC9F5B"/>
<path d="M112.18 207.978C111.368 207.311 110.266 207.108 109.106 207.398C108.033 207.659 107.019 208.326 106.236 209.282C104.525 211.37 104.438 214.037 106.033 215.371C106.584 215.835 107.309 216.096 108.12 216.096C108.439 216.096 108.787 216.067 109.106 215.98C110.179 215.719 111.194 215.052 111.977 214.095C113.687 212.037 113.774 209.311 112.18 207.978Z" fill="#FC9F5B"/>
<path d="M229.376 502.388L228.825 499.401C228.709 498.851 228.535 498.329 228.274 497.807L222.591 487.369L215.516 466.754C215.371 466.29 214.878 466.058 214.414 466.203C213.95 466.348 213.719 466.841 213.863 467.304L220.909 487.833C220.822 490.877 220.155 492.791 218.938 493.516C217.836 494.182 216.096 493.892 213.777 492.733C210.413 491.022 206.673 491.834 205.107 492.298L193.219 469.914C192.987 469.479 192.466 469.334 192.031 469.566C191.596 469.798 191.451 470.32 191.683 470.755L203.57 493.168C200.12 495.893 182.926 509.781 179.708 515.609C177.417 519.756 178.403 522.684 178.635 523.264L179.186 525.554C179.505 526.83 180.288 527.932 181.419 528.628C183.187 529.73 186.986 531.556 192.466 531.556C200.062 531.556 207.253 527.874 217.314 518.857C223.49 513.319 227.085 508.361 228.709 505.896C229.347 504.823 229.608 503.577 229.376 502.388ZM227.23 504.91C225.664 507.288 222.156 512.101 216.154 517.523C206.47 526.221 199.598 529.759 192.466 529.759C187.392 529.759 183.941 528.077 182.317 527.091C181.593 526.627 181.071 525.931 180.868 525.091L180.781 524.743C182.81 525.757 186.493 527.091 191.886 527.091C193.045 527.091 194.263 527.033 195.568 526.888C207.456 525.583 223.461 505.867 227.346 500.909L227.665 502.678C227.81 503.461 227.636 504.243 227.23 504.91Z" fill="#1A1A1A"/>
<path d="M187.508 504.591C186.551 504.591 185.681 504.475 184.956 504.185C183.767 503.722 182.984 502.881 182.607 501.692C182.231 500.561 182.404 499.488 183.1 498.619C185.275 495.864 192.669 494.994 205.745 495.951C206.093 495.98 206.412 496.009 206.528 496.009C206.905 495.98 207.253 496.212 207.398 496.589C207.543 496.995 207.369 497.43 207.021 497.662C206.412 497.923 194.466 504.591 187.508 504.591ZM196.757 497.314C187.884 497.314 185.246 498.706 184.463 499.691C184.144 500.097 184.057 500.561 184.26 501.17C184.463 501.837 184.898 502.301 185.594 502.562C189.218 503.983 198.091 500.213 203.425 497.546C200.874 497.372 198.67 497.314 196.757 497.314Z" fill="#FC9F5B"/>
<path d="M202.063 512.043C201.599 512.043 201.135 511.956 200.671 511.811C198.931 511.202 198.322 510.071 198.148 509.23C197.163 504.794 205.078 497.082 205.977 496.241C206.209 496.009 206.586 495.922 206.905 496.067C207.224 496.183 207.427 496.502 207.456 496.821C207.514 498.01 207.92 508.535 204.208 511.347C203.541 511.811 202.817 512.043 202.063 512.043ZM205.716 498.937C202.759 502.069 199.337 506.592 199.83 508.854C199.917 509.23 200.149 509.781 201.222 510.158C201.976 510.419 202.585 510.361 203.135 509.955C204.324 509.057 205.194 506.476 205.542 502.707C205.658 501.286 205.716 499.981 205.716 498.937Z" fill="#FC9F5B"/>
<path d="M154.947 504.012V503.983C154.947 503.925 154.947 503.896 154.918 503.838L151.612 489.746L147.669 473.538C147.553 473.074 147.089 472.784 146.625 472.9C146.161 473.016 145.871 473.48 145.987 473.944L149.409 487.978C144.857 490.645 140.797 491.573 137.347 490.674C133.578 489.688 131.751 486.847 131.548 486.499L126.59 474.466C126.416 474.031 125.894 473.799 125.459 474.002C125.024 474.176 124.792 474.698 124.995 475.133L128.62 483.918C125.807 480.207 119.631 472.784 114.992 472.263C113.745 472.118 112.673 472.466 111.774 473.277C110.701 474.263 110.643 475.307 110.788 476.032C111.165 477.916 113.63 479.888 116.645 481.657C113.658 481.193 111.397 481.338 109.889 482.121C108.787 482.701 108.063 483.628 107.831 484.846C107.512 486.354 108.121 487.282 108.671 487.833C109.889 488.992 112.296 489.398 115.079 489.398C115.166 489.398 115.253 489.398 115.34 489.398C109.106 490.993 102.786 492.907 100.35 494.733C95.131 498.648 97.1316 505.171 97.5376 506.302V507.955C97.5376 509.057 97.9725 510.071 98.7553 510.825C99.5092 511.55 100.466 511.927 101.51 511.927C101.568 511.927 101.597 511.927 101.655 511.927L152.395 510.1C153.816 510.042 154.947 508.883 154.947 507.462V504.012ZM112.47 475.655C112.412 475.365 112.412 474.988 112.934 474.524C113.369 474.147 113.861 473.944 114.441 473.944C114.557 473.944 114.673 473.944 114.789 473.973C118.327 474.379 123.72 480.41 126.88 484.498C126.474 484.353 126.01 484.179 125.546 484.005C119.631 481.57 112.963 478.061 112.47 475.655ZM109.86 486.557C109.628 486.325 109.367 485.948 109.512 485.194C109.657 484.498 110.034 484.005 110.672 483.657C111.397 483.28 112.383 483.106 113.543 483.106C116.79 483.106 121.284 484.382 124.821 485.629C125.372 485.861 125.865 486.064 126.329 486.238C120.124 487.514 111.89 488.47 109.86 486.557ZM152.337 508.361L101.597 510.187C100.988 510.216 100.408 509.984 99.9731 509.549C99.5382 509.115 99.2772 508.564 99.2772 507.955V506.969L153.178 504.91V507.462C153.207 507.955 152.83 508.361 152.337 508.361Z" fill="#1A1A1A"/>
<path d="M167.182 128.62L167.066 127.344C166.979 126.387 166.631 125.633 166.022 125.227C165.646 124.966 165.037 124.734 164.167 124.995L163.239 125.256H163.21L162.717 125.43L159.064 126.677L150.423 129.402H150.394L143.001 131.722C142.537 131.867 142.276 132.36 142.421 132.824C142.566 133.288 143.059 133.549 143.523 133.404L150.249 131.287L150.539 131.78C151.38 133.288 152.975 134.187 154.657 134.187C155.063 134.187 155.439 134.129 155.845 134.042L158.977 133.23C159.934 132.969 160.716 132.302 161.093 131.403C161.47 130.475 161.412 129.46 160.948 128.591L160.6 127.982L162.572 127.315L164.37 130.794C164.515 131.084 164.834 131.258 165.153 131.258C165.24 131.258 165.327 131.229 165.443 131.2L165.906 131.055C167.356 130.794 167.24 129.228 167.182 128.62Z" fill="#1A1A1A"/>
<path d="M155.787 124.386C155.787 124.386 155.005 126.155 153.178 126.88L155.787 124.386Z" fill="#1A1A1A"/>
<path d="M153.178 128.011C152.714 128.011 152.279 127.721 152.105 127.257C151.873 126.648 152.163 125.981 152.772 125.749C154.135 125.227 154.744 123.894 154.744 123.894C155.005 123.314 155.672 123.024 156.28 123.285C156.86 123.546 157.15 124.213 156.889 124.821C156.86 124.908 155.903 127.054 153.613 127.924C153.439 128.011 153.294 128.011 153.178 128.011Z" fill="#1A1A1A"/>
<path d="M161.238 144.538C161.151 143.581 160.688 142.769 159.963 142.305C159.238 141.841 158.31 141.754 157.411 142.102C156.599 142.392 155.874 143.001 155.353 143.813C154.831 144.625 154.599 145.553 154.686 146.422C154.773 147.379 155.237 148.191 155.961 148.655C156.396 148.916 156.889 149.061 157.411 149.061C157.788 149.061 158.165 149.003 158.513 148.858C159.325 148.568 160.05 147.959 160.572 147.147C161.065 146.335 161.296 145.408 161.238 144.538Z" fill="#1A1A1A"/>
<path d="M227.52 151.786C226.215 145.814 223.867 141.348 219.894 137.376C215.545 133.027 208.964 128.968 199.192 124.59C191.306 121.081 183.448 118.588 176.867 116.877C176.838 116.877 176.809 116.848 176.78 116.848L174.431 116.268C174.373 116.268 174.344 116.239 174.286 116.239C169.154 114.992 164.979 114.268 162.514 113.862C161.268 109.802 159.296 105.946 159.267 105.888C158.078 103.598 151.757 92.2607 143.262 94.1744C140.363 94.8122 138.217 94.1744 136.158 93.5655C133.491 92.7826 130.736 91.9708 127.141 94.3773C124.242 96.32 123.575 99.4804 122.995 102.293C122.531 104.467 122.154 106.323 120.878 107.309C119.573 108.324 115.543 111.455 116.79 118.095C118.501 126.909 124.908 137.782 133.549 146.596L129.577 155.034C128.881 155.382 126.938 156.339 124.271 157.933C124.242 157.962 120.385 159.528 111.977 161.21C108.15 161.993 102.38 163.819 96.6678 168.168C92.9855 170.981 89.8541 174.431 87.2446 178.49C87.2446 178.49 87.2446 178.519 87.2156 178.519C85.5339 180.781 84.4611 183.072 83.7942 184.898C83.6202 185.333 83.4173 185.739 83.2433 186.174L71.3556 162.08C71.1526 161.645 70.6307 161.471 70.1958 161.674C69.7609 161.877 69.5869 162.398 69.7899 162.833L82.8084 189.276L87.3315 198.468L93.6813 211.341C93.6813 211.37 93.7103 211.37 93.7103 211.399C92.3766 215.11 90.8399 219.663 89.3322 224.94C86.5777 223.925 83.8522 225.693 81.5037 227.636C81.3877 227.723 81.2717 227.81 81.1557 227.926C79.677 229.202 78.5752 229.898 77.0675 228.361C76.1107 227.404 74.516 223.519 72.9793 219.75C70.8047 214.444 68.5721 208.964 66.5135 207.079C63.556 204.383 59.9027 205.194 58.1921 205.774C57.4962 203.658 56.8293 201.483 56.1335 199.192C52.4222 186.841 49.9576 176.287 49.9576 176.2C49.8416 175.736 49.3777 175.446 48.9138 175.562C48.4499 175.678 48.16 176.142 48.2759 176.606C48.6819 178.345 58.1631 219.083 68.833 234.827C69.7319 236.132 70.6017 237.32 71.4426 238.422C74.0521 242.336 77.2705 244.975 79.88 246.657C81.5906 247.845 82.9824 248.512 83.9392 248.86C82.9244 254.862 82.1415 261.299 81.6486 268.054C81.6196 268.315 81.7356 268.547 81.9096 268.721L81.9386 268.75C81.9966 268.808 82.0256 268.837 82.0835 268.866C82.1995 268.924 82.3155 268.953 82.4315 268.982C82.4605 268.982 82.4605 268.982 82.4895 268.982C82.5475 268.982 82.6344 268.982 82.6924 268.953H82.7214C82.7794 268.924 82.8374 268.924 82.8954 268.895H82.9244C83.0114 268.837 92.5506 263.531 121.197 265.619C121.603 265.648 121.98 265.387 122.096 264.981L125.691 252.223C127.257 260.342 129.229 264.836 129.374 265.126C129.403 265.155 129.403 265.213 129.432 265.242C129.432 265.242 129.432 265.242 129.432 265.271C129.461 265.3 129.49 265.329 129.519 265.358L129.548 265.387C129.577 265.416 129.606 265.445 129.635 265.474C129.635 265.474 129.664 265.474 129.664 265.503C129.693 265.532 129.751 265.561 129.809 265.561H129.837C129.866 265.59 129.924 265.59 129.953 265.59H129.982C130.04 265.59 130.098 265.619 130.127 265.619C130.475 265.619 149.032 265.764 163.355 271.36C168.98 273.563 172.836 275.535 175.388 277.072L175.939 285.045C175.968 285.277 176.084 285.509 176.258 285.683C176.403 285.799 176.606 285.857 176.809 285.857C176.867 285.857 176.896 285.857 176.954 285.857C178.577 285.567 181.622 284.001 181.622 280.058C181.622 280.029 181.622 279.971 181.622 279.942C181.593 279.188 181.361 273.882 181.274 267.098C181.303 266.112 181.593 255.558 181.97 243.902C183.303 229.579 186.638 210.674 187.218 207.572C189.798 206.354 203.687 199.482 213.11 188.609C224.563 175.533 229.782 162.109 227.52 151.786ZM189.102 151.033L190.929 152.105C190.958 152.105 190.987 152.134 191.045 152.192C188.58 154.976 179.563 164.486 169.879 165.443C162.775 165.733 152.511 163.964 151.67 163.819C151.293 163.732 150.974 163.674 150.772 163.616L148.742 160.485C148.8 160.369 148.829 160.253 148.887 160.137L150.974 155.469C151.554 155.556 152.163 155.614 152.743 155.614C154.57 155.614 156.367 155.208 158.049 154.367C162.833 151.989 166.226 146.538 166.487 140.74C166.545 139.696 166.516 138.594 166.429 137.492L168.545 138.768L189.102 151.033ZM149.931 181.361L156.947 190.001C153.758 191.248 144.538 195.017 139.087 198.642C134.999 201.367 131.809 204.064 129.577 206.731C130.678 203.484 131.867 200.642 133.027 198.149C133.578 196.96 134.477 195.249 135.607 193.104C139.493 185.739 145.842 173.706 148.162 162.833L158.426 178.722L150.482 179.969C150.163 180.027 149.902 180.23 149.815 180.52C149.728 180.81 149.728 181.129 149.931 181.361ZM128.765 178.577C128.504 175.649 128.272 172.894 128.098 170.662L130.91 168.516L132.389 171.416L128.765 178.577ZM140.189 169.821L142.624 174.46C141 178.461 139.145 182.347 137.405 185.826L137.086 172.373L140.189 169.821ZM138.652 163.181L146.625 161.616C145.958 165.095 144.828 168.748 143.494 172.315L141.261 168.081L138.652 163.181ZM163.239 121.255C163.703 119.806 163.5 117.805 163.007 115.717C165.211 116.094 168.458 116.674 172.372 117.573C171.184 119.313 168.4 123.981 167.675 130.591C167.356 130.475 167.037 130.389 166.747 130.302C166.371 130.215 165.878 130.07 165.762 129.925C164.834 128.678 164.486 128.04 164.022 126.764C163.413 125.025 162.804 123.633 162.369 122.647C162.775 122.299 163.065 121.835 163.239 121.255ZM135.375 146.828V146.799V146.77L139.145 136.854C139.29 136.506 139.174 136.071 138.855 135.839C138.826 135.81 135.172 132.998 135.839 129.606C136.1 128.272 136.709 127.431 137.55 127.17C138.333 126.938 139.116 127.228 139.319 127.46C140.478 128.62 140.768 129.722 141.029 130.736C141.29 131.809 141.58 132.882 142.856 133.433C143.581 133.752 144.306 133.723 144.973 133.404C146.277 132.766 147.234 130.91 147.988 127.779L148.133 127.141C148.713 124.59 149.699 120.356 151.235 120.53C151.931 120.617 152.946 121.168 154.019 121.748C156.02 122.85 158.455 124.155 160.804 123.488C161.239 124.445 161.789 125.778 162.369 127.373C162.862 128.823 163.326 129.635 164.341 130.997C164.805 131.635 165.588 131.838 166.284 132.012C167.385 132.302 167.646 132.447 167.675 133.085C167.675 133.665 167.211 133.955 166.11 134.39C165.385 134.68 164.37 135.057 164.486 136.071C164.689 137.666 164.747 139.203 164.689 140.653C164.457 145.814 161.47 150.685 157.237 152.801C153.526 154.628 149.293 154.106 145.292 151.294C145.292 151.294 145.263 151.294 145.263 151.265C145.234 151.236 145.205 151.236 145.176 151.207C145.147 151.207 145.118 151.178 145.118 151.178C145.089 151.178 145.06 151.149 145.031 151.149C145.002 151.149 144.973 151.12 144.944 151.12C144.915 151.12 144.886 151.12 144.857 151.12C144.828 151.12 144.799 151.12 144.77 151.12C144.741 151.12 144.712 151.12 144.683 151.12C144.654 151.12 144.625 151.12 144.596 151.12C144.567 151.12 144.538 151.149 144.509 151.149C144.48 151.149 144.451 151.149 144.451 151.178C144.422 151.178 144.393 151.207 144.364 151.207C144.335 151.207 144.306 151.236 144.306 151.236C144.277 151.265 144.277 151.265 144.248 151.294C144.219 151.323 144.19 151.323 144.19 151.352C144.161 151.381 144.161 151.381 144.132 151.41C144.103 151.439 144.103 151.439 144.074 151.468C144.045 151.497 144.045 151.526 144.016 151.583C144.016 151.612 143.987 151.612 143.987 151.641C143.958 151.67 143.958 151.728 143.958 151.786C143.958 151.815 143.958 151.844 143.929 151.873C143.929 151.902 143.929 151.96 143.929 151.989C143.929 152.018 143.929 152.047 143.929 152.047C143.929 152.076 143.929 152.105 143.929 152.134C143.929 152.163 143.929 152.192 143.958 152.192C143.958 152.221 143.958 152.25 143.987 152.279C143.987 152.308 144.016 152.337 144.016 152.337C144.016 152.366 144.045 152.395 144.045 152.424C144.074 152.453 144.074 152.482 144.103 152.511C144.103 152.54 144.132 152.54 144.132 152.569C145.176 153.758 147.785 157.353 147.176 159.557L147.089 159.789L137.608 161.645L131.258 155.585L135.375 146.828ZM130.33 157.034L136.013 162.456L127.982 168.545C127.924 167.646 127.895 166.864 127.866 166.284C127.692 161.616 129.403 158.397 130.33 157.034ZM127.808 157.962C126.909 159.876 125.981 162.717 126.097 166.342C126.3 172.807 129.026 199.569 129.316 202.353C128.881 203.426 128.475 204.585 128.069 205.774C127.344 202.498 125.43 200.294 122.908 197.395C122.212 196.612 121.516 195.8 120.762 194.872C116.732 190.001 110.904 185.13 108.874 183.506L116.674 174.634C116.877 174.402 116.935 174.054 116.848 173.764C116.732 173.474 116.471 173.242 116.181 173.213L108.556 171.967C116.065 164.834 123.807 160.137 127.808 157.962ZM120.675 263.937C97.6826 262.343 87.0706 265.416 83.5333 266.837C84.3161 256.805 85.8238 247.526 87.5925 239.292L90.5499 227.23C94.9861 211.283 99.6832 201.512 99.7702 201.367C99.9732 200.932 99.7992 200.41 99.3643 200.207C98.9294 200.004 98.4074 200.178 98.2045 200.613C98.1465 200.7 96.6678 203.803 94.5802 209.312L89.3322 198.671C94.4062 192.205 94.2322 185.797 94.0873 180.636C94.0583 179.824 94.0583 179.041 94.0583 178.287C94.0583 173.358 97.4796 169.908 97.9145 169.502C97.9435 169.473 97.9725 169.444 97.9725 169.444C98.0015 169.415 98.0015 169.386 98.0305 169.357C103.279 165.472 108.556 163.732 112.325 162.978C114.905 162.456 117.051 161.964 118.791 161.5C114.905 164.167 110.411 167.646 106.062 171.938C105.83 172.17 105.743 172.518 105.83 172.807C105.917 173.126 106.207 173.358 106.526 173.387L114.325 174.663L106.961 183.043C106.816 183.217 106.729 183.448 106.758 183.709C106.787 183.97 106.903 184.173 107.077 184.318C107.164 184.376 114.673 190.262 119.399 196.003C120.182 196.931 120.878 197.772 121.574 198.555C125.169 202.672 127.141 204.933 126.503 210.877C126.271 211.689 126.068 212.559 125.865 213.429C125.836 213.516 125.807 213.603 125.807 213.719C124.474 219.721 123.633 226.824 123.894 235.349C124.039 240.249 124.474 244.569 125.024 248.309L120.675 263.937ZM223.548 169.212C221.112 175.185 217.082 181.535 211.892 187.566C201.976 199.077 186.87 205.977 186.232 206.267C185.449 206.557 173.3 211.283 171.329 217.778C170.169 221.605 172.083 224.186 173.793 226.476C175.069 228.187 176.142 229.637 175.794 231.347C175.475 232.826 171.764 235.523 168.458 237.9C163.123 241.785 158.049 245.439 159.064 248.628C160.079 251.905 163.877 251.673 167.588 251.441C170.169 251.296 172.836 251.122 174.373 252.136C178.983 255.181 179.592 263.444 179.679 266.228C179.679 266.518 179.679 266.808 179.679 267.098C179.679 267.156 179.679 267.185 179.679 267.185V267.214C179.737 271.679 179.853 275.535 179.94 277.826C179.215 277.275 178.2 276.637 176.809 275.854C174.141 274.201 170.111 272.114 164.138 269.794C150.887 264.633 134.158 264.024 130.852 263.966C129.924 261.676 126.213 251.499 125.72 235.262C125.459 227.114 126.242 220.271 127.489 214.473C127.489 214.444 127.518 214.415 127.518 214.386C127.518 214.299 127.547 214.241 127.576 214.154C127.605 213.98 127.663 213.806 127.692 213.632C128.794 209.399 132.969 204.846 140.131 200.091C146.509 195.858 158.629 191.248 158.745 191.19C159.006 191.103 159.209 190.871 159.267 190.61C159.354 190.349 159.267 190.059 159.093 189.827L152.279 181.448L160.05 180.23C160.34 180.172 160.601 179.998 160.717 179.737C160.833 179.476 160.804 179.157 160.659 178.896L154.193 168.864C159.905 170.923 174.083 175.881 179.592 176.809C181.825 177.186 183.651 177.389 185.13 177.389C187.015 177.389 188.319 177.07 189.102 176.403C189.711 175.91 190.03 175.243 190.088 174.431C190.146 173.213 189.131 172.315 188.058 171.387C186.638 170.111 185.159 168.806 185.536 166.748C185.681 166.052 186.087 165.269 186.522 164.457C187.421 162.833 188.58 160.63 187.015 158.687C189.769 156.31 191.741 154.135 192.611 153.091C195.539 154.86 201.57 158.397 204.614 159.412C205.281 159.644 205.919 159.731 206.528 159.731C207.949 159.731 209.166 159.122 209.804 158.02C210.703 156.484 210.21 154.483 208.529 152.946C206.673 151.236 203.773 149.525 200.12 147.35C197.656 145.901 194.872 144.219 191.799 142.218C186.696 138.884 185.942 137.55 184.289 134.593C183.912 133.926 183.506 133.201 182.984 132.36C181.361 129.635 179.302 127.837 177.649 126.358C176.461 125.314 175.446 124.387 175.04 123.517C174.46 122.328 175.765 120.066 176.896 118.646C183.303 120.327 190.871 122.734 198.496 126.126C214.067 133.085 223.026 139.261 225.838 152.105C226.911 157.121 226.128 162.862 223.548 169.212Z" fill="#1A1A1A"/>
<path d="M58.221 144.045L53.6398 131.925C53.5529 131.722 53.3789 131.577 53.1759 131.519C52.973 131.461 52.741 131.519 52.596 131.693C52.567 131.722 51.7262 132.505 50.9144 133.752C50.7984 133.81 50.5084 133.926 50.3055 133.984C49.6676 134.216 49.1457 134.39 48.9427 134.795C48.6238 135.404 49.0587 135.955 49.3487 136.303C49.4356 136.39 49.5516 136.535 49.5806 136.622C48.8268 139.319 49.6386 141.783 51.9872 143.697C52.1321 143.929 52.567 144.741 52.1901 145.031C51.6682 145.436 49.9575 145.523 48.9427 145.494C48.7108 145.465 48.4788 145.61 48.3628 145.813C48.2469 146.016 48.2469 146.277 48.3628 146.48C48.5368 146.77 48.7108 147.321 48.6528 147.524C48.6528 147.524 48.6528 147.553 48.5658 147.582C48.0729 147.756 45.9563 147.35 44.9415 147.176C43.3178 146.857 42.9409 146.799 42.6509 147.234C42.5349 147.408 42.5059 147.611 42.5929 147.814C42.5929 147.843 42.5639 147.93 42.506 148.017C42.129 148.829 42.216 149.786 42.7089 150.539L46.3622 155.99C46.7971 156.657 47.493 157.063 48.2759 157.121C48.3628 157.121 48.4498 157.121 48.5078 157.121C49.2037 157.121 49.8706 156.831 50.3635 156.338L57.5251 149.003C57.6121 148.916 57.6701 148.771 57.6991 148.655L58.279 144.393C58.279 144.248 58.25 144.132 58.221 144.045Z" fill="#1A1A1A"/>
<path d="M47.3768 128.62C47.3768 128.62 47.5508 128.678 47.8117 128.765C48.6236 129.055 50.1023 129.982 51.0011 130.91C53.0887 133.085 52.1609 134.535 52.1609 134.535L49.6384 134.593L48.7106 135.694L45.5791 134.68C45.5791 134.68 44.4774 130.475 45.6371 129.403C46.7969 128.33 47.3768 128.62 47.3768 128.62Z" fill="#FC9F5B"/>
<path d="M45.0574 135.027C45.0574 135.027 47.6669 135.375 51.0882 137.26C54.5096 139.145 56.1623 141.609 55.7853 142.334C55.4084 143.059 52.364 143.03 52.364 143.03C52.364 143.03 53.9587 143.929 52.7409 144.885C51.5231 145.842 48.1018 145.784 48.1018 145.784C48.1018 145.784 49.3196 147.089 48.8266 147.669C47.4929 149.322 43.1727 147.582 43.1727 147.582L40.9981 148.394C40.9981 148.394 39.4324 143.813 40.9111 143.349C40.9111 143.349 40.7952 140.217 43.1727 139.203C43.1727 139.145 41.723 136.216 45.0574 135.027Z" fill="#FC9F5B"/>
<path d="M50.6535 135.984C50.5375 135.926 50.3925 135.868 50.2476 135.81C48.8268 135.143 47.3191 134.505 46.0144 134.303C45.7534 133.375 45.3475 131.055 46.2753 129.953C46.5653 129.634 46.8552 129.46 47.2031 129.431C47.928 129.373 48.9718 129.953 50.1606 130.997C51.4363 132.157 51.8712 133.056 51.8423 133.52C51.8423 133.636 51.7843 133.723 51.6973 133.781C51.3783 133.984 49.6967 133.346 48.2179 132.302C47.812 132.012 47.2901 132.128 47.0002 132.505C46.7102 132.911 46.8262 133.433 47.2031 133.723C50.6245 136.158 52.2192 135.491 52.6251 135.23C53.176 134.882 53.5239 134.303 53.5819 133.636C53.6399 132.824 53.321 131.49 51.3493 129.692C49.7836 128.272 48.3629 127.576 47.1161 127.663C46.3043 127.721 45.5504 128.098 44.9706 128.794C44.7966 128.997 43.3759 130.852 44.2747 134.361C44.0137 134.447 43.7818 134.563 43.5788 134.737C42.1581 135.897 42.2451 137.695 42.448 138.797C41.7522 139.029 41.2882 139.435 41.0273 139.782C40.1865 140.913 40.3314 142.392 40.4184 142.914C40.4184 142.914 40.4184 142.914 40.3894 142.914L40.3604 142.943C39.6646 143.61 39.3456 144.48 39.3746 145.407C39.4906 147.814 42.1001 150.018 42.419 150.278C42.593 150.423 42.767 150.481 42.9699 150.481C43.2309 150.481 43.4628 150.365 43.6368 150.163C43.8398 149.931 43.8688 149.612 43.7818 149.351C45.4635 149.757 48.5949 150.192 49.6097 148.017C49.7257 147.756 49.8416 147.35 49.7546 146.857C49.8416 146.857 49.8996 146.886 49.9866 146.886C50.1896 146.915 50.3925 146.915 50.5955 146.915C51.9872 146.915 53.002 146.335 53.5239 145.233C53.6689 144.944 53.7559 144.509 53.6109 143.987C54.3358 143.958 55.0027 143.784 55.4956 143.465C56.1044 143.088 56.4814 142.508 56.5684 141.812C56.9163 139.667 53.234 137.173 50.6535 135.984ZM48.044 147.292C47.5221 148.423 44.5936 147.843 43.3469 147.408C42.9699 147.292 42.564 147.437 42.3321 147.727C41.7232 147.002 41.1433 146.103 41.1143 145.32C41.0853 144.915 41.2303 144.567 41.5492 144.219C42.2741 143.9 45.9854 144.944 47.5801 146.48C47.899 146.857 48.102 147.147 48.044 147.292ZM48.5369 144.741C48.3629 144.654 48.1889 144.654 48.044 144.683C46.6812 143.697 44.0137 142.566 42.1001 142.508C42.0421 142.073 42.0421 141.348 42.39 140.884C42.622 140.565 42.9989 140.42 43.5498 140.391C45.4055 140.304 49.5517 142.073 51.2914 143.697C51.8133 144.19 51.9002 144.451 51.9002 144.509C51.2624 145.871 48.5659 144.741 48.5369 144.741ZM54.5387 142.015C54.1618 142.247 53.321 142.392 52.0742 142.073C50.0736 140.449 46.5073 138.884 44.1877 138.681C44.0137 137.985 43.8978 136.796 44.6806 136.129C45.2025 135.694 46.8262 136.129 49.5517 137.405C49.6967 137.463 49.8416 137.55 49.9576 137.608C53.118 139.058 54.9447 141.029 54.8577 141.58C54.8287 141.754 54.7127 141.899 54.5387 142.015Z" fill="#1A1A1A"/>
<path d="M59.0909 124.647L59.0619 124.618L56.6553 121.429C55.6115 120.037 53.8719 119.341 52.1612 119.602C51.9582 119.631 51.7843 119.66 51.6103 119.718L49.5807 117.486C50.5665 116.529 51.1174 115.572 50.7985 115.195C50.4795 114.789 49.3487 115.079 48.073 115.833L46.5073 114.122C47.2031 113.456 47.5801 112.789 47.3771 112.528C47.1452 112.238 46.3623 112.441 45.4635 112.992L44.6516 112.093C44.4487 111.861 44.1007 111.803 43.8398 111.977C43.5208 112.151 43.4339 112.557 43.6078 112.876L44.2167 113.92C43.4049 114.644 42.9699 115.369 43.2019 115.688C43.4049 115.978 44.1587 115.775 45.0286 115.282L46.2173 117.283C45.1155 118.298 44.5067 119.312 44.8256 119.747C45.1155 120.153 46.1593 119.892 47.3481 119.226L48.8558 121.777C48.7109 122.009 48.5659 122.241 48.4789 122.502C47.812 124.01 47.986 125.72 48.9138 127.083L54.8287 136.216C54.9157 136.332 55.0317 136.419 55.1476 136.477L59.1779 137.898L60.6856 140.913C60.8016 141.116 61.0045 141.261 61.2655 141.261C61.4974 141.261 61.7294 141.116 61.8454 140.913C63.962 136.651 64.9478 133.665 59.0909 124.647Z" fill="#1A1A1A"/>
<path d="M57.5251 136.245L63.121 142.711L67.7311 155.729C67.7311 155.729 57.844 153.758 57.873 153.845C57.902 153.903 56.1913 148.51 57.612 144.248C57.873 143.9 55.3505 141.145 54.9735 138.478C54.9156 138.101 54.8866 137.724 54.8576 137.376C54.7416 135.897 56.5682 135.143 57.5251 136.245Z" fill="#FC9F5B"/>
<path d="M67.934 159.035C67.5861 159.035 67.2381 158.803 67.1222 158.426C65.0635 151.612 62.599 143.958 62.1351 143.204C61.9901 142.972 61.1203 141.841 56.6261 136.564C56.4232 136.332 56.1912 136.419 56.1042 136.448C56.0173 136.477 55.8143 136.622 55.8433 136.941C56.1042 138.971 56.7131 141.812 58.1629 143.755C58.3368 143.987 58.3948 144.277 58.3078 144.538C58.2788 144.596 56.8291 149.96 58.5398 153.584C58.7427 154.019 58.5688 154.541 58.1629 154.744C57.7569 154.947 57.235 154.773 57.0321 154.338C55.3214 150.713 56.2492 145.929 56.5971 144.48C55.3794 142.711 54.5675 140.246 54.1906 137.173C54.0746 136.187 54.5675 135.288 55.4374 134.882C56.3072 134.476 57.293 134.679 57.9309 135.433C61.2943 139.377 63.2079 141.667 63.5848 142.247C64.3677 143.436 68.05 155.497 68.7748 157.904C68.9198 158.368 68.6589 158.861 68.2239 159.006C68.108 159.006 68.021 159.035 67.934 159.035Z" fill="#1A1A1A"/>
<path d="M57.7571 128.823C57.4672 128.823 57.2062 128.678 57.0323 128.446L54.4228 124.619C54.1618 124.213 54.2488 123.691 54.6547 123.401C55.0606 123.14 55.5825 123.227 55.8725 123.633L58.482 127.46C58.7429 127.866 58.656 128.388 58.25 128.678C58.0761 128.765 57.9311 128.823 57.7571 128.823Z" fill="white"/>
<path d="M142.015 361.88C141.638 361.88 141.29 361.649 141.174 361.272C135.81 343.73 131.258 323.115 128.794 309.661C125.43 291.395 118.762 286.205 118.704 286.147C118.327 285.857 118.24 285.306 118.53 284.929C118.82 284.552 119.341 284.465 119.747 284.755C120.037 284.958 127.025 290.293 130.533 309.342C132.998 322.738 137.521 343.295 142.885 360.75C143.03 361.214 142.769 361.707 142.305 361.823C142.16 361.881 142.102 361.88 142.015 361.88Z" fill="#FC9F5B"/>
<path d="M180.781 337.67L180.723 337.409C180.752 337.496 180.781 337.583 180.781 337.67Z" fill="#FECE2F"/>
<path d="M167.733 318.621C175.011 323.898 177.475 329.928 179.07 337.989C176.838 325.376 175.881 312.764 176.229 303.862C176.229 303.833 176.229 303.833 176.229 303.804C176.026 304.848 175.272 307.574 173.822 308.444C173.329 308.734 172.778 308.791 172.14 308.589C171.039 308.241 169.734 307.574 168.342 306.878C164.573 305.022 160.688 303.109 158.745 305.486C158.223 306.124 158.02 306.907 158.136 307.806C158.629 311.749 165.617 317.084 167.733 318.621Z" fill="#FC9F5B"/>
<path d="M173.358 377.567C177.736 381.597 182.665 386.178 183.68 390.643C183.912 391.687 183.883 392.876 183.883 394.151C183.825 398.008 183.738 402.792 190.349 407.46C198.206 413.027 204.962 420.276 208.876 427.379C209.804 429.09 210.906 431.438 212.182 434.135C215.835 441.905 220.764 452.43 227.491 460.259C227.578 460.201 227.636 460.172 227.723 460.114C224.243 452.343 192.581 381.307 185.768 363.33C185.362 362.286 184.985 361.214 184.637 360.141C185.13 362.402 185.449 366.433 184.231 367.766C184.028 367.998 183.651 368.288 182.81 368.172C180.955 367.911 178.403 365.998 175.968 364.142C172.256 361.301 168.4 358.401 165.182 359.764C163.529 360.46 162.978 361.591 162.833 362.431C162.311 365.041 164.66 368.897 169.995 374.261C170.952 375.334 172.111 376.407 173.358 377.567Z" fill="#FC9F5B"/>
<path d="M157.991 323.782C154.831 321.056 150.453 318.534 147.843 319.085C147.002 319.259 146.393 319.751 146.045 320.476C144.857 323.028 146.509 326.304 150.945 330.189C153.352 332.306 157.527 334.046 160.224 334.046C161.094 334.046 161.818 333.872 162.253 333.437C162.601 333.118 163.007 332.538 162.978 331.523C162.949 329.378 161.036 326.42 157.991 323.782Z" fill="#FC9F5B"/>
<path d="M157.121 398.095C167.588 424.161 178.519 444.834 185.565 457.156C184.608 455.272 178.345 442.891 177.272 437.382C176.896 435.411 177.185 433.787 178.084 432.975C178.78 432.366 179.766 432.221 180.897 432.569C181.419 432.743 181.999 432.946 182.549 433.178C184.405 433.903 186.319 434.628 187.71 433.729C188.551 433.207 188.986 432.221 189.102 430.742C189.45 425.581 183.274 419.058 170.227 410.823C161.209 405.111 156.657 396.384 155.324 393.456L154.889 392.47C155.614 394.354 156.367 396.21 157.121 398.095Z" fill="#FC9F5B"/>
<path d="M153.265 393.079C153.265 393.108 153.294 393.195 153.352 393.282C153.323 393.224 153.294 393.137 153.265 393.079Z" fill="#FECE2F"/>
<path d="M183.999 457.968L184.115 458.229C184.115 458.113 184.057 458.055 183.999 457.968Z" fill="#FECE2F"/>
<path d="M166.341 423.726L166.428 423.958L166.515 424.132C166.486 424.016 166.428 423.871 166.341 423.726Z" fill="#FECE2F"/>
<path d="M520.828 111.571C520.422 111.571 520.045 111.281 519.987 110.846L515.087 84.4901C515 84.0262 515.319 83.5622 515.783 83.4753C516.247 83.3883 516.711 83.7072 516.798 84.1711L521.698 110.527C521.785 110.991 521.466 111.455 521.002 111.542C520.944 111.571 520.886 111.571 520.828 111.571Z" fill="white"/>
<path d="M523.67 98.0885C523.264 98.0885 522.887 97.7985 522.829 97.3636L520.596 85.3309C520.509 84.867 520.828 84.4031 521.292 84.3161C521.756 84.2291 522.22 84.548 522.307 85.012L524.54 97.0447C524.627 97.5086 524.308 97.9725 523.844 98.0595C523.786 98.0595 523.728 98.0885 523.67 98.0885Z" fill="white"/>
<path d="M526.656 87.7952C526.221 87.7952 525.873 87.4763 525.786 87.0704L524.916 81.4164C524.829 80.9525 525.177 80.4886 525.641 80.4306C526.105 80.3726 526.569 80.6916 526.627 81.1555L527.497 86.8094C527.584 87.2733 527.236 87.7372 526.772 87.7952C526.743 87.7952 526.714 87.7952 526.656 87.7952Z" fill="white"/>
<path d="M442.775 510.39H359.068C358.575 510.39 358.198 510.013 358.198 509.52C358.198 509.028 358.575 508.651 359.068 508.651H442.775C443.268 508.651 443.645 509.028 443.645 509.52C443.645 510.013 443.268 510.39 442.775 510.39Z" fill="#1A1A1A"/>
<path d="M474.872 510.39H450.894C450.401 510.39 450.024 510.013 450.024 509.52C450.024 509.028 450.401 508.651 450.894 508.651H474.872C475.365 508.651 475.742 509.028 475.742 509.52C475.742 510.013 475.336 510.39 474.872 510.39Z" fill="#1A1A1A"/>
<path d="M343.411 510.39H240.973C240.48 510.39 240.103 510.013 240.103 509.52C240.103 509.028 240.48 508.651 240.973 508.651H343.411C343.904 508.651 344.281 509.028 344.281 509.52C344.281 510.013 343.904 510.39 343.411 510.39Z" fill="#1A1A1A"/>
<path d="M152.366 509.23H174.083" stroke="#1A1A1A" stroke-width="6" stroke-miterlimit="10" stroke-linecap="round" stroke-linejoin="round"/>
<path d="M83.3303 509.23H98.4075" stroke="#1A1A1A" stroke-width="6" stroke-miterlimit="10" stroke-linecap="round" stroke-linejoin="round"/>
<path d="M349.065 131.287C348.659 131.287 348.282 130.997 348.195 130.562C347.992 129.344 348.195 128.301 348.804 127.489C349.703 126.3 351.124 126.097 351.269 126.068C351.732 126.01 352.167 126.358 352.225 126.822C352.283 127.286 351.935 127.721 351.471 127.779C351.442 127.779 350.631 127.895 350.167 128.533C349.877 128.939 349.761 129.518 349.906 130.272C349.993 130.736 349.674 131.2 349.181 131.287C349.181 131.287 349.123 131.287 349.065 131.287Z" fill="#1A1A1A"/>
<path d="M427.35 231.086C427.379 231.086 427.379 231.086 427.35 231.086C428.307 230.013 428.8 228.709 428.684 227.462C428.597 226.476 428.162 225.548 427.379 224.794C427.988 224.156 428.452 223.084 428.336 221.953C428.249 220.996 427.698 219.72 425.842 218.734C426.306 218.068 426.451 217.111 426.219 216.125C425.9 214.791 424.827 213.371 422.74 213.313C422.276 213.313 419.579 213.313 417.521 213.342L421.377 210.587C423.436 210.471 424.654 210.355 424.943 210.239C425.32 210.094 425.552 209.746 425.755 209.079C425.784 208.992 426.393 206.963 425.755 206.006C425.03 204.962 420.855 204.034 418.884 204.469C416.912 204.933 412.476 208.238 410.678 209.63C409.054 210.906 403.806 218.3 403.227 219.14C402.995 219.488 403.053 219.952 403.401 220.213C403.546 220.3 403.691 220.358 403.835 220.358C404.067 220.358 404.299 220.242 404.473 220.039C406.039 217.807 410.359 211.834 411.606 210.877C414.389 208.731 417.84 206.296 419.203 206.006C420.797 205.629 423.871 206.47 424.48 206.905C424.596 207.282 424.393 208.383 424.219 208.876C423.668 208.963 422.247 209.05 421.058 209.108C420.913 209.108 420.768 209.166 420.652 209.253L414.621 213.544C414.592 213.544 414.592 213.573 414.592 213.573C414.563 213.602 414.534 213.602 414.534 213.631C414.505 213.66 414.505 213.66 414.476 213.689C414.447 213.718 414.447 213.718 414.418 213.747C414.418 213.776 414.389 213.805 414.389 213.805C414.389 213.834 414.36 213.834 414.36 213.863C414.36 213.892 414.331 213.921 414.331 213.95C414.331 213.979 414.331 214.008 414.302 214.008C414.302 214.037 414.302 214.066 414.302 214.095C414.302 214.124 414.302 214.124 414.302 214.153C414.302 214.182 414.302 214.211 414.302 214.269C414.302 214.298 414.302 214.298 414.302 214.327C414.302 214.356 414.302 214.356 414.331 214.385C414.331 214.414 414.36 214.443 414.36 214.472C414.36 214.472 414.36 214.501 414.389 214.501C414.418 214.53 414.418 214.559 414.447 214.617L414.476 214.646C414.505 214.675 414.505 214.704 414.534 214.733C414.563 214.762 414.563 214.762 414.592 214.762C414.621 214.791 414.621 214.791 414.65 214.82C414.679 214.82 414.679 214.849 414.708 214.849C414.737 214.849 414.766 214.878 414.766 214.878C414.795 214.878 414.824 214.907 414.824 214.907C414.853 214.907 414.882 214.936 414.911 214.936C414.94 214.936 414.969 214.936 414.998 214.936C415.027 214.936 415.027 214.936 415.056 214.936C415.114 214.936 421.928 214.878 422.653 214.878C424.132 214.907 424.567 216.038 424.683 216.502C424.856 217.227 424.683 217.952 424.277 218.155C424.248 218.184 424.219 218.184 424.19 218.213C422.479 217.923 419.521 218.039 418.855 218.068C418.42 218.097 418.101 218.445 418.13 218.879C418.159 219.314 418.507 219.633 418.942 219.604C420.797 219.517 423.726 219.546 424.48 219.836C425.465 220.242 426.683 220.967 426.799 222.127C426.886 222.968 426.393 223.722 426.074 223.925L426.045 223.954C424.683 223.403 422.74 223.287 420.942 223.258C420.739 223.258 420.536 223.258 420.478 223.258C420.043 223.2 419.666 223.519 419.637 223.925C419.579 224.33 419.898 224.736 420.304 224.765C420.42 224.765 420.594 224.794 420.942 224.794C421.957 224.794 425.03 224.852 426.074 225.693C426.741 226.244 427.118 226.882 427.176 227.607C427.205 228.129 427.089 228.709 426.799 229.26C426.422 228.912 425.958 228.622 425.407 228.477C423.813 228.042 421.58 228.651 420.246 229.868C419.695 230.39 418.681 231.086 417.318 231.956C415.491 233.116 413.491 234.073 411.374 234.797L405.372 236.856C404.966 237.001 404.763 237.436 404.908 237.842C405.024 238.161 405.314 238.364 405.633 238.364C405.72 238.364 405.807 238.364 405.894 238.335L411.896 236.276C414.129 235.522 416.216 234.507 418.159 233.29C419.608 232.391 420.652 231.608 421.29 231.028C422.247 230.158 423.929 229.694 425.03 229.984C425.552 230.129 425.9 230.419 426.045 230.883C426.045 230.883 426.045 230.912 426.074 230.912C426.074 230.941 426.103 230.97 426.103 230.999C426.103 231.028 426.132 231.028 426.132 231.057C426.132 231.086 426.161 231.086 426.161 231.115C426.19 231.144 426.19 231.144 426.219 231.173L426.248 231.202C426.248 231.202 426.248 231.202 426.277 231.202C426.306 231.202 426.306 231.231 426.335 231.231C426.364 231.26 426.393 231.26 426.393 231.289C426.422 231.289 426.422 231.318 426.451 231.318C426.48 231.318 426.509 231.347 426.538 231.347C426.567 231.347 426.567 231.347 426.596 231.376C426.625 231.376 426.654 231.376 426.683 231.405C426.712 231.405 426.712 231.405 426.741 231.405H426.77H426.799C426.828 231.405 426.857 231.405 426.886 231.405C426.915 231.405 426.944 231.405 426.973 231.376H427.002C427.002 231.376 427.031 231.376 427.031 231.347C427.06 231.347 427.089 231.318 427.089 231.318C427.118 231.318 427.147 231.289 427.176 231.289C427.205 231.289 427.205 231.26 427.234 231.26C427.263 231.231 427.292 231.231 427.321 231.202C427.321 231.144 427.321 231.115 427.35 231.086C427.35 231.115 427.35 231.086 427.35 231.086Z" fill="#1A1A1A"/>
<path d="M428.336 196.438C428.278 196.177 428.104 195.945 427.872 195.858C427.64 195.742 427.35 195.8 427.118 195.945L424.044 198.09C423.755 198.293 423.639 198.641 423.755 198.96C423.784 199.076 426.944 209.427 419.84 212.878C419.521 213.023 419.347 213.371 419.434 213.718C419.521 214.066 419.782 214.327 420.159 214.327L424.016 214.559C424.045 214.559 424.044 214.559 424.073 214.559C424.276 214.559 424.45 214.501 424.595 214.356C424.711 214.269 427.292 211.892 428.278 208.296C429.553 203.57 428.394 196.728 428.336 196.438Z" fill="#1A1A1A"/>
<path d="M427.611 230.506C427.582 230.448 427.553 230.39 427.495 230.332C427.437 230.187 427.35 230.042 427.234 229.955C426.857 229.694 424.972 228.361 423.552 228.448C422.218 228.506 419.058 230.883 418.043 231.666L413.317 234.189C412.998 234.363 412.824 234.739 412.94 235.087L413.607 237.349C413.636 237.465 413.665 237.581 413.723 237.668V237.697L413.752 237.726C413.752 237.755 413.781 237.755 413.781 237.784C414.07 238.248 414.65 238.48 415.491 238.48C415.926 238.48 416.448 238.422 417.028 238.277C418.42 237.958 420.159 237.291 421.899 236.392C422.595 236.102 428.8 232.797 427.611 230.506ZM421.174 235.087C418.304 236.595 416.071 237.088 415.288 237.001C415.317 236.914 415.346 236.798 415.375 236.682C415.955 235.928 417.579 234.537 420.188 233.174C422.508 231.956 424.393 231.405 425.465 231.289C425.697 231.289 425.958 231.318 426.161 231.318C425.784 231.985 424.103 233.551 421.174 235.087Z" fill="#1A1A1A"/>
</svg>
