<svg width="349" height="295" viewBox="0 0 349 295" fill="none" xmlns="http://www.w3.org/2000/svg">
<path d="M193.318 201.985C193.447 201.985 193.576 201.953 193.704 201.889C194.187 201.663 194.413 201.116 194.187 200.633L183.044 175.092L194.574 124.366C194.703 123.851 194.381 123.336 193.833 123.207C193.318 123.078 192.803 123.4 192.674 123.948L181.079 174.996C181.047 175.189 181.047 175.414 181.144 175.608L192.416 201.438C192.577 201.76 192.931 201.985 193.318 201.985Z" fill="#1A1A1A"/>
<path d="M194.253 209.94L199.277 207.718C201.306 206.816 202.208 204.432 201.338 202.436L197.667 194.158C196.765 192.129 194.382 191.228 192.385 192.097L187.36 194.32C185.331 195.221 184.43 197.605 185.299 199.601L188.971 207.879C189.84 209.908 192.224 210.842 194.253 209.94Z" fill="#1A1A1A"/>
<path d="M199.084 189.135C201.66 187.138 204.72 185.882 208.07 185.367C209.938 183.177 213.287 182.307 215.574 180.536C230.292 169.167 259.633 182.468 281.147 210.263C302.661 238.058 308.201 269.814 293.483 281.215C290.455 283.534 283.949 287.077 278.474 288.526C277.991 288.977 277.508 289.428 276.993 289.814C262.274 301.183 232.933 287.882 211.419 260.087C189.905 232.26 184.398 200.504 199.084 189.135Z" fill="#FC9F5B"/>
<path d="M277.442 57.0856C277.668 57.6653 277.861 58.2773 278.312 58.6959C279.149 59.5011 280.502 59.4367 281.661 59.3401C284.882 59.018 288.328 58.5027 290.647 56.2804C291.195 55.7329 291.678 55.121 292.354 54.7345C292.837 54.4446 293.385 54.3158 293.868 54.0904C295.575 53.2852 296.541 51.3528 296.605 49.4525C296.67 47.5845 295.993 45.7487 295.092 44.074C294.19 42.4314 293.063 40.8855 292.193 39.2429C291.839 38.5666 291.484 37.858 290.84 37.4394C290.357 37.1173 289.777 37.0207 289.23 36.9884C286.814 36.763 284.431 37.4393 282.209 38.3734C280.405 39.1141 278.698 40.0159 277.056 41.1109C276.025 41.7873 273.094 43.3654 272.933 44.6537C272.837 45.3945 273.674 46.7472 273.932 47.4235C274.318 48.5185 274.705 49.5814 275.123 50.6764C275.864 52.7699 276.637 54.9277 277.442 57.0856Z" fill="white"/>
<path d="M254.959 90.3993C253.695 86.6207 269.723 77.8542 290.758 70.8188C311.793 63.7834 329.87 61.1433 331.134 64.9219C332.398 68.7005 316.37 77.467 295.335 84.5024C274.3 91.5378 256.223 94.1779 254.959 90.3993Z" fill="white"/>
<path d="M328.522 60.2421C330.551 60.3387 332.58 60.4353 334.577 60.693C335.576 60.8218 336.542 60.9828 337.476 61.2405C338.41 61.4981 339.344 61.788 340.085 62.2389C340.439 62.4644 340.761 62.722 340.986 63.0119C341.083 63.1407 341.18 63.3017 341.212 63.4306C341.276 63.5916 341.276 63.7204 341.308 63.8814C341.341 64.4934 340.986 65.2986 340.471 66.0071C339.956 66.7479 339.312 67.4242 338.603 68.0684C337.895 68.7125 337.122 69.3244 336.349 69.9364C334.77 71.128 333.096 72.2231 331.389 73.2537C329.682 74.3165 327.943 75.2827 326.171 76.2811C322.628 78.2135 319.021 80.0494 315.414 81.9496C319.376 80.9189 323.208 79.534 326.976 77.8593C328.844 77.0219 330.68 76.1201 332.484 75.1217C333.386 74.6064 334.255 74.0911 335.157 73.5435C336.027 72.9638 336.896 72.3841 337.733 71.7722C339.376 70.4839 341.019 69.1312 342.275 67.231C342.565 66.7479 342.854 66.2326 343.08 65.6528C343.273 65.0731 343.402 64.3968 343.305 63.6882C343.241 63.3339 343.176 62.9797 343.015 62.6898C342.854 62.3677 342.661 62.0779 342.436 61.8202C341.985 61.3371 341.469 60.9828 340.954 60.7252C340.439 60.4675 339.891 60.2743 339.376 60.1455C338.861 59.9844 338.313 59.8878 337.798 59.8234C336.735 59.6946 335.704 59.6301 334.674 59.6301C332.58 59.6623 330.519 59.8556 328.522 60.2421Z" fill="white"/>
<path d="M252.416 86.4586C252.287 85.8788 252.513 85.2991 252.803 84.816C253.093 84.3329 253.479 83.9142 253.898 83.4955C254.735 82.7226 255.669 82.014 256.635 81.3699C257.602 80.7257 258.6 80.1138 259.631 79.5663C260.661 79.0188 261.692 78.439 262.722 77.9237C266.909 75.8303 271.225 73.9623 275.541 72.2231C279.889 70.4517 284.301 68.8091 288.713 67.1988C293.126 65.5884 297.603 64.0747 302.079 62.4966C297.377 63.1407 292.739 64.2358 288.166 65.524C283.593 66.8123 279.084 68.3583 274.703 70.1296C270.291 71.9332 265.975 73.93 261.885 76.3778C259.824 77.6016 257.827 78.9221 255.991 80.4681C255.089 81.241 254.188 82.0784 253.447 83.0446C253.093 83.5277 252.738 84.043 252.513 84.6228C252.287 85.2347 252.159 85.9111 252.416 86.4586Z" fill="white"/>
<path d="M272.804 213.773C254.929 190.681 231.611 177.573 215.797 180.342C230.58 169.231 259.76 182.565 281.178 210.231C302.692 238.025 308.231 269.781 293.513 281.182C290.711 283.373 284.817 286.593 279.599 288.171C281.854 286.98 283.819 285.756 285.139 284.725C299.858 273.356 294.318 241.568 272.804 213.773Z" fill="white"/>
<path d="M228.36 188.877C236.733 192.484 245.558 198.571 253.835 206.687L224.108 274.032C219.696 269.909 215.412 265.239 211.419 260.086C208.552 256.382 205.976 252.614 203.689 248.814L228.36 188.877Z" fill="white"/>
<path d="M280.279 245.947L259.828 293.549C253.837 292.743 247.267 290.296 240.568 286.399L268.073 223.499C273.322 230.971 277.413 238.604 280.279 245.947Z" fill="white"/>
<path d="M264.042 294.837C269.324 294.837 273.929 293.42 277.601 290.554C285.009 284.821 287.778 274.064 285.363 260.311C283.012 246.752 275.926 231.84 265.427 218.249C254.927 204.658 242.238 194.094 229.709 188.425C216.988 182.66 205.876 182.628 198.469 188.361C191.061 194.094 188.291 204.851 190.707 218.603C193.058 232.162 200.143 247.074 210.643 260.666C221.142 274.225 233.832 284.821 246.36 290.489C252.77 293.388 258.728 294.837 264.042 294.837ZM212.092 186.01C217.116 186.01 222.817 187.395 228.936 190.164C241.175 195.704 253.607 206.107 263.913 219.441C285.073 246.784 290.677 277.993 276.409 289.04C262.142 300.087 233.349 286.818 212.189 259.506C201.883 246.172 194.926 231.55 192.639 218.313C190.385 205.27 192.865 195.189 199.692 189.939C203.042 187.298 207.229 186.01 212.092 186.01Z" fill="#1A1A1A"/>
<path d="M260.759 285.497C264.27 285.497 267.297 284.563 269.745 282.695C275.188 278.476 276.798 270.038 274.286 258.991C271.806 248.169 265.655 236.06 256.991 224.819C248.295 213.611 238.086 204.593 228.263 199.505C218.182 194.287 209.647 193.74 204.172 197.959C198.697 202.178 197.118 210.616 199.631 221.663C202.111 232.485 208.262 244.594 216.926 255.835C225.622 267.043 235.831 276.061 245.654 281.149C251.258 284.016 256.379 285.497 260.759 285.497ZM213.158 197.057C217.216 197.057 222.047 198.442 227.361 201.212C236.958 206.204 246.943 214.996 255.445 225.979C263.948 236.961 269.971 248.846 272.386 259.377C274.737 269.651 273.385 277.381 268.554 281.117C263.722 284.853 255.896 284.241 246.556 279.378C236.958 274.386 226.974 265.593 218.472 254.611C209.969 243.596 203.946 231.744 201.531 221.212C199.18 210.938 200.532 203.208 205.363 199.472C207.425 197.862 210.066 197.057 213.158 197.057Z" fill="#1A1A1A"/>
<path d="M204.752 198.7C204.913 198.571 205.042 198.474 205.203 198.377C199.083 208.909 205.428 231.068 221.177 251.39C238.698 274.032 261.339 285.98 272.193 278.412C271.388 279.797 270.389 280.956 269.166 281.922C258.537 290.167 235.477 278.218 217.699 255.223C199.921 232.227 194.123 206.944 204.752 198.7Z" fill="#1A1A1A"/>
<path d="M275.06 292.068C275.221 292.068 275.382 292.036 275.543 291.939L296.413 280.313C296.542 280.248 296.638 280.152 296.703 280.055C307.299 266.174 301.791 237.316 283.627 211.422C275.092 199.248 264.464 188.941 253.771 182.436C243.11 175.93 232.804 173.45 224.752 175.447C224.688 175.447 224.624 175.479 224.559 175.511L203.496 185.399C203.013 185.624 202.819 186.204 203.045 186.687C203.27 187.17 203.85 187.363 204.333 187.138L225.3 177.283C241.146 173.418 264.979 188.233 282.016 212.517C290.648 224.788 296.671 238.315 298.989 250.586C301.244 262.47 299.923 272.454 295.253 278.702L274.544 290.232C274.093 290.49 273.9 291.07 274.158 291.553C274.383 291.875 274.705 292.068 275.06 292.068Z" fill="#1A1A1A"/>
<path d="M216.058 186.203C216.187 186.203 216.348 186.171 216.477 186.107L225.205 181.952L235.157 177.282C235.64 177.056 235.833 176.477 235.608 175.994C235.382 175.511 234.802 175.317 234.319 175.543L224.367 180.213L215.639 184.367C215.156 184.593 214.963 185.173 215.188 185.656C215.349 185.978 215.704 186.203 216.058 186.203Z" fill="#1A1A1A"/>
<path d="M227.974 189.746C228.103 189.746 228.264 189.714 228.392 189.65L237.056 185.592L247.008 180.922C247.491 180.696 247.684 180.117 247.459 179.634C247.233 179.15 246.654 178.957 246.171 179.183L236.219 183.853L227.555 187.911C227.072 188.136 226.879 188.716 227.104 189.199C227.265 189.521 227.619 189.746 227.974 189.746Z" fill="#1A1A1A"/>
<path d="M237.376 194.545C237.504 194.545 237.665 194.512 237.794 194.448L256.088 185.849C256.571 185.623 256.764 185.044 256.539 184.561C256.313 184.077 255.733 183.884 255.25 184.11L236.957 192.709C236.474 192.934 236.28 193.514 236.506 193.997C236.667 194.351 237.021 194.545 237.376 194.545Z" fill="#1A1A1A"/>
<path d="M244.527 199.44C244.656 199.44 244.817 199.408 244.945 199.344L263.014 190.97C263.497 190.744 263.722 190.165 263.497 189.682C263.271 189.198 262.692 188.973 262.208 189.198L244.14 197.572C243.657 197.798 243.432 198.377 243.657 198.861C243.818 199.215 244.173 199.44 244.527 199.44Z" fill="#1A1A1A"/>
<path d="M252.386 205.72C252.514 205.72 252.643 205.688 252.804 205.623L270.808 197.314C271.291 197.089 271.516 196.509 271.291 196.026C271.066 195.543 270.486 195.317 270.003 195.543L251.999 203.852C251.516 204.078 251.291 204.657 251.516 205.14C251.677 205.495 252.031 205.72 252.386 205.72Z" fill="#1A1A1A"/>
<path d="M258.665 211.518C258.793 211.518 258.955 211.485 259.083 211.421L275.638 203.627C276.121 203.401 276.314 202.822 276.089 202.339C275.863 201.855 275.283 201.662 274.8 201.888L258.246 209.682C257.763 209.907 257.57 210.487 257.795 210.97C257.956 211.324 258.278 211.518 258.665 211.518Z" fill="#1A1A1A"/>
<path d="M264.755 218.443C264.884 218.443 265.045 218.41 265.174 218.346L281.374 210.777C281.857 210.552 282.082 209.972 281.857 209.489C281.631 209.006 281.052 208.781 280.569 209.006L264.368 216.575C263.885 216.8 263.66 217.38 263.885 217.863C264.046 218.217 264.401 218.443 264.755 218.443Z" fill="#1A1A1A"/>
<path d="M269.295 225.077C269.424 225.077 269.585 225.045 269.714 224.98L285.882 217.38C286.365 217.154 286.558 216.574 286.333 216.091C286.107 215.608 285.527 215.415 285.044 215.64L268.876 223.241C268.393 223.467 268.2 224.046 268.425 224.529C268.586 224.852 268.941 225.077 269.295 225.077Z" fill="#1A1A1A"/>
<path d="M273.128 231.872C273.257 231.872 273.418 231.84 273.547 231.776L290.101 224.046C290.584 223.821 290.81 223.241 290.584 222.758C290.359 222.275 289.779 222.049 289.296 222.275L272.742 230.004C272.259 230.23 272.033 230.809 272.259 231.293C272.42 231.647 272.774 231.872 273.128 231.872Z" fill="#1A1A1A"/>
<path d="M277.09 239.184C277.219 239.184 277.38 239.151 277.508 239.087L293.709 231.357C294.192 231.132 294.385 230.552 294.159 230.069C293.934 229.586 293.354 229.393 292.871 229.618L276.671 237.348C276.188 237.573 275.995 238.153 276.22 238.636C276.381 238.99 276.703 239.184 277.09 239.184Z" fill="#1A1A1A"/>
<path d="M280.214 246.43C280.342 246.43 280.503 246.398 280.632 246.334L296.832 238.604C297.315 238.378 297.509 237.799 297.283 237.316C297.058 236.833 296.478 236.639 295.995 236.865L279.795 244.594C279.312 244.82 279.119 245.4 279.344 245.883C279.505 246.237 279.859 246.43 280.214 246.43Z" fill="#1A1A1A"/>
<path d="M282.724 253.58C282.853 253.58 283.014 253.548 283.143 253.484L299.053 245.915C299.536 245.689 299.73 245.11 299.504 244.627C299.279 244.144 298.699 243.95 298.216 244.176L282.306 251.744C281.823 251.97 281.629 252.55 281.855 253.033C282.016 253.387 282.338 253.58 282.724 253.58Z" fill="#1A1A1A"/>
<path d="M284.528 261.31C284.657 261.31 284.818 261.277 284.946 261.213L300.857 253.644C301.34 253.419 301.533 252.839 301.308 252.356C301.082 251.873 300.502 251.68 300.019 251.905L284.109 259.474C283.626 259.699 283.433 260.279 283.658 260.762C283.819 261.116 284.141 261.31 284.528 261.31Z" fill="#1A1A1A"/>
<path d="M285.267 269.265C285.396 269.265 285.557 269.232 285.686 269.168L301.274 261.793C301.757 261.567 301.951 260.987 301.725 260.504C301.5 260.021 300.92 259.828 300.437 260.053L284.849 267.429C284.366 267.654 284.172 268.234 284.398 268.717C284.559 269.071 284.913 269.265 285.267 269.265Z" fill="#1A1A1A"/>
<path d="M284.978 275.964C285.107 275.964 285.268 275.932 285.397 275.867L300.985 268.138C301.468 267.912 301.661 267.332 301.436 266.849C301.21 266.366 300.631 266.173 300.148 266.398L284.559 274.128C284.076 274.354 283.883 274.933 284.109 275.416C284.27 275.771 284.624 275.964 284.978 275.964Z" fill="#1A1A1A"/>
<path d="M283.013 283.114C283.174 283.114 283.303 283.082 283.464 283.017L299.149 275.062C299.632 274.837 299.825 274.225 299.567 273.774C299.31 273.291 298.73 273.098 298.279 273.355L282.594 281.31C282.111 281.536 281.918 282.148 282.176 282.599C282.305 282.921 282.659 283.114 283.013 283.114Z" fill="#1A1A1A"/>
<path d="M297.538 74.9287L300.63 82.8194L289.808 87.1996L286.716 79.3089" fill="white"/>
<path d="M289.81 88.1656C289.938 88.1656 290.067 88.1333 290.164 88.1011L300.985 83.721C301.468 83.5278 301.726 82.9802 301.533 82.4649L298.441 74.5742C298.248 74.0911 297.7 73.8334 297.185 74.0267C296.702 74.2199 296.444 74.7675 296.637 75.2828L299.375 82.2717L290.325 85.9111L287.587 78.9544C287.394 78.4712 286.846 78.2136 286.331 78.4068C285.848 78.6001 285.59 79.1476 285.784 79.6629L288.876 87.5536C288.972 87.7791 289.165 87.9723 289.391 88.1011C289.552 88.1333 289.681 88.1656 289.81 88.1656Z" fill="#1A1A1A"/>
<path d="M289.813 87.1222C289.479 86.2977 291.615 84.6564 294.584 83.4564C297.552 82.2564 300.229 81.952 300.562 82.7766C300.895 83.6011 298.759 85.2423 295.791 86.4423C292.823 87.6424 290.146 87.9467 289.813 87.1222Z" fill="white"/>
<path d="M291.098 88.5511C292.998 88.5511 295.478 87.6171 296.154 87.3272C297.668 86.7153 299.053 85.9745 300.019 85.2337C301.34 84.2353 301.823 83.2691 301.469 82.3995C300.535 80.145 295.285 82.1419 294.222 82.5606C293.159 82.9793 287.974 85.2015 288.908 87.4882C289.198 88.2934 290.067 88.5511 291.098 88.5511ZM299.311 83.2691C298.731 83.8166 297.443 84.7184 295.414 85.5236C293.385 86.3288 291.839 86.6187 291.034 86.6187C291.613 86.0711 292.902 85.1693 294.931 84.3642C296.96 83.5268 298.538 83.2691 299.311 83.2691Z" fill="#1A1A1A"/>
<path d="M286.717 79.3086C286.395 78.4712 288.52 76.8287 291.516 75.637C294.511 74.4454 297.184 74.1233 297.506 74.9607" fill="white"/>
<path d="M285.815 79.6628L287.619 78.9543C287.683 79.0831 287.651 79.1797 287.651 79.2119C287.78 78.8254 289.197 77.6016 291.87 76.5387C294.543 75.4759 296.411 75.3471 296.766 75.5403C296.734 75.5403 296.637 75.4759 296.605 75.3149L298.408 74.6063C297.474 72.3518 292.225 74.3487 291.162 74.7674C289.648 75.3793 288.263 76.12 287.297 76.8608C285.976 77.8592 285.493 78.7932 285.815 79.6628Z" fill="#1A1A1A"/>
<path d="M203.368 104.237C204.108 103.11 205.268 102.337 206.588 102.08L289.843 79.4381C290.681 79.2448 291.518 79.6635 291.808 80.4687C291.969 80.8874 291.937 81.3705 291.744 81.7892C291.55 82.2079 291.196 82.4977 290.777 82.6587L206.492 111.194H206.427C206.427 111.194 206.234 111.226 205.976 111.226C205.171 111.226 203.496 110.872 202.756 108.231C202.724 108.134 202.691 108.038 202.691 107.941C202.401 106.685 202.627 105.365 203.368 104.237Z" fill="#1A1A1A"/>
<path d="M11.2782 114.671C9.41085 103.82 34.5982 90.4288 67.5358 84.7604C100.473 79.092 128.688 83.293 130.556 94.1436C132.423 104.994 107.236 118.385 74.298 124.054C41.3605 129.722 13.1455 125.521 11.2782 114.671Z" fill="white"/>
<path d="M51.8976 120.34C55.5047 120.888 59.1441 121.113 62.7835 121.113C66.4229 121.113 70.0945 120.888 73.7339 120.469C77.3733 120.082 80.9804 119.438 84.5876 118.633C86.3912 118.247 88.1626 117.764 89.934 117.28C91.7054 116.765 93.4445 116.185 95.2159 115.573C96.9551 114.929 98.6621 114.253 100.369 113.48C102.076 112.707 103.719 111.87 105.361 110.903C106.971 109.937 108.582 108.874 110.063 107.618C110.804 107.006 111.513 106.298 112.189 105.557C112.35 105.364 112.511 105.171 112.672 104.977C112.833 104.784 112.994 104.591 113.155 104.365L113.606 103.721L114.025 103.045C114.54 102.111 114.959 101.048 115.088 99.8565C115.216 98.697 115.023 97.4409 114.508 96.4103C114.025 95.3475 113.284 94.5101 112.511 93.8338C112.318 93.6727 112.092 93.5117 111.899 93.3507C111.706 93.1896 111.48 93.0608 111.287 92.932C111.062 92.8031 110.869 92.6743 110.643 92.5455L109.999 92.2234C108.26 91.3538 106.456 90.8707 104.653 90.4843C102.849 90.13 101.013 89.9367 99.2096 89.8723C100.949 90.4198 102.656 91.0318 104.298 91.7081C105.103 92.0624 105.909 92.4167 106.682 92.8354C107.068 93.0286 107.455 93.254 107.809 93.4795C108.163 93.7049 108.55 93.9304 108.872 94.1881C109.58 94.6712 110.16 95.2187 110.707 95.7662C111.223 96.3459 111.577 96.9579 111.77 97.5698C111.964 98.1817 111.996 98.7936 111.835 99.4056C111.674 100.017 111.352 100.629 110.965 101.241C110.128 102.465 108.904 103.56 107.583 104.526C106.231 105.493 104.781 106.394 103.268 107.2C101.754 108.005 100.176 108.778 98.5654 109.454C96.9551 110.13 95.3448 110.775 93.67 111.387C92.0275 111.998 90.3527 112.546 88.6457 113.061C87.8083 113.319 86.971 113.577 86.1014 113.834C85.264 114.06 84.3944 114.317 83.557 114.543C81.85 115.026 80.1109 115.445 78.4039 115.863C76.6647 116.25 74.9255 116.669 73.1864 117.023C66.1974 118.44 59.1119 119.535 51.8976 120.34Z" fill="#FC9F5B"/>
<path d="M81.3991 89.8398C78.4361 89.4533 75.473 89.3244 72.4778 89.3889C69.4825 89.4211 66.5195 89.6465 63.5565 90.0008C57.6304 90.7416 51.7365 92.062 46.0681 94.0911C44.651 94.6064 43.2339 95.1539 41.849 95.7658C40.4641 96.3778 39.0792 97.0541 37.7587 97.7949C36.406 98.5356 35.0855 99.3408 33.8294 100.275C32.5734 101.209 31.3495 102.239 30.2545 103.463C29.9646 103.753 29.707 104.107 29.4493 104.43C29.1916 104.752 28.9662 105.138 28.7407 105.46L28.4187 106.04L28.2576 106.33L28.1288 106.652C28.0322 106.845 27.9356 107.07 27.8712 107.264L27.6779 107.908C27.6135 108.133 27.5813 108.359 27.5491 108.584C27.5169 108.81 27.4847 109.035 27.4847 109.293C27.4847 109.518 27.4847 109.776 27.4847 110.001C27.5169 110.227 27.5491 110.484 27.5813 110.71C27.7423 111.644 28.161 112.513 28.7085 113.19C29.256 113.898 29.868 114.446 30.5443 114.897C31.2207 115.348 31.897 115.734 32.6378 115.992C34.0549 116.572 35.5364 116.926 37.0179 117.151C36.3738 116.797 35.6975 116.475 35.0855 116.088C34.4414 115.734 33.8617 115.315 33.2819 114.897C32.7022 114.478 32.1869 114.027 31.7038 113.544C31.2529 113.061 30.8342 112.546 30.5765 111.998C30.029 110.903 30.0935 109.84 30.5443 108.842L30.7376 108.455L30.963 108.069L31.0597 107.876L31.1885 107.682L31.4461 107.328C31.6716 107.103 31.8648 106.845 32.0903 106.62C32.3479 106.394 32.5412 106.169 32.7988 105.943C34.7957 104.204 37.2112 102.787 39.7555 101.563C40.3997 101.241 41.0438 100.951 41.6558 100.661C42.2999 100.371 42.944 100.082 43.6204 99.8239C44.9409 99.2764 46.2613 98.7611 47.614 98.278C52.9926 96.3456 58.5644 94.7674 64.2006 93.4147C69.8368 92.0942 75.5696 90.967 81.3991 89.8398Z" fill="#FC9F5B"/>
<path d="M16.6317 96.1846C13.5399 97.5695 10.5769 99.3409 7.83926 101.467C7.16292 102.014 6.48654 102.562 5.87461 103.173C5.23047 103.785 4.61855 104.397 4.03883 105.074C2.87938 106.426 1.84876 107.908 1.108 109.615C0.367241 111.29 -0.0836639 113.222 0.0129585 115.154C0.109577 117.087 0.721527 118.987 1.71994 120.63C2.71836 122.272 4.03885 123.625 5.42374 124.784C6.84085 125.944 8.38678 126.878 9.93272 127.715C11.5109 128.52 13.1534 129.197 14.796 129.809C16.4385 130.388 18.1133 130.871 19.8202 131.29C20.6576 131.483 21.495 131.677 22.3646 131.838C22.7833 131.934 23.202 131.999 23.6529 132.095L24.9412 132.289C25.7785 132.417 26.6481 132.546 27.4855 132.643C28.3551 132.739 29.1925 132.836 30.0621 132.901C36.8899 133.48 43.7822 133.287 50.5135 132.289C43.7178 131.934 36.9866 131.451 30.3841 130.388C27.0668 129.873 23.8139 129.165 20.6254 128.295C17.4369 127.393 14.345 126.298 11.4786 124.817C10.0615 124.076 8.67661 123.238 7.48495 122.272C6.26109 121.306 5.19828 120.211 4.3609 118.987C3.55572 117.763 3.07263 116.378 2.87938 114.929C2.75056 113.48 2.97601 111.998 3.49133 110.549C4.00664 109.1 4.81181 107.715 5.74581 106.394C6.67981 105.074 7.77482 103.85 8.93427 102.658C11.221 100.243 13.8941 98.1814 16.6317 96.1846Z" fill="white"/>
<path d="M131.513 89.4861C131.448 88.5843 131.223 87.6503 130.804 86.8129C130.386 85.9755 129.838 85.2025 129.194 84.494C127.906 83.1091 126.328 82.014 124.685 81.1123C121.4 79.3087 117.793 78.1492 114.218 77.2796C110.611 76.4423 106.939 75.8947 103.267 75.5405C101.432 75.3794 99.5958 75.2506 97.76 75.1862C95.9242 75.1218 94.0884 75.0896 92.2204 75.1218C84.845 75.1862 77.534 75.8947 70.2874 77.1508C63.0731 78.4069 55.9231 80.1783 49.0631 82.7226C56.2774 81.4987 63.4596 80.4359 70.6417 79.6629C77.8239 78.9222 85.0382 78.4391 92.2526 78.3747C94.0562 78.3425 95.8597 78.3747 97.6633 78.4069C99.4669 78.4391 101.271 78.5357 103.042 78.6323C104.846 78.7289 106.617 78.89 108.42 79.0832C110.192 79.2765 111.963 79.5019 113.735 79.7918C117.245 80.4037 120.756 81.2089 124.041 82.5616C125.683 83.2379 127.229 84.0753 128.614 85.1703C129.935 86.2332 131.094 87.6825 131.513 89.4861Z" fill="white"/>
<path d="M39.7134 146.369C38.8659 142.476 55.748 135.495 77.4207 130.778C99.0933 126.06 117.349 125.391 118.197 129.284C119.044 133.177 102.162 140.158 80.4896 144.876C58.817 149.594 40.5609 150.262 39.7134 146.369Z" fill="white"/>
<path d="M45.7126 138.473C43.7479 139.02 41.8155 139.761 39.9797 140.663C39.0457 141.114 38.1439 141.629 37.2743 142.241C36.8234 142.531 36.4047 142.885 36.0183 143.239C35.5996 143.594 35.2131 144.012 34.8588 144.463C34.5045 144.946 34.2147 145.462 34.0214 146.106C33.9248 146.428 33.8926 146.782 33.8926 147.136C33.8926 147.491 33.9892 147.845 34.0858 148.167C34.3113 148.843 34.73 149.359 35.1809 149.809C35.6318 150.26 36.1149 150.55 36.598 150.872C38.5626 152 40.656 152.483 42.7173 152.869C43.7479 153.062 44.7785 153.191 45.8092 153.288C46.8398 153.384 47.8704 153.481 48.901 153.513C50.9623 153.61 53.0235 153.578 55.0526 153.481C59.1429 153.288 63.2009 152.773 67.1946 151.903C63.1043 151.839 59.0784 151.839 55.0204 151.71C53.0235 151.613 50.9945 151.549 48.9976 151.355C47.0008 151.194 45.0362 150.969 43.0716 150.615C42.1053 150.454 41.1392 150.228 40.2052 149.971C39.2712 149.713 38.3693 149.391 37.5964 148.972C36.8234 148.553 36.1471 148.006 35.8894 147.426C35.825 147.265 35.7928 147.136 35.7606 146.975C35.7606 146.814 35.7606 146.653 35.7928 146.492C35.8572 146.138 36.0182 145.784 36.2437 145.397C36.6946 144.656 37.4032 143.98 38.1117 143.336C38.8525 142.692 39.6576 142.112 40.4628 141.532C42.1698 140.469 43.9412 139.471 45.7126 138.473Z" fill="white"/>
<path d="M125.459 127.491C125.427 126.879 125.04 126.332 124.589 125.945C124.138 125.527 123.591 125.237 123.043 124.947C121.948 124.432 120.789 124.077 119.597 123.787C117.246 123.24 114.863 122.95 112.479 122.789C107.713 122.467 102.946 122.596 98.2118 122.982C93.4774 123.369 88.7751 124.045 84.1051 124.947C79.4351 125.849 74.8295 127.008 70.3528 128.522C75.055 127.91 79.725 127.266 84.395 126.686C89.065 126.139 93.735 125.623 98.405 125.205C103.075 124.818 107.745 124.528 112.447 124.496C113.607 124.496 114.766 124.528 115.958 124.56C117.117 124.593 118.277 124.689 119.436 124.818C120.596 124.947 121.723 125.14 122.85 125.462C123.398 125.623 123.945 125.849 124.428 126.139C124.847 126.493 125.298 126.911 125.459 127.491Z" fill="white"/>
<path d="M73.6352 137.797L75.0201 146.139L86.5502 144.367L85.1653 135.994" fill="white"/>
<path d="M75.0231 147.105C75.0875 147.105 75.1197 147.105 75.1841 147.105L86.7142 145.334C86.9719 145.301 87.1973 145.14 87.3583 144.947C87.5194 144.754 87.5838 144.464 87.5194 144.239L86.1345 135.897C86.0379 135.382 85.5548 135.027 85.0073 135.092C84.492 135.188 84.1377 135.672 84.2021 136.219L85.4259 143.594L75.7961 145.076L74.5722 137.668C74.4756 137.153 73.9925 136.799 73.445 136.863C72.9296 136.96 72.5754 137.443 72.6398 137.99L74.0247 146.332C74.1535 146.783 74.54 147.105 75.0231 147.105Z" fill="black"/>
<path d="M75.0936 146.102C74.9581 145.223 77.4134 144.115 80.5777 143.627C83.7419 143.139 86.417 143.456 86.5525 144.335C86.688 145.214 84.2328 146.322 81.0685 146.81C77.9042 147.298 75.2292 146.981 75.0936 146.102Z" fill="white"/>
<path d="M78.1784 147.975C79.4989 147.975 80.7228 147.814 81.2059 147.749C82.3332 147.588 87.8727 146.59 87.5185 144.174C87.3896 143.24 86.4557 142.693 84.8131 142.5C83.5892 142.371 82.0433 142.403 80.4329 142.661C78.8226 142.918 77.3089 143.337 76.1816 143.82C74.6679 144.496 73.9593 145.302 74.1204 146.236C74.3136 147.621 76.3427 147.975 78.1784 147.975ZM85.2318 144.496C84.5554 144.915 83.0739 145.463 80.916 145.817C78.7582 146.139 77.18 146.042 76.4071 145.849C77.0834 145.43 78.5649 144.883 80.7228 144.529C82.8807 144.207 84.4588 144.335 85.2318 144.496Z" fill="#1A1A1A"/>
<path d="M85.166 136.025C85.0372 135.156 82.364 134.834 79.1755 135.317C76.0192 135.8 73.5393 136.927 73.6681 137.797" fill="white"/>
<path d="M72.7341 137.926L74.6343 137.636C74.6665 137.765 74.6021 137.861 74.6021 137.894C74.8275 137.539 76.4701 136.702 79.3365 136.251C82.1707 135.8 84.0387 136.122 84.3286 136.38C84.2964 136.348 84.232 136.283 84.1998 136.122L86.1 135.832C85.9711 134.898 85.0371 134.351 83.3946 134.158C82.1707 134.029 80.6248 134.061 79.0144 134.319C77.4041 134.576 75.8903 134.995 74.7631 135.478C73.2816 136.187 72.5731 137.024 72.7341 137.926Z" fill="#1A1A1A"/>
<path d="M82.5577 137.732L165.684 114.575C166.94 114.124 168.357 114.189 169.581 114.801C170.773 115.38 171.642 116.379 172.061 117.635C172.093 117.732 172.125 117.828 172.157 117.925C173.124 121.5 170.547 122.337 170.515 122.369H170.483L83.4272 140.985C83.2984 141.017 83.1696 141.017 83.0408 141.017C82.7187 141.017 82.3966 140.921 82.139 140.727C81.7525 140.47 81.4948 140.083 81.4304 139.632C81.2372 138.795 81.7525 137.99 82.5577 137.732Z" fill="#1A1A1A"/>
<path d="M144.267 93.7059C145.007 92.1277 146.328 90.9682 147.971 90.3885L207.779 69.4218C211.161 68.2301 214.897 70.0337 216.088 73.4155L219.373 82.7555C219.47 82.9809 219.567 83.1742 219.631 83.3996L229.1 110.453C229.68 112.096 229.583 113.867 228.81 115.413C228.069 116.991 226.749 118.151 225.106 118.731L165.33 139.697C164.622 139.955 163.881 140.052 163.172 140.052C160.499 140.052 157.955 138.377 157.021 135.704L153.736 126.364C153.639 126.17 153.542 125.945 153.478 125.72L144.009 98.6657C143.429 97.0232 143.526 95.2518 144.267 93.7059ZM145.813 98.0216L147.81 103.69C147.81 103.69 147.81 103.69 147.81 103.658C148.55 102.08 149.871 100.92 151.513 100.34L211.322 79.406C212.996 78.8262 214.736 78.9551 216.217 79.6636L214.252 74.0596C213.608 72.1916 211.805 70.9999 209.937 70.9999C209.421 70.9999 208.938 71.0966 208.423 71.2576L148.647 92.2243C147.487 92.643 146.553 93.4482 146.038 94.5754C145.523 95.7027 145.426 96.8943 145.813 98.0216Z" fill="#1A1A1A"/>
<path d="M223.722 101.113C224.14 102.273 224.044 103.497 223.529 104.624C223.013 105.751 222.079 106.556 220.92 106.975L161.144 127.942C158.76 128.779 156.152 127.523 155.314 125.14L145.845 98.0858C145.427 96.9264 145.523 95.7025 146.039 94.5752C146.554 93.448 147.488 92.6428 148.647 92.2241L208.423 71.2574C208.907 71.0964 209.422 70.9998 209.937 70.9998C211.837 70.9998 213.609 72.1914 214.253 74.0594L223.722 101.113Z" fill="white"/>
<path d="M73.8306 107.78L165.524 98.6334C167.714 98.408 169.904 99.0843 171.579 100.501C173.221 101.886 174.187 103.819 174.316 105.944C174.316 106.105 174.316 106.266 174.349 106.395C174.445 112.418 170.033 112.708 169.968 112.708H169.936L71.9626 112.579L73.8306 107.78Z" fill="#1A1A1A"/>
<path d="M60.6894 105.3L63.1371 119.793L83.1699 116.669L80.7221 102.176" fill="white"/>
<path d="M63.1378 120.759C63.2022 120.759 63.2344 120.759 63.2988 120.759L83.3315 117.603C83.5892 117.571 83.8146 117.41 83.9757 117.217C84.1367 116.991 84.2011 116.733 84.1367 116.476L81.689 101.983C81.5924 101.467 81.1092 101.113 80.5617 101.177C80.0464 101.274 79.6921 101.757 79.7566 102.305L82.0432 115.832L63.9107 118.666L61.6241 105.107C61.5274 104.591 61.0443 104.237 60.4968 104.302C59.9815 104.398 59.6272 104.881 59.6916 105.429L62.1394 119.922C62.2682 120.437 62.6547 120.759 63.1378 120.759Z" fill="#1A1A1A"/>
<path d="M63.2354 119.678C62.9954 118.149 67.2596 116.21 72.7597 115.346C78.2598 114.483 82.913 115.022 83.1531 116.551C83.3931 118.08 79.1289 120.019 73.6288 120.882C68.1288 121.746 63.4755 121.207 63.2354 119.678Z" fill="white"/>
<path d="M68.6456 122.273C70.2238 122.273 71.963 122.144 73.7666 121.854C77.8246 121.21 84.5559 119.342 84.105 116.411C83.6541 113.48 76.6652 113.77 72.6071 114.414C68.549 115.058 61.8178 116.926 62.2687 119.857C62.4619 121.081 63.8468 121.886 66.3268 122.144C67.0353 122.208 67.8083 122.273 68.6456 122.273ZM82.1726 116.701C81.8827 117.41 78.7264 119.084 73.4445 119.922C68.1625 120.759 64.6842 120.115 64.1689 119.535C64.4587 118.827 67.615 117.152 72.897 116.315C78.1789 115.477 81.6573 116.121 82.1726 116.701Z" fill="black"/>
<path d="M80.721 102.176C80.4956 100.663 75.8256 100.115 70.3182 100.985C64.8108 101.854 60.5272 103.787 60.7849 105.3" fill="white"/>
<path d="M59.8218 105.461L61.722 105.171C61.722 105.203 61.722 105.203 61.722 105.236C61.8831 104.559 65.0393 102.82 70.4501 101.983C75.8609 101.145 79.4036 101.822 79.7579 102.401V102.369L81.6581 102.079C81.4649 100.856 80.08 100.05 77.6001 99.7927C75.5388 99.5672 72.8979 99.6639 70.1603 100.083C66.1022 100.662 59.3709 102.53 59.8218 105.461Z" fill="#1A1A1A"/>
<path d="M226.358 65.2098C222.098 55.0573 243.628 36.3444 274.446 23.4135C305.264 10.4826 333.701 8.23029 337.961 18.3828C342.22 28.5354 320.691 47.2482 289.872 60.1791C259.054 73.11 230.618 75.3623 226.358 65.2098Z" fill="white"/>
<path d="M305.623 46.0065C299.021 49.034 292.418 51.8038 285.687 54.1549C284.012 54.7668 282.305 55.3144 280.63 55.8619C278.923 56.3772 277.249 56.9247 275.542 57.4078C274.704 57.6655 273.835 57.8909 272.997 58.1164C272.128 58.3418 271.29 58.5673 270.421 58.7605C268.714 59.1792 266.975 59.5657 265.268 59.92C263.561 60.2742 261.822 60.5641 260.082 60.7895C258.343 61.0472 256.636 61.2082 254.897 61.3048C253.19 61.4015 251.483 61.4015 249.808 61.2404C248.166 61.0794 246.555 60.7895 245.203 60.1776C244.559 59.8555 243.947 59.5013 243.496 59.0504C243.045 58.5995 242.755 58.0519 242.594 57.44C242.433 56.7959 242.433 56.0873 242.562 55.3144C242.723 54.5414 242.948 53.7684 243.303 52.9955C243.464 52.609 243.657 52.2225 243.85 51.836C244.076 51.4495 244.269 51.0952 244.494 50.7088C244.945 49.968 245.46 49.2272 245.976 48.5187C247.039 47.0694 248.166 45.6845 249.39 44.3318C247.876 45.3302 246.427 46.4252 245.042 47.6813C243.689 48.9374 242.401 50.2901 241.37 51.9326L240.984 52.5446C240.855 52.77 240.758 52.9954 240.629 53.1887C240.501 53.4141 240.404 53.6396 240.307 53.865C240.211 54.0905 240.114 54.3482 240.017 54.5736C239.695 55.572 239.534 56.6671 239.631 57.8265C239.728 58.986 240.211 60.1454 240.919 61.0794C241.66 62.0134 242.53 62.722 243.464 63.2373L244.172 63.6238L244.881 63.9458C245.106 64.0424 245.364 64.1391 245.589 64.2357C245.815 64.3323 246.072 64.3967 246.298 64.4933C247.264 64.7832 248.23 65.0087 249.196 65.1375C251.129 65.4596 253.029 65.524 254.929 65.524C256.829 65.4918 258.697 65.3629 260.533 65.1375C262.369 64.912 264.205 64.6222 266.041 64.2679C267.844 63.8814 269.648 63.4949 271.419 62.9796C273.191 62.4965 274.962 61.9812 276.701 61.3693C280.18 60.2098 283.593 58.8571 286.911 57.3112C290.228 55.7975 293.481 54.0905 296.605 52.1903C299.826 50.3867 302.853 48.3254 305.623 46.0065Z" fill="#FC9F5B"/>
<path d="M264.593 35.2174C270.165 33.1561 275.64 31.1593 281.212 29.4201C286.751 27.6487 292.323 26.1028 297.927 24.9756C299.344 24.6857 300.729 24.428 302.146 24.2348C302.855 24.106 303.563 24.0416 304.24 23.9449C304.948 23.8805 305.657 23.7839 306.333 23.7195C309.135 23.4618 311.937 23.3974 314.546 23.8483C314.868 23.8805 315.158 24.0094 315.48 24.0416C315.802 24.106 316.092 24.2348 316.382 24.2992L316.8 24.4602L317.026 24.5569L317.219 24.6535L317.605 24.8467L317.96 25.0722C318.862 25.7163 319.473 26.5859 319.57 27.8098C319.634 28.4217 319.57 29.0659 319.409 29.71C319.28 30.3541 319.055 31.0305 318.765 31.6746C318.475 32.3187 318.185 32.9951 317.831 33.6392C317.509 34.2834 317.09 34.9275 316.736 35.5716C317.895 34.6054 318.958 33.5748 319.86 32.3187C320.311 31.7068 320.73 31.0305 321.052 30.2897C321.374 29.549 321.631 28.7438 321.76 27.8742C321.857 27.0046 321.76 26.0384 321.438 25.1688C321.341 24.9434 321.245 24.7179 321.148 24.5247C321.052 24.3314 320.891 24.1382 320.762 23.9127C320.633 23.7195 320.472 23.5262 320.343 23.3652C320.182 23.2042 320.053 23.0109 319.86 22.8499L319.345 22.399C319.184 22.2702 318.99 22.1413 318.797 22.0125L318.539 21.8193L318.25 21.6583L317.67 21.3362C317.283 21.1429 316.897 20.9497 316.51 20.8209C316.124 20.692 315.737 20.531 315.351 20.4022C313.773 19.9191 312.227 19.6614 310.649 19.5326C309.103 19.3716 307.557 19.4038 306.011 19.436C304.465 19.5004 302.951 19.6292 301.438 19.8225C299.924 20.0157 298.442 20.2733 296.961 20.5632C291.035 21.7871 285.334 23.6873 279.891 26.135C277.154 27.3589 274.513 28.7116 271.936 30.2253C269.392 31.7068 266.912 33.3494 264.593 35.2174Z" fill="#FC9F5B"/>
<path d="M323.273 7.06838C326.655 7.35825 330.036 7.74473 333.257 8.54991C334.867 8.93639 336.446 9.4517 337.927 10.0958C339.409 10.74 340.826 11.513 342.017 12.4792C343.209 13.4454 344.175 14.6048 344.819 15.9253C345.431 17.2458 345.721 18.6951 345.657 20.1444C345.592 21.6259 345.238 23.1397 344.691 24.589C344.143 26.0383 343.435 27.4876 342.597 28.8403C340.922 31.5779 338.829 34.1222 336.574 36.5378C334.288 38.9211 331.872 41.2078 329.328 43.3656C324.239 47.6814 318.732 51.6106 313.096 55.411C319.376 52.7701 325.334 49.3883 330.906 45.3625C331.615 44.8471 332.291 44.3318 332.967 43.8165C333.644 43.269 334.32 42.7537 334.964 42.174L335.962 41.3366C336.285 41.0467 336.607 40.7569 336.929 40.467C337.573 39.8873 338.185 39.2753 338.797 38.6634C340.021 37.4396 341.212 36.1513 342.307 34.7986C343.402 33.4459 344.433 32.0288 345.399 30.5151C346.301 29.0013 347.138 27.391 347.75 25.6518C348.362 23.9448 348.781 22.0768 348.781 20.1766C348.781 18.2764 348.33 16.3118 347.396 14.6048C346.462 12.8978 345.109 11.4807 343.596 10.4501C342.082 9.38729 340.407 8.64653 338.732 8.09901C337.895 7.84136 337.025 7.6159 336.188 7.42266C335.318 7.22942 334.481 7.1006 333.611 7.00398C330.101 6.61749 326.655 6.64969 323.273 7.06838Z" fill="white"/>
<path d="M221.531 60.854C220.984 59.0826 221.209 57.2468 221.789 55.6043C222.401 53.9617 223.303 52.4158 224.333 50.9987C226.427 48.1322 229.003 45.6523 231.709 43.3012C233.061 42.1418 234.479 41.0145 235.896 39.9195C237.313 38.8244 238.762 37.7938 240.244 36.7632C241.725 35.7326 243.207 34.7342 244.753 33.8001C246.266 32.8339 247.812 31.8999 249.358 30.9659C255.542 27.2943 261.983 23.977 268.521 20.8852C275.059 17.7933 281.758 14.9913 288.554 12.3181C281.372 13.703 274.351 15.8931 267.523 18.5663C260.695 21.2394 254.06 24.4601 247.716 28.1961C246.137 29.1301 244.559 30.1286 243.046 31.127C241.5 32.1576 239.986 33.1882 238.504 34.2833C235.541 36.4733 232.675 38.8244 230.034 41.4332C227.393 44.042 224.945 46.8762 223.045 50.1291C222.143 51.7716 221.338 53.5108 220.952 55.3466C220.758 56.2806 220.694 57.2146 220.758 58.1486C220.823 59.147 221.113 60.0488 221.531 60.854Z" fill="white"/>
<path d="M281.404 47.3276L199.728 88.6492C196.217 90.4206 194.736 94.7685 196.668 98.2468C196.732 98.3757 196.797 98.5045 196.893 98.6011C199.599 102.981 202.658 101.242 202.658 101.242L283.949 49.2278L281.404 47.3276Z" fill="#1A1A1A"/>
<path d="M277.09 40.0482C276.027 40.5958 275.125 41.4009 274.352 42.2705C273.74 42.9469 273.16 43.6876 272.999 44.5572C272.677 46.0387 273.547 47.4881 274.159 48.873C274.642 49.9036 274.996 50.9986 275.222 52.1259C275.351 52.8022 275.447 53.5108 275.769 54.1549C276.22 55.1211 277.058 55.8297 277.541 56.7959C277.927 57.5688 278.056 58.535 278.732 59.0504C279.248 59.4368 279.924 59.5012 280.6 59.469C285.721 59.3724 290.456 56.7315 294.675 53.865C295.351 53.4141 296.027 52.931 296.478 52.2869C296.961 51.6428 297.187 50.741 296.897 50.0002C296.704 49.4849 296.253 49.0662 296.027 48.5509C295.899 48.261 295.802 47.9068 295.705 47.5847C295.448 46.8439 295.029 46.1998 294.675 45.4912C293.419 43.0113 293.193 40.0483 291.615 37.7294C291.39 37.4073 291.132 37.0852 290.778 36.8598C290.262 36.5377 289.65 36.5055 289.071 36.4733C284.594 36.3445 280.922 38.0836 277.09 40.0482Z" fill="white"/>
<path d="M273.963 41.4656C275.573 40.1774 277.86 38.8247 280.404 37.7296C282.949 36.6024 285.493 35.8294 287.522 35.5395C289.615 35.2497 291.032 35.4751 291.741 36.2481C291.902 36.3447 292.063 36.5058 292.16 36.699L297.893 50.2259C297.989 50.4514 297.989 50.709 297.893 50.9345C297.828 53.511 292.514 56.5385 289.1 58.02C286.652 59.0828 282.981 60.3389 280.404 60.3389C279.116 60.3389 278.085 60.0168 277.602 59.2439V59.2761C277.57 59.2439 277.538 59.1795 277.538 59.115L271.805 45.5881C271.773 45.5237 271.773 45.4593 271.741 45.3949C271.354 44.2676 272.127 42.9472 273.963 41.4656ZM288.327 56.2808C293.223 54.1552 295.831 51.7397 295.928 50.9667C295.284 50.5158 291.741 50.8056 286.846 52.9313C281.95 55.057 279.341 57.4725 279.245 58.2455C279.889 58.6963 283.432 58.4065 288.327 56.2808ZM273.544 44.8152L278.343 56.152C280.05 54.1874 283.593 52.255 286.105 51.1599C288.681 50.0327 292.578 48.7444 295.187 48.8732L290.292 37.5686L290.26 37.5364V37.5686C289.712 37.0855 286.137 37.3431 281.145 39.501C276.121 41.6911 273.512 44.171 273.512 44.8796C273.576 44.8474 273.544 44.8474 273.544 44.8152Z" fill="#1A1A1A"/>
<path d="M176.055 62.0457C178.986 58.0198 181.949 54.8635 183.592 53.221C183.205 52.4802 182.98 51.6428 182.98 50.7411C182.98 47.7136 185.428 45.2659 188.455 45.2659C191.483 45.2659 193.93 47.7136 193.93 50.7411C193.93 53.7685 191.483 56.2162 188.455 56.2162C187.038 56.2162 185.75 55.6687 184.784 54.7991C180.629 58.986 169.002 71.8688 169.775 83.882L167.843 84.0108C167.456 77.4406 170.194 70.0652 176.055 62.0457Z" fill="#1A1A1A"/>
<path d="M267.137 199.891L268.908 199.118C268.844 198.99 263.272 185.914 257.636 172.966C254.319 165.365 251.613 159.278 249.616 154.93C245.655 146.267 245.365 146.202 244.753 146.041C243.4 145.623 213.673 132.16 194.027 123.239L193.222 125.01C201.209 128.65 239.954 146.235 243.98 147.813C245.784 150.421 258.731 180.213 267.137 199.891ZM244.141 147.909C244.206 147.942 244.238 147.942 244.27 147.942C244.238 147.942 244.206 147.942 244.141 147.909Z" fill="#1A1A1A"/>
<path d="M268.65 207.847L273.674 205.625C275.703 204.723 276.605 202.34 275.735 200.343L272.064 192.066C271.162 190.037 268.779 189.135 266.782 190.004L261.758 192.227C259.729 193.129 258.827 195.512 259.696 197.509L263.368 205.786C264.238 207.815 266.621 208.749 268.65 207.847Z" fill="#1A1A1A"/>
<path d="M244.496 150.744C242.432 150.744 240.76 149.072 240.76 147.008C240.76 144.945 242.432 143.272 244.496 143.272C246.559 143.272 248.232 144.945 248.232 147.008C248.232 149.072 246.559 150.744 244.496 150.744Z" fill="#1A1A1A"/>
<path d="M182.174 178.764C180.11 178.764 178.438 177.091 178.438 175.028C178.438 172.964 180.11 171.292 182.174 171.292C184.237 171.292 185.91 172.964 185.91 175.028C185.91 177.091 184.237 178.764 182.174 178.764Z" fill="#1A1A1A"/>
<path d="M310.164 280.248C310.583 280.248 310.937 279.991 311.098 279.572C316.026 264.467 314.158 251.359 311.743 243.017C309.134 233.967 305.366 228.556 305.205 228.331C304.882 227.88 304.303 227.783 303.852 228.105C303.401 228.395 303.304 229.007 303.626 229.458C303.659 229.522 307.362 234.869 309.907 243.629C312.226 251.681 313.997 264.37 309.263 278.96C309.102 279.475 309.359 280.023 309.875 280.184C309.971 280.216 310.068 280.248 310.164 280.248Z" fill="#1A1A1A"/>
<path d="M213.414 274.129C213.671 274.129 213.929 274.033 214.122 273.807C214.477 273.421 214.444 272.809 214.058 272.455C195.185 255.127 190.547 236.093 190.515 235.9C190.386 235.385 189.871 235.062 189.355 235.191C188.84 235.32 188.518 235.835 188.647 236.351C188.679 236.544 193.446 256.158 212.77 273.872C212.931 274.065 213.156 274.129 213.414 274.129Z" fill="#1A1A1A"/>
</svg>
