<svg width="72" height="72" viewBox="0 0 72 72" fill="none" xmlns="http://www.w3.org/2000/svg">
<path d="M32.04 5.76C31.9445 5.76001 31.853 5.79794 31.7855 5.86545C31.7179 5.93297 31.68 6.02453 31.68 6.12V14.4H24.48C20.9099 14.4 18 17.3099 18 20.88V56.88C18 60.4501 20.9099 63.36 24.48 63.36H47.52C51.0901 63.36 54 60.4501 54 56.88V20.88C54 17.3099 51.0901 14.4 47.52 14.4H40.32V6.12C40.32 6.02453 40.2821 5.93297 40.2145 5.86545C40.147 5.79794 40.0555 5.76001 39.96 5.76H32.04ZM32.4 6.48H39.6V9.36H32.4V6.48ZM32.4 10.08H39.6V20.88H32.4V10.08ZM36 12.24C34.4137 12.24 33.12 13.5337 33.12 15.12C33.12 16.7063 34.4137 18 36 18C37.5863 18 38.88 16.7063 38.88 15.12C38.88 13.5337 37.5863 12.24 36 12.24ZM36 12.96C37.1972 12.96 38.16 13.9228 38.16 15.12C38.16 16.3172 37.1972 17.28 36 17.28C34.8028 17.28 33.84 16.3172 33.84 15.12C33.84 13.9228 34.8028 12.96 36 12.96ZM24.48 15.84H31.68V18H31.32C30.33 18 29.52 18.81 29.52 19.8C29.52 20.79 30.33 21.6 31.32 21.6H32.04H39.96H40.68C41.67 21.6 42.48 20.79 42.48 19.8C42.48 18.81 41.67 18 40.68 18H40.32V15.84H47.52C50.3118 15.84 52.56 18.0882 52.56 20.88V56.88C52.56 59.6718 50.3118 61.92 47.52 61.92H24.48C21.6882 61.92 19.44 59.6718 19.44 56.88V20.88C19.44 18.0882 21.6882 15.84 24.48 15.84ZM31.32 18.72H31.68V20.88H31.32C30.7188 20.88 30.24 20.4012 30.24 19.8C30.24 19.1988 30.7188 18.72 31.32 18.72ZM40.32 18.72H40.68C41.2812 18.72 41.76 19.1988 41.76 19.8C41.76 20.4012 41.2812 20.88 40.68 20.88H40.32V18.72ZM36.2334 24.4814C33.5688 24.4814 31.5311 25.8085 30.4313 27.6047C27.7144 29.4102 25.92 32.4957 25.92 36C25.92 38.8537 27.1241 41.4179 29.032 43.2506C28.6338 43.6973 28.3401 44.2386 28.1798 44.8327C28.1405 44.8777 28.1129 44.9318 28.0997 44.9902C27.9804 45.5427 28.4133 46.08 28.9786 46.08H43.0214C43.587 46.08 44.0181 45.5423 43.8989 44.9902C43.8863 44.9315 43.8592 44.8768 43.8202 44.8313C43.8197 44.8308 43.8192 44.8303 43.8188 44.8298C43.658 44.2374 43.364 43.698 42.9666 43.252C44.8753 41.4193 46.08 38.8544 46.08 36C46.08 32.6117 44.399 29.6185 41.8331 27.7917C41.8149 27.7569 41.8015 27.7159 41.7825 27.682C41.3678 26.94 40.7432 26.4502 40.0106 26.3306C39.5837 25.4893 38.4731 24.4814 36.2334 24.4814ZM36.2334 25.2014C38.3888 25.2014 39.2667 26.2155 39.4889 26.7623C39.5142 26.8247 39.5565 26.8786 39.6109 26.9182C39.6654 26.9577 39.7298 26.9812 39.7969 26.9859C40.3107 27.0217 40.7843 27.3723 41.1539 28.0336C41.5235 28.6949 41.76 29.6479 41.76 30.7519C41.76 31.8805 41.4248 32.669 41.0963 33.1819C40.9844 33.3564 40.977 33.3208 40.8825 33.4294C40.8256 33.1578 40.8158 32.8405 40.7166 32.6152C40.6975 32.5718 40.6702 32.5327 40.636 32.5C40.6019 32.4672 40.5616 32.4415 40.5176 32.4244C40.4735 32.4072 40.4265 32.3989 40.3792 32.3999C40.3319 32.4009 40.2852 32.4112 40.2419 32.4302C40.1986 32.4492 40.1595 32.4766 40.1268 32.5107C40.094 32.5449 40.0683 32.5851 40.0512 32.6292C40.034 32.6733 40.0257 32.7203 40.0267 32.7676C40.0277 32.8149 40.038 32.8615 40.057 32.9048C40.2152 33.264 40.32 33.6698 40.32 34.2C40.3199 34.2665 40.3383 34.3317 40.373 34.3884C40.4078 34.4451 40.4575 34.4911 40.5168 34.5212C40.5761 34.5514 40.6426 34.5645 40.7088 34.5592C40.7751 34.5539 40.8386 34.5303 40.8923 34.4911C40.8923 34.4911 41.0716 34.35 41.2988 34.0973C41.2913 34.1479 41.2808 34.2102 41.2678 34.2872C41.2389 34.4581 41.1987 34.6794 41.1553 34.9059C41.0685 35.3591 40.9538 35.8764 40.9345 35.9367C40.9341 35.9377 40.9336 35.9386 40.9331 35.9395C40.8677 36.1492 40.6694 36.3431 40.5647 36.3783C40.4933 36.4024 40.4312 36.4484 40.3873 36.5097C40.3434 36.571 40.3199 36.6446 40.32 36.72V36.99C40.32 37.4735 40.1225 37.9241 39.9544 38.1811C39.7018 38.5678 39.1156 39.1288 38.3906 39.5648C37.6657 40.0009 36.8013 40.32 35.9859 40.32C35.1856 40.32 34.3283 40.0024 33.6066 39.5663C32.8848 39.1301 32.2987 38.5681 32.0456 38.1811C31.8775 37.9241 31.68 37.4735 31.68 36.99V36.72C31.6801 36.6446 31.6566 36.571 31.6127 36.5097C31.5688 36.4484 31.5067 36.4024 31.4353 36.3783C31.3306 36.3431 31.1323 36.1492 31.0669 35.9395C31.0664 35.9386 31.0659 35.9377 31.0655 35.9367C31.0459 35.8756 30.9328 35.359 30.8461 34.9059C30.8027 34.6794 30.7612 34.4582 30.7322 34.2872C30.7203 34.2171 30.7114 34.163 30.7041 34.1142C30.934 34.3624 31.1161 34.4981 31.1161 34.4981C31.1702 34.5353 31.2333 34.5569 31.2988 34.5608C31.3643 34.5646 31.4296 34.5505 31.4876 34.52C31.5457 34.4895 31.5943 34.4436 31.6282 34.3875C31.6621 34.3313 31.68 34.267 31.68 34.2014C31.68 34.2014 31.7786 33.3544 32.0555 32.4267C32.2956 32.8012 32.5434 33.0483 32.5434 33.0483C32.5839 33.0787 32.6303 33.1002 32.6796 33.1115C32.7289 33.1227 32.78 33.1235 32.8296 33.1137C32.8793 33.1038 32.9263 33.0837 32.9676 33.0545C33.0089 33.0253 33.0436 32.9877 33.0694 32.9442C33.0694 32.9442 33.4706 32.27 34.11 31.493C34.6119 30.8831 35.2717 30.2872 35.948 29.8561C35.9034 30.4448 35.793 31.1629 35.3405 31.8417C35.3043 31.8959 35.2836 31.9589 35.2805 32.024C35.2773 32.0891 35.2919 32.1538 35.3226 32.2113C35.3534 32.2687 35.3991 32.3167 35.455 32.3502C35.5109 32.3837 35.5748 32.4014 35.64 32.4014C35.8724 32.4014 36.1606 32.3413 36.4964 32.2045C36.5402 32.1866 36.58 32.1603 36.6136 32.127C36.6471 32.0937 36.6738 32.0541 36.6921 32.0105C36.7104 31.9669 36.7199 31.9201 36.7201 31.8728C36.7203 31.8255 36.7112 31.7786 36.6933 31.7348C36.6754 31.6911 36.649 31.6513 36.6157 31.6177C36.5824 31.5841 36.5428 31.5574 36.4992 31.5391C36.4556 31.5209 36.4088 31.5113 36.3615 31.5111C36.3142 31.5109 36.2674 31.5201 36.2236 31.538C36.216 31.5411 36.2142 31.5392 36.2067 31.5422C36.6193 30.5514 36.72 29.5584 36.72 29.1614C36.7201 29.1021 36.7056 29.0438 36.6777 28.9915C36.6499 28.9392 36.6095 28.8946 36.5603 28.8616C36.511 28.8286 36.4544 28.8083 36.3954 28.8025C36.3364 28.7966 36.2769 28.8054 36.2222 28.8281C35.1501 29.2746 34.2302 30.2135 33.5545 31.0345C33.0447 31.6541 32.8725 31.9601 32.722 32.1989C32.5633 31.9996 32.4 31.717 32.4 31.3214C32.4002 31.241 32.3735 31.1629 32.3241 31.0994C32.2748 31.036 32.2056 30.9909 32.1276 30.9713C32.0497 30.9517 31.9674 30.9588 31.8939 30.9914C31.8204 31.024 31.76 31.0803 31.7222 31.1513C31.2813 31.9778 31.1172 32.7579 31.0388 33.3577C30.9729 33.2757 30.974 33.3147 30.9023 33.2044C30.5755 32.7013 30.24 31.9147 30.24 30.7533C30.24 27.9957 32.509 25.2014 36.2334 25.2014ZM38.5088 28.8C38.4316 28.8025 38.3574 28.8296 38.2969 28.8775C38.2364 28.9253 38.1928 28.9913 38.1727 29.0658C38.0093 29.6721 37.7727 30.1345 37.5089 30.4973C37.4795 30.5355 37.4581 30.5791 37.4459 30.6256C37.4337 30.6722 37.4309 30.7207 37.4378 30.7683C37.4447 30.8159 37.461 30.8617 37.4858 30.9029C37.5107 30.9441 37.5435 30.9799 37.5824 31.0082C37.6214 31.0365 37.6656 31.0567 37.7124 31.0677C37.7593 31.0786 37.8078 31.08 37.8553 31.0718C37.9027 31.0637 37.948 31.0461 37.9885 31.0201C38.029 30.9941 38.0639 30.9603 38.0911 30.9206C38.2187 30.7451 38.2933 30.4601 38.4047 30.2456C38.5938 30.7413 38.8485 31.1784 39.1388 31.5436C39.1669 31.584 39.2029 31.6182 39.2448 31.6441C39.2866 31.67 39.3334 31.6871 39.3821 31.6942C39.4308 31.7014 39.4804 31.6985 39.5279 31.6857C39.5755 31.6729 39.6199 31.6505 39.6584 31.6199C39.6969 31.5892 39.7287 31.551 39.7519 31.5076C39.7751 31.4642 39.7891 31.4165 39.7932 31.3674C39.7972 31.3184 39.7911 31.269 39.7753 31.2224C39.7595 31.1758 39.7343 31.1329 39.7013 31.0964C39.2358 30.5106 38.88 30.0132 38.88 29.16C38.88 29.1118 38.8703 29.064 38.8516 29.0196C38.8328 28.9752 38.8052 28.935 38.7706 28.9014C38.736 28.8678 38.695 28.8415 38.65 28.8241C38.605 28.8067 38.557 28.7985 38.5088 28.8V28.8ZM29.783 29.0264C29.6108 29.5877 29.52 30.1699 29.52 30.7533C29.52 31.9159 29.8296 32.7718 30.1753 33.3759C30.0711 33.5291 29.9812 33.7364 29.9714 34.0003C29.9714 34.0008 29.9714 34.0013 29.9714 34.0017C29.968 34.1019 29.978 34.1149 29.9869 34.1775C29.9958 34.2401 30.0069 34.3174 30.022 34.4067C30.0523 34.5853 30.0946 34.8118 30.1388 35.0423C30.227 35.5035 30.3109 35.9378 30.3806 36.1561C30.4726 36.4496 30.7259 36.6166 30.96 36.7931V36.99C30.96 37.6599 31.2101 38.2198 31.4423 38.5748C31.7905 39.1073 32.4314 39.6973 33.2339 40.1822C33.4264 40.2985 33.6295 40.4072 33.8386 40.507C33.836 40.8588 33.6603 41.0548 33.4505 41.2045C33.2639 41.3377 33.1006 41.3879 33.0595 41.4C33.0222 41.4065 32.9861 41.4188 32.9527 41.4366L30.4102 42.2859C30.4035 42.2881 30.397 42.2904 30.3905 42.293C30.0888 42.4129 29.8126 42.5742 29.5608 42.7641C27.7686 41.0591 26.64 38.669 26.64 36C26.64 33.2207 27.8606 30.7394 29.783 29.0264ZM42.3042 29.0967C44.1784 30.8071 45.36 33.2603 45.36 36C45.36 38.6693 44.2304 41.059 42.4378 42.7641C42.1861 42.5743 41.9097 42.4128 41.6081 42.293C41.6021 42.2905 41.596 42.2881 41.5898 42.2859L39.0488 41.4366C39.0169 41.4199 38.9828 41.408 38.9475 41.4014C38.9466 41.4014 38.9456 41.4014 38.9447 41.4014C38.9036 41.3886 38.7389 41.3344 38.5509 41.1989C38.339 41.0462 38.1616 40.8485 38.16 40.5042C38.3685 40.4051 38.5702 40.2975 38.7619 40.1822C39.5682 39.6972 40.2098 39.1075 40.5577 38.5748C40.7899 38.2198 41.04 37.6599 41.04 36.99V36.7931C41.2741 36.6166 41.5274 36.4496 41.6194 36.1561C41.6893 35.9377 41.7743 35.5036 41.8627 35.0423C41.9068 34.8117 41.9477 34.5854 41.978 34.4067C41.9931 34.3174 42.0056 34.2402 42.0145 34.1775C42.0234 34.1148 42.0326 34.1028 42.0286 34.0003C42.0185 33.7295 41.9249 33.5166 41.8177 33.3633C42.1656 32.755 42.48 31.8978 42.48 30.7519C42.48 30.1609 42.4183 29.6054 42.3042 29.0967ZM37.4808 40.7784C37.5707 41.2438 37.8552 41.5865 38.1291 41.7839C38.1744 41.8166 38.2097 41.8256 38.2542 41.8528C38.1096 41.9605 37.9284 42.0777 37.6636 42.1861C37.6198 42.204 37.58 42.2304 37.5464 42.2637C37.5128 42.297 37.4861 42.3365 37.4679 42.3802C37.4496 42.4238 37.4401 42.4706 37.4399 42.5179C37.4397 42.5652 37.4488 42.612 37.4667 42.6558C37.4846 42.6996 37.511 42.7394 37.5443 42.773C37.5776 42.8065 37.6172 42.8332 37.6608 42.8515C37.7044 42.8698 37.7512 42.8793 37.7985 42.8795C37.8458 42.8797 37.8926 42.8706 37.9364 42.8527C38.3647 42.6773 38.6694 42.4649 38.8688 42.2916C38.9195 42.2474 38.9468 42.2144 38.9855 42.1748L41.3438 42.9638C42.2823 43.3376 42.9739 44.1523 43.193 45.1406C43.1934 45.142 43.1939 45.1434 43.1944 45.1448C43.2181 45.2647 43.1428 45.36 43.0214 45.36H28.9786C28.8584 45.36 28.782 45.2643 28.8056 45.1448C28.8061 45.1434 28.8066 45.142 28.807 45.1406C29.0253 44.153 29.7154 43.3378 30.6534 42.9638L33.0089 42.1763C33.1318 42.3002 33.3153 42.46 33.5644 42.6094C34.0689 42.9121 34.86 43.2 36 43.2C36.1582 43.2 36.2779 43.1837 36.3811 43.1775C36.4291 43.1759 36.4764 43.1648 36.52 43.1446C36.5637 43.1245 36.6028 43.0958 36.6352 43.0603C36.6676 43.0248 36.6926 42.9832 36.7087 42.9379C36.7247 42.8926 36.7315 42.8445 36.7287 42.7966C36.7259 42.7486 36.7135 42.7016 36.6923 42.6585C36.671 42.6154 36.6414 42.577 36.605 42.5455C36.5687 42.5141 36.5264 42.4902 36.4807 42.4753C36.435 42.4604 36.3868 42.4549 36.3389 42.4589C36.2017 42.4671 36.1025 42.48 36 42.48C34.98 42.48 34.3311 42.2279 33.9356 41.9906C33.8467 41.9373 33.8157 41.9014 33.7528 41.8542C33.7946 41.8288 33.827 41.8199 33.8695 41.7895C34.1439 41.5937 34.4285 41.251 34.5192 40.7841C34.9905 40.9425 35.4848 41.04 35.9859 41.04C36.4979 41.04 37.0016 40.9394 37.4808 40.7784ZM27 48.24C26.9523 48.2393 26.9049 48.2481 26.8607 48.2659C26.8164 48.2837 26.7761 48.3101 26.7421 48.3436C26.7082 48.3771 26.6812 48.417 26.6628 48.461C26.6444 48.5051 26.6349 48.5523 26.6349 48.6C26.6349 48.6477 26.6444 48.6949 26.6628 48.739C26.6812 48.783 26.7082 48.8229 26.7421 48.8564C26.7761 48.8899 26.8164 48.9163 26.8607 48.9341C26.9049 48.9519 26.9523 48.9607 27 48.96H45C45.0477 48.9607 45.0951 48.9519 45.1393 48.9341C45.1836 48.9163 45.2239 48.8899 45.2579 48.8564C45.2918 48.8229 45.3188 48.783 45.3372 48.739C45.3556 48.6949 45.3651 48.6477 45.3651 48.6C45.3651 48.5523 45.3556 48.5051 45.3372 48.461C45.3188 48.417 45.2918 48.3771 45.2579 48.3436C45.2239 48.3101 45.1836 48.2837 45.1393 48.2659C45.0951 48.2481 45.0477 48.2393 45 48.24H27ZM27 50.4C26.9523 50.3993 26.9049 50.4081 26.8607 50.4259C26.8164 50.4437 26.7761 50.4701 26.7421 50.5036C26.7082 50.5371 26.6812 50.577 26.6628 50.621C26.6444 50.6651 26.6349 50.7123 26.6349 50.76C26.6349 50.8077 26.6444 50.8549 26.6628 50.899C26.6812 50.943 26.7082 50.9829 26.7421 51.0164C26.7761 51.0499 26.8164 51.0763 26.8607 51.0941C26.9049 51.1119 26.9523 51.1207 27 51.12H45C45.0477 51.1207 45.0951 51.1119 45.1393 51.0941C45.1836 51.0763 45.2239 51.0499 45.2579 51.0164C45.2918 50.9829 45.3188 50.943 45.3372 50.899C45.3556 50.8549 45.3651 50.8077 45.3651 50.76C45.3651 50.7123 45.3556 50.6651 45.3372 50.621C45.3188 50.577 45.2918 50.5371 45.2579 50.5036C45.2239 50.4701 45.1836 50.4437 45.1393 50.4259C45.0951 50.4081 45.0477 50.3993 45 50.4H27ZM29.16 52.56C29.1123 52.5593 29.0649 52.5681 29.0207 52.5859C28.9764 52.6037 28.9361 52.6301 28.9021 52.6636C28.8682 52.6971 28.8412 52.737 28.8228 52.781C28.8044 52.8251 28.7949 52.8723 28.7949 52.92C28.7949 52.9677 28.8044 53.0149 28.8228 53.059C28.8412 53.103 28.8682 53.1429 28.9021 53.1764C28.9361 53.2099 28.9764 53.2363 29.0207 53.2541C29.0649 53.2719 29.1123 53.2807 29.16 53.28H42.84C42.8877 53.2807 42.9351 53.2719 42.9793 53.2541C43.0236 53.2363 43.0639 53.2099 43.0979 53.1764C43.1318 53.1429 43.1588 53.103 43.1772 53.059C43.1956 53.0149 43.2051 52.9677 43.2051 52.92C43.2051 52.8723 43.1956 52.8251 43.1772 52.781C43.1588 52.737 43.1318 52.6971 43.0979 52.6636C43.0639 52.6301 43.0236 52.6037 42.9793 52.5859C42.9351 52.5681 42.8877 52.5593 42.84 52.56H29.16ZM27 54.72C26.4078 54.72 25.92 55.2078 25.92 55.8V57.96C25.92 58.5522 26.4078 59.04 27 59.04C27.5922 59.04 28.08 58.5522 28.08 57.96V55.8C28.08 55.2078 27.5922 54.72 27 54.72ZM30.6 54.72C30.0078 54.72 29.52 55.2078 29.52 55.8V57.96C29.52 58.5522 30.0078 59.04 30.6 59.04C31.1922 59.04 31.68 58.5522 31.68 57.96V55.8C31.68 55.2078 31.1922 54.72 30.6 54.72ZM34.2 54.72C33.6078 54.72 33.12 55.2078 33.12 55.8V57.96C33.12 58.5522 33.6078 59.04 34.2 59.04C34.7922 59.04 35.28 58.5522 35.28 57.96V55.8C35.28 55.2078 34.7922 54.72 34.2 54.72ZM37.8 54.72C37.2078 54.72 36.72 55.2078 36.72 55.8V57.96C36.72 58.5522 37.2078 59.04 37.8 59.04C38.3922 59.04 38.88 58.5522 38.88 57.96V55.8C38.88 55.2078 38.3922 54.72 37.8 54.72ZM41.4 54.72C40.8078 54.72 40.32 55.2078 40.32 55.8V57.96C40.32 58.5522 40.8078 59.04 41.4 59.04C41.9922 59.04 42.48 58.5522 42.48 57.96V55.8C42.48 55.2078 41.9922 54.72 41.4 54.72ZM45 54.72C44.4078 54.72 43.92 55.2078 43.92 55.8V57.96C43.92 58.5522 44.4078 59.04 45 59.04C45.5922 59.04 46.08 58.5522 46.08 57.96V55.8C46.08 55.2078 45.5922 54.72 45 54.72ZM27 55.44C27.2027 55.44 27.36 55.5973 27.36 55.8V57.96C27.36 58.1627 27.2027 58.32 27 58.32C26.7973 58.32 26.64 58.1627 26.64 57.96V55.8C26.64 55.5973 26.7973 55.44 27 55.44ZM30.6 55.44C30.8027 55.44 30.96 55.5973 30.96 55.8V57.96C30.96 58.1627 30.8027 58.32 30.6 58.32C30.3973 58.32 30.24 58.1627 30.24 57.96V55.8C30.24 55.5973 30.3973 55.44 30.6 55.44ZM34.2 55.44C34.4027 55.44 34.56 55.5973 34.56 55.8V57.96C34.56 58.1627 34.4027 58.32 34.2 58.32C33.9973 58.32 33.84 58.1627 33.84 57.96V55.8C33.84 55.5973 33.9973 55.44 34.2 55.44ZM37.8 55.44C38.0027 55.44 38.16 55.5973 38.16 55.8V57.96C38.16 58.1627 38.0027 58.32 37.8 58.32C37.5973 58.32 37.44 58.1627 37.44 57.96V55.8C37.44 55.5973 37.5973 55.44 37.8 55.44ZM41.4 55.44C41.6027 55.44 41.76 55.5973 41.76 55.8V57.96C41.76 58.1627 41.6027 58.32 41.4 58.32C41.1973 58.32 41.04 58.1627 41.04 57.96V55.8C41.04 55.5973 41.1973 55.44 41.4 55.44ZM45 55.44C45.2027 55.44 45.36 55.5973 45.36 55.8V57.96C45.36 58.1627 45.2027 58.32 45 58.32C44.7973 58.32 44.64 58.1627 44.64 57.96V55.8C44.64 55.5973 44.7973 55.44 45 55.44Z" fill="#FC9F5B"/>
</svg>
