<svg width="72" height="72" viewBox="0 0 72 72" fill="none" xmlns="http://www.w3.org/2000/svg">
<path d="M23.0288 3.58875C22.6294 3.59438 22.3144 3.92063 22.32 4.32V10.8H16.56C14.9794 10.8 13.68 12.0994 13.68 13.68C13.68 15.2606 14.9794 16.56 16.56 16.56V59.76H12.24C11.9813 59.7544 11.7394 59.895 11.61 60.1144C11.475 60.3394 11.475 60.6206 11.61 60.8456C11.7394 61.065 11.9813 61.2056 12.24 61.2H59.76C60.0188 61.2056 60.2607 61.065 60.39 60.8456C60.525 60.6206 60.525 60.3394 60.39 60.1144C60.2607 59.895 60.0188 59.7544 59.76 59.76H55.44V16.56C57.0207 16.56 58.32 15.2606 58.32 13.68C58.32 12.0994 57.0207 10.8 55.44 10.8H28.08V7.92C28.08 7.72313 28.0069 7.5375 27.8663 7.4025C27.7313 7.26188 27.5457 7.18875 27.3488 7.18875C26.9494 7.19438 26.6344 7.52063 26.64 7.92V10.8H23.76V4.32C23.76 4.12313 23.6869 3.9375 23.5463 3.8025C23.4113 3.66188 23.2257 3.58875 23.0288 3.58875ZM16.56 12.24H22.9163C22.995 12.2513 23.0738 12.2513 23.1525 12.24H27.2363C27.315 12.2513 27.3938 12.2513 27.4725 12.24H55.44C56.2444 12.24 56.88 12.8756 56.88 13.68C56.88 14.4844 56.2444 15.12 55.44 15.12H16.56C15.7557 15.12 15.12 14.4844 15.12 13.68C15.12 12.8756 15.7557 12.24 16.56 12.24ZM18 16.56H54V18.72H40.68C40.5507 18.72 40.4269 18.7875 40.365 18.9C40.2975 19.0125 40.2975 19.1475 40.365 19.26C40.4269 19.3725 40.5507 19.44 40.68 19.44H54V54.72H52.2C52.0707 54.72 51.9469 54.7875 51.885 54.9C51.8175 55.0125 51.8175 55.1475 51.885 55.26C51.9469 55.3725 52.0707 55.44 52.2 55.44H54V59.76H39.6V55.44H47.88C48.0094 55.44 48.1332 55.3725 48.195 55.26C48.2625 55.1475 48.2625 55.0125 48.195 54.9C48.1332 54.7875 48.0094 54.72 47.88 54.72H39.6C39.6 52.74 37.98 51.12 36 51.12C34.02 51.12 32.4 52.74 32.4 54.72H27C26.8707 54.72 26.7469 54.7875 26.685 54.9C26.6175 55.0125 26.6175 55.1475 26.685 55.26C26.7469 55.3725 26.8707 55.44 27 55.44H32.4V59.76H18V55.44H19.8C19.9294 55.44 20.0532 55.3725 20.115 55.26C20.1825 55.1475 20.1825 55.0125 20.115 54.9C20.0532 54.7875 19.9294 54.72 19.8 54.72H18V19.44H29.16C29.2894 19.44 29.4132 19.3725 29.475 19.26C29.5425 19.1475 29.5425 19.0125 29.475 18.9C29.4132 18.7875 29.2894 18.72 29.16 18.72H18V16.56ZM31.32 18.72C31.1907 18.72 31.0669 18.7875 31.005 18.9C30.9375 19.0125 30.9375 19.1475 31.005 19.26C31.0669 19.3725 31.1907 19.44 31.32 19.44H32.04C32.1694 19.44 32.2932 19.3725 32.355 19.26C32.4225 19.1475 32.4225 19.0125 32.355 18.9C32.2932 18.7875 32.1694 18.72 32.04 18.72H31.32ZM34.2 18.72C34.0707 18.72 33.9469 18.7875 33.885 18.9C33.8175 19.0125 33.8175 19.1475 33.885 19.26C33.9469 19.3725 34.0707 19.44 34.2 19.44H38.52C38.6494 19.44 38.7732 19.3725 38.835 19.26C38.9025 19.1475 38.9025 19.0125 38.835 18.9C38.7732 18.7875 38.6494 18.72 38.52 18.72H34.2ZM23.4 23.04C23.2032 23.04 23.04 23.2031 23.04 23.4V27.72C23.04 27.9169 23.2032 28.08 23.4 28.08H27C27.1969 28.08 27.36 27.9169 27.36 27.72V23.4C27.36 23.2031 27.1969 23.04 27 23.04H23.4ZM30.6 23.04C30.4032 23.04 30.24 23.2031 30.24 23.4V27.72C30.24 27.9169 30.4032 28.08 30.6 28.08H34.2C34.3969 28.08 34.56 27.9169 34.56 27.72V23.4C34.56 23.2031 34.3969 23.04 34.2 23.04H30.6ZM37.8 23.04C37.6032 23.04 37.44 23.2031 37.44 23.4V27.72C37.44 27.9169 37.6032 28.08 37.8 28.08H41.4C41.5969 28.08 41.76 27.9169 41.76 27.72V23.4C41.76 23.2031 41.5969 23.04 41.4 23.04H37.8ZM45 23.04C44.8032 23.04 44.64 23.2031 44.64 23.4V27.72C44.64 27.9169 44.8032 28.08 45 28.08H48.6C48.7969 28.08 48.96 27.9169 48.96 27.72V23.4C48.96 23.2031 48.7969 23.04 48.6 23.04H45ZM23.76 23.76H26.64V27.36H23.76V23.76ZM30.96 23.76H33.84V27.36H30.96V23.76ZM38.16 23.76H41.04V27.36H38.16V23.76ZM45.36 23.76H48.24V27.36H45.36V23.76ZM23.4 30.24C23.2032 30.24 23.04 30.4031 23.04 30.6V34.92C23.04 35.1169 23.2032 35.28 23.4 35.28H27C27.1969 35.28 27.36 35.1169 27.36 34.92V30.6C27.36 30.4031 27.1969 30.24 27 30.24H23.4ZM30.6 30.24C30.4032 30.24 30.24 30.4031 30.24 30.6V34.92C30.24 35.1169 30.4032 35.28 30.6 35.28H34.2C34.3969 35.28 34.56 35.1169 34.56 34.92V30.6C34.56 30.4031 34.3969 30.24 34.2 30.24H30.6ZM37.8 30.24C37.6032 30.24 37.44 30.4031 37.44 30.6V34.92C37.44 35.1169 37.6032 35.28 37.8 35.28H41.4C41.5969 35.28 41.76 35.1169 41.76 34.92V30.6C41.76 30.4031 41.5969 30.24 41.4 30.24H37.8ZM45 30.24C44.8032 30.24 44.64 30.4031 44.64 30.6V34.92C44.64 35.1169 44.8032 35.28 45 35.28H48.6C48.7969 35.28 48.96 35.1169 48.96 34.92V30.6C48.96 30.4031 48.7969 30.24 48.6 30.24H45ZM23.76 30.96H26.64V34.56H23.76V30.96ZM30.96 30.96H33.84V34.56H30.96V30.96ZM38.16 30.96H41.04V34.56H38.16V30.96ZM45.36 30.96H48.24V34.56H45.36V30.96ZM23.4 37.44C23.2032 37.44 23.04 37.6031 23.04 37.8V42.12C23.04 42.3169 23.2032 42.48 23.4 42.48H27C27.1969 42.48 27.36 42.3169 27.36 42.12V37.8C27.36 37.6031 27.1969 37.44 27 37.44H23.4ZM30.6 37.44C30.4032 37.44 30.24 37.6031 30.24 37.8V42.12C30.24 42.3169 30.4032 42.48 30.6 42.48H34.2C34.3969 42.48 34.56 42.3169 34.56 42.12V37.8C34.56 37.6031 34.3969 37.44 34.2 37.44H30.6ZM37.8 37.44C37.6032 37.44 37.44 37.6031 37.44 37.8V42.12C37.44 42.3169 37.6032 42.48 37.8 42.48H41.4C41.5969 42.48 41.76 42.3169 41.76 42.12V37.8C41.76 37.6031 41.5969 37.44 41.4 37.44H37.8ZM45 37.44C44.8032 37.44 44.64 37.6031 44.64 37.8V42.12C44.64 42.3169 44.8032 42.48 45 42.48H48.6C48.7969 42.48 48.96 42.3169 48.96 42.12V37.8C48.96 37.6031 48.7969 37.44 48.6 37.44H45ZM23.76 38.16H26.64V41.76H23.76V38.16ZM30.96 38.16H33.84V41.76H30.96V38.16ZM38.16 38.16H41.04V41.76H38.16V38.16ZM45.36 38.16H48.24V41.76H45.36V38.16ZM23.4 44.64C23.2032 44.64 23.04 44.8031 23.04 45V49.32C23.04 49.5169 23.2032 49.68 23.4 49.68H27C27.1969 49.68 27.36 49.5169 27.36 49.32V45C27.36 44.8031 27.1969 44.64 27 44.64H23.4ZM30.6 44.64C30.4032 44.64 30.24 44.8031 30.24 45V49.32C30.24 49.5169 30.4032 49.68 30.6 49.68H34.2C34.3969 49.68 34.56 49.5169 34.56 49.32V45C34.56 44.8031 34.3969 44.64 34.2 44.64H30.6ZM37.8 44.64C37.6032 44.64 37.44 44.8031 37.44 45V49.32C37.44 49.5169 37.6032 49.68 37.8 49.68H41.4C41.5969 49.68 41.76 49.5169 41.76 49.32V45C41.76 44.8031 41.5969 44.64 41.4 44.64H37.8ZM45 44.64C44.8032 44.64 44.64 44.8031 44.64 45V49.32C44.64 49.5169 44.8032 49.68 45 49.68H48.6C48.7969 49.68 48.96 49.5169 48.96 49.32V45C48.96 44.8031 48.7969 44.64 48.6 44.64H45ZM23.76 45.36H26.64V48.96H23.76V45.36ZM30.96 45.36H33.84V48.96H30.96V45.36ZM38.16 45.36H41.04V48.96H38.16V45.36ZM45.36 45.36H48.24V48.96H45.36V45.36ZM36 52.56C37.2038 52.56 38.16 53.5163 38.16 54.72V59.76H33.84V54.72C33.84 53.5163 34.7963 52.56 36 52.56ZM21.96 54.72C21.8307 54.72 21.7069 54.7875 21.645 54.9C21.5775 55.0125 21.5775 55.1475 21.645 55.26C21.7069 55.3725 21.8307 55.44 21.96 55.44H24.84C24.9694 55.44 25.0932 55.3725 25.155 55.26C25.2225 55.1475 25.2225 55.0125 25.155 54.9C25.0932 54.7875 24.9694 54.72 24.84 54.72H21.96ZM49.32 54.72C49.1907 54.72 49.0669 54.7875 49.005 54.9C48.9375 55.0125 48.9375 55.1475 49.005 55.26C49.0669 55.3725 49.1907 55.44 49.32 55.44H50.76C50.8894 55.44 51.0132 55.3725 51.075 55.26C51.1425 55.1475 51.1425 55.0125 51.075 54.9C51.0132 54.7875 50.8894 54.72 50.76 54.72H49.32Z" fill="#068466"/>
</svg>
