<svg width="72" height="72" viewBox="0 0 72 72" fill="none" xmlns="http://www.w3.org/2000/svg">
<path d="M20.869 10.7902C20.6783 10.7931 20.4965 10.8717 20.3637 11.0085C20.2308 11.1453 20.1576 11.3293 20.1602 11.52V12.96H17.2802C14.5051 12.96 12.2402 15.2249 12.2402 18V59.04C12.2402 60.2244 13.2159 61.2 14.4002 61.2H57.6002C58.7846 61.2 59.7602 60.2244 59.7602 59.04V18C59.7602 15.2249 57.4954 12.96 54.7202 12.96H51.8402V11.52C51.8416 11.4237 51.8235 11.3281 51.7872 11.2388C51.7509 11.1496 51.6971 11.0685 51.6289 11.0005C51.5607 10.9324 51.4796 10.8787 51.3903 10.8426C51.301 10.8065 51.2053 10.7887 51.109 10.7902C50.9183 10.7931 50.7365 10.8717 50.6037 11.0085C50.4708 11.1453 50.3976 11.3293 50.4002 11.52V12.96H47.5202V11.52C47.5216 11.4237 47.5035 11.3281 47.4672 11.2388C47.4309 11.1496 47.3771 11.0685 47.3089 11.0005C47.2407 10.9324 47.1596 10.8787 47.0703 10.8426C46.981 10.8065 46.8853 10.7887 46.789 10.7902C46.5983 10.7931 46.4165 10.8717 46.2837 11.0085C46.1508 11.1453 46.0776 11.3293 46.0802 11.52V12.96H43.2002V11.52C43.2016 11.4237 43.1835 11.3281 43.1472 11.2388C43.1109 11.1496 43.0571 11.0685 42.9889 11.0005C42.9207 10.9324 42.8396 10.8787 42.7503 10.8426C42.661 10.8065 42.5653 10.7887 42.469 10.7902C42.2783 10.7931 42.0965 10.8717 41.9637 11.0085C41.8308 11.1453 41.7576 11.3293 41.7602 11.52V12.96H38.8802V11.52C38.8816 11.4237 38.8635 11.3281 38.8272 11.2388C38.7909 11.1496 38.7371 11.0685 38.6689 11.0005C38.6007 10.9324 38.5196 10.8787 38.4303 10.8426C38.341 10.8065 38.2453 10.7887 38.149 10.7902C37.9583 10.7931 37.7765 10.8717 37.6437 11.0085C37.5108 11.1453 37.4376 11.3293 37.4402 11.52V12.96H34.5602V11.52C34.5616 11.4237 34.5435 11.3281 34.5072 11.2388C34.4709 11.1496 34.4171 11.0685 34.3489 11.0005C34.2807 10.9324 34.1996 10.8787 34.1103 10.8426C34.021 10.8065 33.9253 10.7887 33.829 10.7902C33.6383 10.7931 33.4565 10.8717 33.3237 11.0085C33.1908 11.1453 33.1176 11.3293 33.1202 11.52V12.96H30.2402V11.52C30.2416 11.4237 30.2235 11.3281 30.1872 11.2388C30.1509 11.1496 30.0971 11.0685 30.0289 11.0005C29.9607 10.9324 29.8796 10.8787 29.7903 10.8426C29.701 10.8065 29.6053 10.7887 29.509 10.7902C29.3183 10.7931 29.1365 10.8717 29.0037 11.0085C28.8708 11.1453 28.7976 11.3293 28.8002 11.52V12.96H25.9202V11.52C25.9216 11.4237 25.9035 11.3281 25.8672 11.2388C25.8309 11.1496 25.7771 11.0685 25.7089 11.0005C25.6407 10.9324 25.5596 10.8787 25.4703 10.8426C25.381 10.8065 25.2853 10.7887 25.189 10.7902C24.9983 10.7931 24.8165 10.8717 24.6837 11.0085C24.5508 11.1453 24.4776 11.3293 24.4802 11.52V12.96H21.6002V11.52C21.6016 11.4237 21.5835 11.3281 21.5472 11.2388C21.5109 11.1496 21.4571 11.0685 21.3889 11.0005C21.3207 10.9324 21.2396 10.8787 21.1503 10.8426C21.061 10.8065 20.9653 10.7887 20.869 10.7902V10.7902ZM17.2802 14.4H20.1602V15.84C20.1589 15.9354 20.1765 16.0301 20.2121 16.1187C20.2477 16.2072 20.3005 16.2878 20.3675 16.3557C20.4345 16.4237 20.5143 16.4776 20.6023 16.5145C20.6903 16.5513 20.7848 16.5703 20.8802 16.5703C20.9757 16.5703 21.0701 16.5513 21.1581 16.5145C21.2462 16.4776 21.326 16.4237 21.393 16.3557C21.46 16.2878 21.5128 16.2072 21.5484 16.1187C21.584 16.0301 21.6016 15.9354 21.6002 15.84V14.4H24.4802V15.84C24.4789 15.9354 24.4965 16.0301 24.5321 16.1187C24.5677 16.2072 24.6205 16.2878 24.6875 16.3557C24.7545 16.4237 24.8343 16.4776 24.9223 16.5145C25.0103 16.5513 25.1048 16.5703 25.2002 16.5703C25.2957 16.5703 25.3901 16.5513 25.4781 16.5145C25.5662 16.4776 25.646 16.4237 25.713 16.3557C25.78 16.2878 25.8328 16.2072 25.8684 16.1187C25.904 16.0301 25.9216 15.9354 25.9202 15.84V14.4H28.8002V15.84C28.7989 15.9354 28.8165 16.0301 28.8521 16.1187C28.8877 16.2072 28.9405 16.2878 29.0075 16.3557C29.0745 16.4237 29.1543 16.4776 29.2423 16.5145C29.3303 16.5513 29.4248 16.5703 29.5202 16.5703C29.6157 16.5703 29.7101 16.5513 29.7981 16.5145C29.8862 16.4776 29.966 16.4237 30.033 16.3557C30.1 16.2878 30.1528 16.2072 30.1884 16.1187C30.224 16.0301 30.2416 15.9354 30.2402 15.84V14.4H33.1202V15.84C33.1189 15.9354 33.1365 16.0301 33.1721 16.1187C33.2077 16.2072 33.2605 16.2878 33.3275 16.3557C33.3945 16.4237 33.4743 16.4776 33.5623 16.5145C33.6503 16.5513 33.7448 16.5703 33.8402 16.5703C33.9357 16.5703 34.0301 16.5513 34.1181 16.5145C34.2062 16.4776 34.286 16.4237 34.353 16.3557C34.42 16.2878 34.4728 16.2072 34.5084 16.1187C34.544 16.0301 34.5616 15.9354 34.5602 15.84V14.4H37.4402V15.84C37.4389 15.9354 37.4565 16.0301 37.4921 16.1187C37.5277 16.2072 37.5805 16.2878 37.6475 16.3557C37.7145 16.4237 37.7943 16.4776 37.8823 16.5145C37.9703 16.5513 38.0648 16.5703 38.1602 16.5703C38.2557 16.5703 38.3501 16.5513 38.4381 16.5145C38.5262 16.4776 38.606 16.4237 38.673 16.3557C38.74 16.2878 38.7928 16.2072 38.8284 16.1187C38.864 16.0301 38.8816 15.9354 38.8802 15.84V14.4H41.7602V15.84C41.7589 15.9354 41.7765 16.0301 41.8121 16.1187C41.8477 16.2072 41.9005 16.2878 41.9675 16.3557C42.0345 16.4237 42.1143 16.4776 42.2023 16.5145C42.2903 16.5513 42.3848 16.5703 42.4802 16.5703C42.5757 16.5703 42.6701 16.5513 42.7581 16.5145C42.8462 16.4776 42.926 16.4237 42.993 16.3557C43.06 16.2878 43.1128 16.2072 43.1484 16.1187C43.184 16.0301 43.2016 15.9354 43.2002 15.84V14.4H46.0802V15.84C46.0789 15.9354 46.0965 16.0301 46.1321 16.1187C46.1677 16.2072 46.2205 16.2878 46.2875 16.3557C46.3545 16.4237 46.4343 16.4776 46.5223 16.5145C46.6103 16.5513 46.7048 16.5703 46.8002 16.5703C46.8957 16.5703 46.9901 16.5513 47.0781 16.5145C47.1662 16.4776 47.246 16.4237 47.313 16.3557C47.38 16.2878 47.4328 16.2072 47.4684 16.1187C47.504 16.0301 47.5216 15.9354 47.5202 15.84V14.4H50.4002V15.84C50.3989 15.9354 50.4165 16.0301 50.4521 16.1187C50.4877 16.2072 50.5405 16.2878 50.6075 16.3557C50.6745 16.4237 50.7543 16.4776 50.8423 16.5145C50.9303 16.5513 51.0248 16.5703 51.1202 16.5703C51.2157 16.5703 51.3101 16.5513 51.3981 16.5145C51.4862 16.4776 51.566 16.4237 51.633 16.3557C51.7 16.2878 51.7528 16.2072 51.7884 16.1187C51.824 16.0301 51.8416 15.9354 51.8402 15.84V14.4H54.7202C56.7173 14.4 58.3202 16.003 58.3202 18V23.76H55.8002C55.7525 23.7593 55.7052 23.7681 55.6609 23.7859C55.6166 23.8037 55.5763 23.8301 55.5424 23.8636C55.5084 23.8971 55.4814 23.937 55.463 23.981C55.4446 24.0251 55.4351 24.0723 55.4351 24.12C55.4351 24.1677 55.4446 24.2149 55.463 24.259C55.4814 24.303 55.5084 24.3429 55.5424 24.3764C55.5763 24.4099 55.6166 24.4363 55.6609 24.4541C55.7052 24.4719 55.7525 24.4807 55.8002 24.48H58.3202V59.04C58.3202 59.4468 58.0071 59.76 57.6002 59.76H14.4002C13.9934 59.76 13.6802 59.4468 13.6802 59.04V24.48H51.4802C51.5279 24.4807 51.5753 24.4719 51.6196 24.4541C51.6638 24.4363 51.7041 24.4099 51.7381 24.3764C51.7721 24.3429 51.7991 24.303 51.8175 24.259C51.8359 24.2149 51.8454 24.1677 51.8454 24.12C51.8454 24.0723 51.8359 24.0251 51.8175 23.981C51.7991 23.937 51.7721 23.8971 51.7381 23.8636C51.7041 23.8301 51.6638 23.8037 51.6196 23.7859C51.5753 23.7681 51.5279 23.7593 51.4802 23.76H13.6802V18C13.6802 16.003 15.2832 14.4 17.2802 14.4ZM19.0802 17.28C18.0904 17.28 17.2802 18.0902 17.2802 19.08C17.2802 20.0699 18.0904 20.88 19.0802 20.88C20.0701 20.88 20.8802 20.0699 20.8802 19.08C20.8802 18.0902 20.0701 17.28 19.0802 17.28ZM52.9202 17.28C51.9304 17.28 51.1202 18.0902 51.1202 19.08C51.1202 20.0699 51.9304 20.88 52.9202 20.88C53.9101 20.88 54.7202 20.0699 54.7202 19.08C54.7202 18.0902 53.9101 17.28 52.9202 17.28ZM19.0802 18C19.681 18 20.1602 18.4793 20.1602 19.08C20.1602 19.6807 19.681 20.16 19.0802 20.16C18.4795 20.16 18.0002 19.6807 18.0002 19.08C18.0002 18.4793 18.4795 18 19.0802 18ZM52.9202 18C53.521 18 54.0002 18.4793 54.0002 19.08C54.0002 19.6807 53.521 20.16 52.9202 20.16C52.3195 20.16 51.8402 19.6807 51.8402 19.08C51.8402 18.4793 52.3195 18 52.9202 18ZM52.9202 23.76C52.8725 23.7593 52.8252 23.7681 52.7809 23.7859C52.7366 23.8037 52.6963 23.8301 52.6624 23.8636C52.6284 23.8971 52.6014 23.937 52.583 23.981C52.5646 24.0251 52.5551 24.0723 52.5551 24.12C52.5551 24.1677 52.5646 24.2149 52.583 24.259C52.6014 24.303 52.6284 24.3429 52.6624 24.3764C52.6963 24.4099 52.7366 24.4363 52.7809 24.4541C52.8252 24.4719 52.8725 24.4807 52.9202 24.48H54.3602C54.4079 24.4807 54.4553 24.4719 54.4996 24.4541C54.5438 24.4363 54.5841 24.4099 54.6181 24.3764C54.6521 24.3429 54.6791 24.303 54.6975 24.259C54.7159 24.2149 54.7254 24.1677 54.7254 24.12C54.7254 24.0723 54.7159 24.0251 54.6975 23.981C54.6791 23.937 54.6521 23.8971 54.6181 23.8636C54.5841 23.8301 54.5438 23.8037 54.4996 23.7859C54.4553 23.7681 54.4079 23.7593 54.3602 23.76H52.9202ZM29.1729 30.9558C29.1145 30.9541 29.0566 30.9667 29.0042 30.9925C28.9518 31.0182 28.9064 31.0563 28.872 31.1034L24.8571 36.457L23.6998 34.7203C23.6739 34.6802 23.6403 34.6456 23.6009 34.6185C23.5616 34.5915 23.5172 34.5726 23.4705 34.5628C23.4237 34.5531 23.3755 34.5528 23.3286 34.5619C23.2817 34.5709 23.2371 34.5893 23.1974 34.6158C23.1577 34.6422 23.1236 34.6764 23.0972 34.7162C23.0708 34.7559 23.0525 34.8006 23.0435 34.8475C23.0345 34.8944 23.035 34.9426 23.0448 34.9893C23.0546 35.0361 23.0736 35.0804 23.1007 35.1197L24.5407 37.2797C24.5726 37.3277 24.6155 37.3673 24.6659 37.3953C24.7163 37.4232 24.7726 37.4387 24.8302 37.4403C24.8878 37.442 24.945 37.4298 24.9969 37.4048C25.0488 37.3797 25.0939 37.3426 25.1285 37.2966L29.4485 31.5366C29.4894 31.4839 29.5149 31.421 29.5221 31.3547C29.5293 31.2885 29.518 31.2216 29.4894 31.1614C29.4609 31.1011 29.4161 31.0501 29.3603 31.0138C29.3044 30.9775 29.2395 30.9574 29.1729 30.9558ZM21.2402 31.68C21.1448 31.68 21.0532 31.7179 20.9857 31.7855C20.9182 31.853 20.8802 31.9445 20.8802 32.04V39.24C20.8802 39.3355 20.9182 39.427 20.9857 39.4946C21.0532 39.5621 21.1448 39.6 21.2402 39.6H28.4402C28.5357 39.6 28.6273 39.5621 28.6948 39.4946C28.7623 39.427 28.8002 39.3355 28.8002 39.24V34.92C28.8009 34.8723 28.7921 34.8249 28.7743 34.7807C28.7565 34.7364 28.7301 34.6961 28.6966 34.6621C28.6631 34.6282 28.6232 34.6012 28.5792 34.5828C28.5352 34.5644 28.4879 34.5549 28.4402 34.5549C28.3925 34.5549 28.3453 34.5644 28.3013 34.5828C28.2573 34.6012 28.2174 34.6282 28.1839 34.6621C28.1504 34.6961 28.124 34.7364 28.1062 34.7807C28.0884 34.8249 28.0796 34.8723 28.0802 34.92V38.88H21.6002V32.4H26.2802C26.3279 32.4007 26.3753 32.3919 26.4196 32.3741C26.4638 32.3563 26.5041 32.3299 26.5381 32.2964C26.5721 32.2629 26.5991 32.223 26.6175 32.179C26.6359 32.1349 26.6454 32.0877 26.6454 32.04C26.6454 31.9923 26.6359 31.9451 26.6175 31.901C26.5991 31.857 26.5721 31.8171 26.5381 31.7836C26.5041 31.7501 26.4638 31.7237 26.4196 31.7059C26.3753 31.6881 26.3279 31.6793 26.2802 31.68H21.2402ZM32.0402 33.84C31.9925 33.8393 31.9452 33.8481 31.9009 33.8659C31.8566 33.8837 31.8163 33.9101 31.7824 33.9436C31.7484 33.9771 31.7214 34.017 31.703 34.061C31.6846 34.1051 31.6751 34.1523 31.6751 34.2C31.6751 34.2477 31.6846 34.2949 31.703 34.339C31.7214 34.383 31.7484 34.4229 31.7824 34.4564C31.8163 34.4899 31.8566 34.5163 31.9009 34.5341C31.9452 34.5519 31.9925 34.5607 32.0402 34.56H50.7602C50.8079 34.5607 50.8553 34.5519 50.8996 34.5341C50.9438 34.5163 50.9841 34.4899 51.0181 34.4564C51.0521 34.4229 51.0791 34.383 51.0975 34.339C51.1159 34.2949 51.1254 34.2477 51.1254 34.2C51.1254 34.1523 51.1159 34.1051 51.0975 34.061C51.0791 34.017 51.0521 33.9771 51.0181 33.9436C50.9841 33.9101 50.9438 33.8837 50.8996 33.8659C50.8553 33.8481 50.8079 33.8393 50.7602 33.84H32.0402ZM32.0402 36.72C31.9925 36.7193 31.9452 36.7281 31.9009 36.7459C31.8566 36.7637 31.8163 36.7901 31.7824 36.8236C31.7484 36.8571 31.7214 36.897 31.703 36.941C31.6846 36.9851 31.6751 37.0323 31.6751 37.08C31.6751 37.1277 31.6846 37.1749 31.703 37.219C31.7214 37.263 31.7484 37.3029 31.7824 37.3364C31.8163 37.3699 31.8566 37.3963 31.9009 37.4141C31.9452 37.4319 31.9925 37.4407 32.0402 37.44H42.1202C42.1679 37.4407 42.2153 37.4319 42.2596 37.4141C42.3038 37.3963 42.3441 37.3699 42.3781 37.3364C42.4121 37.3029 42.4391 37.263 42.4575 37.219C42.4759 37.1749 42.4854 37.1277 42.4854 37.08C42.4854 37.0323 42.4759 36.9851 42.4575 36.941C42.4391 36.897 42.4121 36.8571 42.3781 36.8236C42.3441 36.7901 42.3038 36.7637 42.2596 36.7459C42.2153 36.7281 42.1679 36.7193 42.1202 36.72H32.0402ZM44.2802 36.72C44.2325 36.7193 44.1852 36.7281 44.1409 36.7459C44.0966 36.7637 44.0563 36.7901 44.0224 36.8236C43.9884 36.8571 43.9614 36.897 43.943 36.941C43.9246 36.9851 43.9151 37.0323 43.9151 37.08C43.9151 37.1277 43.9246 37.1749 43.943 37.219C43.9614 37.263 43.9884 37.3029 44.0224 37.3364C44.0563 37.3699 44.0966 37.3963 44.1409 37.4141C44.1852 37.4319 44.2325 37.4407 44.2802 37.44H47.8802C47.9279 37.4407 47.9753 37.4319 48.0196 37.4141C48.0638 37.3963 48.1041 37.3699 48.1381 37.3364C48.1721 37.3029 48.1991 37.263 48.2175 37.219C48.2359 37.1749 48.2454 37.1277 48.2454 37.08C48.2454 37.0323 48.2359 36.9851 48.2175 36.941C48.1991 36.897 48.1721 36.8571 48.1381 36.8236C48.1041 36.7901 48.0638 36.7637 48.0196 36.7459C47.9753 36.7281 47.9279 36.7193 47.8802 36.72H44.2802ZM29.1729 43.9158C29.1145 43.9141 29.0566 43.9267 29.0042 43.9525C28.9518 43.9782 28.9064 44.0163 28.872 44.0634L24.8571 49.417L23.6998 47.6803C23.6739 47.6402 23.6403 47.6056 23.6009 47.5785C23.5616 47.5515 23.5172 47.5326 23.4705 47.5228C23.4237 47.5131 23.3755 47.5128 23.3286 47.5219C23.2817 47.5309 23.2371 47.5493 23.1974 47.5758C23.1577 47.6022 23.1236 47.6364 23.0972 47.6762C23.0708 47.7159 23.0525 47.7606 23.0435 47.8075C23.0345 47.8544 23.035 47.9026 23.0448 47.9493C23.0546 47.9961 23.0736 48.0404 23.1007 48.0797L24.5407 50.2397C24.5726 50.2877 24.6155 50.3273 24.6659 50.3553C24.7163 50.3832 24.7726 50.3987 24.8302 50.4003C24.8878 50.402 24.945 50.3898 24.9969 50.3648C25.0488 50.3397 25.0939 50.3026 25.1285 50.2566L29.4485 44.4966C29.4894 44.4439 29.5149 44.381 29.5221 44.3147C29.5293 44.2485 29.518 44.1816 29.4894 44.1214C29.4609 44.0611 29.4161 44.0101 29.3603 43.9738C29.3044 43.9375 29.2395 43.9174 29.1729 43.9158V43.9158ZM21.2402 44.64C21.1448 44.64 21.0532 44.6779 20.9857 44.7455C20.9182 44.813 20.8802 44.9045 20.8802 45V52.2C20.8802 52.2955 20.9182 52.387 20.9857 52.4546C21.0532 52.5221 21.1448 52.56 21.2402 52.56H28.4402C28.5357 52.56 28.6273 52.5221 28.6948 52.4546C28.7623 52.387 28.8002 52.2955 28.8002 52.2V47.88C28.8009 47.8323 28.7921 47.7849 28.7743 47.7407C28.7565 47.6964 28.7301 47.6561 28.6966 47.6221C28.6631 47.5882 28.6232 47.5612 28.5792 47.5428C28.5352 47.5244 28.4879 47.5149 28.4402 47.5149C28.3925 47.5149 28.3453 47.5244 28.3013 47.5428C28.2573 47.5612 28.2174 47.5882 28.1839 47.6221C28.1504 47.6561 28.124 47.6964 28.1062 47.7407C28.0884 47.7849 28.0796 47.8323 28.0802 47.88V51.84H21.6002V45.36H26.2802C26.3279 45.3607 26.3753 45.3519 26.4196 45.3341C26.4638 45.3163 26.5041 45.2899 26.5381 45.2564C26.5721 45.2229 26.5991 45.183 26.6175 45.139C26.6359 45.0949 26.6454 45.0477 26.6454 45C26.6454 44.9523 26.6359 44.9051 26.6175 44.861C26.5991 44.817 26.5721 44.7771 26.5381 44.7436C26.5041 44.7101 26.4638 44.6837 26.4196 44.6659C26.3753 44.6481 26.3279 44.6393 26.2802 44.64H21.2402ZM32.0402 46.8C31.9925 46.7993 31.9452 46.8081 31.9009 46.8259C31.8566 46.8437 31.8163 46.8701 31.7824 46.9036C31.7484 46.9371 31.7214 46.977 31.703 47.021C31.6846 47.0651 31.6751 47.1123 31.6751 47.16C31.6751 47.2077 31.6846 47.2549 31.703 47.299C31.7214 47.343 31.7484 47.3829 31.7824 47.4164C31.8163 47.4499 31.8566 47.4763 31.9009 47.4941C31.9452 47.5119 31.9925 47.5207 32.0402 47.52H50.7602C50.8079 47.5207 50.8553 47.5119 50.8996 47.4941C50.9438 47.4763 50.9841 47.4499 51.0181 47.4164C51.0521 47.3829 51.0791 47.343 51.0975 47.299C51.1159 47.2549 51.1254 47.2077 51.1254 47.16C51.1254 47.1123 51.1159 47.0651 51.0975 47.021C51.0791 46.977 51.0521 46.9371 51.0181 46.9036C50.9841 46.8701 50.9438 46.8437 50.8996 46.8259C50.8553 46.8081 50.8079 46.7993 50.7602 46.8H32.0402ZM32.0402 49.68C31.9925 49.6793 31.9452 49.6881 31.9009 49.7059C31.8566 49.7237 31.8163 49.7501 31.7824 49.7836C31.7484 49.8171 31.7214 49.857 31.703 49.901C31.6846 49.9451 31.6751 49.9923 31.6751 50.04C31.6751 50.0877 31.6846 50.1349 31.703 50.179C31.7214 50.223 31.7484 50.2629 31.7824 50.2964C31.8163 50.3299 31.8566 50.3563 31.9009 50.3741C31.9452 50.3919 31.9925 50.4007 32.0402 50.4H42.1202C42.1679 50.4007 42.2153 50.3919 42.2596 50.3741C42.3038 50.3563 42.3441 50.3299 42.3781 50.2964C42.4121 50.2629 42.4391 50.223 42.4575 50.179C42.4759 50.1349 42.4854 50.0877 42.4854 50.04C42.4854 49.9923 42.4759 49.9451 42.4575 49.901C42.4391 49.857 42.4121 49.8171 42.3781 49.7836C42.3441 49.7501 42.3038 49.7237 42.2596 49.7059C42.2153 49.6881 42.1679 49.6793 42.1202 49.68H32.0402ZM44.2802 49.68C44.2325 49.6793 44.1852 49.6881 44.1409 49.7059C44.0966 49.7237 44.0563 49.7501 44.0224 49.7836C43.9884 49.8171 43.9614 49.857 43.943 49.901C43.9246 49.9451 43.9151 49.9923 43.9151 50.04C43.9151 50.0877 43.9246 50.1349 43.943 50.179C43.9614 50.223 43.9884 50.2629 44.0224 50.2964C44.0563 50.3299 44.0966 50.3563 44.1409 50.3741C44.1852 50.3919 44.2325 50.4007 44.2802 50.4H47.8802C47.9279 50.4007 47.9753 50.3919 48.0196 50.3741C48.0638 50.3563 48.1041 50.3299 48.1381 50.2964C48.1721 50.2629 48.1991 50.223 48.2175 50.179C48.2359 50.1349 48.2454 50.0877 48.2454 50.04C48.2454 49.9923 48.2359 49.9451 48.2175 49.901C48.1991 49.857 48.1721 49.8171 48.1381 49.7836C48.1041 49.7501 48.0638 49.7237 48.0196 49.7059C47.9753 49.6881 47.9279 49.6793 47.8802 49.68H44.2802Z" fill="#FC9F5B"/>
</svg>
