<svg width="72" height="72" viewBox="0 0 72 72" fill="none" xmlns="http://www.w3.org/2000/svg">
<path d="M39.5999 12.915C38.8403 12.915 38.2223 13.5085 38.1698 14.2552L33.5882 20.8364C33.3808 20.84 33.1859 20.8893 33.0088 20.9714L23.7445 14.9302C23.671 14.2044 23.0637 13.635 22.3185 13.635C21.5244 13.635 20.8785 14.2808 20.8785 15.075C20.8785 15.224 20.9085 15.3643 20.9502 15.4997L9.25727 29.7183C9.00455 30.025 9.04898 30.4788 9.3557 30.7308C9.49034 30.8409 9.65286 30.8953 9.81414 30.8953C10.0222 30.8953 10.2285 30.8059 10.371 30.6323L22.0105 16.4798C22.1106 16.5022 22.214 16.515 22.3213 16.515C22.6266 16.515 22.9079 16.4176 23.1412 16.2548L32.1862 22.1541C32.1826 22.1944 32.1735 22.2332 32.1735 22.275C32.1735 23.0692 32.8194 23.715 33.6135 23.715C34.4077 23.715 35.0535 23.0692 35.0535 22.275C35.0535 22.0086 34.9763 21.7618 34.8496 21.548L38.9615 15.6389C39.1544 15.7354 39.3709 15.795 39.6013 15.795C39.8936 15.795 40.1641 15.7064 40.3916 15.5559L45.3782 19.2277C45.3703 19.2824 45.3599 19.3374 45.3599 19.395C45.3599 20.1892 46.0058 20.835 46.7999 20.835C47.5941 20.835 48.2399 20.1892 48.2399 19.395C48.2399 19.3914 48.2385 19.3888 48.2385 19.3852L53.3685 16.1367L52.401 18.232C52.234 18.5928 52.3919 19.022 52.7526 19.1883C52.8505 19.2329 52.952 19.2544 53.0535 19.2544C53.3257 19.2544 53.5865 19.0988 53.7074 18.8353L55.492 14.9695C55.5604 14.8227 55.563 14.6664 55.5313 14.5195C55.5594 14.4015 55.5666 14.2763 55.5313 14.1539C55.4421 13.8457 55.1591 13.635 54.8395 13.635H50.3999C50.0025 13.635 49.6799 13.9568 49.6799 14.355C49.6799 14.7532 50.0025 15.075 50.3999 15.075H52.356L47.5045 18.1463C47.2957 18.0275 47.057 17.955 46.7999 17.955C46.5998 17.955 46.4095 17.9962 46.236 18.0703L41.0287 14.2369C40.9675 13.4989 40.3545 12.915 39.5999 12.915ZM39.5999 13.635C39.9966 13.635 40.3199 13.9576 40.3199 14.355C40.3199 14.7524 39.9966 15.075 39.5999 15.075C39.2032 15.075 38.8799 14.7524 38.8799 14.355C38.8799 13.9576 39.2032 13.635 39.5999 13.635ZM22.3199 14.355C22.7166 14.355 23.0399 14.6776 23.0399 15.075C23.0399 15.4724 22.7166 15.795 22.3199 15.795C21.9232 15.795 21.5999 15.4724 21.5999 15.075C21.5999 14.6776 21.9232 14.355 22.3199 14.355ZM46.7999 18.675C47.1966 18.675 47.5199 18.9976 47.5199 19.395C47.5199 19.7924 47.1966 20.115 46.7999 20.115C46.4032 20.115 46.0799 19.7924 46.0799 19.395C46.0799 18.9976 46.4032 18.675 46.7999 18.675ZM33.6135 21.555C34.0102 21.555 34.3335 21.8776 34.3335 22.275C34.3335 22.6724 34.011 22.995 33.6135 22.995C33.2168 22.995 32.8935 22.6724 32.8935 22.275C32.8935 21.8776 33.2168 21.555 33.6135 21.555ZM21.4002 21.9853C19.6141 21.9071 17.9537 23.0901 17.5007 24.8906L16.1366 30.3131C16.0394 30.699 16.2738 31.0892 16.6598 31.1864C17.0414 31.2807 17.4366 31.0506 17.533 30.6647L18.8957 25.2422C19.2197 23.9541 20.5298 23.1702 21.8193 23.4942L62.4698 33.7148C63.0897 33.8711 63.6137 34.2623 63.9449 34.8159C64.2761 35.3703 64.3719 36.0171 64.2163 36.637L59.2818 56.2641C58.9578 57.5521 57.6484 58.3374 56.3596 58.0134L33.2212 52.1958C32.8374 52.0971 32.4444 52.333 32.3479 52.7189C32.2507 53.1048 32.4837 53.495 32.8696 53.5922L56.008 59.4112C56.322 59.4897 56.6364 59.528 56.946 59.528C58.6683 59.528 60.2397 58.3609 60.6782 56.617L65.6141 36.9886C65.864 35.995 65.7088 34.9618 65.1796 34.0777C64.6511 33.1935 63.8128 32.569 62.8199 32.3198L22.1709 22.0978C21.9137 22.0333 21.6554 21.9965 21.4002 21.9853ZM23.8682 26.962C23.7293 26.9838 23.6105 27.085 23.5743 27.2292C23.2186 28.6397 21.8744 29.5249 20.5748 29.1952C20.3825 29.1476 20.1857 29.2645 20.1374 29.4567L19.3696 32.5097C17.5595 32.3642 15.8709 32.355 15.4785 32.355C14.5576 32.355 6.47852 32.4054 6.47852 34.155V37.0673C6.47852 37.5332 7.04851 37.8783 7.89883 38.1361C7.14715 38.3622 6.62596 38.6586 6.51508 39.0445C6.4942 39.0906 6.47992 39.141 6.47992 39.195V42.1073C6.47992 42.3824 6.67734 42.616 7.0143 42.8133C6.67806 43.0098 6.47992 43.2421 6.47992 43.515V46.4273C6.47992 46.8925 7.04786 47.2376 7.89602 47.4947C7.1465 47.72 6.63093 48.0158 6.51789 48.4003C6.49557 48.4471 6.47992 48.4996 6.47992 48.555V51.4673C6.47992 53.2263 14.559 53.2772 15.4799 53.2772C16.3554 53.2772 23.6973 53.2305 24.418 51.7134C24.611 52.1339 24.8038 52.5276 24.9932 52.8891C25.9882 54.7848 26.5778 55.1841 26.9788 55.1841C27.0537 55.1841 27.1236 55.1698 27.187 55.1489L29.7041 54.322C29.7445 54.3292 29.7842 54.3361 29.8195 54.3361C29.8965 54.3361 29.9631 54.321 30.0149 54.3037C30.9898 53.9646 30.4888 50.9374 29.8912 48.4369L54.1659 54.54C54.1954 54.5472 54.2235 54.5512 54.253 54.5512C54.3178 54.5512 54.3818 54.5331 54.4387 54.4992C54.5208 54.451 54.5802 54.3713 54.6032 54.2784C54.7767 53.5894 55.1867 53.0053 55.7591 52.6345C56.3236 52.2681 56.9778 52.152 57.6027 52.3111C57.6942 52.3327 57.7935 52.3193 57.8755 52.2703C57.9576 52.2221 58.017 52.1424 58.0401 52.0495L61.1282 39.7645C61.1512 39.6717 61.1378 39.5738 61.0888 39.4917C61.0399 39.4104 60.9588 39.3503 60.8666 39.3258C59.567 38.9996 58.7989 37.5856 59.1538 36.1744C59.2021 35.9807 59.0852 35.7867 58.8923 35.7384L55.7591 34.9509C55.5655 34.9041 55.3714 35.0189 55.3232 35.2111C55.275 35.4041 55.3904 35.6002 55.5834 35.6484L58.386 36.353C58.1585 37.901 58.979 39.3894 60.3491 39.9164L57.4255 51.5447C56.7163 51.454 55.9975 51.6216 55.3682 52.0298C54.7404 52.4359 54.2668 53.041 54.0098 53.7567L29.6957 47.6437C29.3789 46.4097 29.0762 45.4159 28.9884 45.1322C27.8781 41.5509 26.2683 37.6899 25.1746 37.1362C24.95 37.0239 24.766 37.0482 24.6515 37.087C24.614 37.1 24.5819 37.121 24.5488 37.1419C24.5236 37.1347 24.4981 37.1271 24.4715 37.1264C24.4729 37.107 24.4799 37.0882 24.4799 37.0673V34.155C24.4799 33.2492 22.3135 32.799 20.0966 32.5758L20.7534 29.9602C22.2106 30.1452 23.6364 29.2226 24.1677 27.7509L49.7446 34.1817C49.9369 34.2264 50.1316 34.1124 50.1805 33.9202C50.2288 33.7272 50.1119 33.5325 49.919 33.4842L24.0116 26.9677C23.963 26.9558 23.9145 26.9548 23.8682 26.962ZM15.4799 33.075C20.6402 33.075 23.3637 33.7669 23.7374 34.155C23.3637 34.5431 20.6402 35.235 15.4799 35.235C10.3197 35.235 7.5961 34.5431 7.22242 34.155C7.5961 33.7669 10.3197 33.075 15.4799 33.075ZM50.9441 33.7697C50.8053 33.7916 50.6864 33.8927 50.6502 34.0369C50.602 34.2298 50.7188 34.426 50.9118 34.4742L51.4954 34.6219C51.5249 34.6291 51.5545 34.6317 51.584 34.6317C51.7453 34.6317 51.8917 34.5238 51.9327 34.3603C51.981 34.1674 51.8641 33.9712 51.6712 33.923L51.0876 33.7753C51.0392 33.7636 50.9904 33.7624 50.9441 33.7697ZM29.991 34.5178C28.8234 34.4684 27.7326 35.2403 27.4359 36.4191C27.0975 37.7662 27.9176 39.1378 29.2654 39.4777C29.4706 39.5288 29.6755 39.5536 29.8785 39.5536C31.006 39.5536 32.0367 38.7893 32.324 37.6481C32.6624 36.301 31.8423 34.9308 30.4945 34.5909C30.3266 34.5491 30.1578 34.5249 29.991 34.5178ZM23.7627 34.9523L23.7684 37.028C23.5574 37.4088 20.8288 38.1558 15.4799 38.1558C10.131 38.1558 7.40296 37.4101 7.19992 37.0673V34.9537C9.19864 35.92 14.7275 35.955 15.4799 35.955C16.233 35.955 21.7662 35.92 23.7627 34.9523ZM29.8813 35.2336C30.026 35.2336 30.1725 35.251 30.3187 35.2884C31.2806 35.5311 31.867 36.5118 31.6251 37.4737C31.3832 38.4357 30.4053 39.0243 29.4412 38.7787C28.4793 38.5368 27.8928 37.5568 28.1348 36.5948C28.34 35.7791 29.0756 35.2336 29.8813 35.2336ZM38.219 35.2406C37.2269 35.2883 36.2564 35.5798 35.3798 36.1041C33.9772 36.9429 32.9851 38.2782 32.587 39.863C31.764 43.1354 33.7562 46.4671 37.0279 47.2894C37.5261 47.4147 38.0308 47.4764 38.5312 47.4764C39.6234 47.4764 40.6982 47.1812 41.6601 46.6059C43.0626 45.7671 44.0547 44.4318 44.4529 42.847C45.2759 39.5746 43.2836 36.2429 40.012 35.4206C39.4174 35.271 38.8143 35.212 38.219 35.2406ZM38.5101 35.9536C38.9514 35.9536 39.397 36.0072 39.8362 36.1181C41.2351 36.4702 42.4134 37.3463 43.1535 38.5833C43.8937 39.821 44.1068 41.2723 43.7554 42.6712C43.404 44.0702 42.5293 45.2477 41.2916 45.9872C40.054 46.7273 38.6026 46.9433 37.2037 46.5891C35.8047 46.2377 34.6265 45.363 33.8863 44.1253C33.1462 42.8876 32.9331 41.4363 33.2845 40.0373C33.6358 38.6384 34.5105 37.4608 35.7482 36.7214C36.5971 36.2138 37.546 35.9536 38.5101 35.9536ZM24.8934 37.8014C25.4463 38.1204 26.9082 40.8567 28.3007 45.3473C29.7097 49.892 30.0538 53.0112 29.773 53.5908C29.2194 53.2725 27.7582 50.5348 26.3657 46.0434C24.9567 41.4988 24.6118 38.3817 24.8934 37.8014ZM24.1466 37.9645C23.8162 40.1389 25.452 45.5314 25.6766 46.2572C26.6249 49.3157 27.938 52.5719 28.9827 53.8031L27.0013 54.4598C26.5736 54.3785 25.0133 52.0203 23.3465 46.9392C21.6797 41.8575 21.5389 39.034 21.801 38.7337L24.1466 37.9645ZM9.63133 38.5017C12.008 38.8588 14.9457 38.8772 15.4799 38.8772C16.0005 38.8772 18.8049 38.861 21.1471 38.5298C21.0182 38.8704 20.9826 39.3593 21.0121 39.9375C19.6664 40.1305 17.8293 40.275 15.4799 40.275C10.3197 40.275 7.5961 39.5831 7.22242 39.195C7.41178 38.9984 8.22229 38.7249 9.63133 38.5017ZM7.19992 39.9937C9.19864 40.96 14.7275 40.995 15.4799 40.995C15.9947 40.995 18.7462 40.9772 21.074 40.6575C21.1525 41.3242 21.2903 42.0586 21.4523 42.788C20.0807 43.0162 18.1036 43.1972 15.4799 43.1972C10.131 43.1972 7.40296 42.4501 7.19992 42.1073V39.9937ZM49.7854 40.9978C49.3631 40.9767 48.9433 41.0791 48.5718 41.3016C48.0764 41.5975 47.7264 42.0682 47.586 42.6277C47.2959 43.7825 47.9977 44.9587 49.1526 45.2503C49.3283 45.2942 49.5077 45.3164 49.6841 45.3164C50.0693 45.3164 50.4482 45.2115 50.788 45.0084C51.2834 44.7125 51.6334 44.2425 51.7738 43.6823C52.064 42.5275 51.3607 41.3513 50.2059 41.0597C50.0664 41.0251 49.9261 41.0049 49.7854 40.9978ZM49.6757 41.715C49.7938 41.715 49.9134 41.7291 50.0301 41.7586C50.8012 41.9516 51.27 42.7362 51.0763 43.5052C50.9827 43.8788 50.7487 44.1917 50.4182 44.3897C50.0884 44.5877 49.702 44.6457 49.3284 44.5514C48.5587 44.3577 48.0898 43.5731 48.2835 42.8034C48.3771 42.4298 48.6098 42.1169 48.9402 41.9189C49.1663 41.7835 49.4194 41.715 49.6757 41.715ZM7.94102 43.1873C10.3127 43.8886 14.8067 43.9172 15.4799 43.9172C16.0358 43.9172 19.1948 43.8964 21.6154 43.4939C21.668 43.7106 21.7217 43.9249 21.7757 44.1337C20.3983 44.3857 18.3124 44.595 15.4799 44.595C11.2852 44.595 8.70182 44.1377 7.68086 43.7583C7.5599 43.6546 7.46722 43.5331 7.40242 43.3927C7.52626 43.3279 7.7135 43.2579 7.94102 43.1873ZM7.19992 44.3137C9.19864 45.28 14.7275 45.315 15.4799 45.315C16.0631 45.315 19.5097 45.2927 21.9641 44.8341C22.2082 45.7211 22.4384 46.4647 22.5716 46.8816C21.2764 47.2048 18.933 47.5172 15.4799 47.5172C10.131 47.5172 7.40296 46.7701 7.19992 46.4273V44.3137ZM9.63133 47.8617C12.008 48.2188 14.9457 48.2372 15.4799 48.2372C16.0134 48.2372 18.9462 48.2181 21.3215 47.8617C22.0494 47.9755 22.6213 48.1028 23.0245 48.2273C23.0936 48.4239 23.1634 48.6215 23.234 48.8137C22.1871 49.1903 19.6214 49.635 15.4799 49.635C10.3197 49.635 7.5961 48.9431 7.22242 48.555C7.41178 48.3584 8.22157 48.0842 9.63133 47.8617ZM7.19992 49.3537C9.19864 50.32 14.7275 50.355 15.4799 50.355C16.2006 50.355 21.2956 50.3194 23.4801 49.4677C23.5744 49.7132 23.6691 49.9557 23.7641 50.1919L23.7684 51.428C23.5574 51.8088 20.8288 52.5558 15.4799 52.5558C10.131 52.5558 7.40296 51.8101 7.19992 51.4673V49.3537Z" fill="#068466"/>
</svg>
