<svg width="72" height="72" viewBox="0 0 72 72" fill="none" xmlns="http://www.w3.org/2000/svg">
<path d="M15.8597 12.96C14.6871 12.96 13.68 13.8805 13.68 15.0539C13.68 15.1103 13.6866 15.1664 13.6997 15.2212L13.9598 16.3083L12.2597 26.8467H12.8714C12.6969 26.8469 12.5284 26.9105 12.3973 27.0256C12.2662 27.1407 12.1813 27.2995 12.1584 27.4725C12.1556 27.4935 12.1538 27.5146 12.1528 27.5358C12.1523 27.54 12.1518 27.5442 12.1514 27.5484L12.1472 27.6384C12.1353 27.9017 12.1289 28.1826 12.1289 28.4948C12.1289 29.7153 12.7596 30.6595 13.68 31.2412V55.44H12.96C12.769 55.44 12.5859 55.5159 12.4509 55.6509C12.3159 55.7859 12.24 55.9691 12.24 56.16V58.32C12.24 58.511 12.3159 58.6941 12.4509 58.8291C12.5859 58.9641 12.769 59.04 12.96 59.04H59.04C59.2309 59.04 59.4141 58.9641 59.5491 58.8291C59.6841 58.6941 59.76 58.511 59.76 58.32V56.16C59.76 55.9691 59.6841 55.7859 59.5491 55.6509C59.4141 55.5159 59.2309 55.44 59.04 55.44H57.6028L57.7111 31.68H57.3033C57.4172 31.68 57.5295 31.653 57.6309 31.6012C58.7378 31.0357 59.4998 29.9259 59.4998 28.523C59.4998 28.2275 59.4944 27.9601 59.4858 27.6455C59.4849 27.6191 59.4825 27.5928 59.4787 27.5667L58.0036 17.0381L58.3102 15.1706C58.3166 15.132 58.3199 15.093 58.32 15.0539C58.32 13.8805 57.3129 12.96 56.1403 12.96H15.8597ZM15.8597 14.4H56.1403C56.566 14.4 56.8628 14.7064 56.873 15.0384L56.565 16.913C56.5531 16.9846 56.5522 17.0576 56.5622 17.1295L56.5833 17.28H53.6414H53.64H48.6H48.5986H43.56H38.52H33.48H28.4414H28.44H23.4H18.36H15.262L15.4041 16.3955C15.419 16.3014 15.4152 16.2054 15.3928 16.1128L15.1327 15.0244C15.1516 14.6983 15.4406 14.4 15.8597 14.4ZM15.2212 18H18V27.1898V27.36H13.6364L14.5195 21.8841L15.2212 18ZM18.72 18H23.04V27.1898V27.36H18.72V27.3459V18ZM23.76 18H28.08V27.1898V27.36H23.7614C23.7608 25.9821 23.76 18.6085 23.76 18ZM28.8014 18H33.12V27.1898V27.36H28.8014C28.8014 27.3595 28.8014 27.3591 28.8014 27.3586V18ZM33.8414 18H38.16V27.1898V27.36H33.8414C33.8414 27.3595 33.8414 27.3591 33.8414 27.3586V18ZM38.88 18H43.2V27.1898V27.36H38.8814C38.8808 26.0288 38.88 18.6085 38.88 18ZM43.9214 18H48.2386V27.3586C48.2386 27.3591 48.2386 27.3595 48.2386 27.36H43.9214C43.9214 27.3595 43.9214 27.3591 43.9214 27.3586V18ZM48.96 18H53.28V27C53.2798 27.0122 53.2803 27.0244 53.2814 27.0366V27.3586C53.2814 27.3591 53.2814 27.3595 53.2814 27.36H48.96V27.1898V18ZM54.0014 18H56.6845L57.9952 27.36H54.0098C54.0129 27.2472 54.0135 27.1217 54.0183 27.0169C54.0201 26.9745 54.0144 26.9321 54.0014 26.8917V18ZM13.5773 28.08H18C18 28.085 18 28.0887 18 28.0941C18 29.2518 16.8811 30.24 15.8302 30.24H15.4322C15.3253 30.24 15.2214 30.2237 15.1186 30.2048C15.1108 30.0851 15.0732 29.9693 15.0092 29.8678C14.9452 29.7663 14.8569 29.6824 14.7522 29.6237C14.6476 29.565 14.5299 29.5334 14.41 29.5318C14.29 29.5301 14.1715 29.5584 14.0653 29.6142C13.8384 29.3653 13.6742 29.0496 13.5802 28.7002C13.5759 28.6321 13.5689 28.5694 13.5689 28.4948C13.5689 28.3432 13.5743 28.217 13.5773 28.08ZM18.7312 28.08H22.6209C22.536 28.0941 22.459 28.1382 22.4038 28.2042C22.3486 28.2703 22.3188 28.3539 22.32 28.44V29.8055C22.0083 30.0747 21.6158 30.2386 21.1612 30.2386H20.8364C19.7202 30.2386 18.7902 29.2894 18.7312 28.08ZM22.7461 28.08H23.0414C23.0414 28.0804 23.0414 28.0937 23.0414 28.0941C23.0414 28.1734 23.0296 28.2479 23.0231 28.3247C23.0034 28.2627 22.9672 28.2072 22.9184 28.1641C22.8696 28.121 22.8101 28.0919 22.7461 28.08V28.08ZM23.7712 28.08H28.0814C28.0814 28.0845 28.0814 28.0878 28.0814 28.0927C28.0814 29.3092 27.3075 30.2386 26.2012 30.2386H25.8764C24.7603 30.2386 23.8302 29.2894 23.7712 28.08ZM28.8112 28.08H33.1214C33.1214 28.0845 33.1214 28.0878 33.1214 28.0927C33.1214 29.3092 32.3475 30.2386 31.2412 30.2386H30.9164C29.8002 30.2386 28.8701 29.2894 28.8112 28.08ZM33.8512 28.08H38.1614C38.1614 28.083 38.1614 28.0937 38.1614 28.0941C38.1608 29.3099 37.3871 30.2386 36.2812 30.2386H35.9564C34.8402 30.2386 33.9101 29.2894 33.8512 28.08ZM38.8912 28.08H43.2014C43.199 29.2938 42.4225 30.2386 41.3212 30.2386H40.9964C39.8803 30.2386 38.9502 29.2893 38.8912 28.08ZM43.9537 28.08H48.2217C48.1727 28.655 47.9839 29.1747 47.6916 29.5509C47.3526 29.9873 46.905 30.2386 46.3641 30.2386H46.0392C45.0109 30.2386 44.1133 29.3189 43.9537 28.08ZM48.9712 28.08H49.2609C49.2049 28.0893 49.1519 28.1117 49.1062 28.1455C49.0605 28.1792 49.0234 28.2233 48.998 28.2741C48.9895 28.2091 48.9745 28.1466 48.9712 28.08ZM49.3777 28.08H53.2814V28.0927C53.2814 29.3092 52.5075 30.2386 51.4012 30.2386H51.0764C50.5418 30.2386 50.054 30.0163 49.68 29.6564V28.44C49.6811 28.3537 49.6512 28.2699 49.5957 28.2038C49.5402 28.1378 49.4628 28.0938 49.3777 28.08ZM54.0239 28.08H58.0514C58.0544 28.2254 58.0598 28.3768 58.0598 28.523C58.0598 28.8334 58.0155 29.088 57.9347 29.3077C57.581 29.8725 56.9918 30.24 56.3386 30.24H56.1966C55.0844 30.24 54.1463 29.3023 54.0239 28.08ZM18.3586 29.385C18.8395 30.3125 19.7604 30.9586 20.8364 30.9586H21.1612C21.5885 30.9586 21.9763 30.8456 22.32 30.6605V45.36H21.24C21.1445 45.36 21.053 45.3979 20.9855 45.4655C20.9179 45.533 20.88 45.6245 20.88 45.72V50.04C20.88 50.1355 20.9179 50.227 20.9855 50.2945C21.053 50.3621 21.1445 50.4 21.24 50.4H47.16C47.2077 50.4007 47.2551 50.3919 47.2993 50.3741C47.3436 50.3563 47.3839 50.3299 47.4179 50.2964C47.4518 50.2629 47.4788 50.223 47.4972 50.179C47.5156 50.1349 47.5251 50.0877 47.5251 50.04C47.5251 49.9923 47.5156 49.9451 47.4972 49.901C47.4788 49.857 47.4518 49.8171 47.4179 49.7836C47.3839 49.7501 47.3436 49.7237 47.2993 49.7059C47.2551 49.6881 47.2077 49.6793 47.16 49.68H21.6V46.08H50.4V49.68H49.32C49.2723 49.6793 49.2249 49.6881 49.1807 49.7059C49.1364 49.7237 49.0961 49.7501 49.0621 49.7836C49.0282 49.8171 49.0012 49.857 48.9828 49.901C48.9644 49.9451 48.9549 49.9923 48.9549 50.04C48.9549 50.0877 48.9644 50.1349 48.9828 50.179C49.0012 50.223 49.0282 50.2629 49.0621 50.2964C49.0961 50.3299 49.1364 50.3563 49.1807 50.3741C49.2249 50.3919 49.2723 50.4007 49.32 50.4H50.76C50.8555 50.4 50.947 50.3621 51.0145 50.2945C51.0821 50.227 51.12 50.1355 51.12 50.04V45.72C51.12 45.6245 51.0821 45.533 51.0145 45.4655C50.947 45.3979 50.8555 45.36 50.76 45.36H49.68V30.5522C50.0924 30.8039 50.5646 30.9586 51.0764 30.9586H51.4012C52.4598 30.9586 53.2961 30.3079 53.7117 29.3962C54.2117 30.3209 55.1229 30.96 56.1966 30.96H56.2739L56.16 56.1572C56.1596 56.252 56.178 56.3459 56.214 56.4336C56.25 56.5212 56.303 56.6009 56.3699 56.6681C56.4368 56.7353 56.5163 56.7885 56.6038 56.8249C56.6914 56.8613 56.7852 56.88 56.88 56.88H58.32V57.6H13.68V56.88H14.4C14.4705 56.8799 14.5406 56.8695 14.6081 56.8491C14.6559 56.8703 14.7077 56.8808 14.76 56.88H50.04C50.0877 56.8807 50.1351 56.8719 50.1793 56.8541C50.2236 56.8363 50.2639 56.8099 50.2979 56.7764C50.3318 56.7429 50.3588 56.703 50.3772 56.659C50.3956 56.6149 50.4051 56.5677 50.4051 56.52C50.4051 56.4723 50.3956 56.4251 50.3772 56.381C50.3588 56.337 50.3318 56.2971 50.2979 56.2636C50.2639 56.2301 50.2236 56.2037 50.1793 56.1859C50.1351 56.1681 50.0877 56.1593 50.04 56.16H15.12V30.9262C15.2234 30.9396 15.3251 30.96 15.4322 30.96H15.8302C16.8739 30.96 17.8626 30.3208 18.3586 29.385ZM43.6261 29.392C44.1213 30.3206 45.0031 30.9586 46.0392 30.9586H46.3641C47.1379 30.9586 47.8081 30.5737 48.2597 29.9925C48.399 29.8132 48.5129 29.6112 48.6127 29.3991C48.7111 29.5875 48.8269 29.7622 48.96 29.9236V45.36H47.52V42.12C47.52 42.0245 47.4821 41.933 47.4145 41.8655C47.347 41.7979 47.2555 41.76 47.16 41.76H46.08V38.52C46.08 38.4245 46.0421 38.333 45.9745 38.2655C45.907 38.1979 45.8155 38.16 45.72 38.16H41.4C41.3045 38.16 41.213 38.1979 41.1455 38.2655C41.0779 38.333 41.04 38.4245 41.04 38.52V41.76H40.68C40.5845 41.76 40.493 41.7979 40.4255 41.8655C40.3579 41.933 40.32 42.0245 40.32 42.12V45.36H38.2866C38.5643 44.9472 38.7295 44.4539 38.7295 43.9242C38.7295 43.0175 38.2064 42.2742 37.492 41.805C37.5058 41.7415 37.5559 41.6811 37.5666 41.6123C37.5966 41.4187 37.6082 41.2006 37.6045 40.9823C37.6009 40.7641 37.582 40.5476 37.5441 40.3523C37.5061 40.1571 37.4835 39.9863 37.3064 39.8081C37.2729 39.7743 37.2331 39.7474 37.1891 39.7291C37.1452 39.7107 37.0981 39.7013 37.0505 39.7013H35.0086C34.961 39.7013 34.9139 39.7107 34.8699 39.7291C34.826 39.7474 34.7861 39.7743 34.7527 39.8081C34.5761 39.9862 34.553 40.1571 34.515 40.3523C34.477 40.5476 34.4582 40.7655 34.4545 40.9838C34.4509 41.202 34.4625 41.4187 34.4925 41.6123C34.5032 41.6811 34.5533 41.7415 34.567 41.805C33.8524 42.2741 33.3295 43.0172 33.3295 43.9242C33.3295 44.4539 33.4947 44.9472 33.7725 45.36H31.68V42.12C31.68 42.0245 31.6421 41.933 31.5745 41.8655C31.507 41.7979 31.4155 41.76 31.32 41.76H30.96V38.52C30.96 38.4245 30.9221 38.333 30.8545 38.2655C30.787 38.1979 30.6955 38.16 30.6 38.16H25.56C25.4645 38.16 25.373 38.1979 25.3055 38.2655C25.2379 38.333 25.2 38.4245 25.2 38.52V41.76H24.84C24.7445 41.76 24.653 41.7979 24.5855 41.8655C24.5179 41.933 24.48 42.0245 24.48 42.12V45.36H23.04V30.0923C23.2013 29.9068 23.3289 29.6908 23.4394 29.4637C23.9313 30.3489 24.8308 30.9586 25.8764 30.9586H26.2012C27.2334 30.9586 28.0534 30.3394 28.4794 29.4637C28.9713 30.3489 29.8708 30.9586 30.9164 30.9586H31.2412C32.2734 30.9586 33.0934 30.3394 33.5194 29.4637C34.0113 30.3489 34.9108 30.9586 35.9564 30.9586H36.2812C37.3134 30.9586 38.1334 30.3394 38.5594 29.4637C39.0513 30.3489 39.9508 30.9586 40.9964 30.9586H41.3212C42.378 30.9586 43.2096 30.3035 43.6261 29.392ZM25.92 38.88H30.24V41.76H25.92V38.88ZM41.76 38.88H45.36V41.76H41.76V38.88ZM35.2378 40.4213H36.8212C36.835 40.455 36.8276 40.436 36.8381 40.4902C36.8648 40.6274 36.8814 40.8114 36.8845 40.995C36.8876 41.1786 36.8764 41.3635 36.855 41.5013C36.8336 41.639 36.7645 41.737 36.8241 41.6714C36.7867 41.7126 36.7594 41.7618 36.7443 41.8152C36.7291 41.8687 36.7266 41.9249 36.7368 41.9795C36.747 42.0342 36.7697 42.0857 36.8032 42.13C36.8366 42.1744 36.8798 42.2104 36.9295 42.2353C37.5729 42.5551 38.0095 43.1872 38.0095 43.9242C38.0095 44.4494 37.7907 44.9204 37.433 45.2672C37.4052 45.2942 37.3819 45.3256 37.3641 45.36H34.695C34.6768 45.3255 34.653 45.2941 34.6247 45.2672C34.2673 44.9214 34.0495 44.4494 34.0495 43.9242C34.0495 43.1861 34.4854 42.5552 35.1295 42.2353C35.1792 42.2104 35.2225 42.1744 35.2559 42.13C35.2893 42.0857 35.3121 42.0342 35.3223 41.9795C35.3325 41.9249 35.3299 41.8687 35.3148 41.8152C35.2996 41.7618 35.2723 41.7126 35.235 41.6714C35.2945 41.7369 35.2254 41.6389 35.2041 41.5013C35.1827 41.3636 35.1714 41.1786 35.1745 40.995C35.1776 40.8114 35.1942 40.6275 35.2209 40.4902C35.2314 40.4364 35.2241 40.4551 35.2378 40.4213ZM25.2 42.48H30.96V45.36H25.2V42.48ZM41.04 42.48H46.8V45.36H41.04V42.48ZM51.48 56.16C51.4323 56.1593 51.3849 56.1681 51.3407 56.1859C51.2964 56.2037 51.2561 56.2301 51.2221 56.2636C51.1882 56.2971 51.1612 56.337 51.1428 56.381C51.1244 56.4251 51.1149 56.4723 51.1149 56.52C51.1149 56.5677 51.1244 56.6149 51.1428 56.659C51.1612 56.703 51.1882 56.7429 51.2221 56.7764C51.2561 56.8099 51.2964 56.8363 51.3407 56.8541C51.3849 56.8719 51.4323 56.8807 51.48 56.88C51.5277 56.8807 51.5751 56.8719 51.6193 56.8541C51.6636 56.8363 51.7039 56.8099 51.7379 56.7764C51.7718 56.7429 51.7988 56.703 51.8172 56.659C51.8356 56.6149 51.8451 56.5677 51.8451 56.52C51.8451 56.4723 51.8356 56.4251 51.8172 56.381C51.7988 56.337 51.7718 56.2971 51.7379 56.2636C51.7039 56.2301 51.6636 56.2037 51.6193 56.1859C51.5751 56.1681 51.5277 56.1593 51.48 56.16ZM53.64 56.16C53.5923 56.1593 53.5449 56.1681 53.5007 56.1859C53.4564 56.2037 53.4161 56.2301 53.3821 56.2636C53.3482 56.2971 53.3212 56.337 53.3028 56.381C53.2844 56.4251 53.2749 56.4723 53.2749 56.52C53.2749 56.5677 53.2844 56.6149 53.3028 56.659C53.3212 56.703 53.3482 56.7429 53.3821 56.7764C53.4161 56.8099 53.4564 56.8363 53.5007 56.8541C53.5449 56.8719 53.5923 56.8807 53.64 56.88H54.36C54.4077 56.8807 54.4551 56.8719 54.4993 56.8541C54.5436 56.8363 54.5839 56.8099 54.6179 56.7764C54.6518 56.7429 54.6788 56.703 54.6972 56.659C54.7156 56.6149 54.7251 56.5677 54.7251 56.52C54.7251 56.4723 54.7156 56.4251 54.6972 56.381C54.6788 56.337 54.6518 56.2971 54.6179 56.2636C54.5839 56.2301 54.5436 56.2037 54.4993 56.1859C54.4551 56.1681 54.4077 56.1593 54.36 56.16H53.64Z" fill="#068466"/>
</svg>
