<svg width="72" height="72" viewBox="0 0 72 72" fill="none" xmlns="http://www.w3.org/2000/svg">
<path d="M35.6399 3.6C33.0234 3.6 30.8392 5.45127 30.3482 7.94391C30.1927 7.92879 30.0354 7.92 29.8799 7.92C27.9372 7.92 26.2682 9.11067 25.5613 10.8H20.1599C16.984 10.8 14.3999 13.3841 14.3999 16.56V55.44C14.3999 58.6159 16.984 61.2 20.1599 61.2H51.8399C55.0158 61.2 57.5999 58.6159 57.5999 55.44V16.56C57.5999 13.3841 55.0158 10.8 51.8399 10.8H45.7185C45.0116 9.11067 43.3426 7.92 41.3999 7.92C41.2444 7.92 41.0871 7.92879 40.9316 7.94391C40.4406 5.45127 38.2564 3.6 35.6399 3.6ZM35.6399 5.04C37.7632 5.04 39.4979 6.70447 39.5901 8.82703C39.6001 9.04807 39.7103 9.25009 39.8896 9.37969C40.0682 9.50785 40.2967 9.54701 40.5083 9.48797C40.8043 9.40301 41.104 9.36 41.3999 9.36C43.1862 9.36 44.6399 10.8137 44.6399 12.6C44.6399 12.721 44.6339 12.8412 44.6202 12.96H26.6596C26.6466 12.8412 26.6399 12.721 26.6399 12.6C26.6399 10.8137 28.0936 9.36 29.8799 9.36C30.1758 9.36 30.4755 9.40301 30.7715 9.48797C30.9831 9.54701 31.2109 9.50929 31.3902 9.37969C31.5695 9.25009 31.6804 9.04807 31.6897 8.82703C31.7819 6.70447 33.5166 5.04 35.6399 5.04ZM35.6399 7.2C34.6477 7.2 33.8399 8.00712 33.8399 9C33.8399 9.99288 34.6477 10.8 35.6399 10.8C36.6321 10.8 37.4399 9.99288 37.4399 9C37.4399 8.00712 36.6321 7.2 35.6399 7.2ZM35.6399 7.92C36.2353 7.92 36.7199 8.40456 36.7199 9C36.7199 9.59544 36.2353 10.08 35.6399 10.08C35.0445 10.08 34.5599 9.59544 34.5599 9C34.5599 8.40456 35.0445 7.92 35.6399 7.92ZM20.1599 12.24H25.2182C25.2091 12.3591 25.1999 12.4786 25.1999 12.6C25.1999 13.0334 25.259 13.4622 25.3757 13.8755C25.4635 14.1858 25.7471 14.4 26.069 14.4H45.2108C45.5327 14.4 45.8163 14.1858 45.9041 13.8755C46.0208 13.4622 46.0799 13.0334 46.0799 12.6C46.0799 12.4786 46.0708 12.3591 46.0616 12.24H51.8399C54.2224 12.24 56.1599 14.1775 56.1599 16.56V55.44C56.1599 57.8225 54.2224 59.76 51.8399 59.76H20.1599C17.7774 59.76 15.8399 57.8225 15.8399 55.44V16.56C15.8399 14.1775 17.7774 12.24 20.1599 12.24ZM21.9599 16.56C20.5703 16.56 19.4399 17.6904 19.4399 19.08V53.64C19.4399 55.0296 20.5703 56.16 21.9599 56.16H50.0399C51.4295 56.16 52.5599 55.0296 52.5599 53.64V50.76C52.5599 50.5613 52.3986 50.4 52.1999 50.4C52.0012 50.4 51.8399 50.5613 51.8399 50.76V53.64C51.8399 54.6329 51.0321 55.44 50.0399 55.44H21.9599C20.9677 55.44 20.1599 54.6329 20.1599 53.64V19.08C20.1599 18.0871 20.9677 17.28 21.9599 17.28H50.0399C51.0321 17.28 51.8399 18.0871 51.8399 19.08V39.96C51.8399 40.1587 52.0012 40.32 52.1999 40.32C52.3986 40.32 52.5599 40.1587 52.5599 39.96V19.08C52.5599 17.6904 51.4295 16.56 50.0399 16.56H21.9599ZM24.1199 25.92C24.0244 25.92 23.9329 25.9579 23.8654 26.0255C23.7978 26.093 23.7599 26.1845 23.7599 26.28V30.6C23.7599 30.6955 23.7978 30.787 23.8654 30.8545C23.9329 30.9221 24.0244 30.96 24.1199 30.96H28.4399C28.5354 30.96 28.6269 30.9221 28.6945 30.8545C28.762 30.787 28.7999 30.6955 28.7999 30.6V26.28C28.7999 26.1845 28.762 26.093 28.6945 26.0255C28.6269 25.9579 28.5354 25.92 28.4399 25.92H24.1199ZM24.4799 26.64H28.0799V30.24H24.4799V26.64ZM32.7599 26.64C32.7122 26.6393 32.6648 26.6481 32.6206 26.6659C32.5763 26.6837 32.536 26.7101 32.502 26.7436C32.4681 26.7771 32.4411 26.817 32.4227 26.861C32.4043 26.9051 32.3948 26.9523 32.3948 27C32.3948 27.0477 32.4043 27.0949 32.4227 27.139C32.4411 27.183 32.4681 27.2229 32.502 27.2564C32.536 27.2899 32.5763 27.3163 32.6206 27.3341C32.6648 27.3519 32.7122 27.3607 32.7599 27.36H42.1199C42.1676 27.3607 42.215 27.3519 42.2592 27.3341C42.3035 27.3163 42.3438 27.2899 42.3778 27.2564C42.4117 27.2229 42.4387 27.183 42.4571 27.139C42.4755 27.0949 42.485 27.0477 42.485 27C42.485 26.9523 42.4755 26.9051 42.4571 26.861C42.4387 26.817 42.4117 26.7771 42.3778 26.7436C42.3438 26.7101 42.3035 26.6837 42.2592 26.6659C42.215 26.6481 42.1676 26.6393 42.1199 26.64H32.7599ZM44.2799 26.64C44.2322 26.6393 44.1848 26.6481 44.1406 26.6659C44.0963 26.6837 44.056 26.7101 44.022 26.7436C43.9881 26.7771 43.9611 26.817 43.9427 26.861C43.9243 26.9051 43.9148 26.9523 43.9148 27C43.9148 27.0477 43.9243 27.0949 43.9427 27.139C43.9611 27.183 43.9881 27.2229 44.022 27.2564C44.056 27.2899 44.0963 27.3163 44.1406 27.3341C44.1848 27.3519 44.2322 27.3607 44.2799 27.36H47.8799C47.9276 27.3607 47.975 27.3519 48.0192 27.3341C48.0635 27.3163 48.1038 27.2899 48.1378 27.2564C48.1717 27.2229 48.1987 27.183 48.2171 27.139C48.2355 27.0949 48.245 27.0477 48.245 27C48.245 26.9523 48.2355 26.9051 48.2171 26.861C48.1987 26.817 48.1717 26.7771 48.1378 26.7436C48.1038 26.7101 48.0635 26.6837 48.0192 26.6659C47.975 26.6481 47.9276 26.6393 47.8799 26.64H44.2799ZM32.7599 29.52C32.7122 29.5193 32.6648 29.5281 32.6206 29.5459C32.5763 29.5637 32.536 29.5901 32.502 29.6236C32.4681 29.6571 32.4411 29.697 32.4227 29.741C32.4043 29.7851 32.3948 29.8323 32.3948 29.88C32.3948 29.9277 32.4043 29.9749 32.4227 30.019C32.4411 30.063 32.4681 30.1029 32.502 30.1364C32.536 30.1699 32.5763 30.1963 32.6206 30.2141C32.6648 30.2319 32.7122 30.2407 32.7599 30.24H47.8799C47.9276 30.2407 47.975 30.2319 48.0192 30.2141C48.0635 30.1963 48.1038 30.1699 48.1378 30.1364C48.1717 30.1029 48.1987 30.063 48.2171 30.019C48.2355 29.9749 48.245 29.9277 48.245 29.88C48.245 29.8323 48.2355 29.7851 48.2171 29.741C48.1987 29.697 48.1717 29.6571 48.1378 29.6236C48.1038 29.5901 48.0635 29.5637 48.0192 29.5459C47.975 29.5281 47.9276 29.5193 47.8799 29.52H32.7599ZM29.8729 34.5572C29.7794 34.5598 29.6907 34.5986 29.6254 34.6655L26.9999 37.2909L25.8144 36.1055C25.7813 36.0709 25.7415 36.0433 25.6976 36.0243C25.6536 36.0053 25.6063 35.9953 25.5584 35.9948C25.5105 35.9943 25.463 36.0034 25.4186 36.0215C25.3743 36.0396 25.334 36.0664 25.3002 36.1003C25.2663 36.1341 25.2395 36.1744 25.2214 36.2187C25.2033 36.2631 25.1942 36.3106 25.1947 36.3585C25.1952 36.4064 25.2052 36.4537 25.2242 36.4977C25.2432 36.5416 25.2708 36.5814 25.3054 36.6145L26.7454 38.0545C26.8129 38.122 26.9044 38.1599 26.9999 38.1599C27.0954 38.1599 27.1869 38.122 27.2544 38.0545L30.1344 35.1745C30.1862 35.1239 30.2215 35.0589 30.2357 34.9879C30.25 34.9169 30.2425 34.8433 30.2142 34.7766C30.186 34.71 30.1383 34.6534 30.0774 34.6142C30.0165 34.5751 29.9452 34.5552 29.8729 34.5572ZM24.1199 34.56C24.0244 34.56 23.9329 34.5979 23.8654 34.6655C23.7978 34.733 23.7599 34.8245 23.7599 34.92V39.24C23.7599 39.3355 23.7978 39.427 23.8654 39.4945C23.9329 39.5621 24.0244 39.6 24.1199 39.6H28.4399C28.5354 39.6 28.6269 39.5621 28.6945 39.4945C28.762 39.427 28.7999 39.3355 28.7999 39.24V38.52C28.8006 38.4723 28.7918 38.4249 28.774 38.3807C28.7562 38.3364 28.7298 38.2961 28.6963 38.2621C28.6628 38.2282 28.6229 38.2012 28.5789 38.1828C28.5348 38.1644 28.4876 38.1549 28.4399 38.1549C28.3922 38.1549 28.345 38.1644 28.3009 38.1828C28.2569 38.2012 28.217 38.2282 28.1835 38.2621C28.15 38.2961 28.1236 38.3364 28.1058 38.3807C28.088 38.4249 28.0792 38.4723 28.0799 38.52V38.88H24.4799V35.28H27.7199C27.7676 35.2807 27.815 35.2719 27.8592 35.2541C27.9035 35.2363 27.9438 35.2099 27.9778 35.1764C28.0117 35.1429 28.0387 35.103 28.0571 35.059C28.0755 35.0149 28.085 34.9677 28.085 34.92C28.085 34.8723 28.0755 34.8251 28.0571 34.781C28.0387 34.737 28.0117 34.6971 27.9778 34.6636C27.9438 34.6301 27.9035 34.6037 27.8592 34.5859C27.815 34.5681 27.7676 34.5593 27.7199 34.56H24.1199ZM32.7599 35.28C32.7122 35.2793 32.6648 35.2881 32.6206 35.3059C32.5763 35.3237 32.536 35.3501 32.502 35.3836C32.4681 35.4171 32.4411 35.457 32.4227 35.501C32.4043 35.5451 32.3948 35.5923 32.3948 35.64C32.3948 35.6877 32.4043 35.7349 32.4227 35.779C32.4411 35.823 32.4681 35.8629 32.502 35.8964C32.536 35.9299 32.5763 35.9563 32.6206 35.9741C32.6648 35.9919 32.7122 36.0007 32.7599 36H47.8799C47.9276 36.0007 47.975 35.9919 48.0192 35.9741C48.0635 35.9563 48.1038 35.9299 48.1378 35.8964C48.1717 35.8629 48.1987 35.823 48.2171 35.779C48.2355 35.7349 48.245 35.6877 48.245 35.64C48.245 35.5923 48.2355 35.5451 48.2171 35.501C48.1987 35.457 48.1717 35.4171 48.1378 35.3836C48.1038 35.3501 48.0635 35.3237 48.0192 35.3059C47.975 35.2881 47.9276 35.2793 47.8799 35.28H32.7599ZM32.7599 38.16C32.7122 38.1593 32.6648 38.1681 32.6206 38.1859C32.5763 38.2037 32.536 38.2301 32.502 38.2636C32.4681 38.2971 32.4411 38.337 32.4227 38.381C32.4043 38.4251 32.3948 38.4723 32.3948 38.52C32.3948 38.5677 32.4043 38.6149 32.4227 38.659C32.4411 38.703 32.4681 38.7429 32.502 38.7764C32.536 38.8099 32.5763 38.8363 32.6206 38.8541C32.6648 38.8719 32.7122 38.8807 32.7599 38.88H35.6399C35.6876 38.8807 35.735 38.8719 35.7792 38.8541C35.8235 38.8363 35.8638 38.8099 35.8978 38.7764C35.9317 38.7429 35.9587 38.703 35.9771 38.659C35.9955 38.6149 36.005 38.5677 36.005 38.52C36.005 38.4723 35.9955 38.4251 35.9771 38.381C35.9587 38.337 35.9317 38.2971 35.8978 38.2636C35.8638 38.2301 35.8235 38.2037 35.7792 38.1859C35.735 38.1681 35.6876 38.1593 35.6399 38.16H32.7599ZM37.7999 38.16C37.7522 38.1593 37.7048 38.1681 37.6606 38.1859C37.6163 38.2037 37.576 38.2301 37.542 38.2636C37.5081 38.2971 37.4811 38.337 37.4627 38.381C37.4443 38.4251 37.4348 38.4723 37.4348 38.52C37.4348 38.5677 37.4443 38.6149 37.4627 38.659C37.4811 38.703 37.5081 38.7429 37.542 38.7764C37.576 38.8099 37.6163 38.8363 37.6606 38.8541C37.7048 38.8719 37.7522 38.8807 37.7999 38.88H47.8799C47.9276 38.8807 47.975 38.8719 48.0192 38.8541C48.0635 38.8363 48.1038 38.8099 48.1378 38.7764C48.1717 38.7429 48.1987 38.703 48.2171 38.659C48.2355 38.6149 48.245 38.5677 48.245 38.52C48.245 38.4723 48.2355 38.4251 48.2171 38.381C48.1987 38.337 48.1717 38.2971 48.1378 38.2636C48.1038 38.2301 48.0635 38.2037 48.0192 38.1859C47.975 38.1681 47.9276 38.1593 47.8799 38.16H37.7999ZM52.1999 41.76C52.0012 41.76 51.8399 41.9213 51.8399 42.12V45C51.8399 45.1987 52.0012 45.36 52.1999 45.36C52.3986 45.36 52.5599 45.1987 52.5599 45V42.12C52.5599 41.9213 52.3986 41.76 52.1999 41.76ZM24.1199 43.2C24.0244 43.2 23.9329 43.2379 23.8654 43.3055C23.7978 43.373 23.7599 43.4645 23.7599 43.56V47.88C23.7599 47.9755 23.7978 48.067 23.8654 48.1345C23.9329 48.2021 24.0244 48.24 24.1199 48.24H28.4399C28.5354 48.24 28.6269 48.2021 28.6945 48.1345C28.762 48.067 28.7999 47.9755 28.7999 47.88V43.56C28.7999 43.4645 28.762 43.373 28.6945 43.3055C28.6269 43.2379 28.5354 43.2 28.4399 43.2H24.1199ZM24.4799 43.92H28.0799V47.52H24.4799V43.92ZM32.7599 43.92C32.7122 43.9193 32.6648 43.9281 32.6206 43.9459C32.5763 43.9637 32.536 43.9901 32.502 44.0236C32.4681 44.0571 32.4411 44.097 32.4227 44.141C32.4043 44.1851 32.3948 44.2323 32.3948 44.28C32.3948 44.3277 32.4043 44.3749 32.4227 44.419C32.4411 44.463 32.4681 44.5029 32.502 44.5364C32.536 44.5699 32.5763 44.5963 32.6206 44.6141C32.6648 44.6319 32.7122 44.6407 32.7599 44.64H35.6399C35.6876 44.6407 35.735 44.6319 35.7792 44.6141C35.8235 44.5963 35.8638 44.5699 35.8978 44.5364C35.9317 44.5029 35.9587 44.463 35.9771 44.419C35.9955 44.3749 36.005 44.3277 36.005 44.28C36.005 44.2323 35.9955 44.1851 35.9771 44.141C35.9587 44.097 35.9317 44.0571 35.8978 44.0236C35.8638 43.9901 35.8235 43.9637 35.7792 43.9459C35.735 43.9281 35.6876 43.9193 35.6399 43.92H32.7599ZM37.7999 43.92C37.7522 43.9193 37.7048 43.9281 37.6606 43.9459C37.6163 43.9637 37.576 43.9901 37.542 44.0236C37.5081 44.0571 37.4811 44.097 37.4627 44.141C37.4443 44.1851 37.4348 44.2323 37.4348 44.28C37.4348 44.3277 37.4443 44.3749 37.4627 44.419C37.4811 44.463 37.5081 44.5029 37.542 44.5364C37.576 44.5699 37.6163 44.5963 37.6606 44.6141C37.7048 44.6319 37.7522 44.6407 37.7999 44.64H38.5199C38.5676 44.6407 38.615 44.6319 38.6592 44.6141C38.7035 44.5963 38.7438 44.5699 38.7778 44.5364C38.8117 44.5029 38.8387 44.463 38.8571 44.419C38.8755 44.3749 38.885 44.3277 38.885 44.28C38.885 44.2323 38.8755 44.1851 38.8571 44.141C38.8387 44.097 38.8117 44.0571 38.7778 44.0236C38.7438 43.9901 38.7035 43.9637 38.6592 43.9459C38.615 43.9281 38.5676 43.9193 38.5199 43.92H37.7999ZM40.6799 43.92C40.6322 43.9193 40.5848 43.9281 40.5406 43.9459C40.4963 43.9637 40.456 43.9901 40.422 44.0236C40.3881 44.0571 40.3611 44.097 40.3427 44.141C40.3243 44.1851 40.3148 44.2323 40.3148 44.28C40.3148 44.3277 40.3243 44.3749 40.3427 44.419C40.3611 44.463 40.3881 44.5029 40.422 44.5364C40.456 44.5699 40.4963 44.5963 40.5406 44.6141C40.5848 44.6319 40.6322 44.6407 40.6799 44.64H47.8799C47.9276 44.6407 47.975 44.6319 48.0192 44.6141C48.0635 44.5963 48.1038 44.5699 48.1378 44.5364C48.1717 44.5029 48.1987 44.463 48.2171 44.419C48.2355 44.3749 48.245 44.3277 48.245 44.28C48.245 44.2323 48.2355 44.1851 48.2171 44.141C48.1987 44.097 48.1717 44.0571 48.1378 44.0236C48.1038 43.9901 48.0635 43.9637 48.0192 43.9459C47.975 43.9281 47.9276 43.9193 47.8799 43.92H40.6799ZM32.7599 46.8C32.7122 46.7993 32.6648 46.8081 32.6206 46.8259C32.5763 46.8437 32.536 46.8701 32.502 46.9036C32.4681 46.9371 32.4411 46.977 32.4227 47.021C32.4043 47.0651 32.3948 47.1123 32.3948 47.16C32.3948 47.2077 32.4043 47.2549 32.4227 47.299C32.4411 47.343 32.4681 47.3829 32.502 47.4164C32.536 47.4499 32.5763 47.4763 32.6206 47.4941C32.6648 47.5119 32.7122 47.5207 32.7599 47.52H43.5599C43.6076 47.5207 43.655 47.5119 43.6992 47.4941C43.7435 47.4763 43.7838 47.4499 43.8178 47.4164C43.8517 47.3829 43.8787 47.343 43.8971 47.299C43.9155 47.2549 43.925 47.2077 43.925 47.16C43.925 47.1123 43.9155 47.0651 43.8971 47.021C43.8787 46.977 43.8517 46.9371 43.8178 46.9036C43.7838 46.8701 43.7435 46.8437 43.6992 46.8259C43.655 46.8081 43.6076 46.7993 43.5599 46.8H32.7599ZM45.7199 46.8C45.6722 46.7993 45.6248 46.8081 45.5806 46.8259C45.5363 46.8437 45.496 46.8701 45.462 46.9036C45.4281 46.9371 45.4011 46.977 45.3827 47.021C45.3643 47.0651 45.3548 47.1123 45.3548 47.16C45.3548 47.2077 45.3643 47.2549 45.3827 47.299C45.4011 47.343 45.4281 47.3829 45.462 47.4164C45.496 47.4499 45.5363 47.4763 45.5806 47.4941C45.6248 47.5119 45.6722 47.5207 45.7199 47.52H47.8799C47.9276 47.5207 47.975 47.5119 48.0192 47.4941C48.0635 47.4763 48.1038 47.4499 48.1378 47.4164C48.1717 47.3829 48.1987 47.343 48.2171 47.299C48.2355 47.2549 48.245 47.2077 48.245 47.16C48.245 47.1123 48.2355 47.0651 48.2171 47.021C48.1987 46.977 48.1717 46.9371 48.1378 46.9036C48.1038 46.8701 48.0635 46.8437 48.0192 46.8259C47.975 46.8081 47.9276 46.7993 47.8799 46.8H45.7199ZM52.1999 46.8C52.0012 46.8 51.8399 46.9613 51.8399 47.16V48.6C51.8399 48.7987 52.0012 48.96 52.1999 48.96C52.3986 48.96 52.5599 48.7987 52.5599 48.6V47.16C52.5599 46.9613 52.3986 46.8 52.1999 46.8Z" fill="#068466"/>
</svg>
