<svg width="72" height="72" viewBox="0 0 72 72" fill="none" xmlns="http://www.w3.org/2000/svg">
<path d="M26.64 10.08C26.4544 10.08 26.2744 10.1475 26.1338 10.2938L18 18.4219L13.4663 13.8938C13.185 13.6069 12.735 13.6069 12.4538 13.8938L9.5738 16.7738C9.28692 17.055 9.28692 17.505 9.5738 17.7863L17.4938 25.7063C17.6288 25.8469 17.8144 25.92 18 25.92C18.1857 25.92 18.3713 25.8469 18.5063 25.7063L30.0263 14.1863C30.3132 13.905 30.3132 13.455 30.0263 13.1738L27.1463 10.2938C27.0057 10.1475 26.8257 10.08 26.64 10.08ZM26.64 11.8181L28.5019 13.68L18 24.1819L11.0982 17.28L12.96 15.4181L17.4938 19.9463C17.775 20.2331 18.225 20.2331 18.5063 19.9463L26.64 11.8181ZM35.28 14.4C34.8807 14.4 34.56 14.7206 34.56 15.12V22.32C34.56 22.7194 34.8807 23.04 35.28 23.04H61.9201C62.3194 23.04 62.6401 22.7194 62.6401 22.32V15.12C62.6401 14.7206 62.3194 14.4 61.9201 14.4H35.28ZM36 15.84H61.2001V19.44H46.4401C46.2432 19.44 46.0801 19.6031 46.0801 19.8C46.0801 19.9969 46.2432 20.16 46.4401 20.16H61.2001V21.6H36V15.84ZM40.6801 19.44C40.4832 19.44 40.3201 19.6031 40.3201 19.8C40.3201 19.9969 40.4832 20.16 40.6801 20.16H41.4001C41.5969 20.16 41.7601 19.9969 41.7601 19.8C41.7601 19.6031 41.5969 19.44 41.4001 19.44H40.6801ZM42.8401 19.44C42.6432 19.44 42.4801 19.6031 42.4801 19.8C42.4801 19.9969 42.6432 20.16 42.8401 20.16H44.2801C44.4769 20.16 44.6401 19.9969 44.6401 19.8C44.6401 19.6031 44.4769 19.44 44.2801 19.44H42.8401ZM26.64 27.36C26.4544 27.36 26.2744 27.4275 26.1338 27.5738L18 35.7019L13.4663 31.1738C13.185 30.8869 12.735 30.8869 12.4538 31.1738L9.5738 34.0538C9.28692 34.335 9.28692 34.785 9.5738 35.0663L17.4938 42.9863C17.6288 43.1269 17.8144 43.2 18 43.2C18.1857 43.2 18.3713 43.1269 18.5063 42.9863L30.0263 31.4663C30.3132 31.185 30.3132 30.735 30.0263 30.4538L27.1463 27.5738C27.0057 27.4275 26.8257 27.36 26.64 27.36ZM26.64 29.0981L28.5019 30.96L18 41.4619L11.0982 34.56L12.96 32.6981L17.4938 37.2263C17.775 37.5131 18.225 37.5131 18.5063 37.2263L26.64 29.0981ZM35.28 31.68C34.8807 31.68 34.56 32.0006 34.56 32.4V39.6C34.56 39.9994 34.8807 40.32 35.28 40.32H61.9201C62.3194 40.32 62.6401 39.9994 62.6401 39.6V32.4C62.6401 32.0006 62.3194 31.68 61.9201 31.68H35.28ZM36 33.12H61.2001V38.88H36V33.12ZM13.68 44.64C13.4944 44.64 13.3144 44.7075 13.1738 44.8538L10.2938 47.7338C10.0069 48.015 10.0069 48.465 10.2938 48.7463L14.8219 53.28L10.2938 57.8138C10.0069 58.095 10.0069 58.545 10.2938 58.8263L13.1738 61.7063C13.455 61.9931 13.905 61.9931 14.1863 61.7063L18.72 57.1781L23.2538 61.7063C23.3888 61.8469 23.5744 61.92 23.76 61.92C23.9457 61.92 24.1313 61.8469 24.2663 61.7063L27.1463 58.8263C27.4332 58.545 27.4332 58.095 27.1463 57.8138L22.6182 53.28L27.1463 48.7463C27.4332 48.465 27.4332 48.015 27.1463 47.7338L24.2663 44.8538C23.9851 44.5669 23.535 44.5669 23.2538 44.8538L18.72 49.3819L14.1863 44.8538C14.0457 44.7075 13.8657 44.64 13.68 44.64ZM13.68 46.3781L18.2138 50.9063C18.495 51.1931 18.945 51.1931 19.2263 50.9063L23.76 46.3781L25.6219 48.24L21.0938 52.7738C20.8069 53.055 20.8069 53.505 21.0938 53.7863L25.6219 58.32L23.76 60.1819L19.2263 55.6538C19.0913 55.5131 18.9057 55.44 18.72 55.44C18.5344 55.44 18.3488 55.5131 18.2138 55.6538L13.68 60.1819L11.8182 58.32L16.3463 53.7863C16.6332 53.505 16.6332 53.055 16.3463 52.7738L11.8182 48.24L13.68 46.3781ZM35.28 48.96C34.8807 48.96 34.56 49.2806 34.56 49.68V56.88C34.56 57.2794 34.8807 57.6 35.28 57.6H61.9201C62.3194 57.6 62.6401 57.2794 62.6401 56.88V49.68C62.6401 49.2806 62.3194 48.96 61.9201 48.96H35.28ZM36 50.4H61.2001V51.84H52.2001C52.0032 51.84 51.8401 52.0031 51.8401 52.2C51.8401 52.3969 52.0032 52.56 52.2001 52.56H61.2001V56.16H36V50.4ZM46.4401 51.84C46.2432 51.84 46.0801 52.0031 46.0801 52.2C46.0801 52.3969 46.2432 52.56 46.4401 52.56H47.1601C47.3569 52.56 47.5201 52.3969 47.5201 52.2C47.5201 52.0031 47.3569 51.84 47.1601 51.84H46.4401ZM48.6001 51.84C48.4032 51.84 48.2401 52.0031 48.2401 52.2C48.2401 52.3969 48.4032 52.56 48.6001 52.56H50.0401C50.2369 52.56 50.4001 52.3969 50.4001 52.2C50.4001 52.0031 50.2369 51.84 50.0401 51.84H48.6001Z" fill="#068466"/>
</svg>
