<svg width="72" height="72" viewBox="0 0 72 72" fill="none" xmlns="http://www.w3.org/2000/svg">
<path d="M10.8843 22.32C7.63274 22.32 4.98926 24.9649 4.98926 28.2164V38.7436C4.98926 41.9951 7.63346 44.64 10.8843 44.64H34.5093C34.9074 44.64 35.2293 44.3174 35.2293 43.92C35.2293 43.5226 34.9074 43.2 34.5093 43.2H10.8843C8.42762 43.2 6.42926 41.201 6.42926 38.7436V28.2164C6.42926 25.759 8.42762 23.76 10.8843 23.76H55.3893C55.7874 23.76 56.1093 23.4374 56.1093 23.04C56.1093 22.6426 55.7874 22.32 55.3893 22.32H10.8843ZM48.1049 28.8084C48.0361 28.8165 47.9677 28.8348 47.9024 28.8633C47.6396 28.9778 47.4693 29.2363 47.4693 29.5228V52.2408C47.4693 52.5288 47.6395 52.7894 47.9038 52.9031C48.168 53.0169 48.4755 52.9605 48.6843 52.7625L53.5836 48.105L57.5788 57.3469C57.6551 57.524 57.8003 57.6624 57.981 57.7322C58.0638 57.7639 58.1519 57.7814 58.2397 57.7814C58.342 57.7814 58.4428 57.7585 58.5378 57.7153L61.5669 56.3386C61.9284 56.1744 62.0897 55.7501 61.9255 55.388L57.7996 46.2628L64.7732 45.6623C65.0568 45.6379 65.299 45.4479 65.3919 45.1786C65.4855 44.9093 65.4108 44.6108 65.2035 44.4164L48.68 28.9969C48.5218 28.85 48.3111 28.7842 48.1049 28.8084ZM36.7297 28.8886L33.5839 36.9H34.7835L37.9391 28.8886H36.7297ZM41.0258 28.8886L37.88 36.9H39.0796L42.2352 28.8886H41.0258ZM12.9093 29.5116V36.1266H14.0624V33.7444C14.0624 33.0453 14.5351 32.4689 15.2155 32.4689C15.8304 32.4689 16.273 32.828 16.273 33.6783V36.1266H17.4261V36.1252V33.6684C17.4261 32.299 16.8405 31.4016 15.5179 31.4016C14.9894 31.4016 14.4785 31.5619 14.0624 32.1005V29.5116H12.9093ZM20.0221 30.1556L18.8689 30.278V31.4789H17.9999V32.4703H18.8689V34.4827C18.8682 35.644 19.5294 36.221 20.541 36.1828C20.8902 36.1735 21.1653 36.1163 21.4958 35.9845L21.1738 35.0016C21.0039 35.0865 20.7969 35.1436 20.6169 35.1436C20.2584 35.1436 20.0122 34.9262 20.0122 34.4827V32.4703H21.3074V31.4789H20.0221V30.1556ZM23.7908 30.1556L22.6377 30.278V31.4789H21.7686V32.4703H22.6377V34.4827C22.6377 35.644 23.2988 36.221 24.3097 36.1828C24.6589 36.1735 24.9341 36.1163 25.2646 35.9845L24.9425 35.0016C24.7726 35.0865 24.5657 35.1436 24.3857 35.1436C24.0271 35.1436 23.781 34.9262 23.781 34.4827V32.4703H25.0747V31.4789H23.7908V30.1556ZM28.5988 31.3636C28.0681 31.3643 27.4449 31.5905 27.0857 32.1103L27.0111 31.4677H25.9339V38.0714H27.0871V35.5767C27.4175 36.0865 28.1457 36.2377 28.6368 36.2377C30.1293 36.2377 30.9894 35.1607 30.9894 33.8006C30.9894 32.4305 30.0345 31.3636 28.5988 31.3636ZM49.1568 31.4114L63.0364 44.3658L56.6633 44.9156C56.4308 44.9358 56.2231 45.0656 56.105 45.2672C55.987 45.4688 55.9734 45.715 56.0699 45.9281L60.3168 55.3247L58.6096 56.1009L54.4949 46.5848C54.4013 46.3688 54.2099 46.2126 53.9788 46.1658C53.9313 46.1564 53.8815 46.1517 53.8339 46.1517C53.6511 46.1517 53.4722 46.2204 53.3375 46.3486L48.9093 50.5617V32.625L50.6375 36.5034C50.6973 36.6374 50.8291 36.7172 50.9666 36.7172C51.0156 36.7172 51.066 36.7071 51.1128 36.6863C51.295 36.6056 51.3763 36.3924 51.2957 36.2109L49.1568 31.4114ZM32.5546 32.1244C32.2192 32.1244 31.8838 32.3471 31.8838 32.7909C31.8838 33.6693 33.2254 33.6693 33.2254 32.7909C33.2254 32.3471 32.8899 32.1244 32.5546 32.1244ZM28.513 32.4788C29.3439 32.4788 29.8349 33.0734 29.8349 33.8006C29.8349 34.5278 29.2971 35.1239 28.513 35.1239C27.7289 35.1239 27.1897 34.5278 27.1897 33.8006C27.1897 33.0727 27.6814 32.4788 28.513 32.4788ZM32.5546 34.8638C32.2192 34.8638 31.8838 35.0861 31.8838 35.5303C31.8838 36.4087 33.2254 36.4087 33.2254 35.5303C33.2254 35.0861 32.8899 34.8638 32.5546 34.8638ZM51.3772 37.2263C51.3306 37.2265 51.2834 37.2362 51.238 37.2558C51.0551 37.3343 50.9697 37.5461 51.0482 37.7283L51.1888 38.0559C51.2478 38.1927 51.3817 38.2739 51.5207 38.2739C51.5682 38.2739 51.6166 38.2645 51.6627 38.2444C51.8456 38.1659 51.9289 37.9554 51.8511 37.7733L51.7105 37.4442C51.6511 37.3071 51.5172 37.2254 51.3772 37.2263Z" fill="#068466"/>
</svg>
