<svg width="72" height="72" viewBox="0 0 72 72" fill="none" xmlns="http://www.w3.org/2000/svg">
<path d="M55.3332 10.8014C54.8073 10.8056 54.2789 10.8459 53.7526 10.9209C48.6686 11.6453 44.6658 15.7113 44.0171 20.8111C43.9725 21.1596 43.9492 21.5088 43.9369 21.8588C39.2929 19.5879 32.952 18.6161 31.6041 18.4289L25.6683 12.4917C25.533 12.3564 25.3501 12.2808 25.1593 12.2808C24.9526 12.3002 24.7792 12.3584 24.6446 12.4973L6.00615 31.5352C5.72967 31.8174 5.73314 32.2676 6.01178 32.5463L22.223 48.7589L18.6835 52.2984C16.8144 54.1676 16.8144 57.2074 18.6835 59.0766C19.6181 60.0111 20.845 60.4772 22.0726 60.4772C23.3002 60.4772 24.5271 60.0111 25.4616 59.0766L29.0152 55.523C29.7892 56.1681 30.754 56.5214 31.7743 56.5214C32.9284 56.5214 34.0129 56.0709 34.8287 55.2544C35.6228 54.4602 36.0691 53.4138 36.0929 52.2956C37.7604 53.3425 39.9957 53.1425 41.4465 51.6909C42.2622 50.8752 42.7121 49.79 42.7121 48.6366C42.7121 48.5905 42.7107 48.5434 42.7093 48.4973C43.2644 48.7508 43.8723 48.8841 44.5008 48.8841C45.655 48.8841 46.7395 48.4349 47.5552 47.6184C48.3494 46.8243 48.7957 45.7764 48.8194 44.6583C50.4877 45.7059 52.723 45.5051 54.173 44.055C55.8571 42.3709 55.8579 39.629 54.1716 37.942L50.3607 34.1761L51.4308 33.1059C53.2042 33.7698 55.059 33.9849 56.9476 33.7444C62.0466 33.0964 66.1134 29.0914 66.8377 24.0075C67.1394 21.8993 66.8701 19.7692 66.0587 17.8453C65.9658 17.6243 65.7689 17.4639 65.5341 17.4178C65.3001 17.3717 65.0558 17.4469 64.8858 17.6161L59.7573 22.7447C59.3605 23.1385 58.7188 23.1393 58.3243 22.7447L55.0154 19.4358C54.8239 19.2443 54.7187 18.9893 54.7187 18.7186C54.7187 18.4479 54.8239 18.1943 55.0154 18.0028L60.144 12.8742C60.3132 12.705 60.3883 12.4614 60.3423 12.2259C60.2962 11.9912 60.1358 11.7943 59.9148 11.7014C58.4708 11.0928 56.911 10.7887 55.3332 10.8014ZM55.0646 12.247C56.1726 12.2079 57.2737 12.3475 58.3229 12.6591L53.9973 16.9861C53.5336 17.4491 53.2773 18.0641 53.2773 18.72C53.2773 19.3752 53.5322 19.9909 53.9958 20.4539L57.3048 23.7642C58.2609 24.7204 59.8171 24.7204 60.774 23.7642L65.101 19.4372C65.5164 20.8354 65.6256 22.3261 65.4146 23.805C64.7817 28.2488 61.2251 31.749 56.7676 32.3156C54.9704 32.546 53.2103 32.3026 51.5377 31.5984C51.2677 31.4847 50.9576 31.5458 50.7502 31.7531L49.3398 33.1636L44.5697 28.4498L46.0083 27.0113C46.2157 26.8046 46.2761 26.4923 46.1616 26.2223C45.4567 24.5505 45.2162 22.7903 45.4444 20.9925C46.0118 16.535 49.5126 12.9784 53.9565 12.3455C54.3258 12.2924 54.6952 12.2601 55.0646 12.247ZM25.1635 14.0259L30.6085 19.4695L17.0072 33.3591C16.8683 33.5009 16.8724 33.7292 17.0143 33.8681C17.0841 33.9365 17.1746 33.9722 17.266 33.9722C17.3596 33.9722 17.4528 33.9359 17.5233 33.8639L31.2568 19.8366C32.0725 19.9474 39.3636 20.9898 43.9918 23.5055C44.0947 24.4674 44.315 25.4163 44.6541 26.3278L43.546 27.4373L42.9863 26.8847C42.7034 26.6039 42.2475 26.6081 41.9682 26.8903C41.6881 27.1733 41.6923 27.6291 41.9752 27.9084L53.1577 38.963C54.2795 40.0862 54.2788 41.913 53.1563 43.0355C52.0338 44.158 50.2077 44.1587 49.0838 43.0355L47.5566 41.5083C47.2751 41.2268 46.82 41.2268 46.5385 41.5083C46.257 41.7898 46.257 42.2449 46.5385 42.5264C47.0821 43.0707 47.3823 43.7937 47.3823 44.5627C47.3823 45.3316 47.0821 46.0546 46.5385 46.5989C45.4499 47.6876 43.5532 47.6875 42.466 46.6003L41.4479 45.5822C41.1664 45.3007 40.7113 45.3007 40.4297 45.5822C40.2893 45.7226 40.2188 45.9069 40.2188 46.0913C40.2188 46.2756 40.2893 46.4599 40.4297 46.6003C40.9733 47.1439 41.2721 47.8676 41.2721 48.6366C41.2721 49.4055 40.9733 50.1285 40.4297 50.6728C39.3073 51.796 37.4798 51.796 36.3558 50.6728L34.8287 49.1456C34.5471 48.8641 34.0935 48.8641 33.8119 49.1456C33.5304 49.4272 33.5304 49.8822 33.8119 50.1638L33.8147 50.168C34.3562 50.7109 34.6543 51.4325 34.6543 52.2C34.6543 52.969 34.3541 53.6919 33.8105 54.2363C32.7226 55.3242 30.8259 55.3242 29.738 54.2363L20.6213 45.1209L13.486 37.9856L14.2777 37.177C14.4167 37.0352 14.4139 36.8069 14.2721 36.668C14.1303 36.5305 13.9027 36.5318 13.763 36.6736L12.9769 37.4766L7.53334 32.033L25.1635 14.0259ZM63.5724 23.0822C63.4346 23.1104 63.3226 23.2199 63.294 23.3663C63.2882 23.3958 63.285 23.4278 63.2771 23.5013C62.8264 26.6671 60.3126 29.3631 57.1669 30.0558C56.9725 30.099 56.8502 30.2917 56.8927 30.4861C56.9294 30.6539 57.0787 30.7688 57.2443 30.7688C57.2702 30.7688 57.2957 30.7661 57.3216 30.7603C60.7553 30.0043 63.497 27.0608 63.9858 23.625C63.9873 23.6185 64.0006 23.5163 64.0013 23.5041C64.038 23.3082 63.9117 23.121 63.7173 23.0836C63.6678 23.0732 63.6183 23.0728 63.5724 23.0822ZM33.3282 27.4036C33.236 27.4036 33.1439 27.4375 33.0737 27.5077C32.9333 27.6481 32.9333 27.8763 33.0737 28.0167L42.2368 37.1813C42.3073 37.2518 42.4006 37.2867 42.4927 37.2867C42.5849 37.2867 42.6767 37.2511 42.7472 37.1813C42.8876 37.0409 42.8876 36.8126 42.7472 36.6722L33.5827 27.5077C33.5125 27.4375 33.4203 27.4036 33.3282 27.4036ZM51.473 29.2584C51.3326 29.2589 51.1998 29.3415 51.1426 29.4792C51.0655 29.6628 51.1516 29.874 51.3352 29.9503L52.0566 30.2527C52.102 30.2714 52.1498 30.2808 52.1958 30.2808C52.3362 30.2808 52.4701 30.1982 52.5277 30.06C52.6048 29.8764 52.5179 29.6652 52.3351 29.5889L51.6137 29.2866C51.5676 29.2675 51.5199 29.2583 51.473 29.2584ZM53.574 30.0361C53.4355 30.0602 53.3186 30.1659 53.2857 30.3117C53.2411 30.5054 53.362 30.6974 53.5557 30.742C54.1763 30.8839 54.8146 30.9558 55.4598 30.9558C55.5793 30.9558 55.6995 30.9538 55.8198 30.9488C56.0185 30.9401 56.1722 30.7734 56.1643 30.5747C56.1549 30.3767 55.9796 30.228 55.7888 30.2288C55.0868 30.2612 54.3906 30.1944 53.7174 30.0403C53.6686 30.0288 53.6201 30.0281 53.574 30.0361ZM13.3201 30.96C12.3279 30.96 11.5201 31.7671 11.5201 32.76C11.5201 33.7529 12.3279 34.56 13.3201 34.56C14.3122 34.56 15.1201 33.7529 15.1201 32.76C15.1201 31.7671 14.3122 30.96 13.3201 30.96ZM13.3201 31.68C13.9155 31.68 14.4001 32.1646 14.4001 32.76C14.4001 33.3554 13.9155 33.84 13.3201 33.84C12.7246 33.84 12.2401 33.3554 12.2401 32.76C12.2401 32.1646 12.7246 31.68 13.3201 31.68ZM28.2362 32.4942C28.144 32.4942 28.0518 32.5295 27.9816 32.5997C27.8412 32.7401 27.8412 32.9684 27.9816 33.1088L28.9997 34.1269C29.0703 34.1974 29.1635 34.2323 29.2557 34.2323C29.3478 34.2323 29.4397 34.1967 29.5102 34.1269C29.6506 33.9865 29.6506 33.7582 29.5102 33.6178L28.4907 32.5997C28.4205 32.5295 28.3283 32.4942 28.2362 32.4942ZM16.0412 34.4981C15.949 34.4989 15.8565 34.5351 15.7866 34.6064L14.8726 35.5388C14.7336 35.6806 14.7363 35.9089 14.8782 36.0478C14.948 36.1162 15.0406 36.1519 15.1313 36.1519C15.2249 36.1519 15.3167 36.1156 15.3872 36.0436L16.3013 35.1098C16.4403 34.968 16.4375 34.7397 16.2957 34.6008C16.2251 34.5313 16.1333 34.4973 16.0412 34.4981ZM30.7815 35.0395C30.6893 35.0395 30.5971 35.0748 30.5269 35.145C30.3865 35.2854 30.3865 35.5137 30.5269 35.6541L36.6371 41.7628C36.7077 41.8334 36.7995 41.8683 36.8916 41.8683C36.9838 41.8683 37.0756 41.8327 37.1462 41.7628C37.2866 41.6224 37.2866 41.3942 37.1462 41.2538L31.036 35.145C30.9658 35.0748 30.8736 35.0395 30.7815 35.0395ZM26.709 41.1497C26.6168 41.1497 26.5246 41.185 26.4544 41.2552C26.314 41.3956 26.314 41.6238 26.4544 41.7642L31.0374 46.3458C31.108 46.4163 31.1998 46.4513 31.2919 46.4513C31.3841 46.4513 31.4759 46.4156 31.5465 46.3458C31.6869 46.2054 31.6869 45.9771 31.5465 45.8367L26.9635 41.2552C26.8933 41.185 26.8011 41.1497 26.709 41.1497ZM23.2412 49.777L27.983 54.5189L24.4435 58.0584C23.1367 59.366 21.0084 59.366 19.7016 58.0584C18.3948 56.7516 18.3948 54.6234 19.7016 53.3166L23.2412 49.777ZM22.3201 54C21.5259 54 20.8801 54.6458 20.8801 55.44C20.8801 56.2342 21.5259 56.88 22.3201 56.88C23.1142 56.88 23.7601 56.2342 23.7601 55.44C23.7601 54.6458 23.1142 54 22.3201 54ZM22.3201 54.72C22.7168 54.72 23.0401 55.0426 23.0401 55.44C23.0401 55.8374 22.7168 56.16 22.3201 56.16C21.9233 56.16 21.6001 55.8374 21.6001 55.44C21.6001 55.0426 21.9233 54.72 22.3201 54.72Z" fill="#068466"/>
</svg>
